<?xml version="1.0" encoding="utf-8"?>
<!-- Generator: Adobe Illustrator 25.0.1, SVG Export Plug-In . SVG Version: 6.00 Build 0)  -->
<svg version="1.1" id="Layer_1" xmlns="http://www.w3.org/2000/svg" xmlns:xlink="http://www.w3.org/1999/xlink" x="0px" y="0px"
	 viewBox="0 0 273.1 114.6" style="enable-background:new 0 0 273.1 114.6;" xml:space="preserve">
<style type="text/css">
	.st0{display:none;}
	.st1{display:inline;fill:#FFFFFF;}
	.st2{display:inline;fill:#F5F5F5;}
	.st3{display:inline;fill:#EBEBEB;}
	.st4{display:inline;fill:#E1E1E1;}
	.st5{display:inline;fill:#D7D7D7;}
	.st6{display:inline;fill:#CDCDCD;}
	.st7{display:inline;fill:#C3C3C3;}
	.st8{display:inline;fill:#B9B9B9;}
	.st9{display:inline;fill:#B0B0B0;}
	.st10{display:inline;fill:#A6A6A6;}
	.st11{display:inline;fill:#9C9C9C;}
	.st12{display:inline;fill:#929292;}
	.st13{display:inline;fill:#888888;}
	.st14{display:inline;fill:#7E7E7E;}
	.st15{display:inline;fill:#747474;}
	.st16{display:inline;fill:#6A6A6A;}
	.st17{display:inline;fill:#606060;}
	.st18{fill:#AFAFAF;}
	.st19{display:inline;fill:#3165B0;stroke:#003A55;stroke-width:0.5;stroke-miterlimit:10;}
	.st20{display:inline;fill:#295596;stroke:#003A55;stroke-width:0.5;stroke-miterlimit:10;}
	.st21{display:inline;opacity:0.5;fill:#3165B0;enable-background:new    ;}
	.st22{display:inline;}
	.st23{fill:#3165B0;stroke:#003A55;stroke-width:0.5;stroke-miterlimit:10;}
	.st24{fill:#3165B0;}
	.st25{fill:#00B1BD;stroke:#00A1E2;stroke-width:0.5;stroke-miterlimit:10;}
	.st26{fill:#E51E25;stroke:#98012C;stroke-width:0.5;stroke-miterlimit:10;}
	.st27{display:inline;opacity:0.2;fill:#FFFFFF;enable-background:new    ;}
	.st28{fill:#3D5AA8;}
	.st29{display:inline;opacity:0.4;fill:#FFFFFF;enable-background:new    ;}
	.st30{fill:#FFFFFF;}
	.st31{fill:#2A2C2D;stroke:#231F20;stroke-width:0.5;stroke-miterlimit:9.9996;}
	.st32{fill:#AAC6D1;stroke:#231F20;stroke-width:0.5;stroke-miterlimit:10;}
	.st33{fill:#AAC6D1;}
	.st34{opacity:0.5;}
	.st35{fill:#616264;}
	.st36{opacity:0.2;fill:#FFFFFF;enable-background:new    ;}
	.st37{fill:#EDEDEE;}
	.st38{fill:#D0D2D3;}
	.st39{fill:#B1B3B5;stroke:#231F20;stroke-width:0.5;stroke-miterlimit:10;}
	.st40{fill:#8AA5B3;stroke:#231F20;stroke-width:0.5;stroke-miterlimit:10;}
	.st41{opacity:0.4;fill:#FFFFFF;enable-background:new    ;}
	.st42{fill:#FFFFFF;stroke:#231F20;stroke-width:0.5;stroke-miterlimit:10;}
	.st43{fill:#2A2C2D;stroke:#231F20;stroke-width:0.5;stroke-miterlimit:10;}
	.st44{display:inline;fill:#FFFAC4;}
</style>
<g>
	<g class="st0">
		<path class="st1" d="M224.5,47.1h-0.1H224.5L224.5,47.1z M18.9,108.5h20.3c0.3,0.5,0.7,0.9,1,1.4l0.1,0.1c0.8,1,1.7,2,2.6,2.9
			L43,113c0.4,0.4,0.9,0.8,1.3,1.2l0.1,0.1c0.5,0.4,1,0.8,1.5,1.2c0,0,0.1,0,0.1,0.1c0.5,0.3,1,0.7,1.5,1l0.1,0.1l0.2,0.1
			c1,0.7,2.2,1.3,3.3,1.8l0.4,0.2c0.5,0.2,1,0.4,1.5,0.6l0.2,0.1c0.6,0.2,1.2,0.4,1.7,0.6l0.4,0.1c0.5,0.1,1,0.3,1.5,0.4l0.4,0.1
			c0.6,0.1,1.2,0.2,1.8,0.3h0.3c0.5,0.1,1,0.1,1.6,0.2h0.5c0.6,0,1.3,0.1,1.9,0.1c9.7,0,18.7-4.8,24.2-12.7h101.4
			c0.1,0.1,0.2,0.2,0.2,0.3l0.2,0.2c0.9,1.1,1.8,2.1,2.8,3.1l0.2,0.2c0.5,0.4,0.9,0.9,1.4,1.3l0.1,0.1c0.5,0.4,1.1,0.9,1.6,1.3
			l0.2,0.1c0.5,0.4,1,0.7,1.5,1l0.3,0.2c1.1,0.7,2.3,1.4,3.5,1.9l0.4,0.2c0.5,0.2,1.1,0.5,1.7,0.7l0.2,0.1c0.6,0.2,1.2,0.4,1.9,0.6
			l0.4,0.1c0.5,0.1,1.1,0.3,1.6,0.4l0.5,0.1c0.7,0.1,1.3,0.3,2,0.4l0.4,0.1c0.6,0.1,1.1,0.1,1.7,0.2c0.2,0,0.4,0,0.6,0
			c0.8,0.1,1.5,0.1,2.1,0.1c10.1,0,19.5-4.7,25.5-12.7H251c13,0.5,16.1-1.9,17.2-3.3c1.2-1.3,2.3-3.6,2.1-7.9v-3.9
			c0-2.7-1.5-5.6-4.4-7l-10.3-24.9c-0.1-0.1-0.1-0.3-0.2-0.4c-0.3-0.6-1.7-3-5.2-5.1l1.6-7l17.1,1.3c0.1,0,0.1,0,0.2,0
			c5.1,0.2,8.6-2,9.3-5.6c0.1-0.5,0.2-1.1,0.3-3.1c0-0.5,0-1.1-0.2-1.6c-0.8-3-3.4-4.5-5.9-4.5h-0.1c-0.1,0-0.3,0-0.4-0.1
			c0.2-3,0.3-6.5,0.4-8.7l4.5-2.4c1.5-0.8,2.4-2.3,2.5-4c0.1-1.8,0.1-3.3,0.1-4.4v-1.7c0.3-3.3-1-6-3.5-7.1
			c-2.3-1.1-2.4-1.1-27.3,8.6c-11.4,4.4-22.8,9-22.9,9.1c0,0-0.1,0-0.1,0.1c0,0-1.6,0.7-3.5,0.8c-1.9,0.1-9-0.2-13.1-0.4
			c-4.5-0.5-6.8,1.8-7.4,4.1c-0.1,0.5-0.2,1.1-0.4,2.7c-0.2,2.7-0.4,7-0.4,7.2c0,0,0,0,0,0.1l-2.7-0.9c-0.6-0.2-7.2-2.7-12.1-6.4
			c-15.2-11.4-28.6-13.9-37.1-13.9c-1.9,0-3.7,0.1-5.6,0.3c-2.4,0.3-4.2,2.3-4.2,4.7v23.2c-0.1,1.7-1.5,1.9-2.3,2
			c-2.6,0-29.3,0.3-46.3,4.3c-0.2-1.8-0.7-3.6-2.4-5c-2.4-2.1-5.5-1.7-7.6-1.3c-0.2,0-0.5,0.1-0.8,0.2l0,0c-0.3,0.1-0.6,0.2-0.9,0.3
			h-0.1c-0.3,0.1-0.6,0.2-0.9,0.3h-0.1c-0.3,0.1-0.6,0.3-0.9,0.4c0,0-0.1,0-0.1,0.1c-0.3,0.1-0.5,0.3-0.8,0.4l-0.2,0.1
			c-0.3,0.1-0.5,0.3-0.8,0.5h0.1c-0.2,0.2-0.5,0.3-0.7,0.5l-0.3,0.2c-0.2,0.2-0.4,0.3-0.6,0.5l-0.3,0.2c-0.2,0.2-0.4,0.3-0.6,0.5
			c-0.1,0.1-0.2,0.2-0.3,0.3c-0.2,0.2-0.3,0.3-0.5,0.5c-0.1,0.1-0.2,0.2-0.3,0.3l-0.1,0.1c-0.1,0.2-0.3,0.3-0.4,0.5l0,0
			c-6,1.5-25.6,6.8-43.9,22.5c-0.1,0-0.1,0.1-0.2,0.1c-0.2,0.1-0.3,0.3-0.5,0.5l-0.3,0.2c-0.5,0.4-1,0.9-1.5,1.3
			c-0.3,0.3-0.6,0.5-0.9,0.8l-0.6,0.6c-0.1,0.1-0.2,0.2-0.3,0.3c-0.9,0.8-1.8,1.7-2.6,2.6c-0.1,0.1-0.1,0.1-0.2,0.2l-0.3,0.3
			c-0.3,0.3-0.5,0.5-0.8,0.8l-0.2,0.2c-0.1,0.1-0.3,0.3-0.4,0.4s-0.1,0.2-0.2,0.3c-1,1.2-2.1,2.4-3,3.6c-1.4,1.2-2.7,2.4-3.9,3.6
			c-0.1,0.1-0.1,0.1-0.2,0.2c-1,1.1-5.7,6.6-3.3,12.3C10,108,15.6,108.8,18.9,108.5z"/>
		<path class="st2" d="M224.1,46.7H224H224.1L224.1,46.7z M18.5,108.1h20.3c0.3,0.5,0.7,0.9,1,1.4l0.1,0.1c0.8,1,1.7,2,2.6,2.9
			l0.1,0.1c0.4,0.4,0.9,0.8,1.3,1.2l0.1,0.1c0.5,0.4,1,0.8,1.5,1.2c0,0,0.1,0,0.1,0.1c0.5,0.3,1,0.7,1.5,1l0.1,0.1l0.2,0.1
			c1,0.7,2.2,1.3,3.3,1.8l0.4,0.2c0.5,0.2,1,0.4,1.5,0.6l0.2,0.1c0.6,0.2,1.2,0.4,1.7,0.6l0.4,0.1c0.5,0.1,1,0.3,1.5,0.4l0.4,0.1
			c0.6,0.1,1.2,0.2,1.8,0.3h0.3c0.5,0.1,1,0.1,1.6,0.2H61c0.6,0,1.3,0.1,1.9,0.1c9.7,0,18.7-4.8,24.2-12.7h101.4
			c0.1,0.1,0.2,0.2,0.2,0.3l0.2,0.2c0.9,1.1,1.8,2.1,2.8,3.1l0.2,0.2c0.5,0.4,0.9,0.9,1.4,1.3l0.1,0.1c0.5,0.4,1.1,0.9,1.6,1.3
			l0.2,0.1c0.5,0.4,1,0.7,1.5,1l0.3,0.2c1.1,0.7,2.3,1.4,3.5,1.9l0.4,0.2c0.5,0.2,1.1,0.5,1.7,0.7l0.2,0.1c0.6,0.2,1.2,0.4,1.9,0.6
			l0.4,0.1c0.5,0.1,1.1,0.3,1.6,0.4l0.5,0.1c0.7,0.1,1.3,0.3,2,0.4l0.4,0.1c0.6,0.1,1.1,0.1,1.7,0.2c0.2,0,0.4,0,0.6,0
			c0.8,0.1,1.5,0.1,2.1,0.1c10.1,0,19.5-4.7,25.5-12.7h11.1c13,0.5,16.1-1.9,17.2-3.3c1.2-1.3,2.3-3.6,2.1-7.9v-3.9
			c0-2.7-1.5-5.6-4.4-7l-10.3-24.9c-0.1-0.1-0.1-0.3-0.2-0.4c-0.3-0.6-1.7-3-5.2-5.1l1.6-7l17.1,1.3c0.1,0,0.1,0,0.2,0
			c5.1,0.2,8.6-2,9.3-5.6c0.1-0.5,0.2-1.1,0.3-3.1c0-0.5,0-1.1-0.2-1.6c-0.8-3-3.4-4.5-5.9-4.5h-0.1c-0.1,0-0.3,0-0.4-0.1
			c0.2-3,0.3-6.5,0.4-8.7l4.5-2.4c1.5-0.8,2.4-2.3,2.5-4c0.1-1.8,0.1-3.3,0.1-4.4v-1.7c0.3-3.3-1-6-3.5-7.1
			c-2.3-1.1-2.4-1.1-27.3,8.6c-11.4,4.4-22.8,9-22.9,9.1c0,0-0.1,0-0.2,0.1c0,0-1.6,0.7-3.5,0.8c-1.9,0.1-9-0.2-13.1-0.4
			c-4.5-0.5-6.8,1.8-7.4,4.1c-0.1,0.5-0.2,1.1-0.4,2.7c-0.2,2.7-0.4,7-0.4,7.2c0,0,0,0,0,0.1l-2.7-0.9c-0.6-0.2-7.2-2.7-12.1-6.4
			c-15.2-11.4-28.6-13.9-37.1-13.9c-1.9,0-3.7,0.1-5.6,0.3c-2.4,0.3-4.2,2.3-4.2,4.7v23.2c-0.1,1.7-1.5,1.9-2.3,2
			c-2.6,0-29.3,0.3-46.3,4.3c-0.2-1.8-0.7-3.6-2.4-5c-2.4-2.1-5.5-1.7-7.6-1.3c-0.2,0-0.5,0.1-0.8,0.2l0,0c-0.3,0.1-0.6,0.2-0.9,0.3
			h-0.1c-0.3,0.1-0.6,0.2-0.9,0.3h-0.1c-0.3,0.1-0.6,0.3-0.9,0.4c0,0-0.1,0-0.1,0.1c-0.3,0.1-0.5,0.3-0.8,0.4l-0.2,0.1
			c-0.3,0.1-0.5,0.3-0.8,0.5l-0.2,0.1c-0.2,0.2-0.5,0.3-0.7,0.5l-0.3,0.2c-0.2,0.2-0.4,0.3-0.6,0.5l-0.3,0.2
			c-0.2,0.2-0.4,0.3-0.6,0.5c-0.1,0.1-0.2,0.2-0.3,0.3c-0.2,0.2-0.3,0.3-0.5,0.5c-0.1,0.1-0.2,0.2-0.3,0.3l-0.1,0.1
			c-0.1,0.2-0.3,0.3-0.4,0.5l0,0c-6.2,1.4-25.5,7-44.1,22.4c-0.1,0-0.1,0.1-0.2,0.1c-0.2,0.2-0.3,0.3-0.5,0.5l-0.2,0.2
			c-0.5,0.4-1,0.9-1.5,1.3c-0.3,0.3-0.6,0.5-0.9,0.8L22.3,78c-0.1,0.1-0.2,0.2-0.3,0.3c-0.9,0.8-1.8,1.7-2.6,2.6
			c-0.1,0.1-0.1,0.1-0.2,0.2l-0.3,0.3c-0.3,0.3-0.5,0.5-0.8,0.8l-0.2,0.2c-0.1,0.1-0.3,0.3-0.4,0.4s-0.1,0.2-0.2,0.3
			c-1.2,1.3-2.2,2.5-3.2,3.7c-1.4,1.2-2.7,2.4-3.9,3.6c-0.1,0.1-0.1,0.1-0.2,0.2c-1,1.1-5.7,6.6-3.3,12.3
			C9.6,107.6,15.2,108.4,18.5,108.1z"/>
		<path class="st3" d="M223.7,46.3h-0.1H223.7L223.7,46.3z M18.1,107.7h20.3c0.3,0.5,0.7,0.9,1,1.4l0.1,0.1c0.8,1,1.7,2,2.6,2.9
			l0.1,0.1c0.4,0.4,0.9,0.8,1.3,1.2l0.1,0.1c0.5,0.4,1,0.8,1.5,1.2c0,0,0.1,0,0.1,0.1c0.5,0.3,1,0.7,1.5,1l0.1,0.1L47,116
			c1,0.7,2.2,1.3,3.3,1.8l0.4,0.2c0.5,0.2,1,0.4,1.5,0.6l0.2,0.1c0.6,0.2,1.2,0.4,1.7,0.6l0.4,0.1c0.5,0.1,1,0.3,1.5,0.4l0.4,0.1
			c0.6,0.1,1.2,0.2,1.8,0.3h0.3c0.5,0.1,1,0.1,1.6,0.2h0.5c0.6,0,1.3,0.1,1.9,0.1c9.7,0,18.7-4.8,24.2-12.7h101.4
			c0.1,0.1,0.2,0.2,0.2,0.3l0.2,0.2c0.9,1.1,1.8,2.1,2.8,3.1l0.2,0.2c0.5,0.4,0.9,0.9,1.4,1.3l0.1,0.1c0.5,0.4,1.1,0.9,1.6,1.3
			l0.2,0.1c0.5,0.4,1,0.7,1.5,1l0.3,0.2c1.1,0.7,2.3,1.4,3.5,1.9l0.4,0.2c0.5,0.2,1.1,0.5,1.7,0.7l0.2,0.1c0.6,0.2,1.2,0.4,1.9,0.6
			l0.4,0.1c0.5,0.1,1.1,0.3,1.6,0.4l0.5,0.1c0.7,0.1,1.3,0.3,2,0.4l0.4,0.1c0.6,0.1,1.1,0.1,1.7,0.2c0.2,0,0.4,0,0.6,0
			c0.8,0.1,1.5,0.1,2.1,0.1c10.1,0,19.5-4.7,25.5-12.7h11.1c13,0.5,16.1-1.9,17.2-3.3c1.2-1.3,2.3-3.6,2.1-7.9v-3.9
			c0-2.7-1.5-5.6-4.4-7l-10.3-24.9c-0.1-0.1-0.1-0.3-0.2-0.4c-0.3-0.6-1.7-3-5.2-5.1l1.6-7l17.1,1.3c0.1,0,0.1,0,0.2,0
			c5.1,0.2,8.6-2,9.3-5.6c0.1-0.5,0.2-1.1,0.3-3.1c0-0.5,0-1.1-0.2-1.6c-0.8-3-3.4-4.5-5.9-4.5h-0.1c-0.1,0-0.3,0-0.4-0.1
			c0.2-3,0.3-6.5,0.4-8.7l4.5-2.4c1.5-0.8,2.4-2.3,2.5-4c0.1-1.8,0.1-3.3,0.1-4.4v-1.7c0.3-3.3-1-6-3.5-7.1
			C273,5.3,272.9,5.3,248,15c-11.4,4.4-22.8,9-22.9,9.1c0,0-0.1,0-0.1,0.1c0,0-1.6,0.7-3.5,0.8c-1.9,0.1-9-0.2-13.1-0.4
			c-4.5-0.5-6.8,1.8-7.4,4.1c-0.1,0.5-0.2,1.1-0.4,2.7c-0.2,2.7-0.4,7-0.4,7.2c0,0,0,0,0,0.1l-2.7-0.9c-0.6-0.2-7.2-2.7-12.1-6.4
			c-15.2-11.4-28.6-13.9-37.1-13.9c-1.9,0-3.7,0.1-5.6,0.3c-2.4,0.3-4.2,2.3-4.2,4.7v23.2c-0.1,1.7-1.5,1.9-2.3,2
			c-2.6,0-29.3,0.3-46.3,4.3c-0.2-1.8-0.7-3.6-2.4-5c-2.4-2.1-5.5-1.7-7.6-1.3c-0.2,0-0.5,0.1-0.8,0.2l0,0c-0.3,0.1-0.6,0.2-0.9,0.3
			h-0.1c-0.3,0.1-0.6,0.2-0.9,0.3h-0.1c-0.3,0.1-0.6,0.3-0.9,0.4c0,0-0.1,0-0.1,0.1c-0.3,0.1-0.5,0.3-0.8,0.4l-0.2,0.1
			c-0.3,0.1-0.5,0.3-0.8,0.5l-0.2,0.1c-0.2,0.2-0.5,0.3-0.7,0.5l-0.3,0.2c-0.2,0.2-0.4,0.3-0.6,0.5l-0.3,0.2
			c-0.2,0.2-0.4,0.3-0.6,0.5c-0.1,0.1-0.2,0.2-0.3,0.3c-0.2,0.2-0.3,0.3-0.5,0.5c-0.1,0.1-0.2,0.2-0.3,0.3l-0.1,0.1
			c-0.1,0.2-0.3,0.3-0.4,0.5l0,0c-6.2,1.4-25.5,7-44.1,22.4c-0.1,0-0.1,0.1-0.2,0.1c-0.2,0.2-0.3,0.3-0.5,0.5l0.2,0.2
			c-0.5,0.4-1,0.9-1.5,1.3c-0.3,0.3-0.6,0.5-0.9,0.8l-0.6,0.6c-0.1,0.1-0.2,0.2-0.3,0.3c-0.9,0.8-1.8,1.7-2.6,2.6
			c-0.1,0.1-0.1,0.1-0.2,0.2l-0.2,0.2c-0.3,0.3-0.5,0.5-0.8,0.8l-0.2,0.2c-0.1,0.1-0.3,0.3-0.4,0.4s-0.1,0.2-0.2,0.3
			c-1.2,1.3-2.2,2.5-3.2,3.7c-1.4,1.2-2.7,2.4-3.9,3.6c-0.1,0.1-0.1,0.1-0.2,0.2c-1,1.1-5.7,6.6-3.3,12.3
			C9.2,107.2,14.8,108,18.1,107.7z"/>
		<path class="st4" d="M223.3,45.8h-0.1H223.3L223.3,45.8z M17.6,107.2h20.3c0.3,0.5,0.7,0.9,1,1.4l0.1,0.1c0.8,1,1.7,2,2.6,2.9
			l0.1,0.1c0.4,0.4,0.9,0.8,1.3,1.2l0.1,0.1c0.5,0.4,1,0.8,1.5,1.2c0,0,0.1,0,0.1,0.1c0.5,0.3,1,0.7,1.5,1l0.1,0.1l0.2,0.1
			c1,0.7,2.2,1.3,3.3,1.8l0.4,0.2c0.5,0.2,1,0.4,1.5,0.6l0.2,0.1c0.6,0.2,1.2,0.4,1.7,0.6l0.4,0.1c0.5,0.1,1,0.3,1.5,0.4l0.4,0.1
			c0.6,0.1,1.2,0.2,1.8,0.3H58c0.5,0.1,1,0.1,1.6,0.2h0.5c0.6,0,1.3,0.1,1.9,0.1c9.7,0,18.7-4.8,24.2-12.7h101.4
			c0.1,0.1,0.2,0.2,0.2,0.3l0.2,0.2c0.9,1.1,1.8,2.1,2.8,3.1l0.2,0.2c0.5,0.4,0.9,0.9,1.4,1.3l0.1,0.1c0.5,0.4,1.1,0.9,1.6,1.3
			l0.2,0.1c0.5,0.4,1,0.7,1.5,1l0.3,0.2c1.1,0.7,2.3,1.4,3.5,1.9l0.4,0.2c0.5,0.2,1.1,0.5,1.7,0.7l0.2,0.1c0.6,0.2,1.2,0.4,1.9,0.6
			l0.4,0.1c0.5,0.1,1.1,0.3,1.6,0.4l0.5,0.1c0.7,0.1,1.3,0.3,2,0.4l0.4,0.1c0.6,0.1,1.1,0.1,1.7,0.2c0.2,0,0.4,0,0.6,0
			c0.8,0.1,1.5,0.1,2.1,0.1c10.1,0,19.5-4.7,25.5-12.7h11.1c13,0.5,16.1-1.9,17.2-3.3c1.2-1.3,2.3-3.6,2.1-7.9v-3.9
			c0-2.7-1.5-5.6-4.4-7l-10.3-24.9c-0.1-0.1-0.1-0.3-0.2-0.4c-0.3-0.6-1.7-3-5.2-5.1l1.6-7l17.1,1.3c0.1,0,0.1,0,0.2,0
			c5.1,0.2,8.6-2,9.3-5.6c0.1-0.5,0.2-1.1,0.3-3.1c0-0.5,0-1.1-0.2-1.6c-0.8-3-3.4-4.5-5.9-4.5h-0.1c-0.1,0-0.3,0-0.4-0.1
			c0.2-3,0.3-6.5,0.4-8.7l4.5-2.4c1.5-0.8,2.4-2.3,2.5-4c0.1-1.8,0.1-3.3,0.1-4.4V13c0.3-3.3-1-6-3.5-7.1c-2.3-1.1-2.4-1.1-27.3,8.6
			c-11.4,4.4-22.8,9-22.9,9.1c0,0-0.1,0-0.1,0.1c0,0-1.6,0.7-3.5,0.8c-1.9,0.1-9-0.2-13.1-0.4c-4.5-0.5-6.8,1.8-7.4,4.1
			c-0.1,0.5-0.2,1.1-0.4,2.7c-0.2,2.7-0.4,7-0.4,7.2c0,0,0,0,0,0.1l-2.7-0.9c-0.6-0.2-7.2-2.7-12.1-6.4c-15.1-11.5-28.5-14-37-14
			c-1.9,0-3.7,0.1-5.6,0.3c-2.4,0.3-4.2,2.3-4.2,4.7v23.2c-0.1,1.7-1.5,1.9-2.3,2c-2.6,0-29.3,0.3-46.3,4.3c-0.2-1.8-0.7-3.6-2.4-5
			c-2.4-2.1-5.5-1.7-7.6-1.3c-0.2,0-0.5,0.1-0.8,0.2l0,0c-0.3,0.1-0.6,0.2-0.9,0.3h-0.1c-0.3,0.1-0.6,0.2-0.9,0.3h-0.1
			c-0.3,0.1-0.6,0.3-0.9,0.4c0,0-0.1,0-0.1,0.1c-0.3,0.1-0.5,0.3-0.8,0.4l-0.2,0.1c-0.3,0.1-0.5,0.3-0.8,0.5l-0.2,0.1
			c-0.2,0.2-0.5,0.3-0.7,0.5l-0.3,0.2c-0.2,0.2-0.4,0.3-0.6,0.5l-0.3,0.2c-0.2,0.2-0.4,0.3-0.6,0.5c-0.1,0.1-0.2,0.2-0.3,0.3
			c-0.2,0.2-0.3,0.3-0.5,0.5c-0.1,0.1-0.2,0.2-0.3,0.3L70,50.6c-0.1,0.2-0.3,0.3-0.4,0.5l0,0c-6.2,1.4-25.5,7-44.1,22.4
			c-0.1,0-0.1,0.1-0.2,0.1c-0.2,0.2-0.3,0.3-0.5,0.5l-0.2,0.2c-0.5,0.4-1,0.9-1.5,1.3c-0.3,0.3-0.6,0.5-0.9,0.8L21.6,77
			c-0.1,0.1-0.2,0.2-0.3,0.3c-0.9,0.8-1.8,1.7-2.6,2.6c-0.1,0.1-0.1,0.1-0.2,0.2l-0.3,0.3c-0.3,0.3-0.5,0.5-0.8,0.8l-0.2,0.2
			c-0.1,0.1-0.3,0.3-0.4,0.4s-0.1,0.2-0.2,0.3c-1.2,1.3-2.2,2.5-3.2,3.7c-1.4,1.2-2.7,2.4-3.9,3.6c-0.1,0.1-0.1,0.1-0.2,0.2
			c-1,1.1-5.7,6.6-3.3,12.3C8.8,106.8,14.4,107.6,17.6,107.2z"/>
		<path class="st5" d="M222.8,45.4h-0.1H222.8L222.8,45.4z M17.2,106.8h20.3c0.3,0.5,0.7,0.9,1,1.4l0.1,0.1c0.8,1,1.7,2,2.6,2.9
			l0.1,0.1c0.4,0.4,0.9,0.8,1.3,1.2l0.1,0.1c0.5,0.4,1,0.8,1.5,1.2c0,0,0.1,0,0.1,0.1c0.5,0.3,1,0.7,1.5,1l0.1,0.1l0.2,0.1
			c1,0.7,2.2,1.3,3.3,1.8l0.4,0.2c0.5,0.2,1,0.4,1.5,0.6l0.2,0.1c0.6,0.2,1.2,0.4,1.7,0.6l0.4,0.1c0.5,0.1,1,0.3,1.5,0.4l0.4,0.1
			c0.6,0.1,1.2,0.2,1.8,0.3h0.3c0.5,0.1,1,0.1,1.6,0.2h0.5c0.6,0,1.3,0.1,1.9,0.1c9.7,0,18.7-4.8,24.2-12.7h101.4
			c0.1,0.1,0.2,0.2,0.2,0.3l0.2,0.2c0.9,1.1,1.8,2.1,2.8,3.1l0.2,0.2c0.5,0.4,0.9,0.9,1.4,1.3l0.1,0.1c0.5,0.4,1.1,0.9,1.6,1.3
			l0.2,0.1c0.5,0.4,1,0.7,1.5,1l0.3,0.2c1.1,0.7,2.3,1.4,3.5,1.9l0.4,0.2c0.5,0.2,1.1,0.5,1.7,0.7l0.2,0.1c0.6,0.2,1.2,0.4,1.9,0.6
			l0.4,0.1c0.5,0.1,1.1,0.3,1.6,0.4l0.5,0.1c0.7,0.1,1.3,0.3,2,0.4l0.4,0.1c0.6,0.1,1.1,0.1,1.7,0.2c0.2,0,0.4,0,0.6,0
			c0.8,0.1,1.5,0.1,2.1,0.1c10.1,0,19.5-4.7,25.5-12.7h11.1c13,0.5,16.1-1.9,17.2-3.3c1.2-1.3,2.3-3.6,2.1-7.9v-3.9
			c0-2.7-1.5-5.6-4.4-7l-10.1-24.9c-0.1-0.1-0.1-0.3-0.2-0.4c-0.3-0.6-1.7-3-5.2-5.1l1.6-7l17.1,1.3c0.1,0,0.1,0,0.2,0
			c5.1,0.2,8.6-2,9.3-5.6c0.1-0.5,0.2-1.1,0.3-3.1c0-0.5,0-1.1-0.2-1.6c-0.8-3-3.4-4.5-5.9-4.5H271c-0.1,0-0.3,0-0.4-0.1
			c0.2-3,0.3-6.5,0.4-8.7l4.5-2.4c1.5-0.8,2.4-2.3,2.5-4c0.1-1.8,0.1-3.3,0.1-4.4v-1.7c0.3-3.3-1-6-3.5-7.1
			c-2.3-1.1-2.4-1.1-27.3,8.6c-11.4,4.4-22.8,9-22.9,9.1c0,0-0.1,0-0.1,0.1c0,0-1.6,0.7-3.5,0.8c-1.9,0.1-9-0.2-13.1-0.4
			c-4.5-0.5-6.8,1.8-7.4,4.1c-0.1,0.5-0.2,1.1-0.4,2.7c-0.2,2.7-0.4,7-0.4,7.2c0,0,0,0,0,0.1l-2.7-0.9c-0.6-0.2-7.2-2.7-12.1-6.4
			c-15.2-11.4-28.6-13.9-37.1-13.9c-1.9,0-3.7,0.1-5.6,0.3c-2.4,0.3-4.2,2.3-4.2,4.7v23.2c-0.1,1.7-1.5,1.9-2.3,2
			c-2.6,0-29.3,0.3-46.3,4.3c-0.2-1.8-0.7-3.6-2.4-5c-2.4-2.1-5.5-1.7-7.6-1.3c-0.2,0-0.5,0.1-0.8,0.2l0,0c-0.3,0.1-0.6,0.2-0.9,0.3
			h-0.1c-0.3,0.1-0.6,0.2-0.9,0.3h-0.1c-0.3,0.1-0.6,0.3-0.9,0.4c0,0-0.1,0-0.1,0.1c-0.3,0.1-0.5,0.3-0.8,0.4l-0.2,0.1
			c-0.3,0.1-0.5,0.3-0.8,0.5l-0.2,0.1c-0.2,0.2-0.5,0.3-0.7,0.5l-0.3,0.2c-0.2,0.2-0.4,0.3-0.6,0.5l-0.3,0.2
			c-0.2,0.2-0.4,0.3-0.6,0.5c-0.1,0.1-0.2,0.2-0.3,0.3c-0.2,0.2-0.3,0.3-0.5,0.5c-0.1,0.1-0.2,0.2-0.3,0.3l-0.1,0.1
			c-0.1,0.2-0.3,0.3-0.4,0.5l0,0c-6.2,1.4-25.5,7-44.1,22.4c-0.1,0-0.1,0.1-0.2,0.1c-0.2,0.2-0.3,0.3-0.5,0.5L24.3,74
			c-0.5,0.4-1,0.9-1.5,1.3c-0.3,0.3-0.6,0.5-0.9,0.8l-0.6,0.6c-0.1,0.1-0.2,0.2-0.3,0.3c-0.9,0.8-1.8,1.7-2.6,2.6
			c-0.1,0.1-0.1,0.1-0.2,0.2l-0.3,0.3c-0.3,0.3-0.5,0.5-0.8,0.8l-0.2,0.2c-0.1,0.1-0.3,0.3-0.4,0.4s-0.1,0.2-0.2,0.3
			c-1.2,1.3-2.2,2.5-3.2,3.7c-1.4,1.2-2.7,2.4-3.9,3.6c-0.1,0.1-0.1,0.1-0.2,0.2c-1,1.1-5.7,6.6-3.3,12.3
			C8.4,106.4,14,107.2,17.2,106.8z"/>
		<path class="st6" d="M222.4,45h-0.1H222.4L222.4,45z M16.8,106.4h20.3c0.3,0.5,0.7,0.9,1,1.4l0.1,0.1c0.8,1,1.7,2,2.6,2.9l0.1,0.1
			c0.4,0.4,0.9,0.8,1.3,1.2l0.1,0.1c0.5,0.4,1,0.8,1.5,1.2c0,0,0.1,0,0.1,0.1c0.5,0.3,1,0.7,1.5,1l0.1,0.1l0.2,0.1
			c1,0.7,2.2,1.3,3.3,1.8l0.4,0.2c0.5,0.2,1,0.4,1.5,0.6l0.2,0.1c0.6,0.2,1.2,0.4,1.7,0.6l0.4,0.1c0.5,0.1,1,0.3,1.5,0.4l0.4,0.1
			c0.6,0.1,1.2,0.2,1.8,0.3h0.3c0.5,0.1,1,0.1,1.6,0.2h0.5c0.6,0,1.3,0.1,1.9,0.1c9.7,0,18.7-4.8,24.2-12.7h101.4
			c0.1,0.1,0.2,0.2,0.2,0.3l0.2,0.2c0.9,1.1,1.8,2.1,2.8,3.1l0.2,0.2c0.5,0.4,0.9,0.9,1.4,1.3l0.1,0.1c0.5,0.4,1.1,0.9,1.6,1.3
			l0.2,0.1c0.5,0.4,1,0.7,1.5,1l0.3,0.2c1.1,0.7,2.3,1.4,3.5,1.9l0.4,0.2c0.5,0.2,1.1,0.5,1.7,0.7l0.2,0.1c0.6,0.2,1.2,0.4,1.9,0.6
			l0.4,0.1c0.5,0.1,1.1,0.3,1.6,0.4l0.5,0.1c0.7,0.1,1.3,0.3,2,0.4l0.4,0.1c0.6,0.1,1.1,0.1,1.7,0.2c0.2,0,0.4,0,0.6,0
			c0.8,0.1,1.5,0.1,2.1,0.1c10.1,0,19.5-4.7,25.5-12.7h11.1c13,0.5,16.1-1.9,17.2-3.3c1.2-1.3,2.3-3.6,2.1-7.9v-3.9
			c0-2.7-1.5-5.6-4.4-7l-10.3-24.9c-0.1-0.1-0.1-0.3-0.2-0.4c-0.3-0.6-1.7-3-5.2-5.1l1.6-7l17.1,1.3c0.1,0,0.1,0,0.2,0
			c5.1,0.2,8.6-2,9.3-5.6c0.1-0.5,0.2-1.1,0.3-3.1c0-0.5,0-1.1-0.2-1.6c-0.8-3-3.4-4.5-5.9-4.5h-0.1c-0.1,0-0.3,0-0.4-0.1
			c0.2-3,0.3-6.5,0.4-8.7l4.5-2.4c1.5-0.8,2.4-2.3,2.5-4c0.1-1.8,0.1-3.3,0.1-4.4v-1.7c0.3-3.3-1-6-3.5-7.1
			c-2.3-1.1-2.4-1.1-27.3,8.6c-11.4,4.4-22.8,9-22.9,9.1c0,0-0.1,0-0.1,0.1c0,0-1.6,0.7-3.5,0.8c-1.9,0.1-9-0.2-13.1-0.4
			c-4.5-0.5-6.8,1.8-7.4,4.1c-0.1,0.5-0.2,1.1-0.4,2.7c-0.2,2.7-0.4,7-0.4,7.2c0,0,0,0,0,0.1l-2.7-0.9c-0.6-0.2-7.2-2.7-12.1-6.4
			c-15.2-11.4-28.6-13.9-37.1-13.9c-1.9,0-3.7,0.1-5.6,0.3c-2.4,0.3-4.2,2.3-4.2,4.7v23.2c-0.1,1.7-1.5,1.9-2.3,2
			c-2.6,0-29.3,0.3-46.3,4.3c-0.2-1.8-0.7-3.6-2.4-5c-2.4-2.1-5.5-1.7-7.6-1.3c-0.2,0-0.5,0.1-0.8,0.2l0,0c-0.3,0.1-0.6,0.2-0.9,0.3
			h-0.1c-0.3,0.1-0.6,0.2-0.9,0.3h-0.1c-0.3,0.1-0.6,0.3-0.9,0.4c0,0-0.1,0-0.1,0.1c-0.3,0.1-0.5,0.3-0.8,0.4l-0.2,0.1
			c-0.3,0.1-0.5,0.3-0.8,0.5l-0.2,0.1c-0.2,0.2-0.5,0.3-0.7,0.5l0.1,0.1c-0.2,0.2-0.4,0.3-0.6,0.5l-0.3,0.2
			c-0.2,0.2-0.4,0.3-0.6,0.5c-0.1,0.1-0.2,0.2-0.3,0.3c-0.2,0.2-0.3,0.3-0.5,0.5c-0.1,0.1-0.2,0.2-0.3,0.3l-0.1,0.1
			c-0.1,0.2-0.3,0.3-0.4,0.5l0,0c-6.2,1.4-25.5,7-44.1,22.4c-0.1,0-0.1,0.1-0.2,0.1c-0.2,0.2-0.3,0.3-0.5,0.5l-0.1,0.3
			c-0.5,0.4-1,0.9-1.5,1.3c-0.3,0.3-0.6,0.5-0.9,0.8l-0.6,0.6c-0.1,0.1-0.2,0.2-0.3,0.3c-0.9,0.8-1.8,1.7-2.6,2.6
			c-0.1,0.1-0.1,0.1-0.2,0.2l-0.3,0.3c-0.3,0.3-0.5,0.5-0.8,0.8l-0.2,0.2c-0.1,0.1-0.3,0.3-0.4,0.4s-0.1,0.2-0.2,0.3
			C15,82.7,14,83.9,13,85.1c-1.4,1.2-2.7,2.4-3.9,3.6C9,88.8,9,88.8,8.9,88.9c-1,1.1-5.7,6.6-3.3,12.3
			C7.9,106,13.6,106.8,16.8,106.4z"/>
		<path class="st7" d="M222,44.6h-0.1H222L222,44.6z M16.4,106h20.3c0.3,0.5,0.7,0.9,1,1.4l0.1,0.1c0.8,1,1.7,2,2.6,2.9l0.1,0.1
			c0.4,0.4,0.9,0.8,1.3,1.2l0.1,0.1c0.5,0.4,1,0.8,1.5,1.2c0,0,0.1,0,0.1,0.1c0.5,0.3,1,0.7,1.5,1l0.1,0.1l0.2,0.1
			c1,0.7,2.2,1.3,3.3,1.8l0.4,0.2c0.5,0.2,1,0.4,1.5,0.6l0.2,0.1c0.6,0.2,1.2,0.4,1.7,0.6l0.4,0.1c0.5,0.1,1,0.3,1.5,0.4l0.4,0.1
			c0.6,0.1,1.2,0.2,1.8,0.3h0.3c0.5,0.1,1,0.1,1.6,0.2h0.5c0.6,0,1.3,0.1,1.9,0.1c9.7,0,18.7-4.8,24.2-12.7h101.4
			c0.1,0.1,0.2,0.2,0.2,0.3l0.2,0.2c0.9,1.1,1.8,2.1,2.8,3.1l0.2,0.2c0.5,0.4,0.9,0.9,1.4,1.3l0.1,0.1c0.5,0.4,1.1,0.9,1.6,1.3
			l0.2,0.1c0.5,0.4,1,0.7,1.5,1l0.3,0.2c1.1,0.7,2.3,1.4,3.5,1.9l0.4,0.2c0.5,0.2,1.1,0.5,1.7,0.7l0.2,0.1c0.6,0.2,1.2,0.4,1.9,0.6
			l0.4,0.1c0.5,0.1,1.1,0.3,1.6,0.4l0.5,0.1c0.7,0.1,1.3,0.3,2,0.4l0.4,0.1c0.6,0.1,1.1,0.1,1.7,0.2c0.2,0,0.4,0,0.6,0
			c0.8,0.1,1.5,0.1,2.1,0.1c10.1,0,19.5-4.7,25.5-12.7h11.1c13,0.5,16.1-1.9,17.2-3.3c1.2-1.3,2.3-3.6,2.1-7.9v-4
			c0-2.7-1.5-5.6-4.4-7L253.2,59c-0.1-0.1-0.1-0.3-0.2-0.4c-0.3-0.6-1.7-3-5.2-5.1l1.6-7l17.1,1.3c0.1,0,0.1,0,0.2,0
			c5.1,0.2,8.6-2,9.3-5.6c0.1-0.5,0.2-1.1,0.3-3.1c0-0.5,0-1.1-0.2-1.6c-0.8-3-3.4-4.5-5.9-4.5h-0.1c-0.1,0-0.3,0-0.4-0.1
			c0.2-3,0.3-6.5,0.4-8.7l4.5-2.4c1.5-0.8,2.4-2.3,2.5-4c0.1-1.8,0.1-3.3,0.1-4.4v-1.7c0.3-3.3-1-6-3.5-7.1
			c-2.3-1.1-2.4-1.1-27.3,8.6c-11.4,4.4-22.8,9-22.9,9.1c0,0-0.1,0-0.1,0.1c0,0-1.6,0.7-3.5,0.8c-1.9,0.1-9-0.2-13.1-0.4
			c-4.5-0.5-6.8,1.8-7.4,4.1c-0.1,0.5-0.2,1.1-0.4,2.7c-0.2,2.7-0.4,7-0.4,7.2c0,0,0,0,0,0.1l-2.7-0.9c-0.6-0.2-7.2-2.7-12.1-6.4
			c-15.2-11.4-28.6-13.9-37.1-13.9c-1.9,0-3.7,0.1-5.6,0.3c-2.4,0.3-4.2,2.3-4.2,4.7v23.2c-0.1,1.7-1.5,1.9-2.3,2
			c-2.6,0-29.3,0.3-46.3,4.3c-0.2-1.8-0.7-3.6-2.4-5c-2.4-2.1-5.5-1.7-7.6-1.3c-0.2,0-0.5,0.1-0.8,0.2l0,0c-0.3,0.1-0.6,0.2-0.9,0.3
			h-0.1c-0.3,0.1-0.6,0.2-0.9,0.3h-0.1c-0.3,0.1-0.6,0.3-0.9,0.4c0,0-0.1,0-0.1,0.1c-0.3,0.1-0.5,0.3-0.8,0.4l-0.2,0.1
			c-0.3,0.1-0.5,0.3-0.8,0.5l-0.2,0.1c-0.2,0.2-0.5,0.3-0.7,0.5L71.5,47c-0.2,0.2-0.4,0.3-0.6,0.5l-0.3,0.2
			c-0.2,0.2-0.4,0.3-0.6,0.5c-0.1,0.1-0.2,0.2-0.3,0.3c-0.2,0.2-0.3,0.3-0.5,0.5c-0.1,0.1-0.2,0.2-0.3,0.3l-0.1,0.1
			c-0.1,0.2-0.3,0.3-0.4,0.5l0,0c-6.2,1.4-25.5,7-44.1,22.4c-0.1,0-0.1,0.1-0.2,0.1c-0.2,0.2-0.3,0.3-0.5,0.5l-0.2,0.2
			c-0.5,0.4-1,0.9-1.5,1.3c-0.3,0.3-0.6,0.5-0.9,0.8l-0.2,0.7c-0.1,0.1-0.2,0.2-0.3,0.3c-0.9,0.8-1.8,1.7-2.6,2.6
			c-0.1,0.1-0.1,0.1-0.2,0.2l-0.3,0.3c-0.3,0.3-0.5,0.5-0.8,0.8l-0.2,0.2c-0.1,0.1-0.3,0.3-0.4,0.4s-0.1,0.2-0.2,0.3
			c-1.2,1.3-2.2,2.5-3.2,3.7c-1.4,1.2-2.7,2.4-3.9,3.6c-0.1,0.1-0.1,0.1-0.2,0.2c-1,1.1-5.7,6.6-3.3,12.3
			C7.5,105.5,13.1,106.3,16.4,106z"/>
		<path class="st8" d="M221.6,44.2h-0.1H221.6L221.6,44.2z M16,105.6h20.2c0.3,0.5,0.7,0.9,1,1.4l0.1,0.1c0.8,1,1.7,2,2.6,2.9
			l0.1,0.1c0.4,0.4,0.9,0.8,1.3,1.2l0.1,0.1c0.5,0.4,1,0.8,1.5,1.2c0,0,0.1,0,0.1,0.1c0.5,0.3,1,0.7,1.5,1l0.1,0.1l0.2,0.1
			c1,0.7,2.2,1.3,3.3,1.8l0.4,0.2c0.5,0.2,1,0.4,1.5,0.6l0.2,0.1c0.6,0.2,1.2,0.4,1.7,0.6l0.4,0.1c0.5,0.1,1,0.3,1.5,0.4l0.4,0.1
			c0.6,0.1,1.2,0.2,1.8,0.3h0.3c0.5,0.1,1,0.1,1.6,0.2h0.5c0.6,0,1.3,0.1,1.9,0.1c9.7,0,18.7-4.8,24.2-12.7h101.4
			c0.1,0.1,0.2,0.2,0.2,0.3l0.2,0.2c0.9,1.1,1.8,2.1,2.8,3.1l0.2,0.2c0.5,0.4,0.9,0.9,1.4,1.3l0.1,0.1c0.5,0.4,1.1,0.9,1.6,1.3
			l0.2,0.1c0.5,0.4,1,0.7,1.5,1l0.3,0.2c1.1,0.7,2.3,1.4,3.5,1.9l0.4,0.2c0.5,0.2,1.1,0.5,1.7,0.7l0.2,0.1c0.6,0.2,1.2,0.4,1.9,0.6
			l0.4,0.1c0.5,0.1,1.1,0.3,1.6,0.4l0.5,0.1c0.7,0.1,1.3,0.3,2,0.4l0.4,0.1c0.6,0.1,1.1,0.1,1.7,0.2c0.2,0,0.4,0,0.6,0
			c0.8,0.1,1.5,0.1,2.1,0.1c10.1,0,19.5-4.7,25.5-12.7h11.3c13,0.5,16.1-1.9,17.2-3.3c1.2-1.3,2.3-3.6,2.1-7.9v-3.9
			c0-2.7-1.5-5.6-4.4-7l-10.3-24.9c-0.1-0.1-0.1-0.3-0.2-0.4c-0.3-0.6-1.7-3-5.2-5.1l1.6-7l17.1,1.3c0.1,0,0.1,0,0.2,0
			c5.1,0.2,8.6-2,9.3-5.6c0.1-0.5,0.2-1.1,0.3-3.1c0-0.5,0-1.1-0.2-1.6c-0.8-3-3.4-4.5-5.9-4.5h-0.1c-0.1,0-0.3,0-0.4-0.1
			c0.2-3,0.3-6.5,0.4-8.7l4.5-2.4c1.5-0.8,2.4-2.3,2.5-4c0.1-1.8,0.1-3.3,0.1-4.4v-1.7c0.3-3.3-1-6-3.5-7.1
			c-2.3-1.1-2.4-1.1-27.3,8.6c-11.4,4.4-22.8,9-22.9,9.1c0,0-0.1,0-0.1,0.1c0,0-1.6,0.7-3.5,0.8c-1.9,0.1-9-0.2-13.1-0.4
			c-4.5-0.5-6.8,1.8-7.4,4.1c-0.1,0.5-0.2,1.1-0.4,2.7c-0.2,2.7-0.4,7-0.4,7.2c0,0,0,0,0,0.1l-2.7-0.9c-0.6-0.2-7.2-2.7-12.1-6.4
			c-15.2-11.4-28.6-13.9-37.1-13.9c-1.9,0-3.7,0.1-5.6,0.3c-2.4,0.3-4.2,2.3-4.2,4.7v23.2c-0.1,1.7-1.5,1.9-2.3,2
			c-2.6,0-29.3,0.3-46.3,4.3c-0.2-1.8-0.7-3.6-2.4-5c-2.4-2.1-5.5-1.7-7.6-1.3c-0.2,0-0.5,0.1-0.8,0.2l0,0c-0.3,0.1-0.6,0.2-0.9,0.3
			h-0.1c-0.3,0.1-0.6,0.2-0.9,0.3h-0.1c-0.3,0.1-0.6,0.3-0.9,0.4c0,0-0.1,0-0.1,0.1c-0.3,0.1-0.5,0.3-0.8,0.4h-0.1
			c-0.3,0.1-0.5,0.3-0.8,0.5l-0.2,0.1c-0.2,0.2-0.5,0.3-0.7,0.5l-0.3,0.2c-0.2,0.2-0.4,0.3-0.6,0.5l-0.3,0.2
			c-0.2,0.2-0.4,0.3-0.6,0.5c-0.1,0.1-0.2,0.2-0.3,0.3c-0.2,0.2-0.3,0.3-0.5,0.5c-0.1,0.1-0.2,0.2-0.3,0.3L68.5,49
			c-0.1,0.2-0.3,0.3-0.4,0.5l0,0c-6.2,1.4-25.5,7-44.1,22.4c-0.1,0-0.1,0.1-0.2,0.1c-0.2,0.2-0.3,0.3-0.5,0.5l-0.2,0.2
			c-0.5,0.4-1,0.9-1.5,1.3c-0.3,0.3-0.6,0.5-0.9,0.8l-0.6,0.6c-0.1,0.1-0.2,0.2-0.3,0.3c-0.9,0.8-1.8,1.7-2.6,2.6
			c-0.1,0.1-0.1,0.1-0.2,0.2l-0.3,0.3c-0.3,0.3-0.5,0.5-0.8,0.8l-0.2,0.2c-0.1,0.1-0.3,0.3-0.4,0.4s-0.1,0.2-0.2,0.3
			c-1.2,1.3-2.2,2.5-3.2,3.7c-1.4,1.2-2.7,2.4-3.9,3.6c-0.1,0.1-0.1,0.1-0.2,0.2c-1,1.1-5.7,6.6-3.3,12.3
			C7.1,105.1,12.7,105.9,16,105.6z"/>
		<path class="st9" d="M221.2,43.8h-0.1H221.2L221.2,43.8z M15.6,105.2h20.3c0.3,0.5,0.7,0.9,1,1.4l0.1,0.1c0.8,1,1.7,2,2.6,2.9
			l0.1,0.1c0.4,0.4,0.9,0.8,1.3,1.2l0.1,0.1c0.5,0.4,1,0.8,1.5,1.2c0,0,0.1,0,0.1,0.1c0.5,0.3,1,0.7,1.5,1l0.1,0.1l0.2,0.1
			c1,0.7,2.2,1.3,3.3,1.8l0.4,0.2c0.5,0.2,1,0.4,1.5,0.6l0.2,0.1c0.6,0.2,1.2,0.4,1.7,0.6l0.4,0.1c0.5,0.1,1,0.3,1.5,0.4l0.4,0.1
			c0.6,0.1,1.2,0.2,1.8,0.3H56c0.5,0.1,1,0.1,1.6,0.2h0.5c0.6,0,1.3,0.1,1.9,0.1c9.7,0,18.7-4.8,24.2-12.7h101.4
			c0.1,0.1,0.2,0.2,0.2,0.3l0.2,0.2c0.9,1.1,1.8,2.1,2.8,3.1l0.2,0.2c0.5,0.4,0.9,0.9,1.4,1.3l0.1,0.1c0.5,0.4,1.1,0.9,1.6,1.3
			l0.2,0.1c0.5,0.4,1,0.7,1.5,1l0.3,0.2c1.1,0.7,2.3,1.4,3.5,1.9l0.4,0.2c0.5,0.2,1.1,0.5,1.7,0.7l0.2,0.1c0.6,0.2,1.2,0.4,1.9,0.6
			l0.4,0.1c0.5,0.1,1.1,0.3,1.6,0.4l0.5,0.1c0.7,0.1,1.3,0.3,2,0.4l0.4,0.1c0.6,0.1,1.1,0.1,1.7,0.2c0.2,0,0.4,0,0.6,0
			c0.8,0.1,1.5,0.1,2.1,0.1c10.1,0,19.5-4.7,25.5-12.7h11.1c13,0.5,16.1-1.9,17.2-3.3c1.2-1.3,2.3-3.6,2.1-7.9v-3.9
			c0-2.7-1.5-5.6-4.4-7l-10.3-24.9c-0.1-0.1-0.1-0.3-0.2-0.4c-0.3-0.6-1.7-3-5.2-5.1l1.6-7l17.1,1.3c0.1,0,0.1,0,0.2,0
			c5.1,0.2,8.6-2,9.3-5.6c0.1-0.5,0.2-1.1,0.3-3.1c0-0.5,0-1.1-0.2-1.6c-0.8-3-3.4-4.5-5.9-4.5h-0.1c-0.1,0-0.3,0-0.4-0.1
			c0.2-3,0.3-6.5,0.4-8.7l4.5-2.4c1.5-0.8,2.4-2.3,2.5-4c0.1-1.8,0.1-3.3,0.1-4.4V11c0.3-3.3-1-6-3.5-7.1c-2.3-1.1-2.4-1.1-27.3,8.6
			c-11.4,4.4-22.8,9-22.9,9.1c0,0-0.1,0-0.1,0.1c0,0-1.6,0.7-3.5,0.8c-1.9,0.1-9-0.2-13.1-0.4c-4.5-0.5-6.8,1.8-7.4,4.1
			c-0.1,0.5-0.2,1.1-0.4,2.7c-0.2,2.7-0.4,7-0.4,7.2c0,0,0,0,0,0.1l-2.7-0.9c-0.6-0.2-7.2-2.7-12.1-6.4
			C167.7,17.5,154.3,15,145.8,15c-1.9,0-3.7,0.1-5.6,0.3c-2.4,0.3-4.2,2.3-4.2,4.7v23.2c-0.1,1.7-1.5,1.9-2.3,2
			c-2.6,0-29.3,0.3-46.3,4.3c-0.2-1.8-0.7-3.6-2.4-5c-2.4-2.1-5.5-1.7-7.6-1.3c-0.2,0-0.5,0.1-0.8,0.2l0,0c-0.3,0.1-0.6,0.2-0.9,0.3
			h-0.1c-0.3,0.1-0.6,0.2-0.9,0.3h-0.1c-0.3,0.1-0.6,0.3-0.9,0.4c0,0-0.1,0-0.1,0.1c-0.3,0.1-0.5,0.3-0.8,0.4l0,0
			c-0.3,0.1-0.5,0.3-0.8,0.5l-0.2,0.1c-0.2,0.2-0.5,0.3-0.7,0.5l-0.3,0.2c-0.2,0.2-0.4,0.3-0.6,0.5L70,46.9
			c-0.2,0.2-0.4,0.3-0.6,0.5c-0.1,0.1-0.2,0.2-0.3,0.3c-0.2,0.2-0.3,0.3-0.5,0.5c-0.1,0.1-0.2,0.2-0.3,0.3l-0.1,0.1
			c-0.1,0.2-0.3,0.3-0.4,0.5l0,0c-6.2,1.4-25.5,7-44.1,22.4c-0.1,0-0.1,0.1-0.2,0.1c-0.2,0.2-0.3,0.3-0.5,0.5l-0.2,0.2
			c-0.5,0.4-1,0.9-1.5,1.3c-0.3,0.3-0.6,0.5-0.9,0.8L19.8,75c-0.1,0.1-0.2,0.2-0.3,0.3c-0.9,0.8-1.8,1.7-2.6,2.6
			c-0.1,0.1-0.1,0.1-0.2,0.2l-0.3,0.3c-0.3,0.3-0.5,0.5-0.8,0.8l-0.2,0.2c-0.1,0.1-0.3,0.3-0.4,0.4s-0.1,0.2-0.2,0.3
			c-1.2,1.3-2.2,2.5-3.2,3.7c-1.4,1.2-2.7,2.4-3.9,3.6c-0.1,0.1-0.1,0.1-0.2,0.2c-1,1.1-5.7,6.6-3.3,12.3
			C6.7,104.7,12.3,105.5,15.6,105.2z"/>
		<path class="st10" d="M220.8,43.3h-0.1H220.8L220.8,43.3z M15.1,104.8h20.3c0.3,0.5,0.7,0.9,1,1.4l0.1,0.1c0.8,1,1.7,2,2.6,2.9
			l0.1,0.1c0.4,0.4,0.9,0.8,1.3,1.2l0.1,0.1c0.5,0.4,1,0.8,1.5,1.2c0,0,0.1,0,0.1,0.1c0.5,0.3,1,0.7,1.5,1l0.1,0.1l0.2,0.1
			c1,0.7,2.2,1.3,3.3,1.8l0.4,0.2c0.5,0.2,1,0.4,1.5,0.6l0.2,0.1c0.6,0.2,1.2,0.4,1.7,0.6l0.4,0.1c0.5,0.1,1,0.3,1.5,0.4l0.4,0.1
			c0.6,0.1,1.2,0.2,1.8,0.3h0.3c0.5,0.1,1,0.1,1.6,0.2h0.5c0.6,0,1.3,0.1,1.9,0.1c9.7,0,18.7-4.8,24.2-12.7h101.5
			c0.1,0.1,0.2,0.2,0.2,0.3l0.2,0.2c0.9,1.1,1.8,2.1,2.8,3.1l0.2,0.2c0.5,0.4,0.9,0.9,1.4,1.3l0.1,0.1c0.5,0.4,1.1,0.9,1.6,1.3
			l0.2,0.1c0.5,0.4,1,0.7,1.5,1l0.3,0.2c1.1,0.7,2.3,1.4,3.5,1.9l0.4,0.2c0.5,0.2,1.1,0.5,1.7,0.7l0.2,0.1c0.6,0.2,1.2,0.4,1.9,0.6
			l0.4,0.1c0.5,0.1,1.1,0.3,1.6,0.4l0.5,0.1c0.7,0.1,1.3,0.3,2,0.4l0.4,0.1c0.6,0.1,1.1,0.1,1.7,0.2c0.2,0,0.4,0,0.6,0
			c0.8,0.1,1.5,0.1,2.1,0.1c10.1,0,19.5-4.7,25.5-12.7h11.1c13,0.5,16.1-1.9,17.2-3.3c1.2-1.3,2.3-3.6,2.1-7.9v-3.9
			c0-2.7-1.5-5.6-4.4-7l-10.3-24.9c-0.1-0.1-0.1-0.3-0.2-0.4c-0.3-0.6-1.7-3-5.2-5.1l1.6-7l17.1,1.3c0.1,0,0.1,0,0.2,0
			c5.1,0.2,8.6-2,9.3-5.6c0.1-0.5,0.2-1.1,0.3-3.1c0-0.5,0-1.1-0.2-1.6c-0.8-3-3.4-4.5-5.9-4.5h-0.1c-0.1,0-0.3,0-0.4-0.1
			c0.2-3,0.3-6.5,0.4-8.7l4.5-2.4c1.5-0.8,2.4-2.3,2.5-4c0.1-1.8,0.1-3.3,0.1-4.4v-1.7c0.3-3.3-1-6-3.5-7.1
			c-2.3-1.1-2.4-1.1-27.3,8.6c-11.4,4.4-22.8,9-22.9,9.1c0,0-0.1,0-0.1,0.1c0,0-1.6,0.7-3.5,0.8c-1.9,0.1-9-0.2-13.1-0.4
			c-4.5-0.5-6.8,1.8-7.4,4.1c-0.1,0.5-0.2,1.1-0.4,2.7c-0.2,2.7-0.4,7-0.4,7.2c0,0,0,0,0,0.1l-2.7-0.9c-0.6-0.2-7.2-2.7-12.1-6.4
			c-15.2-11.4-28.6-13.9-37.1-13.9c-1.9,0-3.7,0.1-5.6,0.3c-2.4,0.3-4.2,2.3-4.2,4.7v23.2c-0.1,1.7-1.5,1.9-2.3,2
			c-2.6,0-29.3,0.3-46.3,4.3c-0.2-1.8-0.7-3.6-2.4-5c-2.4-2.2-5.4-1.9-7.5-1.5c-0.2,0-0.5,0.1-0.8,0.2l0,0c-0.3,0.1-0.6,0.2-0.9,0.3
			h-0.1c-0.3,0.1-0.6,0.2-0.9,0.3h-0.1c-0.3,0.1-0.6,0.3-0.9,0.4c0,0-0.1,0-0.1,0.1c-0.3,0.1-0.5,0.3-0.8,0.4l-0.2,0.1
			c-0.3,0.1-0.5,0.3-0.8,0.5L71.3,45c-0.2,0.2-0.5,0.3-0.7,0.5l-0.3,0.2c-0.2,0.2-0.4,0.3-0.6,0.5l-0.3,0.2
			c-0.2,0.2-0.4,0.3-0.6,0.5c-0.1,0.1-0.2,0.2-0.3,0.3c-0.2,0.2-0.3,0.3-0.5,0.5c-0.1,0.1-0.2,0.2-0.3,0.3l-0.1,0.1
			c-0.1,0.2-0.3,0.3-0.4,0.5l0,0C61,50,41.7,55.6,23.1,71c-0.1,0-0.1,0.1-0.2,0.1c-0.2,0.2-0.3,0.3-0.5,0.5l-0.2,0.2
			c-0.5,0.4-1,0.9-1.5,1.3c-0.3,0.3-0.6,0.5-0.9,0.8l-0.6,0.6c-0.1,0.1-0.2,0.2-0.3,0.3c-0.9,0.8-1.8,1.7-2.6,2.6
			c-0.1,0.1-0.1,0.1-0.2,0.2l0.1,0.4c-0.3,0.3-0.5,0.5-0.8,0.8L15.2,79c-0.1,0.1-0.3,0.3-0.4,0.4s-0.1,0.2-0.2,0.3
			c-1.2,1.3-2.2,2.5-3.2,3.7C10,84.6,8.7,85.8,7.5,87c-0.1,0.1-0.1,0.1-0.2,0.2c-1,1.1-5.7,6.6-3.3,12.3
			C6.3,104.3,11.9,105.1,15.1,104.8z"/>
		<path class="st11" d="M220.3,42.9h-0.1H220.3L220.3,42.9z M14.7,104.3H35c0.3,0.5,0.7,0.9,1,1.4l0.1,0.1c0.8,1,1.7,2,2.6,2.9
			l0.1,0.1c0.4,0.4,0.9,0.8,1.3,1.2l0.1,0.1c0.5,0.4,1,0.8,1.5,1.2c0,0,0.1,0,0.1,0.1c0.5,0.3,1,0.7,1.5,1l0.1,0.1l0.2,0.1
			c1,0.7,2.2,1.3,3.3,1.8l0.4,0.2c0.5,0.2,1,0.4,1.5,0.6l0.2,0.1c0.6,0.2,1.2,0.4,1.7,0.6l0.4,0.1c0.5,0.1,1,0.3,1.5,0.4l0.4,0.1
			c0.6,0.1,1.2,0.2,1.8,0.3h0.3c0.5,0.1,1,0.1,1.6,0.2h0.5c0.6,0,1.3,0.1,1.9,0.1c9.7,0,18.7-4.8,24.2-12.7h101.4
			c0.1,0.1,0.2,0.2,0.2,0.3l0.2,0.2c0.9,1.1,1.8,2.1,2.8,3.1l0.2,0.2c0.5,0.4,0.9,0.9,1.4,1.3l0.1,0.1c0.5,0.4,1.1,0.9,1.6,1.3
			l0.2,0.1c0.5,0.4,1,0.7,1.5,1l0.3,0.2c1.1,0.7,2.3,1.4,3.5,1.9l0.4,0.2c0.5,0.2,1.1,0.5,1.7,0.7l0.2,0.1c0.6,0.2,1.2,0.4,1.9,0.6
			l0.4,0.1c0.5,0.1,1.1,0.3,1.6,0.4l0.5,0.1c0.7,0.1,1.3,0.3,2,0.4l0.4,0.1c0.6,0.1,1.1,0.1,1.7,0.2c0.2,0,0.4,0,0.6,0
			c0.8,0.1,1.5,0.1,2.1,0.1c10.1,0,19.5-4.7,25.5-12.7h11.1c13,0.5,16.1-1.9,17.2-3.3c1.2-1.3,2.3-3.6,2.1-7.9v-3.9
			c0-2.7-1.5-5.6-4.4-7l-10.3-24.9c-0.1-0.1-0.1-0.3-0.2-0.4c-0.3-0.6-1.7-3-5.2-5.1l1.6-7l17.1,1.3c0.1,0,0.1,0,0.2,0
			c5.1,0.2,8.6-2,9.3-5.6c0.1-0.5,0.2-1.1,0.3-3.1c0-0.5,0-1.1-0.2-1.6c-0.8-3-3.4-4.5-5.9-4.5h-0.1c-0.1,0-0.3,0-0.4-0.1
			c0.2-3,0.3-6.5,0.4-8.7l4.5-2.4c1.5-0.8,2.4-2.3,2.5-4c0.1-1.8,0.1-3.3,0.1-4.4v-1.7c0.3-3.3-1-6-3.5-7.1
			c-2.3-1.1-2.4-1.1-27.3,8.6c-11.4,4.4-22.8,9-22.9,9.1c0,0-0.1,0-0.1,0.1c0,0-1.6,0.7-3.5,0.8c-1.9,0.1-9-0.2-13.1-0.4
			c-4.5-0.5-6.8,1.8-7.4,4.1c-0.1,0.5-0.2,1.1-0.4,2.7c-0.2,2.7-0.4,7-0.4,7.2c0,0,0,0,0,0.1l-2.7-0.9c-0.6-0.2-7.2-2.7-12.1-6.4
			c-15.2-11.4-28.6-13.9-37.1-13.9c-1.9,0-3.7,0.1-5.6,0.3c-2.4,0.3-4.2,2.3-4.2,4.7v23.2c-0.1,1.7-1.5,1.9-2.3,2
			c-2.6,0-29.3,0.3-46.3,4.3c-0.2-1.8-0.7-3.6-2.4-5c-2.4-2.1-5.5-1.7-7.6-1.3c-0.2,0-0.5,0.1-0.8,0.2l0,0c-0.3,0.1-0.6,0.2-0.9,0.3
			h-0.1c-0.3,0.1-0.6,0.2-0.9,0.3h-0.1c-0.3,0.1-0.6,0.3-0.9,0.4c0,0-0.1,0-0.1,0.1c-0.3,0.1-0.5,0.3-0.8,0.4l-0.2,0.1
			c-0.3,0.1-0.5,0.3-0.8,0.5l-0.2,0.1c-0.2,0.2-0.5,0.3-0.7,0.5l-0.3,0.2c-0.2,0.2-0.4,0.3-0.6,0.5l0.1,0.2
			c-0.2,0.2-0.4,0.3-0.6,0.5c-0.1,0.1-0.2,0.2-0.3,0.3c-0.2,0.2-0.3,0.3-0.5,0.5c-0.1,0.1-0.2,0.2-0.3,0.3l-0.1,0.1
			c-0.1,0.2-0.3,0.3-0.4,0.5l0,0c-6.2,1.4-25.5,7-44.1,22.4c-0.1,0-0.1,0.1-0.2,0.1c-0.2,0.2-0.3,0.3-0.5,0.5L22,71.5
			c-0.5,0.4-1,0.9-1.5,1.3c-0.3,0.3-0.6,0.5-0.9,0.8L19,74.2c-0.1,0.1-0.2,0.2-0.3,0.3c-0.9,0.8-1.8,1.7-2.6,2.6
			c-0.1,0.1-0.1,0.1-0.2,0.2l-0.3,0.3c-0.3,0.3-0.5,0.5-0.8,0.8l-0.2,0.2c-0.1,0.1-0.3,0.3-0.4,0.4s-0.1,0.2-0.2,0.3
			c-1.2,1.3-2.2,2.5-3.2,3.7c-1.4,1.2-2.7,2.4-3.9,3.6c-0.1,0.1-0.1,0.1-0.2,0.2c-1,1.1-5.7,6.6-3.3,12.3
			C5.9,103.9,11.5,104.7,14.7,104.3z"/>
		<path class="st12" d="M219.9,42.5h-0.1H219.9L219.9,42.5z M14.3,103.9h20.3c0.3,0.5,0.7,0.9,1,1.4l0.1,0.1c0.8,1,1.7,2,2.6,2.9
			l0.1,0.1c0.4,0.4,0.9,0.8,1.3,1.2l0.1,0.1c0.5,0.4,1,0.8,1.5,1.2c0,0,0.1,0,0.1,0.1c0.5,0.3,1,0.7,1.5,1l0.1,0.1l0.2,0.1
			c1,0.7,2.2,1.3,3.3,1.8l0.4,0.2c0.5,0.2,1,0.4,1.5,0.6l0.2,0.1c0.6,0.2,1.2,0.4,1.7,0.6l0.4,0.1c0.5,0.1,1,0.3,1.5,0.4l0.4,0.1
			c0.6,0.1,1.2,0.2,1.8,0.3h0.3c0.5,0.1,1,0.1,1.6,0.2h0.5c0.6,0,1.3,0.1,1.9,0.1c9.7,0,18.7-4.8,24.2-12.7h101.4
			c0.1,0.1,0.2,0.2,0.2,0.3l0.2,0.2c0.9,1.1,1.8,2.1,2.8,3.1l0.2,0.2c0.5,0.4,0.9,0.9,1.4,1.3l0.1,0.1c0.5,0.4,1.1,0.9,1.6,1.3
			l0.2,0.1c0.5,0.4,1,0.7,1.5,1l0.3,0.2c1.1,0.7,2.3,1.4,3.5,1.9l0.4,0.2c0.5,0.2,1.1,0.5,1.7,0.7l0.2,0.1c0.6,0.2,1.2,0.4,1.9,0.6
			l0.4,0.1c0.5,0.1,1.1,0.3,1.6,0.4l0.5,0.1c0.7,0.1,1.3,0.3,2,0.4l0.4,0.1c0.6,0.1,1.1,0.1,1.7,0.2c0.2,0,0.4,0,0.6,0
			c0.8,0.1,1.5,0.1,2.1,0.1c10.1,0,19.5-4.7,25.5-12.7h11.1c13,0.5,16.1-1.9,17.2-3.3c1.2-1.3,2.3-3.6,2.1-7.9v-3.9
			c0-2.7-1.5-5.6-4.4-7L251.2,57c-0.1-0.1-0.1-0.3-0.2-0.4c-0.3-0.6-1.7-3-5.2-5.1l1.6-7l17.1,1.3c0.1,0,0.1,0,0.2,0
			c5.1,0.2,8.6-2,9.3-5.6c0.1-0.5,0.2-1.1,0.3-3.1c0-0.5,0-1.1-0.2-1.6c-0.8-3-3.4-4.5-5.9-4.5h-0.1c-0.1,0-0.3,0-0.4-0.1
			c0.2-3,0.3-6.5,0.4-8.7l4.5-2.4c1.5-0.8,2.4-2.3,2.5-4c0.1-1.8,0.1-3.3,0.1-4.4V9.7c0.3-3.3-1-6-3.5-7.1
			c-2.3-1.1-2.4-1.1-27.3,8.6c-11.4,4.4-22.8,9-22.9,9.1c0,0-0.1,0-0.1,0.1c0,0-1.6,0.7-3.5,0.8c-1.9,0.1-9-0.2-13.1-0.4
			c-4.5-0.5-6.8,1.8-7.4,4.1c-0.1,0.5-0.2,1.1-0.4,2.7c-0.2,2.7-0.4,7-0.4,7.2c0,0,0,0,0,0.1l-2.7-0.9c-0.6-0.2-7.2-2.7-12.1-6.4
			c-15.2-11.4-28.6-13.9-37.1-13.9c-1.9,0-3.7,0.1-5.6,0.3c-2.4,0.3-4.2,2.3-4.2,4.7v23.2c-0.1,1.7-1.5,1.9-2.3,2
			c-2.6,0-29.3,0.3-46.3,4.3c-0.2-1.8-0.7-3.6-2.4-5c-2.4-2.1-5.5-1.7-7.6-1.3c-0.2,0-0.5,0.1-0.8,0.2l0,0c-0.3,0.1-0.6,0.2-0.9,0.3
			h-0.1c-0.3,0.1-0.6,0.2-0.9,0.3h-0.1c-0.3,0.1-0.6,0.3-0.9,0.4c0,0-0.1,0-0.1,0.1c-0.3,0.1-0.5,0.3-0.8,0.4l-0.2,0.1
			c-0.3,0.1-0.5,0.3-0.8,0.5l-0.2,0.1c-0.2,0.2-0.5,0.3-0.7,0.5l-0.1,0.1c-0.2,0.2-0.4,0.3-0.6,0.5l-0.3,0.2
			c-0.2,0.2-0.4,0.3-0.6,0.5c-0.1,0.1-0.2,0.2-0.3,0.3c-0.2,0.2-0.3,0.3-0.5,0.5c-0.1,0.1-0.2,0.2-0.3,0.3L67,47.3
			c-0.1,0.2-0.3,0.3-0.4,0.5l0,0c-6.2,1.4-25.5,7-44.1,22.4c-0.1,0-0.1,0.1-0.2,0.1c-0.2,0.2-0.3,0.3-0.5,0.5L21.6,71
			c-0.5,0.4-1,0.9-1.5,1.3c-0.3,0.3-0.6,0.5-0.9,0.8l-0.6,0.6c-0.1,0.1-0.2,0.2-0.3,0.3c-0.9,0.8-1.8,1.7-2.6,2.6
			c-0.1,0.1-0.1,0.1-0.2,0.2l-0.3,0.3c-0.3,0.3-0.5,0.5-0.8,0.8l-0.2,0.2c-0.1,0.1-0.3,0.3-0.4,0.4s-0.1,0.2-0.2,0.3
			c-1.2,1.3-2.2,2.5-3.2,3.7c-1.4,1.2-2.7,2.4-3.9,3.6c-0.1,0.1-0.1,0.1-0.2,0.2c-1,1.1-5.7,6.6-3.3,12.3
			C5.4,103.5,11.1,104.3,14.3,103.9z"/>
		<path class="st13" d="M219.5,42.1h-0.1H219.5L219.5,42.1z M13.9,103.5h20.3c0.3,0.5,0.7,0.9,1,1.4l0.1,0.1c0.8,1,1.7,2,2.6,2.9
			L38,108c0.4,0.4,0.9,0.8,1.3,1.2l0.1,0.1c0.5,0.4,1,0.8,1.5,1.2c0,0,0.1,0,0.1,0.1c0.5,0.3,1,0.7,1.5,1l0.1,0.1l0.2,0.1
			c1,0.7,2.2,1.3,3.3,1.8l0.4,0.2c0.5,0.2,1,0.4,1.5,0.6l0.2,0.1c0.6,0.2,1.2,0.4,1.7,0.6l0.4,0.1c0.5,0.1,1,0.3,1.5,0.4l0.4,0.1
			c0.6,0.1,1.2,0.2,1.8,0.3h0.3c0.5,0.1,1,0.1,1.6,0.2h0.5c0.6,0,1.3,0.1,1.9,0.1c9.7,0,18.7-4.8,24.2-12.7h101.4
			c0.1,0.1,0.2,0.2,0.2,0.3l0.2,0.2c0.9,1.1,1.8,2.1,2.8,3.1l0.2,0.2c0.5,0.4,0.9,0.9,1.4,1.3l0.1,0.1c0.5,0.4,1.1,0.9,1.6,1.3
			l0.2,0.1c0.5,0.4,1,0.7,1.5,1l0.3,0.2c1.1,0.7,2.3,1.4,3.5,1.9l0.4,0.2c0.5,0.2,1.1,0.5,1.7,0.7l0.2,0.1c0.6,0.2,1.2,0.4,1.9,0.6
			l0.4,0.1c0.5,0.1,1.1,0.3,1.6,0.4l0.5,0.1c0.7,0.1,1.3,0.3,2,0.4l0.4,0.1c0.6,0.1,1.1,0.1,1.7,0.2c0.2,0,0.4,0,0.6,0
			c0.8,0.1,1.5,0.1,2.1,0.1c10.1,0,19.5-4.7,25.5-12.7H246c13,0.5,16.1-1.9,17.2-3.3c1.2-1.3,2.3-3.6,2.1-7.9v-3.9
			c0-2.7-1.5-5.6-4.4-7l-10.3-24.9c-0.1-0.1-0.1-0.3-0.2-0.4c-0.3-0.6-1.7-3-5.2-5.1l1.6-7l17.1,1.3c0.1,0,0.1,0,0.2,0
			c5.1,0.2,8.6-2,9.3-5.6c0.1-0.5,0.2-1.1,0.3-3.1c0-0.5,0-1.1-0.2-1.6c-0.8-3-3.4-4.5-5.9-4.5h-0.1c-0.1,0-0.3,0-0.4-0.1
			c0.2-3,0.3-6.5,0.4-8.7l4.5-2.4c1.5-0.8,2.4-2.3,2.5-4c0.1-1.8,0.1-3.3,0.1-4.4V9.3c0.3-3.3-1-6-3.5-7.1
			c-2.3-1.1-2.4-1.1-27.3,8.6c-11.4,4.4-22.8,9-22.9,9.1c0,0-0.1,0-0.1,0.1c0,0-1.6,0.7-3.5,0.8c-1.9,0.1-9-0.2-13.1-0.4
			c-4.5-0.5-6.8,1.8-7.4,4.1c-0.1,0.5-0.2,1.1-0.4,2.7c-0.2,2.7-0.4,7-0.4,7.2c0,0,0,0,0,0.1l-2.7-0.9c-0.6-0.2-7.2-2.7-12.1-6.4
			c-15.2-11.4-28.6-13.9-37.1-13.9c-1.9,0-3.7,0.1-5.6,0.3c-2.4,0.3-4.2,2.3-4.2,4.7v23.2c-0.1,1.7-1.5,1.9-2.3,2
			c-2.6,0-29.3,0.3-46.3,4.3c-0.2-1.8-0.7-3.6-2.4-5c-2.4-2.1-5.5-1.7-7.6-1.3c-0.2,0-0.5,0.1-0.8,0.2l0,0c-0.3,0.1-0.6,0.2-0.9,0.3
			h-0.1c-0.3,0.1-0.6,0.2-0.9,0.3h-0.1c-0.3,0.1-0.6,0.3-0.9,0.4c0,0-0.1,0-0.1,0.1c-0.3,0.1-0.5,0.3-0.8,0.4l-0.2,0.1
			c-0.3,0.1-0.5,0.3-0.8,0.5h0.1c-0.2,0.2-0.5,0.3-0.7,0.5l-0.3,0.2c-0.2,0.2-0.4,0.3-0.6,0.5l-0.3,0.2c-0.2,0.2-0.4,0.3-0.6,0.5
			c-0.1,0.1-0.2,0.2-0.3,0.3c-0.2,0.2-0.3,0.3-0.5,0.5c-0.1,0.1-0.2,0.2-0.3,0.3l-0.1,0.1c-0.1,0.2-0.3,0.3-0.4,0.5l0,0
			c-6,1.5-25.3,7.1-43.9,22.5c-0.1,0-0.1,0.1-0.2,0.1c-0.2,0.2-0.3,0.3-0.5,0.5l-0.2,0.2c-0.5,0.4-1,0.9-1.5,1.3
			c-0.3,0.3-0.6,0.5-0.9,0.8l-0.6,0.6c-0.1,0.1-0.2,0.2-0.3,0.3c-0.9,0.8-1.8,1.7-2.6,2.6c-0.1,0.1-0.1,0.1-0.2,0.2l-0.3,0.3
			c-0.3,0.3-0.5,0.5-0.8,0.8l-0.2,0.2c-0.1,0.1-0.3,0.3-0.4,0.4s-0.1,0.2-0.2,0.3c-1.1,1.2-2.2,2.4-3.1,3.6
			c-1.4,1.2-2.7,2.4-3.9,3.6c-0.1,0.1-0.1,0.1-0.2,0.2c-1,1.1-5.7,6.6-3.3,12.3C5,103.1,10.6,103.8,13.9,103.5z"/>
		<path class="st14" d="M219.1,41.7H219H219.1L219.1,41.7z M13.5,103.1h20.3c0.3,0.5,0.7,0.9,1,1.4l0.1,0.1c0.8,1,1.7,2,2.6,2.9
			l0.1,0.1c0.4,0.4,0.9,0.8,1.3,1.2l0.1,0.1c0.5,0.4,1,0.8,1.5,1.2c0,0,0.1,0,0.1,0.1c0.5,0.3,1,0.7,1.5,1l0.1,0.1l0.2,0.1
			c1,0.7,2.2,1.3,3.3,1.8l0.4,0.2c0.5,0.2,1,0.4,1.5,0.6l0.2,0.1c0.6,0.2,1.2,0.4,1.7,0.6l0.4,0.1c0.5,0.1,1,0.3,1.5,0.4l0.4,0.1
			c0.6,0.1,1.2,0.2,1.8,0.3h0.3c0.5,0.1,1,0.1,1.6,0.2H56c0.6,0,1.3,0.1,1.9,0.1c9.7,0,18.7-4.8,24.2-12.7h101.4
			c0.1,0.1,0.2,0.2,0.2,0.3l0.2,0.2c0.9,1.1,1.8,2.1,2.8,3.1l0.2,0.2c0.5,0.4,0.9,0.9,1.4,1.3l0.1,0.1c0.5,0.4,1.1,0.9,1.6,1.3
			l0.2,0.1c0.5,0.4,1,0.7,1.5,1l0.3,0.2c1.1,0.7,2.3,1.4,3.5,1.9l0.4,0.2c0.5,0.2,1.1,0.5,1.7,0.7l0.2,0.1c0.6,0.2,1.2,0.4,1.9,0.6
			l0.4,0.1c0.5,0.1,1.1,0.3,1.6,0.4l0.5,0.1c0.7,0.1,1.3,0.3,2,0.4l0.4,0.1c0.6,0.1,1.1,0.1,1.7,0.2c0.2,0,0.4,0,0.6,0
			c0.8,0.1,1.5,0.1,2.1,0.1c10.1,0,19.5-4.7,25.5-12.7h11.1c13,0.5,16.1-1.9,17.2-3.3c1.2-1.3,2.3-3.6,2.1-7.9v-3.9
			c0-2.7-1.5-5.6-4.4-7l-10.3-24.9c-0.1-0.1-0.1-0.3-0.2-0.4c-0.3-0.6-1.7-3-5.2-5.1l1.6-7l17.1,1.3c0.1,0,0.1,0,0.2,0
			c5.1,0.2,8.6-2,9.3-5.6c0.1-0.5,0.2-1.1,0.3-3.1c0-0.5,0-1.1-0.2-1.6c-0.8-3-3.4-4.5-5.9-4.5h-0.1c-0.1,0-0.3,0-0.4-0.1
			c0.2-3,0.3-6.5,0.4-8.7l4.5-2.4c1.5-0.8,2.4-2.3,2.5-4c0.1-1.8,0.1-3.3,0.1-4.4V8.9c0.3-3.3-1-6-3.5-7.1
			c-2.3-1.1-2.4-1.1-27.3,8.6c-11.4,4.4-22.8,9-22.9,9.1c0,0-0.1,0-0.2,0.1c0,0-1.6,0.7-3.5,0.8c-1.9,0.1-9-0.2-13.1-0.4
			c-4.5-0.5-6.8,1.8-7.4,4.1c-0.1,0.5-0.2,1.1-0.4,2.7c-0.2,2.7-0.4,7-0.4,7.2c0,0,0,0,0,0.1l-2.7-0.9c-0.6-0.2-7.2-2.7-12.1-6.4
			c-15.2-11.4-28.6-13.9-37.1-13.9c-1.9,0-3.7,0.1-5.6,0.3c-2.4,0.3-4.2,2.3-4.2,4.7v23.2c-0.1,1.7-1.5,1.9-2.3,2
			c-2.6,0-29.3,0.3-46.3,4.3c-0.2-1.8-0.7-3.6-2.4-5c-2.4-2.1-5.5-1.7-7.6-1.3c-0.2,0-0.5,0.1-0.8,0.2l0,0c-0.3,0.1-0.6,0.2-0.9,0.3
			h-0.1c-0.3,0.1-0.6,0.2-0.9,0.3h-0.1c-0.3,0.1-0.6,0.3-0.9,0.4c0,0-0.1,0-0.1,0.1c-0.3,0.1-0.5,0.3-0.8,0.4l-0.2,0.1
			c-0.3,0.1-0.5,0.3-0.8,0.5l-0.2,0.1c-0.2,0.2-0.5,0.3-0.7,0.5l-0.3,0.2c-0.2,0.2-0.4,0.3-0.6,0.5l-0.3,0.2
			c-0.2,0.2-0.4,0.3-0.6,0.5c-0.1,0.1-0.2,0.2-0.3,0.3c-0.2,0.2-0.3,0.3-0.5,0.5c-0.1,0.1-0.2,0.2-0.3,0.3l-0.1,0.1
			c-0.1,0.2-0.3,0.3-0.4,0.5l0,0c-6.2,1.4-25.5,7-44.1,22.4c-0.1,0-0.1,0.1-0.2,0.1c-0.2,0.2-0.3,0.3-0.5,0.5l-0.2,0.2
			c-0.5,0.4-1,0.9-1.5,1.3c-0.3,0.3-0.6,0.5-0.9,0.8L17.3,73c-0.1,0.1-0.2,0.2-0.3,0.3c-0.9,0.8-1.8,1.7-2.6,2.6
			c-0.1,0.1-0.1,0.1-0.2,0.2l-0.3,0.3c-0.3,0.3-0.5,0.5-0.8,0.8l-0.2,0.2c-0.1,0.1-0.3,0.3-0.4,0.4s-0.1,0.2-0.2,0.3
			c-1.2,1.3-2.2,2.5-3.2,3.7c-1.4,1.2-2.7,2.4-3.9,3.6c-0.1,0.1-0.1,0.1-0.2,0.2c-1,1.1-5.7,6.6-3.3,12.3
			C4.6,102.6,10.2,103.4,13.5,103.1z"/>
		<path class="st15" d="M218.7,41.3h-0.1H218.7L218.7,41.3z M13.1,102.7h20.3c0.3,0.5,0.7,0.9,1,1.4l0.1,0.1c0.8,1,1.7,2,2.6,2.9
			l0.1,0.1c0.4,0.4,0.9,0.8,1.3,1.2l0.1,0.1c0.5,0.4,1,0.8,1.5,1.2c0,0,0.1,0,0.1,0.1c0.5,0.3,1,0.7,1.5,1l0.1,0.1L42,111
			c1,0.7,2.2,1.3,3.3,1.8l0.4,0.2c0.5,0.2,1,0.4,1.5,0.6l0.2,0.1c0.6,0.2,1.2,0.4,1.7,0.6l0.4,0.1c0.5,0.1,1,0.3,1.5,0.4l0.4,0.1
			c0.6,0.1,1.2,0.2,1.8,0.3h0.3c0.5,0.1,1,0.1,1.6,0.2h0.5c0.6,0,1.3,0.1,1.9,0.1c9.7,0,18.7-4.8,24.2-12.7h101.4
			c0.1,0.1,0.2,0.2,0.2,0.3l0.2,0.2c0.9,1.1,1.8,2.1,2.8,3.1l0.2,0.2c0.5,0.4,0.9,0.9,1.4,1.3l0.1,0.1c0.5,0.4,1.1,0.9,1.6,1.3
			l0.2,0.1c0.5,0.4,1,0.7,1.5,1l0.3,0.2c1.1,0.7,2.3,1.4,3.5,1.9l0.4,0.2c0.5,0.2,1.1,0.5,1.7,0.7l0.2,0.1c0.6,0.2,1.2,0.4,1.9,0.6
			l0.4,0.1c0.5,0.1,1.1,0.3,1.6,0.4l0.5,0.1c0.7,0.1,1.3,0.3,2,0.4l0.4,0.1c0.6,0.1,1.1,0.1,1.7,0.2c0.2,0,0.4,0,0.6,0
			c0.8,0.1,1.5,0.1,2.1,0.1c10.1,0,19.5-4.7,25.5-12.7h11.1c13,0.5,16.1-1.9,17.2-3.3c1.2-1.3,2.3-3.6,2.1-7.9v-3.9
			c0-2.7-1.5-5.6-4.4-7l-10.3-24.9c-0.1-0.1-0.1-0.3-0.2-0.4c-0.3-0.6-1.7-3-5.2-5.1l1.6-7l17.1,1.3c0.1,0,0.1,0,0.2,0
			c5.1,0.2,8.6-2,9.3-5.6c0.1-0.5,0.2-1.1,0.3-3.1c0-0.5,0-1.1-0.2-1.6c-0.8-3-3.4-4.5-5.9-4.5h-0.1c-0.1,0-0.3,0-0.4-0.1
			c0.2-3,0.3-6.5,0.4-8.7l4.5-2.4c1.5-0.8,2.4-2.3,2.5-4c0.1-1.8,0.1-3.3,0.1-4.4V8.5c0.3-3.3-1-6-3.5-7.1C268,0.3,267.9,0.3,243,10
			c-11.4,4.4-22.8,9-22.9,9.1c0,0-0.1,0-0.1,0.1c0,0-1.6,0.7-3.5,0.8c-1.9,0.1-9-0.2-13.1-0.4c-4.5-0.5-6.8,1.8-7.4,4.1
			c-0.1,0.5-0.2,1.1-0.4,2.7c-0.2,2.7-0.4,7-0.4,7.2c0,0,0,0,0,0.1l-2.7-0.9c-0.6-0.2-7.2-2.7-12.1-6.4
			c-15.2-11.4-28.6-13.9-37.1-13.9c-1.9,0-3.7,0.1-5.6,0.3c-2.4,0.3-4.2,2.3-4.2,4.7v23.2c-0.1,1.7-1.5,1.9-2.3,2
			c-2.6,0-29.3,0.3-46.3,4.3c-0.2-1.8-0.7-3.6-2.4-5c-2.4-2.1-5.5-1.7-7.6-1.3c-0.2,0-0.5,0.1-0.8,0.2l0,0c-0.3,0.1-0.6,0.2-0.9,0.3
			h-0.1c-0.3,0.1-0.6,0.2-0.9,0.3h-0.1c-0.3,0.1-0.6,0.3-0.9,0.4c0,0-0.1,0-0.1,0.1c-0.3,0.1-0.5,0.3-0.8,0.4l-0.2,0.1
			c-0.3,0.1-0.5,0.3-0.8,0.5l-0.2,0.1c-0.2,0.2-0.5,0.3-0.7,0.5l-0.3,0.2c-0.2,0.2-0.4,0.3-0.6,0.5l-0.3,0.2
			c-0.2,0.2-0.4,0.3-0.6,0.5c-0.1,0.1-0.2,0.2-0.3,0.3c-0.2,0.2-0.3,0.3-0.5,0.5c-0.1,0.1-0.2,0.2-0.3,0.3l-0.1,0.1
			c-0.1,0.2-0.3,0.3-0.4,0.5l0,0c-6.2,1.4-25.5,7-44.1,22.4c-0.1,0-0.1,0.1-0.2,0.1c-0.2,0.2-0.3,0.3-0.5,0.5l0.2,0.2
			c-0.5,0.4-1,0.9-1.5,1.3c-0.3,0.3-0.6,0.5-0.9,0.8l-0.6,0.6c-0.1,0.1-0.2,0.2-0.3,0.3c-0.9,0.8-1.8,1.7-2.6,2.6
			c-0.1,0.1-0.1,0.1-0.2,0.2l-0.2,0.2c-0.3,0.3-0.5,0.5-0.8,0.8l-0.1,0.2c-0.1,0.1-0.3,0.3-0.4,0.4s-0.1,0.2-0.2,0.3
			c-1.2,1.3-2.2,2.5-3.2,3.7c-1.4,1.2-2.7,2.4-3.9,3.6C5.4,85,5.4,85,5.3,85.1c-1,1.1-5.7,6.6-3.3,12.3
			C4.2,102.2,9.8,103,13.1,102.7z"/>
		<path class="st16" d="M218.3,40.9h-0.1H218.3L218.3,40.9z M12.6,102.3h20.3c0.3,0.5,0.7,0.9,1,1.4l0.1,0.1c0.8,1,1.7,2,2.6,2.9
			l0.1,0.1c0.4,0.4,0.9,0.8,1.3,1.2l0.1,0.1c0.5,0.4,1,0.8,1.5,1.2c0,0,0.1,0,0.1,0.1c0.5,0.3,1,0.7,1.5,1l0.1,0.1l0.2,0.1
			c1,0.7,2.2,1.3,3.3,1.8l0.4,0.2c0.5,0.2,1,0.4,1.5,0.6l0.2,0.1c0.6,0.2,1.2,0.4,1.7,0.6L49,114c0.5,0.1,1,0.3,1.5,0.4l0.4,0.1
			c0.6,0.1,1.2,0.2,1.8,0.3H53c0.5,0.1,1,0.1,1.6,0.2h0.5c0.6,0,1.3,0.1,1.9,0.1c9.7,0,18.7-4.8,24.2-12.7h101.4
			c0.1,0.1,0.2,0.2,0.2,0.3l0.2,0.2c0.9,1.1,1.8,2.1,2.8,3.1l0.2,0.2c0.5,0.4,0.9,0.9,1.4,1.3l0.1,0.1c0.5,0.4,1.1,0.9,1.6,1.3
			l0.2,0.1c0.5,0.4,1,0.7,1.5,1l0.3,0.2c1.1,0.7,2.3,1.4,3.5,1.9l0.4,0.2c0.5,0.2,1.1,0.5,1.7,0.7l0.2,0.1c0.6,0.2,1.2,0.4,1.9,0.6
			l0.4,0.1c0.5,0.1,1.1,0.3,1.6,0.4l0.5,0.1c0.7,0.1,1.3,0.3,2,0.4l0.4,0.1c0.6,0.1,1.1,0.1,1.7,0.2c0.2,0,0.4,0,0.6,0
			c0.8,0.1,1.5,0.1,2.1,0.1c10.1,0,19.5-4.7,25.5-12.7h11.1c13,0.5,16.1-1.9,17.2-3.3c1.2-1.3,2.3-3.6,2.1-7.9v-3.9
			c0-2.7-1.5-5.6-4.4-7l-10.3-24.9c-0.1-0.1-0.1-0.3-0.2-0.4c-0.3-0.6-1.7-3-5.2-5.1l1.6-7l17.1,1.3c0.1,0,0.1,0,0.2,0
			c5.1,0.2,8.6-2,9.3-5.6c0.1-0.5,0.2-1.1,0.3-3.1c0-0.5,0-1.1-0.2-1.6c-0.8-3-3.4-4.5-5.9-4.5h-0.1c-0.1,0-0.3,0-0.4-0.1
			c0.2-3,0.3-6.5,0.4-8.7l4.5-2.4c1.5-0.8,2.4-2.3,2.5-4c0.1-1.8,0.1-3.3,0.1-4.4V8.1c0.3-3.3-1-6-3.5-7.1
			c-2.3-1.1-2.4-1.1-27.3,8.6c-11.4,4.4-22.8,9-22.9,9.1c0,0-0.1,0-0.1,0.1c0,0-1.6,0.7-3.5,0.8c-1.9,0.1-9-0.2-13.1-0.4
			c-4.5-0.5-6.8,1.8-7.4,4.1c-0.1,0.5-0.2,1.1-0.4,2.7c-0.2,2.7-0.4,7-0.4,7.2c0,0,0,0,0,0.1l-2.7-0.9c-0.6-0.2-7.2-2.7-12.1-6.4
			c-15.1-11.6-28.5-14.1-37-14.1c-1.9,0-3.7,0.1-5.6,0.3c-2.4,0.3-4.2,2.3-4.2,4.7v23.2c-0.1,1.7-1.5,1.9-2.3,2
			c-2.6,0-29.3,0.3-46.3,4.3c-0.2-1.8-0.7-3.6-2.4-5c-2.4-2.1-5.5-1.7-7.6-1.3c-0.2,0-0.5,0.1-0.8,0.2l0,0c-0.3,0.1-0.6,0.2-0.9,0.3
			h-0.1c-0.3,0.1-0.6,0.2-0.9,0.3h-0.1c-0.3,0.1-0.6,0.3-0.9,0.4c0,0-0.1,0-0.1,0.1c-0.3,0.1-0.5,0.3-0.8,0.4l-0.2,0.1
			c-0.3,0.1-0.5,0.3-0.8,0.5l-0.2,0.1c-0.2,0.2-0.5,0.3-0.7,0.5l-0.3,0.2c-0.2,0.2-0.4,0.3-0.6,0.5l-0.3,0.2
			c-0.2,0.2-0.4,0.3-0.6,0.5c-0.1,0.1-0.2,0.2-0.3,0.3c-0.2,0.2-0.3,0.3-0.5,0.5c-0.1,0.1-0.2,0.2-0.3,0.3L65,45.6
			c-0.1,0.2-0.3,0.3-0.4,0.5l0,0c-6.2,1.4-25.5,7-44.1,22.4c-0.1,0-0.1,0.1-0.2,0.1c-0.2,0.2-0.3,0.3-0.5,0.5l-0.2,0.2
			c-0.5,0.4-1,0.9-1.5,1.3c-0.3,0.3-0.6,0.5-0.9,0.8L16.6,72c-0.1,0.1-0.2,0.2-0.3,0.3c-0.9,0.8-1.8,1.7-2.6,2.6
			c-0.1,0.1-0.1,0.1-0.2,0.2l-0.3,0.3c-0.3,0.3-0.5,0.5-0.8,0.8l-0.2,0.2c-0.1,0.1-0.3,0.3-0.4,0.4s-0.1,0.2-0.2,0.3
			c-1.2,1.3-2.2,2.5-3.2,3.7C7,82,5.7,83.2,4.5,84.4c-0.1,0.1-0.1,0.1-0.2,0.2c-1,1.1-5.7,6.6-3.3,12.3
			C3.8,101.8,9.4,102.6,12.6,102.3z"/>
		<path class="st17" d="M217.9,40.4h-0.1H217.9L217.9,40.4z M12.2,101.8h20.3c0.3,0.5,0.7,0.9,1,1.4l0.1,0.1c0.8,1,1.7,2,2.6,2.9
			l0.1,0.1c0.4,0.4,0.9,0.8,1.3,1.2l0.1,0.1c0.5,0.4,1,0.8,1.5,1.2c0,0,0.1,0,0.1,0.1c0.5,0.3,1,0.7,1.5,1l0.1,0.1l0.2,0.1
			c1,0.7,2.2,1.3,3.3,1.8l0.4,0.2c0.5,0.2,1,0.4,1.5,0.6l0.2,0.1c0.6,0.2,1.2,0.4,1.7,0.6l0.4,0.1c0.5,0.1,1,0.3,1.5,0.4l0.4,0.1
			c0.6,0.1,1.2,0.2,1.8,0.3h0.3c0.5,0.1,1,0.1,1.6,0.2h0.5c0.6,0,1.3,0.1,1.9,0.1c9.7,0,18.7-4.8,24.2-12.7h101.4
			c0.1,0.1,0.2,0.2,0.2,0.3l0.2,0.2c0.9,1.1,1.8,2.1,2.8,3.1l0.2,0.2c0.5,0.4,0.9,0.9,1.4,1.3l0.1,0.1c0.5,0.4,1.1,0.9,1.6,1.3
			l0.2,0.1c0.5,0.4,1,0.7,1.5,1l0.3,0.2c1.1,0.7,2.3,1.4,3.5,1.9l0.4,0.2c0.5,0.2,1.1,0.5,1.7,0.7l0.2,0.1c0.6,0.2,1.2,0.4,1.9,0.6
			l0.4,0.1c0.5,0.1,1.1,0.3,1.6,0.4l0.5,0.1c0.7,0.1,1.3,0.3,2,0.4l0.4,0.1c0.6,0.1,1.1,0.1,1.7,0.2c0.2,0,0.4,0,0.6,0
			c0.8,0.1,1.5,0.1,2.1,0.1c10.1,0,19.5-4.7,25.5-12.7h11.1c13,0.5,16.1-1.9,17.2-3.3c1.2-1.3,2.3-3.6,2.1-7.9v-3.9
			c0-2.7-1.5-5.6-4.4-7l-10.1-24.9c-0.1-0.1-0.1-0.3-0.2-0.4c-0.3-0.6-1.7-3-5.2-5.1l1.6-7l17.1,1.3c0.1,0,0.1,0,0.2,0
			c5.1,0.2,8.6-2,9.3-5.6c0.1-0.5,0.2-1.1,0.3-3.1c0-0.5,0-1.1-0.2-1.6c-0.8-3-3.4-4.5-5.9-4.5H266c-0.1,0-0.3,0-0.4-0.1
			c0.2-3,0.3-6.5,0.4-8.7l4.5-2.4c1.5-0.8,2.4-2.3,2.5-4c0.1-1.8,0.1-3.3,0.1-4.4V7.6c0.3-3.3-1-6-3.5-7.1
			c-2.3-1.1-2.4-1.1-27.3,8.6c-11.4,4.4-22.8,9-22.9,9.1c0,0-0.1,0-0.1,0.1c0,0-1.6,0.7-3.5,0.8c-1.9,0.1-9-0.2-13.1-0.4
			c-4.5-0.5-6.8,1.8-7.4,4.1c-0.1,0.5-0.2,1.1-0.4,2.7c-0.2,2.7-0.4,7-0.4,7.2c0,0,0,0,0,0.1l-2.7-0.9c-0.6-0.2-7.2-2.7-12.1-6.4
			c-15.2-11.4-28.6-13.9-37.1-13.9c-1.9,0-3.7,0.1-5.6,0.3c-2.4,0.3-4.2,2.3-4.2,4.7v23.2c-0.1,1.7-1.5,1.9-2.3,2
			c-2.6,0-29.3,0.3-46.3,4.3c-0.2-1.8-0.7-3.6-2.4-5c-2.4-2.1-5.5-1.7-7.6-1.3c-0.2,0-0.5,0.1-0.8,0.2l0,0c-0.3,0.1-0.6,0.2-0.9,0.3
			h-0.1c-0.3,0.1-0.6,0.2-0.9,0.3h-0.1c-0.3,0.1-0.6,0.3-0.9,0.4c0,0-0.1,0-0.1,0.1c-0.3,0.1-0.5,0.3-0.8,0.4l-0.2,0.1
			c-0.3,0.1-0.5,0.3-0.8,0.5l-0.2,0.1c-0.2,0.2-0.5,0.3-0.7,0.5l-0.3,0.2c-0.2,0.2-0.4,0.3-0.6,0.5l-0.3,0.2
			c-0.2,0.2-0.4,0.3-0.6,0.5c-0.1,0.1-0.2,0.2-0.3,0.3c-0.2,0.2-0.3,0.3-0.5,0.5c-0.1,0.1-0.2,0.2-0.3,0.3l-0.1,0.1
			c-0.1,0.2-0.3,0.3-0.4,0.5l0,0c-6.2,1.4-25.7,6.7-44.1,22.4c-0.1,0-0.1,0.1-0.2,0.1c-0.2,0.1-0.3,0.3-0.5,0.5L19.3,69
			c-0.5,0.4-1,0.9-1.5,1.3c-0.3,0.3-0.6,0.5-0.9,0.8l-0.6,0.6c-0.1,0.1-0.2,0.2-0.3,0.3c-0.9,0.8-1.8,1.7-2.6,2.6
			c-0.1,0.1-0.1,0.1-0.2,0.2l-0.3,0.3c-0.3,0.3-0.5,0.5-0.8,0.8l-0.2,0.2c-0.1,0.1-0.3,0.3-0.4,0.4s-0.1,0.2-0.2,0.3
			c-1.2,1.3-2.2,2.5-3.2,3.7c-1.4,1.2-2.7,2.4-3.9,3.6c-0.1,0.1-0.1,0.1-0.2,0.2c-1,1.1-5.7,6.6-3.3,12.3
			C3.4,101.4,9,102.2,12.2,101.8z"/>
	</g>
	<g>
		<path class="st18" d="M12.2,101.8h20.3c0.3,0.5,0.7,0.9,1,1.4l0.1,0.1c0.8,1,1.7,2,2.6,2.9l0.1,0.1c0.4,0.4,0.9,0.8,1.3,1.2
			l0.1,0.1c0.5,0.4,1,0.8,1.5,1.2c0,0,0.1,0,0.1,0.1c0.5,0.3,1,0.7,1.5,1l0.1,0.1l0.2,0.1c1,0.7,2.2,1.3,3.3,1.8l0.4,0.2
			c0.5,0.2,1,0.4,1.5,0.6l0.2,0.1c0.6,0.2,1.2,0.4,1.7,0.6l0.4,0.1c0.5,0.1,1,0.3,1.5,0.4l0.4,0.1c0.6,0.1,1.2,0.2,1.8,0.3h0.3
			c0.5,0.1,1,0.1,1.6,0.2h0.5c0.6,0,1.3,0.1,1.9,0.1c9.7,0,18.7-4.8,24.2-12.7h101.4c0.1,0.1,0.2,0.2,0.2,0.3l0.2,0.2
			c0.9,1.1,1.8,2.1,2.8,3.1l0.2,0.2c0.5,0.4,0.9,0.9,1.4,1.3l0.1,0.1c0.5,0.4,1.1,0.9,1.6,1.3l0.2,0.1c0.5,0.4,1,0.7,1.5,1l0.3,0.2
			c1.1,0.7,2.3,1.4,3.5,1.9l0.4,0.2c0.5,0.2,1.1,0.5,1.7,0.7l0.2,0.1c0.6,0.2,1.2,0.4,1.9,0.6l0.4,0.1c0.5,0.1,1.1,0.3,1.6,0.4
			l0.5,0.1c0.7,0.1,1.3,0.3,2,0.4l0.4,0.1c0.6,0.1,1.1,0.1,1.7,0.2c0.2,0,0.4,0,0.6,0c0.8,0.1,1.5,0.1,2.1,0.1
			c10.1,0,19.5-4.7,25.5-12.7h11.1c13,0.5,16.1-1.9,17.2-3.3c1.2-1.3,2.3-3.6,2.1-7.9v-3.9c0-2.7-1.5-5.6-4.4-7l-10.1-24.9
			c-0.1-0.1-0.1-0.3-0.2-0.4c-0.3-0.6-1.7-3-5.2-5.1l1.6-7l17.1,1.3c0.1,0,0.1,0,0.2,0c5.1,0.2,8.6-2,9.3-5.6
			c0.1-0.5,0.2-1.1,0.3-3.1c0-0.5,0-1.1-0.2-1.6c-0.8-3-3.4-4.5-5.9-4.5H266c-0.1,0-0.3,0-0.4-0.1c0.2-3,0.3-6.5,0.4-8.7l4.5-2.4
			c1.5-0.8,2.4-2.3,2.5-4c0.1-1.8,0.1-3.3,0.1-4.4V7.6c0.3-3.3-1-6-3.5-7.1c-2.3-1.1-2.4-1.1-27.3,8.6c-11.4,4.4-22.8,9-22.9,9.1
			c0,0-0.1,0-0.1,0.1c0,0-1.6,0.7-3.5,0.8c-1.9,0.1-9-0.2-13.1-0.4c-4.5-0.5-6.8,1.8-7.4,4.1c-0.1,0.5-0.2,1.1-0.4,2.7
			c-0.2,2.7-0.4,7-0.4,7.2c0,0,0,0,0,0.1l-2.7-0.9c-0.6-0.2-7.2-2.7-12.1-6.4c-15.2-11.4-28.6-13.9-37.1-13.9
			c-1.9,0-3.7,0.1-5.6,0.3c-2.4,0.3-4.2,2.3-4.2,4.7v23.2c-0.1,1.7-1.5,1.9-2.3,2c-2.6,0-29.3,0.3-46.3,4.3c-0.2-1.8-0.7-3.6-2.4-5
			c-2.4-2.1-5.5-1.7-7.6-1.3c-0.2,0-0.5,0.1-0.8,0.2l0,0c-0.3,0.1-0.6,0.2-0.9,0.3h-0.1c-0.3,0.1-0.6,0.2-0.9,0.3h-0.1
			c-0.3,0.1-0.6,0.3-0.9,0.4c0,0-0.1,0-0.1,0.1c-0.3,0.1-0.5,0.3-0.8,0.4l-0.2,0.1c-0.3,0.1-0.5,0.3-0.8,0.5l-0.2,0.1
			c-0.2,0.2-0.5,0.3-0.7,0.5l-0.3,0.2c-0.2,0.2-0.4,0.3-0.6,0.5l-0.3,0.2c-0.2,0.2-0.4,0.3-0.6,0.5c-0.1,0.1-0.2,0.2-0.3,0.3
			c-0.2,0.2-0.3,0.3-0.5,0.5c-0.1,0.1-0.2,0.2-0.3,0.3l-0.1,0.1c-0.1,0.2-0.3,0.3-0.4,0.5l0,0c-6.2,1.4-25.7,6.7-44.1,22.4
			c-0.1,0-0.1,0.1-0.2,0.1c-0.2,0.1-0.3,0.3-0.5,0.5L19.3,69c-0.5,0.4-1,0.9-1.5,1.3c-0.3,0.3-0.6,0.5-0.9,0.8l-0.6,0.6
			c-0.1,0.1-0.2,0.2-0.3,0.3c-0.9,0.8-1.8,1.7-2.6,2.6c-0.1,0.1-0.1,0.1-0.2,0.2l-0.3,0.3c-0.3,0.3-0.5,0.5-0.8,0.8l-0.2,0.2
			c-0.1,0.1-0.3,0.3-0.4,0.4s-0.1,0.2-0.2,0.3c-1.2,1.3-2.2,2.5-3.2,3.7c-1.4,1.2-2.7,2.4-3.9,3.6c-0.1,0.1-0.1,0.1-0.2,0.2
			c-1,1.1-5.7,6.6-3.3,12.3C3.4,101.4,9,102.2,12.2,101.8z M217.9,40.4h-0.1H217.9L217.9,40.4z"/>
		<g class="st0">
			<polygon class="st19" points="222,33.9 224.3,58.9 236.1,61.7 242.1,35 			"/>
			<polygon class="st20" points="223.8,33.9 225.7,54.5 235.4,56.9 240.3,34.8 			"/>
			<path class="st21" d="M222.8,42c4.9,2.7,9.8,5.3,14.3,8.9c0.4,0.3,0.8,0.7,1.3,1.1l3.8-17l-1.8-0.1v-0.1l-16.6-0.9V34l-1.8-0.1
				L222.8,42z"/>
			<g class="st22">
				<path class="st23" d="M227.8,24.5c6.5-3.2,36.8-14.2,36.8-14.2s1.7-0.8,3.7-1c0-1.2,0.1-1.9,0.1-1.9s0.2-2.1-0.7-2.5
					c-1-0.4-46.4,17.7-46.4,17.7s-2.3,1-5.2,1.2c-2.9,0.1-13.8-0.4-13.8-0.4s-2.2-0.3-2.4,0.6c-0.1,0.2-0.1,0.9-0.2,1.8l17.8,0.8
					C217.4,26.6,221.3,27.7,227.8,24.5z"/>
				<g>
					<path class="st24" d="M228.1,22.7c-6.6,3.3-10.6,2.1-10.6,2.1L199.8,24c-0.1,0.3-0.1,0.9-0.2,1.7l17.8,0.8
						c0,0,3.9,1.1,10.4-2.1s36.8-14.2,36.8-14.2s1.7-0.8,3.7-1c0-1,0-1.6,0-1.8c-1.7,0.3-3,0.9-3,0.9S234.7,19.5,228.1,22.7z"/>
				</g>
				<path class="st25" d="M265.9,33.8c0,0-2.6-0.3-4.2-0.6c-1.5-0.2-1-2-1-2s0.6-11.2,0.5-12.5s1-1.8,1-1.8l5.9-3.2
					c0.1-1.8,0.1-3.3,0.1-4.4c-2,0.2-3.7,1-3.7,1s-30.2,11-36.8,14.2c-6.5,3.2-10.4,2.1-10.4,2.1l-17.8-0.8c-0.2,2.6-0.4,7-0.4,7
					s0.2,1.3,1.2,1.5l62.4,4.7c0,0,4.1,0.1,4.5-1.8c0.1-0.3,0.1-1.2,0.2-2.5l0,0C267.2,33.6,265.9,33.8,265.9,33.8z"/>
			</g>
			<path class="st19" d="M259,86.8c0,0,0-2.9-3.2-3H11.9c-1.3,1.1-2.7,2.3-3.9,3.6c0,0-3.7,4.1-2.4,7.2C7,97.8,12,97.1,12,97.1
				h232.5c0,0,12.1,0.5,13.6-1.7c0,0,1.1-0.6,0.9-4.6V86.8z"/>
			<g class="st22">
				<path class="st26" d="M70.6,59.4c0,0,1.6,0.2,5.3-0.6c3.7-0.8,30.4-5.3,46.9-5.2c16.5,0.2,19.5-3.9,19.8-11.4
					c0.3-6.1-0.1-19-0.2-26c-1.6,0-3.3,0.1-5,0.3v23.3c0,0,0,6.2-6.8,6.7c0,0-32.5,0.2-49,5.1c0,0-2.4,0.5-2.2-2.9
					c0.1-3.3,0.1-5.3-4.3-4.4c-4.5,0.9-7.7,5.8-7.7,5.8S63.4,59.1,70.6,59.4z"/>
				<path class="st25" d="M255.9,83.7l-11.2-27c0,0-1.3-2.5-5.2-4.1l-49.3-16.3c0,0-7.6-2.7-13.4-7c-5.2-3.9-18.2-12.9-34.3-13
					c0.1,7,0.5,19.9,0.2,26c-0.4,7.4-3.3,11.5-19.8,11.4c-16.5-0.2-43.2,4.4-46.9,5.2c-3.7,0.8-5.3,0.6-5.3,0.6
					c-7.2-0.3-3.2-9.2-3.2-9.2S35.2,55.7,12,83.9h243.9L255.9,83.7L255.9,83.7z"/>
			</g>
			<g class="st22">
				<path class="st26" d="M70.6,59.4c0,0,1.6,0.2,5.3-0.6c3.7-0.8,30.4-5.3,46.9-5.2c16.5,0.2,19.5-3.9,19.8-11.4
					c0.3-6.1-0.1-19-0.2-26c-1.6,0-3.3,0.1-5,0.3v23.3c0,0,0,6.2-6.8,6.7c0,0-32.5,0.2-49,5.1c0,0-2.4,0.5-2.2-2.9
					c0.1-3.3,0.1-5.3-4.3-4.4c-4.5,0.9-7.7,5.8-7.7,5.8S63.4,59.1,70.6,59.4z"/>
				<path class="st25" d="M255.9,83.7l-11.2-27c0,0-1.3-2.5-5.2-4.1l-49.3-16.3c0,0-7.6-2.7-13.4-7c-5.2-3.9-18.2-12.9-34.3-13
					c0.1,7,0.5,19.9,0.2,26c-0.4,7.4-3.3,11.5-19.8,11.4c-16.5-0.2-43.2,4.4-46.9,5.2c-3.7,0.8-5.3,0.6-5.3,0.6
					c-7.2-0.3-3.2-9.2-3.2-9.2S35.2,55.7,12,83.9h243.9L255.9,83.7L255.9,83.7z"/>
			</g>
			<path class="st19" d="M70.6,59.4c0,0,1.6,0.2,5.3-0.6c3.7-0.8,30.4-5.3,46.9-5.2c16.5,0.2,19.5-3.9,19.8-11.4
				c0.3-6.1-0.1-19-0.2-26c-1.6,0-3.3,0.1-5,0.3v23.3c0,0,0,6.2-6.8,6.7c0,0-32.5,0.2-49,5.1c0,0-2.4,0.5-2.2-2.9
				c0.1-3.3,0.1-5.3-4.3-4.4c-3.7,0.8-7.9,4.2-8.7,9c-0.2,1.1-0.1,3.2,0.5,4.2C67.7,58.7,69.4,59.2,70.6,59.4z"/>
			<path class="st27" d="M77.3,85.5l106.6-0.3c0,0,0.2,6.9,6.7,10H72.7C72.7,95.3,76.9,93.7,77.3,85.5z"/>
			<path class="st27" d="M31.2,85.2c0,0-1.1,7.2,5.1,11H30c0,0-0.7-3.6-5.3-4l-13,0.5c0,0-4.2,0.1-3.6-1.3c0.7-1.4,3.4-6,5.9-6.5
				L31.2,85.2z"/>
			<path class="st27" d="M200.9,28.5c0,0-1.1,4.2,0.5,4.5l56.9,3.8c0,0,4,0.7,4.8-0.3s0.5-1.4,0.5-1.4l-5.5-0.2c0,0-1.5,1.1-1.5-2.7
				s0.6-13.1,0.6-13.1s0.4-2,1.8-3.3c1.5-1.3,6.5-4,6.5-4l-40.5,17c0,0-2.7,1.1-6.3,1.1C215.2,29.8,200.9,28.5,200.9,28.5z"/>
			<g class="st22">
				<path class="st28" d="M142.5,16.2c-1.6,0-3.3,0.1-5,0.3v3.4c3.2,0.5,3.3,16.5,2.4,23.6c-0.9,7.3-10.6,6.8-16.8,7
					c-6.2,0.2-35.4,3.3-40.6,4.2c-5.1,0.9-11,2.8-12.7-1.9c-1.3-3.8,3-7.1,4.8-8.4c-3.6,0.9-7.5,4.2-8.3,8.8
					c-0.2,1.1-0.1,3.2,0.5,4.2c0.8,1.2,2.5,1.8,3.8,1.9c0,0,1.6,0.2,5.3-0.6c3.7-0.8,30.4-5.3,46.9-5.2c16.5,0.2,19.5-3.9,19.8-11.4
					C143,36.1,142.6,23.2,142.5,16.2z"/>
			</g>
			<path class="st29" d="M78.3,49.9c0,0,1.2-4.3-1.4-4c-2.5,0.3-5.6,4.3-4,7C74.5,55.5,77.3,53.1,78.3,49.9z"/>
			<path class="st29" d="M138.3,39.2c0,0-0.4,6.2-4.1,7.2c0,0-0.8,0.3-0.6,0.6s2.4,0.5,3.8-1.6C138.8,43.2,138.7,38.2,138.3,39.2z"
				/>
			<path class="st27" d="M178.4,86.4l-96.2,0.2c0,0-1.1,0.3-0.4,1c0.7,0.6,94.3-0.4,94.3-0.4S179.3,87.5,178.4,86.4z"/>
			<path class="st27" d="M236.6,85.3h15c0,0,4.7-0.3,5.4,1.7l-0.1,5.6c0,0-0.3,2.2-3.1,2.7c-2.8,0.5-20.1,0.3-20.1,0.3
				S236.6,92.8,236.6,85.3z"/>
			<path class="st27" d="M254.9,20.9l-0.6,11c0,0-0.1,1.2-1.2,1.5s-26-1.8-26-1.8s-2.1-1,1.7-2.5s20.7-8.1,20.7-8.1
				S255.2,18.3,254.9,20.9z"/>
			<g class="st22">
				<path class="st30" d="M15.4,79.7h238.8l-0.7-1.6H17C16.5,78.6,16,79.1,15.4,79.7z"/>
				<path class="st30" d="M251,71.9H23.5c-1.2,1-2.4,2.1-3.6,3.3h232.4L251,71.9z"/>
			</g>
			<g class="st22">
				<ellipse class="st31" cx="207.8" cy="82.5" rx="27.3" ry="27.3"/>
				<path class="st32" d="M229.3,82.6c0,11.8-9.6,21.3-21.3,21.3c-11.8,0-21.3-9.6-21.3-21.3c0-11.8,9.6-21.3,21.3-21.3
					C219.7,61.3,229.3,70.8,229.3,82.6z"/>
				<path class="st33" d="M218.4,89.9c-7,0.4-14.5,0.3-21.2-1.9c-3.5-1.1-6.9-2.6-9.4-5.4c-0.4-0.5-0.8-0.9-1.2-1.4
					c0,0.5,0,0.9,0,1.4c0,11.8,9.6,21.3,21.3,21.3c9.7,0,17.9-6.5,20.5-15.4C225.1,89.3,221.7,89.7,218.4,89.9z"/>
				<g class="st34">
					<path class="st35" d="M208.5,55.2c0.5,0.1,0.9,0.2,1.4,0.3c31.4,5.7,26.5,44.4,5.5,49.7c-17.8,4.5-29.1-7.1-32.1-10.7
						c4.5,9,13.7,15.2,24.5,15.2c15.1,0,27.3-12.2,27.3-27.3C235.1,67.7,223.3,55.6,208.5,55.2z"/>
				</g>
				<path class="st36" d="M209.5,56.6c-2-0.1-4.1,0.1-6,0.5c-1.6,0.3-3.2,0.8-4.7,1.4c-4.7,1.8-8.7,4.6-11.9,8.5
					c-2.1,2.6-3.8,6-4.4,9.3c0,0-2.2,11.2,3,19.3c0,0,0.7,1.2,0.9-0.2c0.2-1.4-8.5-23,10.8-33s31.5,7,32.3,14.2c0,0,0.2,1.8,0.9,1
					c0.3-0.3-0.1-1.9-0.2-2.2c-0.3-1.7-0.9-3.4-1.6-5c-2.1-4.4-5.4-8.8-9.8-11.2C215.9,57.5,212.7,56.7,209.5,56.6z"/>
				<path class="st37" d="M224.8,82.3c0,9.4-7.6,17-16.9,17c-9.4,0-16.9-7.6-16.9-17s7.6-17,16.9-17S224.8,72.9,224.8,82.3z"/>
				<circle class="st38" cx="207.8" cy="82.5" r="16"/>
				<path class="st39" d="M221.1,82.7c0,7.4-6,13.3-13.3,13.3c-7.4,0-13.3-6-13.3-13.3c0-7.4,6-13.3,13.3-13.3
					C215.2,69.4,221.1,75.3,221.1,82.7z"/>
				<path class="st40" d="M212.5,82.6c0,2.8-2.2,5-5,5s-5-2.2-5-5s2.2-5,5-5C210.3,77.5,212.5,79.8,212.5,82.6z"/>
				<path class="st41" d="M207.8,78.3c0,0-4.9,0.7-4,5.1C204.7,87.9,211.6,77,207.8,78.3z"/>
				<g>
					<g>
						<path class="st42" d="M195.3,82.2h6.6c0.1-1.5,0.7-2.6,1.3-3.4l-4.6-4.6C195.4,77.7,195.3,82.2,195.3,82.2z"/>
						<path class="st42" d="M207.1,76.7v-6.5c-3.6,0.3-6.1,1.6-7.9,3.3l0,0l4.3,4.8C205.1,76.9,207.1,76.7,207.1,76.7z"/>
					</g>
					<g>
						<path class="st42" d="M220.2,82.2h-6.6c-0.1-1.5-0.7-2.6-1.3-3.4l4.6-4.6C220.1,77.7,220.2,82.2,220.2,82.2z"/>
						<path class="st42" d="M208.4,76.7v-6.5c3.6,0.3,6.1,1.6,7.9,3.3l0,0l-4.3,4.8C210.4,76.9,208.4,76.7,208.4,76.7z"/>
					</g>
					<g>
						<path class="st42" d="M195.3,83.1h6.6c0.1,1.5,0.7,2.6,1.3,3.4l-4.6,4.6C195.4,87.6,195.3,83.1,195.3,83.1z"/>
						<path class="st42" d="M207.1,88.5V95c-3.6-0.3-6.1-1.6-7.9-3.3l0,0l4.3-4.8C205.1,88.4,207.1,88.5,207.1,88.5z"/>
					</g>
					<g>
						<path class="st42" d="M220.2,83.1h-6.6c-0.1,1.5-0.7,2.6-1.3,3.4l4.6,4.6C220.1,87.6,220.2,83.1,220.2,83.1z"/>
						<path class="st42" d="M208.4,88.5V95c3.6-0.3,6.1-1.6,7.9-3.3l0,0l-4.3-4.8C210.4,88.4,208.4,88.5,208.4,88.5z"/>
					</g>
				</g>
			</g>
			<g class="st22">
				<path class="st43" d="M81.4,85.1c0,13.6-11.1,24.7-24.7,24.7S32,98.7,32,85.1s11.1-24.7,24.7-24.7
					C70.3,60.4,81.4,71.5,81.4,85.1z"/>
				<path class="st32" d="M76.1,85.2c0,10.7-8.6,19.3-19.3,19.3s-19.3-8.6-19.3-19.3s8.6-19.3,19.3-19.3S76.1,74.5,76.1,85.2z"/>
				<path class="st33" d="M66,88.7c-9.4,1.6-23.1,1.4-28.1-7.5c-0.3,1.3-0.4,2.6-0.4,3.9c0,10.7,8.6,19.3,19.3,19.3
					c10.5,0,19.1-8.5,19.3-19C72.9,87.1,69.5,88.1,66,88.7z"/>
				<g class="st34">
					<path class="st35" d="M57.3,60.4c0.4,0.1,0.9,0.2,1.3,0.2c28.4,5.2,24,40.2,5,45c-16.1,4.1-26.3-6.4-29.1-9.6
						c4,8.1,12.4,13.8,22.1,13.8c13.6,0,24.7-11.1,24.7-24.7C81.4,71.7,70.7,60.8,57.3,60.4z"/>
				</g>
				<path class="st36" d="M58.2,61.6c-1.8-0.1-3.7,0.1-5.4,0.4c-1.5,0.3-2.9,0.7-4.3,1.2c-4.2,1.6-7.9,4.1-10.7,7.7
					c-1.9,2.4-3.4,5.4-4,8.4c0,0-2,10.1,2.7,17.5c0,0,0.7,1.1,0.9-0.2c0.2-1.3-7.7-20.8,9.8-29.9c17.5-9,28.5,6.4,29.3,12.9
					c0,0,0.2,1.6,0.8,0.9c0.3-0.3-0.1-1.7-0.2-2c-0.3-1.6-0.8-3.1-1.5-4.5c-1.9-4-4.9-8-8.9-10.1C64,62.5,61.2,61.8,58.2,61.6z"/>
				<path class="st37" d="M72,84.9c0,8.5-6.9,15.4-15.3,15.4c-8.5,0-15.3-6.9-15.3-15.4s6.9-15.4,15.3-15.4
					C65.2,69.5,72,76.4,72,84.9z"/>
				<path class="st38" d="M71.2,85.1c0,8-6.5,14.5-14.5,14.5s-14.5-6.5-14.5-14.5s6.5-14.5,14.5-14.5S71.2,77.1,71.2,85.1z"/>
				<path class="st39" d="M68.7,85.3c0,6.7-5.4,12.1-12.1,12.1S44.5,92,44.5,85.3s5.4-12.1,12.1-12.1S68.7,78.6,68.7,85.3z"/>
				<path class="st40" d="M60.9,85.1c0,2.5-2,4.5-4.5,4.5s-4.5-2-4.5-4.5s2-4.5,4.5-4.5S60.9,82.6,60.9,85.1z"/>
				<path class="st41" d="M56.6,81.3c0,0-4.4,0.6-3.6,4.6C53.9,90,60.1,80.1,56.6,81.3z"/>
				<g>
					<g>
						<path class="st42" d="M45.4,84.8h6c0.1-1.4,0.6-2.4,1.2-3.1l-4.2-4.2C45.5,80.7,45.4,84.8,45.4,84.8z"/>
						<path class="st42" d="M56.1,79.9V74c-3.3,0.3-5.5,1.5-7.1,3l0,0l3.9,4.3C54.3,80,56.1,79.9,56.1,79.9z"/>
					</g>
					<g>
						<path class="st42" d="M67.9,84.8h-6c-0.1-1.4-0.6-2.4-1.2-3.1l4.2-4.2C67.8,80.7,67.9,84.8,67.9,84.8z"/>
						<path class="st42" d="M57.2,79.9V74c3.3,0.3,5.5,1.5,7.1,3l0,0l-3.9,4.3C59,80,57.2,79.9,57.2,79.9z"/>
					</g>
					<g>
						<path class="st42" d="M45.4,85.6h6c0.1,1.4,0.6,2.4,1.2,3.1l-4.2,4.2C45.5,89.7,45.4,85.6,45.4,85.6z"/>
						<path class="st42" d="M56.1,90.5v5.9c-3.3-0.3-5.5-1.5-7.1-3l0,0l3.9-4.3C54.3,90.4,56.1,90.5,56.1,90.5z"/>
					</g>
					<g>
						<path class="st42" d="M67.9,85.6h-6c-0.1,1.4-0.6,2.4-1.2,3.1l4.2,4.2C67.8,89.7,67.9,85.6,67.9,85.6z"/>
						<path class="st42" d="M57.2,90.5v5.9c3.3-0.3,5.5-1.5,7.1-3l0,0l-3.9-4.3C59,90.4,57.2,90.5,57.2,90.5z"/>
					</g>
				</g>
			</g>
			<path class="st27" d="M145.5,19.2l-0.4,24.4c0,0,0,9.6-9.4,11.1c0,0-38.4,1-57.5,7c0,0-1.6,0.8-0.6,2.5c1,1.6,2.3,5.7,2.3,5.7
				h100.5c0,0,5.5-14.6,22.6-16.2c17-1.6,26.5,6.6,29.1,12.5c0,0,0.4,2.7,3.7,3.7s9.2,0,9-3.9s-2.1-10.9-15.2-13.1
				c-13.1-2.3-32.2-7.6-48-15.8C165.9,28.8,162.6,19.2,145.5,19.2z"/>
			<path class="st27" d="M65.5,52.5c0,0-2,3.8-0.1,7.7c0,0-8.2-3.8-20.8,1.8c0,0-4.4,3.1-4.4,1C40.2,60.7,56.2,53.4,65.5,52.5z"/>
			<polygon class="st1" points="166,31.7 171.5,42.8 183.7,44.5 174.8,53.2 176.9,65.4 166,59.6 155,65.4 157.1,53.2 148.3,44.5 
				160.5,42.8 			"/>
			<polygon class="st44" points="166,33.2 171,43.4 182.3,45.1 174.2,53 176.1,64.3 166,59 155.9,64.3 157.8,53 149.6,45.1 
				160.9,43.4 			"/>
			<path class="st27" d="M147.3,20.9v25.4c0,0-0.3,6-5.6,7.4s15,2.5,23.8-7C174.2,37.3,163.1,23.3,147.3,20.9z"/>
			<path class="st27" d="M238.5,57.8c0,0-3.4-2.6-8.5-2.7c-5.1-0.1-3.3,2.2,0.3,4.9s5.6,5.2,6.2,7c0.5,1.8,6.2,2.2,6.7-1.4
				C243.7,62.1,240.1,58.9,238.5,57.8z"/>
		</g>
	</g>
</g>
</svg>
