<?xml version="1.0" encoding="utf-8"?>
<!-- Generator: Adobe Illustrator 25.0.1, SVG Export Plug-In . SVG Version: 6.00 Build 0)  -->
<svg version="1.1" id="Layer_1" xmlns="http://www.w3.org/2000/svg" xmlns:xlink="http://www.w3.org/1999/xlink" x="0px" y="0px"
	 viewBox="0 0 293.9 127.5" style="enable-background:new 0 0 293.9 127.5;" xml:space="preserve">
<style type="text/css">
	.st0{fill:#3165B0;stroke:#003A55;stroke-width:0.5;stroke-miterlimit:10;}
	.st1{fill:#295596;stroke:#003A55;stroke-width:0.5;stroke-miterlimit:10;}
	.st2{opacity:0.5;fill:#3165B0;enable-background:new    ;}
	.st3{fill:#3165B0;}
	.st4{fill:#00B1BD;stroke:#00A1E2;stroke-width:0.5;stroke-miterlimit:10;}
	.st5{opacity:0.2;fill:#FFFFFF;enable-background:new    ;}
	.st6{display:none;}
	.st7{display:inline;fill:#FFFFFF;}
	.st8{display:inline;fill:#F5F5F5;}
	.st9{display:inline;fill:#EBEBEB;}
	.st10{display:inline;fill:#E1E1E1;}
	.st11{display:inline;fill:#D7D7D7;}
	.st12{display:inline;fill:#CDCDCD;}
	.st13{display:inline;fill:#C3C3C3;}
	.st14{display:inline;fill:#B9B9B9;}
	.st15{display:inline;fill:#B0B0B0;}
	.st16{display:inline;fill:#A6A6A6;}
	.st17{display:inline;fill:#9C9C9C;}
	.st18{display:inline;fill:#929292;}
	.st19{display:inline;fill:#888888;}
	.st20{display:inline;fill:#7E7E7E;}
	.st21{display:inline;fill:#747474;}
	.st22{display:inline;fill:#6A6A6A;}
	.st23{display:inline;fill:#606060;}
	.st24{display:none;fill:#FFFFFF;}
	.st25{display:inline;fill:#2A2C2D;stroke:#231F20;stroke-width:0.5;stroke-miterlimit:9.9996;}
	.st26{display:inline;fill:#AAC6D1;stroke:#231F20;stroke-width:0.5;stroke-miterlimit:10;}
	.st27{display:inline;fill:#AAC6D1;}
	.st28{display:inline;opacity:0.5;}
	.st29{fill:#616264;}
	.st30{display:inline;opacity:0.2;fill:#FFFFFF;enable-background:new    ;}
	.st31{display:inline;fill:#EDEDEE;}
	.st32{display:inline;fill:#D0D2D3;}
	.st33{display:inline;fill:#B1B3B5;stroke:#231F20;stroke-width:0.5;stroke-miterlimit:10;}
	.st34{display:inline;fill:#8AA5B3;stroke:#231F20;stroke-width:0.5;stroke-miterlimit:10;}
	.st35{display:inline;opacity:0.4;fill:#FFFFFF;enable-background:new    ;}
	.st36{display:inline;}
	.st37{fill:#FFFFFF;stroke:#231F20;stroke-width:0.5;stroke-miterlimit:10;}
	.st38{display:inline;fill:#2A2C2D;stroke:#231F20;stroke-width:0.5;stroke-miterlimit:10;}
	.st39{display:none;fill:#FFFAC4;}
</style>
<g>
	<polygon class="st0" points="228.8,37 231.1,62 242.9,64.8 248.9,38.1 	"/>
	<polygon class="st1" points="230.6,37 232.5,57.6 242.2,60 247.1,37.9 	"/>
	<path class="st2" d="M229.6,45.1c4.9,2.7,9.8,5.3,14.3,8.9c0.4,0.3,0.8,0.7,1.3,1.1l3.8-17l-1.8-0.1v-0.1L230.6,37v0.1l-1.8-0.1
		L229.6,45.1z"/>
	<g>
		<path class="st0" d="M234.6,27.6c6.5-3.2,36.8-14.2,36.8-14.2s1.7-0.8,3.7-1c0-1.2,0.1-1.9,0.1-1.9s0.2-2.1-0.7-2.5
			c-1-0.4-46.4,17.7-46.4,17.7s-2.3,1-5.2,1.2c-2.9,0.1-13.8-0.4-13.8-0.4s-2.2-0.3-2.4,0.6c-0.1,0.2-0.1,0.9-0.2,1.8l17.8,0.8
			C224.2,29.7,228.1,30.8,234.6,27.6z"/>
		<g>
			<path class="st3" d="M234.9,25.8c-6.6,3.3-10.6,2.1-10.6,2.1l-17.7-0.8c-0.1,0.3-0.1,0.9-0.2,1.7l17.8,0.8c0,0,3.9,1.1,10.4-2.1
				s36.8-14.2,36.8-14.2s1.7-0.8,3.7-1c0-1,0-1.6,0-1.8c-1.7,0.3-3,0.9-3,0.9S241.5,22.6,234.9,25.8z"/>
		</g>
		<path class="st4" d="M272.7,36.9c0,0-2.6-0.3-4.2-0.6c-1.5-0.2-1-2-1-2s0.6-11.2,0.5-12.5s1-1.8,1-1.8l5.9-3.2
			c0.1-1.8,0.1-3.3,0.1-4.4c-2,0.2-3.7,1-3.7,1s-30.2,11-36.8,14.2c-6.5,3.2-10.4,2.1-10.4,2.1l-17.8-0.8c-0.2,2.6-0.4,7-0.4,7
			s0.2,1.3,1.2,1.5l62.4,4.7c0,0,4.1,0.1,4.5-1.8c0.1-0.3,0.1-1.2,0.2-2.5l0,0C274,36.7,272.7,36.9,272.7,36.9z"/>
	</g>
	<path class="st5" d="M207.7,31.6c0,0-1.1,4.2,0.5,4.5l56.9,3.8c0,0,4,0.7,4.8-0.3s0.5-1.4,0.5-1.4l-5.5-0.2c0,0-1.5,1.1-1.5-2.7
		s0.6-13.1,0.6-13.1s0.4-2,1.8-3.3c1.5-1.3,6.5-4,6.5-4l-40.5,17c0,0-2.7,1.1-6.3,1.1C222,32.9,207.7,31.6,207.7,31.6z"/>
	<path class="st5" d="M261.7,24l-0.6,11c0,0-0.1,1.2-1.2,1.5s-26-1.8-26-1.8s-2.1-1,1.7-2.5s20.7-8.1,20.7-8.1S262,21.4,261.7,24z"
		/>
</g>
<g class="st6">
	<path class="st7" d="M231.3,50.2h-0.1H231.3L231.3,50.2z M25.7,111.6H46c0.3,0.5,0.7,0.9,1,1.4l0.1,0.1c0.8,1,1.7,2,2.6,2.9
		l0.1,0.1c0.4,0.4,0.9,0.8,1.3,1.2l0.1,0.1c0.5,0.4,1,0.8,1.5,1.2c0,0,0.1,0,0.1,0.1c0.5,0.3,1,0.7,1.5,1l0.1,0.1l0.2,0.1
		c1,0.7,2.2,1.3,3.3,1.8l0.4,0.2c0.5,0.2,1,0.4,1.5,0.6l0.2,0.1c0.6,0.2,1.2,0.4,1.7,0.6l0.4,0.1c0.5,0.1,1,0.3,1.5,0.4l0.4,0.1
		c0.6,0.1,1.2,0.2,1.8,0.3h0.3c0.5,0.1,1,0.1,1.6,0.2h0.5c0.6,0,1.3,0.1,1.9,0.1c9.7,0,18.7-4.8,24.2-12.7h101.4
		c0.1,0.1,0.2,0.2,0.2,0.3l0.2,0.2c0.9,1.1,1.8,2.1,2.8,3.1l0.2,0.2c0.5,0.4,0.9,0.9,1.4,1.3l0.1,0.1c0.5,0.4,1.1,0.9,1.6,1.3
		l0.2,0.1c0.5,0.4,1,0.7,1.5,1l0.3,0.2c1.1,0.7,2.3,1.4,3.5,1.9l0.4,0.2c0.5,0.2,1.1,0.5,1.7,0.7l0.2,0.1c0.6,0.2,1.2,0.4,1.9,0.6
		l0.4,0.1c0.5,0.1,1.1,0.3,1.6,0.4l0.5,0.1c0.7,0.1,1.3,0.3,2,0.4l0.4,0.1c0.6,0.1,1.1,0.1,1.7,0.2c0.2,0,0.4,0,0.6,0
		c0.8,0.1,1.5,0.1,2.1,0.1c10.1,0,19.5-4.7,25.5-12.7h11.1c13,0.5,16.1-1.9,17.2-3.3c1.2-1.3,2.3-3.6,2.1-7.9v-3.9
		c0-2.7-1.5-5.6-4.4-7l-10.3-24.9c-0.1-0.1-0.1-0.3-0.2-0.4c-0.3-0.6-1.7-3-5.2-5.1l1.6-7l17.1,1.3c0.1,0,0.1,0,0.2,0
		c5.1,0.2,8.6-2,9.3-5.6c0.1-0.5,0.2-1.1,0.3-3.1c0-0.5,0-1.1-0.2-1.6c-0.8-3-3.4-4.5-5.9-4.5h-0.1c-0.1,0-0.3,0-0.4-0.1
		c0.2-3,0.3-6.5,0.4-8.7l4.5-2.4c1.5-0.8,2.4-2.3,2.5-4c0.1-1.8,0.1-3.3,0.1-4.4v-1.7c0.3-3.3-1-6-3.5-7.1
		c-2.3-1.1-2.4-1.1-27.3,8.6c-11.4,4.4-22.8,9-22.9,9.1c0,0-0.1,0-0.1,0.1c0,0-1.6,0.7-3.5,0.8c-1.9,0.1-9-0.2-13.1-0.4
		c-4.5-0.5-6.8,1.8-7.4,4.1c-0.1,0.5-0.2,1.1-0.4,2.7c-0.2,2.7-0.4,7-0.4,7.2c0,0,0,0,0,0.1l-2.7-0.9c-0.6-0.2-7.2-2.7-12.1-6.4
		c-15.2-11.4-28.6-13.9-37.1-13.9c-1.9,0-3.7,0.1-5.6,0.3c-2.4,0.3-4.2,2.3-4.2,4.7v23.2c-0.1,1.7-1.5,1.9-2.3,2
		c-2.6,0-29.3,0.3-46.3,4.3c-0.2-1.8-0.7-3.6-2.4-5c-2.4-2.1-5.5-1.7-7.6-1.3c-0.2,0-0.5,0.1-0.8,0.2l0,0c-0.3,0.1-0.6,0.2-0.9,0.3
		h-0.1c-0.3,0.1-0.6,0.2-0.9,0.3h-0.1c-0.3,0.1-0.6,0.3-0.9,0.4c0,0-0.1,0-0.1,0.1c-0.3,0.1-0.5,0.3-0.8,0.4l-0.2,0.1
		c-0.3,0.1-0.5,0.3-0.8,0.5l0.1,0c-0.2,0.2-0.5,0.3-0.7,0.5L81,52.6c-0.2,0.2-0.4,0.3-0.6,0.5l-0.3,0.2c-0.2,0.2-0.4,0.3-0.6,0.5
		c-0.1,0.1-0.2,0.2-0.3,0.3c-0.2,0.2-0.3,0.3-0.5,0.5c-0.1,0.1-0.2,0.2-0.3,0.3L78.3,55c-0.1,0.2-0.3,0.3-0.4,0.5l0,0
		C71.9,57,52.3,62.3,34,78c-0.1,0-0.1,0.1-0.2,0.1c-0.2,0.1-0.3,0.3-0.5,0.5L33,78.8c-0.5,0.4-1,0.9-1.5,1.3
		c-0.3,0.3-0.6,0.5-0.9,0.8L30,81.5c-0.1,0.1-0.2,0.2-0.3,0.3c-0.9,0.8-1.8,1.7-2.6,2.6c-0.1,0.1-0.1,0.1-0.2,0.2l-0.3,0.3
		c-0.3,0.3-0.5,0.5-0.8,0.8l-0.2,0.2c-0.1,0.1-0.3,0.3-0.4,0.4s-0.1,0.2-0.2,0.3c-1,1.2-2.1,2.4-3,3.6c-1.4,1.2-2.7,2.4-3.9,3.6
		C18,93.9,18,93.9,17.9,94c-1,1.1-5.7,6.6-3.3,12.3C16.8,111.1,22.4,111.9,25.7,111.6z"/>
	<path class="st8" d="M230.9,49.8h-0.1H230.9L230.9,49.8z M25.3,111.2h20.3c0.3,0.5,0.7,0.9,1,1.4l0.1,0.1c0.8,1,1.7,2,2.6,2.9
		l0.1,0.1c0.4,0.4,0.9,0.8,1.3,1.2l0.1,0.1c0.5,0.4,1,0.8,1.5,1.2c0,0,0.1,0,0.1,0.1c0.5,0.3,1,0.7,1.5,1l0.1,0.1l0.2,0.1
		c1,0.7,2.2,1.3,3.3,1.8l0.4,0.2c0.5,0.2,1,0.4,1.5,0.6l0.2,0.1c0.6,0.2,1.2,0.4,1.7,0.6l0.4,0.1c0.5,0.1,1,0.3,1.5,0.4l0.4,0.1
		c0.6,0.1,1.2,0.2,1.8,0.3h0.3c0.5,0.1,1,0.1,1.6,0.2h0.5c0.6,0,1.3,0.1,1.9,0.1c9.7,0,18.7-4.8,24.2-12.7h101.4
		c0.1,0.1,0.2,0.2,0.2,0.3l0.2,0.2c0.9,1.1,1.8,2.1,2.8,3.1l0.2,0.2c0.5,0.4,0.9,0.9,1.4,1.3l0.1,0.1c0.5,0.4,1.1,0.9,1.6,1.3
		l0.2,0.1c0.5,0.4,1,0.7,1.5,1l0.3,0.2c1.1,0.7,2.3,1.4,3.5,1.9l0.4,0.2c0.5,0.2,1.1,0.5,1.7,0.7l0.2,0.1c0.6,0.2,1.2,0.4,1.9,0.6
		l0.4,0.1c0.5,0.1,1.1,0.3,1.6,0.4l0.5,0.1c0.7,0.1,1.3,0.3,2,0.4l0.4,0.1c0.6,0.1,1.1,0.1,1.7,0.2c0.2,0,0.4,0,0.6,0
		c0.8,0.1,1.5,0.1,2.1,0.1c10.1,0,19.5-4.7,25.5-12.7h11.1c13,0.5,16.1-1.9,17.2-3.3c1.2-1.3,2.3-3.6,2.1-7.9v-3.9
		c0-2.7-1.5-5.6-4.4-7L262,64.3c-0.1-0.1-0.1-0.3-0.2-0.4c-0.3-0.6-1.7-3-5.2-5.1l1.6-7l17.1,1.3c0.1,0,0.1,0,0.2,0
		c5.1,0.2,8.6-2,9.3-5.6c0.1-0.5,0.2-1.1,0.3-3.1c0-0.5,0-1.1-0.2-1.6c-0.8-3-3.4-4.5-5.9-4.5h-0.1c-0.1,0-0.3,0-0.4-0.1
		c0.2-3,0.3-6.5,0.4-8.7l4.5-2.4c1.5-0.8,2.4-2.3,2.5-4c0.1-1.8,0.1-3.3,0.1-4.4V17c0.3-3.3-1-6-3.5-7.1c-2.3-1.1-2.4-1.1-27.3,8.6
		c-11.4,4.4-22.8,9-22.9,9.1c0,0-0.1,0-0.2,0.1c0,0-1.6,0.7-3.5,0.8c-1.9,0.1-9-0.2-13.1-0.4c-4.5-0.5-6.8,1.8-7.4,4.1
		c-0.1,0.5-0.2,1.1-0.4,2.7c-0.2,2.7-0.4,7-0.4,7.2c0,0,0,0,0,0.1l-2.7-0.9c-0.6-0.2-7.2-2.7-12.1-6.4C177.3,23.5,163.9,21,155.4,21
		c-1.9,0-3.7,0.1-5.6,0.3c-2.4,0.3-4.2,2.3-4.2,4.7v23.2c-0.1,1.7-1.5,1.9-2.3,2c-2.6,0-29.3,0.3-46.3,4.3c-0.2-1.8-0.7-3.6-2.4-5
		c-2.4-2.1-5.5-1.7-7.6-1.3c-0.2,0-0.5,0.1-0.8,0.2l0,0c-0.3,0.1-0.6,0.2-0.9,0.3h-0.1c-0.3,0.1-0.6,0.2-0.9,0.3h-0.1
		c-0.3,0.1-0.6,0.3-0.9,0.4c0,0-0.1,0-0.1,0.1c-0.3,0.1-0.5,0.3-0.8,0.4L82.2,51c-0.3,0.1-0.5,0.3-0.8,0.5l-0.2,0.1
		c-0.2,0.2-0.5,0.3-0.7,0.5l-0.3,0.2c-0.2,0.2-0.4,0.3-0.6,0.5L79.3,53c-0.2,0.2-0.4,0.3-0.6,0.5c-0.1,0.1-0.2,0.2-0.3,0.3
		c-0.2,0.2-0.3,0.3-0.5,0.5c-0.1,0.1-0.2,0.2-0.3,0.3l-0.1,0.1c-0.1,0.2-0.3,0.3-0.4,0.5l0,0c-6.2,1.4-25.5,7-44.1,22.4
		c-0.1,0-0.1,0.1-0.2,0.1c-0.2,0.2-0.3,0.3-0.5,0.5l-0.2,0.2c-0.5,0.4-1,0.9-1.5,1.3c-0.3,0.3-0.6,0.5-0.9,0.8l-0.6,0.6
		c-0.1,0.1-0.2,0.2-0.3,0.3c-0.9,0.8-1.8,1.7-2.6,2.6c-0.1,0.1-0.1,0.1-0.2,0.2l-0.3,0.3c-0.3,0.3-0.5,0.5-0.8,0.8l-0.2,0.2
		c-0.1,0.1-0.3,0.3-0.4,0.4s-0.1,0.2-0.2,0.3c-1.2,1.3-2.2,2.5-3.2,3.7c-1.4,1.2-2.7,2.4-3.9,3.6c-0.1,0.1-0.1,0.1-0.2,0.2
		c-1,1.1-5.7,6.6-3.3,12.3C16.4,110.7,22,111.5,25.3,111.2z"/>
	<path class="st9" d="M230.5,49.4h-0.1H230.5L230.5,49.4z M24.9,110.8h20.3c0.3,0.5,0.7,0.9,1,1.4l0.1,0.1c0.8,1,1.7,2,2.6,2.9
		l0.1,0.1c0.4,0.4,0.9,0.8,1.3,1.2l0.1,0.1c0.5,0.4,1,0.8,1.5,1.2c0,0,0.1,0,0.1,0.1c0.5,0.3,1,0.7,1.5,1l0.1,0.1l0.2,0.1
		c1,0.7,2.2,1.3,3.3,1.8l0.4,0.2c0.5,0.2,1,0.4,1.5,0.6l0.2,0.1c0.6,0.2,1.2,0.4,1.7,0.6l0.4,0.1c0.5,0.1,1,0.3,1.5,0.4l0.4,0.1
		c0.6,0.1,1.2,0.2,1.8,0.3h0.3c0.5,0.1,1,0.1,1.6,0.2h0.5c0.6,0,1.3,0.1,1.9,0.1c9.7,0,18.7-4.8,24.2-12.7h101.4
		c0.1,0.1,0.2,0.2,0.2,0.3l0.2,0.2c0.9,1.1,1.8,2.1,2.8,3.1l0.2,0.2c0.5,0.4,0.9,0.9,1.4,1.3l0.1,0.1c0.5,0.4,1.1,0.9,1.6,1.3
		l0.2,0.1c0.5,0.4,1,0.7,1.5,1l0.3,0.2c1.1,0.7,2.3,1.4,3.5,1.9l0.4,0.2c0.5,0.2,1.1,0.5,1.7,0.7l0.2,0.1c0.6,0.2,1.2,0.4,1.9,0.6
		l0.4,0.1c0.5,0.1,1.1,0.3,1.6,0.4l0.5,0.1c0.7,0.1,1.3,0.3,2,0.4l0.4,0.1c0.6,0.1,1.1,0.1,1.7,0.2c0.2,0,0.4,0,0.6,0
		c0.8,0.1,1.5,0.1,2.1,0.1c10.1,0,19.5-4.7,25.5-12.7H257c13,0.5,16.1-1.9,17.2-3.3c1.2-1.3,2.3-3.6,2.1-7.9v-3.9
		c0-2.7-1.5-5.6-4.4-7l-10.3-24.9c-0.1-0.1-0.1-0.3-0.2-0.4c-0.3-0.6-1.7-3-5.2-5.1l1.6-7l17.1,1.3c0.1,0,0.1,0,0.2,0
		c5.1,0.2,8.6-2,9.3-5.6c0.1-0.5,0.2-1.1,0.3-3.1c0-0.5,0-1.1-0.2-1.6c-0.8-3-3.4-4.5-5.9-4.5h-0.1c-0.1,0-0.3,0-0.4-0.1
		c0.2-3,0.3-6.5,0.4-8.7l4.5-2.4c1.5-0.8,2.4-2.3,2.5-4c0.1-1.8,0.1-3.3,0.1-4.4v-1.7c0.3-3.3-1-6-3.5-7.1
		c-2.3-1.1-2.4-1.1-27.3,8.6c-11.4,4.4-22.8,9-22.9,9.1c0,0-0.1,0-0.1,0.1c0,0-1.6,0.7-3.5,0.8c-1.9,0.1-9-0.2-13.1-0.4
		c-4.5-0.5-6.8,1.8-7.4,4.1c-0.1,0.5-0.2,1.1-0.4,2.7c-0.2,2.7-0.4,7-0.4,7.2c0,0,0,0,0,0.1l-2.7-0.9c-0.6-0.2-7.2-2.7-12.1-6.4
		c-15.2-11.4-28.6-13.9-37.1-13.9c-1.9,0-3.7,0.1-5.6,0.3c-2.4,0.3-4.2,2.3-4.2,4.7v23.2c-0.1,1.7-1.5,1.9-2.3,2
		c-2.6,0-29.3,0.3-46.3,4.3c-0.2-1.8-0.7-3.6-2.4-5c-2.4-2.1-5.5-1.7-7.6-1.3c-0.2,0-0.5,0.1-0.8,0.2l0,0c-0.3,0.1-0.6,0.2-0.9,0.3
		h-0.1c-0.3,0.1-0.6,0.2-0.9,0.3h-0.1c-0.3,0.1-0.6,0.3-0.9,0.4c0,0-0.1,0-0.1,0.1c-0.3,0.1-0.5,0.3-0.8,0.4l-0.2,0.1
		c-0.3,0.1-0.5,0.3-0.8,0.5l-0.2,0.1c-0.2,0.2-0.5,0.3-0.7,0.5l-0.3,0.2c-0.2,0.2-0.4,0.3-0.6,0.5L79,52.6c-0.2,0.2-0.4,0.3-0.6,0.5
		c-0.1,0.1-0.2,0.2-0.3,0.3c-0.2,0.2-0.3,0.3-0.5,0.5c-0.1,0.1-0.2,0.2-0.3,0.3l-0.1,0.1c-0.1,0.2-0.3,0.3-0.4,0.5l0,0
		c-6.2,1.4-25.5,7-44.1,22.4c-0.1,0-0.1,0.1-0.2,0.1c-0.2,0.2-0.3,0.3-0.5,0.5l0.2,0.2c-0.5,0.4-1,0.9-1.5,1.3
		c-0.3,0.3-0.6,0.5-0.9,0.8l-0.6,0.6c-0.1,0.1-0.2,0.2-0.3,0.3c-0.9,0.8-1.8,1.7-2.6,2.6c-0.1,0.1-0.1,0.1-0.2,0.2L25.9,84
		c-0.3,0.3-0.5,0.5-0.8,0.8L24.9,85c-0.1,0.1-0.3,0.3-0.4,0.4s-0.1,0.2-0.2,0.3c-1.2,1.3-2.2,2.5-3.2,3.7c-1.4,1.2-2.7,2.4-3.9,3.6
		c-0.1,0.1-0.1,0.1-0.2,0.2c-1,1.1-5.7,6.6-3.3,12.3C16,110.3,21.6,111.1,24.9,110.8z"/>
	<path class="st10" d="M230.1,48.9H230H230.1L230.1,48.9z M24.4,110.3h20.3c0.3,0.5,0.7,0.9,1,1.4l0.1,0.1c0.8,1,1.7,2,2.6,2.9
		l0.1,0.1c0.4,0.4,0.9,0.8,1.3,1.2l0.1,0.1c0.5,0.4,1,0.8,1.5,1.2c0,0,0.1,0,0.1,0.1c0.5,0.3,1,0.7,1.5,1l0.1,0.1l0.2,0.1
		c1,0.7,2.2,1.3,3.3,1.8l0.4,0.2c0.5,0.2,1,0.4,1.5,0.6l0.2,0.1c0.6,0.2,1.2,0.4,1.7,0.6l0.4,0.1c0.5,0.1,1,0.3,1.5,0.4l0.4,0.1
		c0.6,0.1,1.2,0.2,1.8,0.3h0.3c0.5,0.1,1,0.1,1.6,0.2h0.5c0.6,0,1.3,0.1,1.9,0.1c9.7,0,18.7-4.8,24.2-12.7h101.4
		c0.1,0.1,0.2,0.2,0.2,0.3l0.2,0.2c0.9,1.1,1.8,2.1,2.8,3.1l0.2,0.2c0.5,0.4,0.9,0.9,1.4,1.3l0.1,0.1c0.5,0.4,1.1,0.9,1.6,1.3
		l0.2,0.1c0.5,0.4,1,0.7,1.5,1l0.3,0.2c1.1,0.7,2.3,1.4,3.5,1.9l0.4,0.2c0.5,0.2,1.1,0.5,1.7,0.7l0.2,0.1c0.6,0.2,1.2,0.4,1.9,0.6
		l0.4,0.1c0.5,0.1,1.1,0.3,1.6,0.4l0.5,0.1c0.7,0.1,1.3,0.3,2,0.4l0.4,0.1c0.6,0.1,1.1,0.1,1.7,0.2c0.2,0,0.4,0,0.6,0
		c0.8,0.1,1.5,0.1,2.1,0.1c10.1,0,19.5-4.7,25.5-12.7h11.1c13,0.5,16.1-1.9,17.2-3.3c1.2-1.3,2.3-3.6,2.1-7.9v-3.9
		c0-2.7-1.5-5.6-4.4-7l-10.3-24.9c-0.1-0.1-0.1-0.3-0.2-0.4c-0.3-0.6-1.7-3-5.2-5.1l1.6-7l17.1,1.3c0.1,0,0.1,0,0.2,0
		c5.1,0.2,8.6-2,9.3-5.6c0.1-0.5,0.2-1.1,0.3-3.1c0-0.5,0-1.1-0.2-1.6c-0.8-3-3.4-4.5-5.9-4.5H278c-0.1,0-0.3,0-0.4-0.1
		c0.2-3,0.3-6.5,0.4-8.7l4.5-2.4c1.5-0.8,2.4-2.3,2.5-4c0.1-1.8,0.1-3.3,0.1-4.4v-1.7c0.3-3.3-1-6-3.5-7.1
		c-2.3-1.1-2.4-1.1-27.3,8.6c-11.4,4.4-22.8,9-22.9,9.1c0,0-0.1,0-0.1,0.1c0,0-1.6,0.7-3.5,0.8c-1.9,0.1-9-0.2-13.1-0.4
		c-4.5-0.5-6.8,1.8-7.4,4.1c-0.1,0.5-0.2,1.1-0.4,2.7c-0.2,2.7-0.4,7-0.4,7.2c0,0,0,0,0,0.1l-2.7-0.9c-0.6-0.2-7.2-2.7-12.1-6.4
		c-15.1-11.5-28.5-14-37-14c-1.9,0-3.7,0.1-5.6,0.3c-2.4,0.3-4.2,2.3-4.2,4.7v23.2c-0.1,1.7-1.5,1.9-2.3,2c-2.6,0-29.3,0.3-46.3,4.3
		c-0.2-1.8-0.7-3.6-2.4-5c-2.4-2.1-5.5-1.7-7.6-1.3c-0.2,0-0.5,0.1-0.8,0.2l0,0c-0.3,0.1-0.6,0.2-0.9,0.3h-0.1
		c-0.3,0.1-0.6,0.2-0.9,0.3h-0.1c-0.3,0.1-0.6,0.3-0.9,0.4c0,0-0.1,0-0.1,0.1c-0.3,0.1-0.5,0.3-0.8,0.4L81.5,50
		c-0.3,0.1-0.5,0.3-0.8,0.5l-0.2,0.1c-0.2,0.2-0.5,0.3-0.7,0.5l-0.3,0.2c-0.2,0.2-0.4,0.3-0.6,0.5L78.6,52c-0.2,0.2-0.4,0.3-0.6,0.5
		c-0.1,0.1-0.2,0.2-0.3,0.3c-0.2,0.2-0.3,0.3-0.5,0.5c-0.1,0.1-0.2,0.2-0.3,0.3l-0.1,0.1c-0.1,0.2-0.3,0.3-0.4,0.5l0,0
		c-6.2,1.4-25.5,7-44.1,22.4c-0.1,0-0.1,0.1-0.2,0.1c-0.2,0.2-0.3,0.3-0.5,0.5l-0.2,0.2c-0.5,0.4-1,0.9-1.5,1.3
		c-0.3,0.3-0.6,0.5-0.9,0.8l-0.6,0.6c-0.1,0.1-0.2,0.2-0.3,0.3c-0.9,0.8-1.8,1.7-2.6,2.6c-0.1,0.1-0.1,0.1-0.2,0.2L25,83.5
		c-0.3,0.3-0.5,0.5-0.8,0.8L24,84.5c-0.1,0.1-0.3,0.3-0.4,0.4s-0.1,0.2-0.2,0.3c-1.2,1.3-2.2,2.5-3.2,3.7c-1.4,1.2-2.7,2.4-3.9,3.6
		c-0.1,0.1-0.1,0.1-0.2,0.2c-1,1.1-5.7,6.6-3.3,12.3C15.6,109.9,21.2,110.7,24.4,110.3z"/>
	<path class="st11" d="M229.6,48.5h-0.1H229.6L229.6,48.5z M24,109.9h20.3c0.3,0.5,0.7,0.9,1,1.4l0.1,0.1c0.8,1,1.7,2,2.6,2.9
		l0.1,0.1c0.4,0.4,0.9,0.8,1.3,1.2l0.1,0.1c0.5,0.4,1,0.8,1.5,1.2c0,0,0.1,0,0.1,0.1c0.5,0.3,1,0.7,1.5,1l0.1,0.1l0.2,0.1
		c1,0.7,2.2,1.3,3.3,1.8l0.4,0.2c0.5,0.2,1,0.4,1.5,0.6l0.2,0.1c0.6,0.2,1.2,0.4,1.7,0.6l0.4,0.1c0.5,0.1,1,0.3,1.5,0.4l0.4,0.1
		c0.6,0.1,1.2,0.2,1.8,0.3h0.3c0.5,0.1,1,0.1,1.6,0.2h0.5c0.6,0,1.3,0.1,1.9,0.1c9.7,0,18.7-4.8,24.2-12.7H194
		c0.1,0.1,0.2,0.2,0.2,0.3l0.2,0.2c0.9,1.1,1.8,2.1,2.8,3.1l0.2,0.2c0.5,0.4,0.9,0.9,1.4,1.3l0.1,0.1c0.5,0.4,1.1,0.9,1.6,1.3
		l0.2,0.1c0.5,0.4,1,0.7,1.5,1l0.3,0.2c1.1,0.7,2.3,1.4,3.5,1.9l0.4,0.2c0.5,0.2,1.1,0.5,1.7,0.7l0.2,0.1c0.6,0.2,1.2,0.4,1.9,0.6
		l0.4,0.1c0.5,0.1,1.1,0.3,1.6,0.4l0.5,0.1c0.7,0.1,1.3,0.3,2,0.4l0.4,0.1c0.6,0.1,1.1,0.1,1.7,0.2c0.2,0,0.4,0,0.6,0
		c0.8,0.1,1.5,0.1,2.1,0.1c10.1,0,19.5-4.7,25.5-12.7h11.1c13,0.5,16.1-1.9,17.2-3.3c1.2-1.3,2.3-3.6,2.1-7.9v-3.9
		c0-2.7-1.5-5.6-4.4-7L260.9,63c-0.1-0.1-0.1-0.3-0.2-0.4c-0.3-0.6-1.7-3-5.2-5.1l1.6-7l17.1,1.3c0.1,0,0.1,0,0.2,0
		c5.1,0.2,8.6-2,9.3-5.6c0.1-0.5,0.2-1.1,0.3-3.1c0-0.5,0-1.1-0.2-1.6c-0.8-3-3.4-4.5-5.9-4.5h-0.1c-0.1,0-0.3,0-0.4-0.1
		c0.2-3,0.3-6.5,0.4-8.7l4.5-2.4c1.5-0.8,2.4-2.3,2.5-4c0.1-1.8,0.1-3.3,0.1-4.4v-1.7c0.3-3.3-1-6-3.5-7.1
		c-2.3-1.1-2.4-1.1-27.3,8.6c-11.4,4.4-22.8,9-22.9,9.1c0,0-0.1,0-0.1,0.1c0,0-1.6,0.7-3.5,0.8c-1.9,0.1-9-0.2-13.1-0.4
		c-4.5-0.5-6.8,1.8-7.4,4.1c-0.1,0.5-0.2,1.1-0.4,2.7c-0.2,2.7-0.4,7-0.4,7.2c0,0,0,0,0,0.1l-2.7-0.9c-0.6-0.2-7.2-2.7-12.1-6.4
		c-15.2-11.4-28.6-13.9-37.1-13.9c-1.9,0-3.7,0.1-5.6,0.3c-2.4,0.3-4.2,2.3-4.2,4.7v23.2c-0.1,1.7-1.5,1.9-2.3,2
		c-2.6,0-29.3,0.3-46.3,4.3c-0.2-1.8-0.7-3.6-2.4-5c-2.4-2.1-5.5-1.7-7.6-1.3c-0.2,0-0.5,0.1-0.8,0.2l0,0c-0.3,0.1-0.6,0.2-0.9,0.3
		h-0.1c-0.3,0.1-0.6,0.2-0.9,0.3h-0.1c-0.3,0.1-0.6,0.3-0.9,0.4c0,0-0.1,0-0.1,0.1c-0.3,0.1-0.5,0.3-0.8,0.4l-0.2,0.1
		c-0.3,0.1-0.5,0.3-0.8,0.5l-0.2,0.1c-0.2,0.2-0.5,0.3-0.7,0.5L79.2,51c-0.2,0.2-0.4,0.3-0.6,0.5l-0.3,0.2c-0.2,0.2-0.4,0.3-0.6,0.5
		c-0.1,0.1-0.2,0.2-0.3,0.3c-0.2,0.2-0.3,0.3-0.5,0.5c-0.1,0.1-0.2,0.2-0.3,0.3l-0.1,0.1c-0.1,0.2-0.3,0.3-0.4,0.5l0,0
		c-6.2,1.4-25.5,7-44.1,22.4c-0.1,0-0.1,0.1-0.2,0.1c-0.2,0.2-0.3,0.3-0.5,0.5l-0.2,0.2c-0.5,0.4-1,0.9-1.5,1.3
		c-0.3,0.3-0.6,0.5-0.9,0.8l-0.6,0.6c-0.1,0.1-0.2,0.2-0.3,0.3c-0.9,0.8-1.8,1.7-2.6,2.6c-0.1,0.1-0.1,0.1-0.2,0.2l-0.3,0.3
		c-0.3,0.3-0.5,0.5-0.8,0.8l-0.2,0.2c-0.1,0.1-0.3,0.3-0.4,0.4s-0.1,0.2-0.2,0.3c-1.2,1.3-2.2,2.5-3.2,3.7c-1.4,1.2-2.7,2.4-3.9,3.6
		c-0.1,0.1-0.1,0.1-0.2,0.2c-1,1.1-5.7,6.6-3.3,12.3C15.2,109.5,20.8,110.3,24,109.9z"/>
	<path class="st12" d="M229.2,48.1h-0.1H229.2L229.2,48.1z M23.6,109.5h20.3c0.3,0.5,0.7,0.9,1,1.4L45,111c0.8,1,1.7,2,2.6,2.9
		l0.1,0.1c0.4,0.4,0.9,0.8,1.3,1.2l0.1,0.1c0.5,0.4,1,0.8,1.5,1.2c0,0,0.1,0,0.1,0.1c0.5,0.3,1,0.7,1.5,1l0.1,0.1l0.2,0.1
		c1,0.7,2.2,1.3,3.3,1.8l0.4,0.2c0.5,0.2,1,0.4,1.5,0.6l0.2,0.1c0.6,0.2,1.2,0.4,1.7,0.6l0.4,0.1c0.5,0.1,1,0.3,1.5,0.4l0.4,0.1
		c0.6,0.1,1.2,0.2,1.8,0.3H64c0.5,0.1,1,0.1,1.6,0.2h0.5c0.6,0,1.3,0.1,1.9,0.1c9.7,0,18.7-4.8,24.2-12.7h101.4
		c0.1,0.1,0.2,0.2,0.2,0.3l0.2,0.2c0.9,1.1,1.8,2.1,2.8,3.1l0.2,0.2c0.5,0.4,0.9,0.9,1.4,1.3l0.1,0.1c0.5,0.4,1.1,0.9,1.6,1.3
		l0.2,0.1c0.5,0.4,1,0.7,1.5,1l0.3,0.2c1.1,0.7,2.3,1.4,3.5,1.9l0.4,0.2c0.5,0.2,1.1,0.5,1.7,0.7l0.2,0.1c0.6,0.2,1.2,0.4,1.9,0.6
		l0.4,0.1c0.5,0.1,1.1,0.3,1.6,0.4l0.5,0.1c0.7,0.1,1.3,0.3,2,0.4l0.4,0.1c0.6,0.1,1.1,0.1,1.7,0.2c0.2,0,0.4,0,0.6,0
		c0.8,0.1,1.5,0.1,2.1,0.1c10.1,0,19.5-4.7,25.5-12.7h11.1c13,0.5,16.1-1.9,17.2-3.3c1.2-1.3,2.3-3.6,2.1-7.9v-3.9
		c0-2.7-1.5-5.6-4.4-7l-10.3-24.9c-0.1-0.1-0.1-0.3-0.2-0.4c-0.3-0.6-1.7-3-5.2-5.1l1.6-7l17.1,1.3c0.1,0,0.1,0,0.2,0
		c5.1,0.2,8.6-2,9.3-5.6c0.1-0.5,0.2-1.1,0.3-3.1c0-0.5,0-1.1-0.2-1.6c-0.8-3-3.4-4.5-5.9-4.5h-0.1c-0.1,0-0.3,0-0.4-0.1
		c0.2-3,0.3-6.5,0.4-8.7l4.5-2.4c1.5-0.8,2.4-2.3,2.5-4c0.1-1.8,0.1-3.3,0.1-4.4v-1.7c0.3-3.3-1-6-3.5-7.1
		c-2.3-1.1-2.4-1.1-27.3,8.6c-11.4,4.4-22.8,9-22.9,9.1c0,0-0.1,0-0.1,0.1c0,0-1.6,0.7-3.5,0.8c-1.9,0.1-9-0.2-13.1-0.4
		c-4.5-0.5-6.8,1.8-7.4,4.1c-0.1,0.5-0.2,1.1-0.4,2.7c-0.2,2.7-0.4,7-0.4,7.2c0,0,0,0,0,0.1l-2.7-0.9c-0.6-0.2-7.2-2.7-12.1-6.4
		c-15.2-11.4-28.6-13.9-37.1-13.9c-1.9,0-3.7,0.1-5.6,0.3c-2.4,0.3-4.2,2.3-4.2,4.7v23.2c-0.1,1.7-1.5,1.9-2.3,2
		c-2.6,0-29.3,0.3-46.3,4.3c-0.2-1.8-0.7-3.6-2.4-5c-2.4-2.1-5.5-1.7-7.6-1.3c-0.2,0-0.5,0.1-0.8,0.2l0,0c-0.3,0.1-0.6,0.2-0.9,0.3
		h-0.1c-0.3,0.1-0.6,0.2-0.9,0.3h-0.1c-0.3,0.1-0.6,0.3-0.9,0.4c0,0-0.1,0-0.1,0.1c-0.3,0.1-0.5,0.3-0.8,0.4l-0.2,0.1
		c-0.3,0.1-0.5,0.3-0.8,0.5l-0.2,0.1c-0.2,0.2-0.5,0.3-0.7,0.5l0.1,0.1c-0.2,0.2-0.4,0.3-0.6,0.5l-0.3,0.2c-0.2,0.2-0.4,0.3-0.6,0.5
		c-0.1,0.1-0.2,0.2-0.3,0.3c-0.2,0.2-0.3,0.3-0.5,0.5c-0.1,0.1-0.2,0.2-0.3,0.3l-0.1,0.1c-0.1,0.2-0.3,0.3-0.4,0.5l0,0
		c-6.2,1.4-25.5,7-44.1,22.4c-0.1,0-0.1,0.1-0.2,0.1c-0.2,0.2-0.3,0.3-0.5,0.5L31,76.7c-0.5,0.4-1,0.9-1.5,1.3
		c-0.3,0.3-0.6,0.5-0.9,0.8L28,79.4c-0.1,0.1-0.2,0.2-0.3,0.3c-0.9,0.8-1.8,1.7-2.6,2.6c-0.1,0.1-0.1,0.1-0.2,0.2l-0.3,0.3
		c-0.3,0.3-0.5,0.5-0.8,0.8l-0.2,0.2c-0.1,0.1-0.3,0.3-0.4,0.4s-0.1,0.2-0.2,0.3c-1.2,1.3-2.2,2.5-3.2,3.7c-1.4,1.2-2.7,2.4-3.9,3.6
		c-0.1,0.1-0.1,0.1-0.2,0.2c-1,1.1-5.7,6.6-3.3,12.3C14.7,109.1,20.4,109.9,23.6,109.5z"/>
	<path class="st13" d="M228.8,47.7h-0.1H228.8L228.8,47.7z M23.2,109.1h20.3c0.3,0.5,0.7,0.9,1,1.4l0.1,0.1c0.8,1,1.7,2,2.6,2.9
		l0.1,0.1c0.4,0.4,0.9,0.8,1.3,1.2l0.1,0.1c0.5,0.4,1,0.8,1.5,1.2c0,0,0.1,0,0.1,0.1c0.5,0.3,1,0.7,1.5,1l0.1,0.1l0.2,0.1
		c1,0.7,2.2,1.3,3.3,1.8l0.4,0.2c0.5,0.2,1,0.4,1.5,0.6l0.2,0.1c0.6,0.2,1.2,0.4,1.7,0.6l0.4,0.1c0.5,0.1,1,0.3,1.5,0.4l0.4,0.1
		c0.6,0.1,1.2,0.2,1.8,0.3h0.3c0.5,0.1,1,0.1,1.6,0.2h0.5c0.6,0,1.3,0.1,1.9,0.1c9.7,0,18.7-4.8,24.2-12.7h101.4
		c0.1,0.1,0.2,0.2,0.2,0.3l0.2,0.2c0.9,1.1,1.8,2.1,2.8,3.1l0.2,0.2c0.5,0.4,0.9,0.9,1.4,1.3l0.1,0.1c0.5,0.4,1.1,0.9,1.6,1.3
		l0.2,0.1c0.5,0.4,1,0.7,1.5,1l0.3,0.2c1.1,0.7,2.3,1.4,3.5,1.9l0.4,0.2c0.5,0.2,1.1,0.5,1.7,0.7l0.2,0.1c0.6,0.2,1.2,0.4,1.9,0.6
		l0.4,0.1c0.5,0.1,1.1,0.3,1.6,0.4l0.5,0.1c0.7,0.1,1.3,0.3,2,0.4l0.4,0.1c0.6,0.1,1.1,0.1,1.7,0.2c0.2,0,0.4,0,0.6,0
		c0.8,0.1,1.5,0.1,2.1,0.1c10.1,0,19.5-4.7,25.5-12.7h11.1c13,0.5,16.1-1.9,17.2-3.3c1.2-1.3,2.3-3.6,2.1-7.9v-4
		c0-2.7-1.5-5.6-4.4-7L260,62.1c-0.1-0.1-0.1-0.3-0.2-0.4c-0.3-0.6-1.7-3-5.2-5.1l1.6-7l17.1,1.3c0.1,0,0.1,0,0.2,0
		c5.1,0.2,8.6-2,9.3-5.6c0.1-0.5,0.2-1.1,0.3-3.1c0-0.5,0-1.1-0.2-1.6c-0.8-3-3.4-4.5-5.9-4.5h-0.1c-0.1,0-0.3,0-0.4-0.1
		c0.2-3,0.3-6.5,0.4-8.7l4.5-2.4c1.5-0.8,2.4-2.3,2.5-4c0.1-1.8,0.1-3.3,0.1-4.4v-1.7c0.3-3.3-1-6-3.5-7.1
		c-2.3-1.1-2.4-1.1-27.3,8.6c-11.4,4.4-22.8,9-22.9,9.1c0,0-0.1,0-0.1,0.1c0,0-1.6,0.7-3.5,0.8c-1.9,0.1-9-0.2-13.1-0.4
		c-4.5-0.5-6.8,1.8-7.4,4.1c-0.1,0.5-0.2,1.1-0.4,2.7c-0.2,2.7-0.4,7-0.4,7.2c0,0,0,0,0,0.1l-2.7-0.9c-0.6-0.2-7.2-2.7-12.1-6.4
		c-15.2-11.4-28.6-13.9-37.1-13.9c-1.9,0-3.7,0.1-5.6,0.3c-2.4,0.3-4.2,2.3-4.2,4.7V47c-0.1,1.7-1.5,1.9-2.3,2
		c-2.6,0-29.3,0.3-46.3,4.3c-0.2-1.8-0.7-3.6-2.4-5c-2.4-2.1-5.5-1.7-7.6-1.3c-0.2,0-0.5,0.1-0.8,0.2l0,0c-0.3,0.1-0.6,0.2-0.9,0.3
		h-0.1c-0.3,0.1-0.6,0.2-0.9,0.3h-0.1c-0.3,0.1-0.6,0.3-0.9,0.4c0,0-0.1,0-0.1,0.1c-0.3,0.1-0.5,0.3-0.8,0.4l-0.2,0.1
		c-0.3,0.1-0.5,0.3-0.8,0.5l-0.2,0.1c-0.2,0.2-0.5,0.3-0.7,0.5l-0.3,0.2c-0.2,0.2-0.4,0.3-0.6,0.5l-0.3,0.2
		c-0.2,0.2-0.4,0.3-0.6,0.5c-0.1,0.1-0.2,0.2-0.3,0.3c-0.2,0.2-0.3,0.3-0.5,0.5c-0.1,0.1-0.2,0.2-0.3,0.3l-0.1,0.1
		c-0.1,0.2-0.3,0.3-0.4,0.5l0,0c-6.2,1.4-25.5,7-44.1,22.4c-0.1,0-0.1,0.1-0.2,0.1c-0.2,0.2-0.3,0.3-0.5,0.5l-0.2,0.2
		c-0.5,0.4-1,0.9-1.5,1.3c-0.3,0.3-0.6,0.5-0.9,0.8L27.6,79c-0.1,0.1-0.2,0.2-0.3,0.3c-0.9,0.8-1.8,1.7-2.6,2.6
		c-0.1,0.1-0.1,0.1-0.2,0.2l-0.3,0.3c-0.3,0.3-0.5,0.5-0.8,0.8l-0.2,0.2c-0.1,0.1-0.3,0.3-0.4,0.4s-0.1,0.2-0.2,0.3
		c-1.2,1.3-2.2,2.5-3.2,3.7c-1.4,1.2-2.7,2.4-3.9,3.6c-0.1,0.1-0.1,0.1-0.2,0.2c-1,1.1-5.7,6.6-3.3,12.3
		C14.3,108.6,19.9,109.4,23.2,109.1z"/>
	<path class="st14" d="M228.4,47.3h-0.1H228.4L228.4,47.3z M22.8,108.7H43c0.3,0.5,0.7,0.9,1,1.4l0.1,0.1c0.8,1,1.7,2,2.6,2.9
		l0.1,0.1c0.4,0.4,0.9,0.8,1.3,1.2l0.1,0.1c0.5,0.4,1,0.8,1.5,1.2c0,0,0.1,0,0.1,0.1c0.5,0.3,1,0.7,1.5,1l0.1,0.1l0.2,0.1
		c1,0.7,2.2,1.3,3.3,1.8l0.4,0.2c0.5,0.2,1,0.4,1.5,0.6l0.2,0.1c0.6,0.2,1.2,0.4,1.7,0.6l0.4,0.1c0.5,0.1,1,0.3,1.5,0.4l0.4,0.1
		c0.6,0.1,1.2,0.2,1.8,0.3h0.3c0.5,0.1,1,0.1,1.6,0.2h0.5c0.6,0,1.3,0.1,1.9,0.1c9.7,0,18.7-4.8,24.2-12.7h101.4
		c0.1,0.1,0.2,0.2,0.2,0.3l0.2,0.2c0.9,1.1,1.8,2.1,2.8,3.1l0.2,0.2c0.5,0.4,0.9,0.9,1.4,1.3l0.1,0.1c0.5,0.4,1.1,0.9,1.6,1.3
		l0.2,0.1c0.5,0.4,1,0.7,1.5,1l0.3,0.2c1.1,0.7,2.3,1.4,3.5,1.9l0.4,0.2c0.5,0.2,1.1,0.5,1.7,0.7l0.2,0.1c0.6,0.2,1.2,0.4,1.9,0.6
		l0.4,0.1c0.5,0.1,1.1,0.3,1.6,0.4l0.5,0.1c0.7,0.1,1.3,0.3,2,0.4l0.4,0.1c0.6,0.1,1.1,0.1,1.7,0.2c0.2,0,0.4,0,0.6,0
		c0.8,0.1,1.5,0.1,2.1,0.1c10.1,0,19.5-4.7,25.5-12.7H255c13,0.5,16.1-1.9,17.2-3.3c1.2-1.3,2.3-3.6,2.1-7.9v-3.9
		c0-2.7-1.5-5.6-4.4-7l-10.3-24.9c-0.1-0.1-0.1-0.3-0.2-0.4c-0.3-0.6-1.7-3-5.2-5.1l1.6-7l17.1,1.3c0.1,0,0.1,0,0.2,0
		c5.1,0.2,8.6-2,9.3-5.6c0.1-0.5,0.2-1.1,0.3-3.1c0-0.5,0-1.1-0.2-1.6c-0.8-3-3.4-4.5-5.9-4.5h-0.1c-0.1,0-0.3,0-0.4-0.1
		c0.2-3,0.3-6.5,0.4-8.7l4.5-2.4c1.5-0.8,2.4-2.3,2.5-4c0.1-1.8,0.1-3.3,0.1-4.4v-1.7c0.3-3.3-1-6-3.5-7.1
		c-2.3-1.1-2.4-1.1-27.3,8.6c-11.4,4.4-22.8,9-22.9,9.1c0,0-0.1,0-0.1,0.1c0,0-1.6,0.7-3.5,0.8c-1.9,0.1-9-0.2-13.1-0.4
		c-4.5-0.5-6.8,1.8-7.4,4.1c-0.1,0.5-0.2,1.1-0.4,2.7c-0.2,2.7-0.4,7-0.4,7.2c0,0,0,0,0,0.1l-2.7-0.9c-0.6-0.2-7.2-2.7-12.1-6.4
		C175,21,161.6,18.5,153.1,18.5c-1.9,0-3.7,0.1-5.6,0.3c-2.4,0.3-4.2,2.3-4.2,4.7v23.2c-0.1,1.7-1.5,1.9-2.3,2
		c-2.6,0-29.3,0.3-46.3,4.3c-0.2-1.8-0.7-3.6-2.4-5c-2.4-2.1-5.5-1.7-7.6-1.3c-0.2,0-0.5,0.1-0.8,0.2l0,0c-0.3,0.1-0.6,0.2-0.9,0.3
		h-0.1c-0.3,0.1-0.6,0.2-0.9,0.3h-0.1c-0.3,0.1-0.6,0.3-0.9,0.4c0,0-0.1,0-0.1,0.1c-0.3,0.1-0.5,0.3-0.8,0.4l-0.1,0
		c-0.3,0.1-0.5,0.3-0.8,0.5L79,49c-0.2,0.2-0.5,0.3-0.7,0.5L78,49.7c-0.2,0.2-0.4,0.3-0.6,0.5l-0.3,0.2c-0.2,0.2-0.4,0.3-0.6,0.5
		c-0.1,0.1-0.2,0.2-0.3,0.3c-0.2,0.2-0.3,0.3-0.5,0.5c-0.1,0.1-0.2,0.2-0.3,0.3l-0.1,0.1c-0.1,0.2-0.3,0.3-0.4,0.5l0,0
		c-6.2,1.4-25.5,7-44.1,22.4c-0.1,0-0.1,0.1-0.2,0.1c-0.2,0.2-0.3,0.3-0.5,0.5l-0.2,0.2c-0.5,0.4-1,0.9-1.5,1.3
		c-0.3,0.3-0.6,0.5-0.9,0.8l-0.6,0.6c-0.1,0.1-0.2,0.2-0.3,0.3c-0.9,0.8-1.8,1.7-2.6,2.6c-0.1,0.1-0.1,0.1-0.2,0.2l-0.3,0.3
		c-0.3,0.3-0.5,0.5-0.8,0.8l-0.2,0.2c-0.1,0.1-0.3,0.3-0.4,0.4s-0.1,0.2-0.2,0.3c-1.2,1.3-2.2,2.5-3.2,3.7c-1.4,1.2-2.7,2.4-3.9,3.6
		c-0.1,0.1-0.1,0.1-0.2,0.2c-1,1.1-5.7,6.6-3.3,12.3C13.9,108.2,19.5,109,22.8,108.7z"/>
	<path class="st15" d="M228,46.9h-0.1H228L228,46.9z M22.4,108.3h20.3c0.3,0.5,0.7,0.9,1,1.4l0.1,0.1c0.8,1,1.7,2,2.6,2.9l0.1,0.1
		c0.4,0.4,0.9,0.8,1.3,1.2l0.1,0.1c0.5,0.4,1,0.8,1.5,1.2c0,0,0.1,0,0.1,0.1c0.5,0.3,1,0.7,1.5,1l0.1,0.1l0.2,0.1
		c1,0.7,2.2,1.3,3.3,1.8l0.4,0.2c0.5,0.2,1,0.4,1.5,0.6l0.2,0.1c0.6,0.2,1.2,0.4,1.7,0.6l0.4,0.1c0.5,0.1,1,0.3,1.5,0.4l0.4,0.1
		c0.6,0.1,1.2,0.2,1.8,0.3h0.3c0.5,0.1,1,0.1,1.6,0.2h0.5c0.6,0,1.3,0.1,1.9,0.1c9.7,0,18.7-4.8,24.2-12.7h101.4
		c0.1,0.1,0.2,0.2,0.2,0.3l0.2,0.2c0.9,1.1,1.8,2.1,2.8,3.1l0.2,0.2c0.5,0.4,0.9,0.9,1.4,1.3l0.1,0.1c0.5,0.4,1.1,0.9,1.6,1.3
		l0.2,0.1c0.5,0.4,1,0.7,1.5,1l0.3,0.2c1.1,0.7,2.3,1.4,3.5,1.9l0.4,0.2c0.5,0.2,1.1,0.5,1.7,0.7l0.2,0.1c0.6,0.2,1.2,0.4,1.9,0.6
		l0.4,0.1c0.5,0.1,1.1,0.3,1.6,0.4l0.5,0.1c0.7,0.1,1.3,0.3,2,0.4l0.4,0.1c0.6,0.1,1.1,0.1,1.7,0.2c0.2,0,0.4,0,0.6,0
		c0.8,0.1,1.5,0.1,2.1,0.1c10.1,0,19.5-4.7,25.5-12.7h11.1c13,0.5,16.1-1.9,17.2-3.3c1.2-1.3,2.3-3.6,2.1-7.9v-3.9
		c0-2.7-1.5-5.6-4.4-7l-10.3-24.9c-0.1-0.1-0.1-0.3-0.2-0.4c-0.3-0.6-1.7-3-5.2-5.1l1.6-7l17.1,1.3c0.1,0,0.1,0,0.2,0
		c5.1,0.2,8.6-2,9.3-5.6c0.1-0.5,0.2-1.1,0.3-3.1c0-0.5,0-1.1-0.2-1.6c-0.8-3-3.4-4.5-5.9-4.5H276c-0.1,0-0.3,0-0.4-0.1
		c0.2-3,0.3-6.5,0.4-8.7l4.5-2.4c1.5-0.8,2.4-2.3,2.5-4c0.1-1.8,0.1-3.3,0.1-4.4v-1.7c0.3-3.3-1-6-3.5-7.1
		c-2.3-1.1-2.4-1.1-27.3,8.6c-11.4,4.4-22.8,9-22.9,9.1c0,0-0.1,0-0.1,0.1c0,0-1.6,0.7-3.5,0.8c-1.9,0.1-9-0.2-13.1-0.4
		c-4.5-0.5-6.8,1.8-7.4,4.1c-0.1,0.5-0.2,1.1-0.4,2.7c-0.2,2.7-0.4,7-0.4,7.2c0,0,0,0,0,0.1l-2.7-0.9c-0.6-0.2-7.2-2.7-12.1-6.4
		c-15.2-11.4-28.6-13.9-37.1-13.9c-1.9,0-3.7,0.1-5.6,0.3c-2.4,0.3-4.2,2.3-4.2,4.7v23.2c-0.1,1.7-1.5,1.9-2.3,2
		c-2.6,0-29.3,0.3-46.3,4.3c-0.2-1.8-0.7-3.6-2.4-5c-2.4-2.1-5.5-1.7-7.6-1.3c-0.2,0-0.5,0.1-0.8,0.2l0,0c-0.3,0.1-0.6,0.2-0.9,0.3
		h-0.1c-0.3,0.1-0.6,0.2-0.9,0.3h-0.1c-0.3,0.1-0.6,0.3-0.9,0.4c0,0-0.1,0-0.1,0.1c-0.3,0.1-0.5,0.3-0.8,0.4l0,0
		c-0.3,0.1-0.5,0.3-0.8,0.5l-0.2,0.1c-0.2,0.2-0.5,0.3-0.7,0.5l-0.3,0.2c-0.2,0.2-0.4,0.3-0.6,0.5L76.8,50c-0.2,0.2-0.4,0.3-0.6,0.5
		c-0.1,0.1-0.2,0.2-0.3,0.3c-0.2,0.2-0.3,0.3-0.5,0.5c-0.1,0.1-0.2,0.2-0.3,0.3L75,51.7c-0.1,0.2-0.3,0.3-0.4,0.5l0,0
		c-6.2,1.4-25.5,7-44.1,22.4c-0.1,0-0.1,0.1-0.2,0.1c-0.2,0.2-0.3,0.3-0.5,0.5l-0.2,0.2c-0.5,0.4-1,0.9-1.5,1.3
		c-0.3,0.3-0.6,0.5-0.9,0.8l-0.6,0.6c-0.1,0.1-0.2,0.2-0.3,0.3c-0.9,0.8-1.8,1.7-2.6,2.6c-0.1,0.1-0.1,0.1-0.2,0.2l-0.3,0.3
		c-0.3,0.3-0.5,0.5-0.8,0.8l-0.2,0.2c-0.1,0.1-0.3,0.3-0.4,0.4s-0.1,0.2-0.2,0.3c-1.2,1.3-2.2,2.5-3.2,3.7c-1.4,1.2-2.7,2.4-3.9,3.6
		c-0.1,0.1-0.1,0.1-0.2,0.2c-1,1.1-5.7,6.6-3.3,12.3C13.5,107.8,19.1,108.6,22.4,108.3z"/>
	<path class="st16" d="M227.6,46.4h-0.1H227.6L227.6,46.4z M21.9,107.9h20.3c0.3,0.5,0.7,0.9,1,1.4l0.1,0.1c0.8,1,1.7,2,2.6,2.9
		l0.1,0.1c0.4,0.4,0.9,0.8,1.3,1.2l0.1,0.1c0.5,0.4,1,0.8,1.5,1.2c0,0,0.1,0,0.1,0.1c0.5,0.3,1,0.7,1.5,1l0.1,0.1l0.2,0.1
		c1,0.7,2.2,1.3,3.3,1.8l0.4,0.2c0.5,0.2,1,0.4,1.5,0.6l0.2,0.1c0.6,0.2,1.2,0.4,1.7,0.6l0.4,0.1c0.5,0.1,1,0.3,1.5,0.4l0.4,0.1
		c0.6,0.1,1.2,0.2,1.8,0.3h0.3c0.5,0.1,1,0.1,1.6,0.2h0.5c0.6,0,1.3,0.1,1.9,0.1c9.7,0,18.7-4.8,24.2-12.7H192
		c0.1,0.1,0.2,0.2,0.2,0.3l0.2,0.2c0.9,1.1,1.8,2.1,2.8,3.1l0.2,0.2c0.5,0.4,0.9,0.9,1.4,1.3l0.1,0.1c0.5,0.4,1.1,0.9,1.6,1.3
		l0.2,0.1c0.5,0.4,1,0.7,1.5,1l0.3,0.2c1.1,0.7,2.3,1.4,3.5,1.9l0.4,0.2c0.5,0.2,1.1,0.5,1.7,0.7l0.2,0.1c0.6,0.2,1.2,0.4,1.9,0.6
		l0.4,0.1c0.5,0.1,1.1,0.3,1.6,0.4l0.5,0.1c0.7,0.1,1.3,0.3,2,0.4l0.4,0.1c0.6,0.1,1.1,0.1,1.7,0.2c0.2,0,0.4,0,0.6,0
		c0.8,0.1,1.5,0.1,2.1,0.1c10.1,0,19.5-4.7,25.5-12.7h11.1c13,0.5,16.1-1.9,17.2-3.3c1.2-1.3,2.3-3.6,2.1-7.9v-3.9
		c0-2.7-1.5-5.6-4.4-7L258.7,61c-0.1-0.1-0.1-0.3-0.2-0.4c-0.3-0.6-1.7-3-5.2-5.1l1.6-7l17.1,1.3c0.1,0,0.1,0,0.2,0
		c5.1,0.2,8.6-2,9.3-5.6c0.1-0.5,0.2-1.1,0.3-3.1c0-0.5,0-1.1-0.2-1.6c-0.8-3-3.4-4.5-5.9-4.5h-0.1c-0.1,0-0.3,0-0.4-0.1
		c0.2-3,0.3-6.5,0.4-8.7l4.5-2.4c1.5-0.8,2.4-2.3,2.5-4c0.1-1.8,0.1-3.3,0.1-4.4v-1.7c0.3-3.3-1-6-3.5-7.1
		c-2.3-1.1-2.4-1.1-27.3,8.6c-11.4,4.4-22.8,9-22.9,9.1c0,0-0.1,0-0.1,0.1c0,0-1.6,0.7-3.5,0.8c-1.9,0.1-9-0.2-13.1-0.4
		c-4.5-0.5-6.8,1.8-7.4,4.1c-0.1,0.5-0.2,1.1-0.4,2.7c-0.2,2.7-0.4,7-0.4,7.2c0,0,0,0,0,0.1l-2.7-0.9c-0.6-0.2-7.2-2.7-12.1-6.4
		c-15.2-11.4-28.6-13.9-37.1-13.9c-1.9,0-3.7,0.1-5.6,0.3c-2.4,0.3-4.2,2.3-4.2,4.7v23.2c-0.1,1.7-1.5,1.9-2.3,2
		c-2.6,0-29.3,0.3-46.3,4.3c-0.2-1.8-0.7-3.6-2.4-5C89,45,86,45.3,83.9,45.7c-0.2,0-0.5,0.1-0.8,0.2l0,0c-0.3,0.1-0.6,0.2-0.9,0.3
		h-0.1c-0.3,0.1-0.6,0.2-0.9,0.3h-0.1c-0.3,0.1-0.6,0.3-0.9,0.4c0,0-0.1,0-0.1,0.1c-0.3,0.1-0.5,0.3-0.8,0.4l-0.2,0.1
		c-0.3,0.1-0.5,0.3-0.8,0.5l-0.2,0.1c-0.2,0.2-0.5,0.3-0.7,0.5l-0.3,0.2c-0.2,0.2-0.4,0.3-0.6,0.5l-0.3,0.2
		c-0.2,0.2-0.4,0.3-0.6,0.5c-0.1,0.1-0.2,0.2-0.3,0.3c-0.2,0.2-0.3,0.3-0.5,0.5c-0.1,0.1-0.2,0.2-0.3,0.3l-0.1,0.1
		c-0.1,0.2-0.3,0.3-0.4,0.5l0,0c-6.2,1.4-25.5,7-44.1,22.4c-0.1,0-0.1,0.1-0.2,0.1c-0.2,0.2-0.3,0.3-0.5,0.5L29,74.9
		c-0.5,0.4-1,0.9-1.5,1.3c-0.3,0.3-0.6,0.5-0.9,0.8L26,77.6c-0.1,0.1-0.2,0.2-0.3,0.3c-0.9,0.8-1.8,1.7-2.6,2.6
		c-0.1,0.1-0.1,0.1-0.2,0.2l0.1,0.4c-0.3,0.3-0.5,0.5-0.8,0.8L22,82.1c-0.1,0.1-0.3,0.3-0.4,0.4s-0.1,0.2-0.2,0.3
		c-1.2,1.3-2.2,2.5-3.2,3.7c-1.4,1.2-2.7,2.4-3.9,3.6c-0.1,0.1-0.1,0.1-0.2,0.2c-1,1.1-5.7,6.6-3.3,12.3
		C13.1,107.4,18.7,108.2,21.9,107.9z"/>
	<path class="st17" d="M227.1,46H227H227.1L227.1,46z M21.5,107.4h20.3c0.3,0.5,0.7,0.9,1,1.4l0.1,0.1c0.8,1,1.7,2,2.6,2.9l0.1,0.1
		c0.4,0.4,0.9,0.8,1.3,1.2l0.1,0.1c0.5,0.4,1,0.8,1.5,1.2c0,0,0.1,0,0.1,0.1c0.5,0.3,1,0.7,1.5,1l0.1,0.1l0.2,0.1
		c1,0.7,2.2,1.3,3.3,1.8l0.4,0.2c0.5,0.2,1,0.4,1.5,0.6l0.2,0.1c0.6,0.2,1.2,0.4,1.7,0.6l0.4,0.1c0.5,0.1,1,0.3,1.5,0.4l0.4,0.1
		c0.6,0.1,1.2,0.2,1.8,0.3h0.3c0.5,0.1,1,0.1,1.6,0.2H64c0.6,0,1.3,0.1,1.9,0.1c9.7,0,18.7-4.8,24.2-12.7h101.4
		c0.1,0.1,0.2,0.2,0.2,0.3l0.2,0.2c0.9,1.1,1.8,2.1,2.8,3.1l0.2,0.2c0.5,0.4,0.9,0.9,1.4,1.3l0.1,0.1c0.5,0.4,1.1,0.9,1.6,1.3
		l0.2,0.1c0.5,0.4,1,0.7,1.5,1l0.3,0.2c1.1,0.7,2.3,1.4,3.5,1.9l0.4,0.2c0.5,0.2,1.1,0.5,1.7,0.7l0.2,0.1c0.6,0.2,1.2,0.4,1.9,0.6
		l0.4,0.1c0.5,0.1,1.1,0.3,1.6,0.4l0.5,0.1c0.7,0.1,1.3,0.3,2,0.4l0.4,0.1c0.6,0.1,1.1,0.1,1.7,0.2c0.2,0,0.4,0,0.6,0
		c0.8,0.1,1.5,0.1,2.1,0.1c10.1,0,19.5-4.7,25.5-12.7h11.1c13,0.5,16.1-1.9,17.2-3.3c1.2-1.3,2.3-3.6,2.1-7.9v-3.9
		c0-2.7-1.5-5.6-4.4-7l-10.3-24.9c-0.1-0.1-0.1-0.3-0.2-0.4c-0.3-0.6-1.7-3-5.2-5.1l1.6-7l17.1,1.3c0.1,0,0.1,0,0.2,0
		c5.1,0.2,8.6-2,9.3-5.6c0.1-0.5,0.2-1.1,0.3-3.1c0-0.5,0-1.1-0.2-1.6c-0.8-3-3.4-4.5-5.9-4.5h-0.1c-0.1,0-0.3,0-0.4-0.1
		c0.2-3,0.3-6.5,0.4-8.7l4.5-2.4c1.5-0.8,2.4-2.3,2.5-4c0.1-1.8,0.1-3.3,0.1-4.4v-1.7c0.3-3.3-1-6-3.5-7.1
		c-2.3-1.1-2.4-1.1-27.3,8.6c-11.4,4.4-22.8,9-22.9,9.1c0,0-0.1,0-0.1,0.1c0,0-1.6,0.7-3.5,0.8c-1.9,0.1-9-0.2-13.1-0.4
		c-4.5-0.5-6.8,1.8-7.4,4.1c-0.1,0.5-0.2,1.1-0.4,2.7c-0.2,2.7-0.4,7-0.4,7.2c0,0,0,0,0,0.1l-2.7-0.9c-0.6-0.2-7.2-2.7-12.1-6.4
		c-15.2-11.4-28.6-13.9-37.1-13.9c-1.9,0-3.7,0.1-5.6,0.3c-2.4,0.3-4.2,2.3-4.2,4.7v23.2c-0.1,1.7-1.5,1.9-2.3,2
		c-2.6,0-29.3,0.3-46.3,4.3c-0.2-1.8-0.7-3.6-2.4-5c-2.4-2.1-5.5-1.7-7.6-1.3c-0.2,0-0.5,0.1-0.8,0.2l0,0c-0.3,0.1-0.6,0.2-0.9,0.3
		h-0.1c-0.3,0.1-0.6,0.2-0.9,0.3h-0.1c-0.3,0.1-0.6,0.3-0.9,0.4c0,0-0.1,0-0.1,0.1c-0.3,0.1-0.5,0.3-0.8,0.4l-0.2,0.1
		c-0.3,0.1-0.5,0.3-0.8,0.5l-0.2,0.1c-0.2,0.2-0.5,0.3-0.7,0.5l-0.3,0.2c-0.2,0.2-0.4,0.3-0.6,0.5l0.1,0.2c-0.2,0.2-0.4,0.3-0.6,0.5
		c-0.1,0.1-0.2,0.2-0.3,0.3c-0.2,0.2-0.3,0.3-0.5,0.5c-0.1,0.1-0.2,0.2-0.3,0.3l-0.1,0.1c-0.1,0.2-0.3,0.3-0.4,0.5l0,0
		c-6.2,1.4-25.5,7-44.1,22.4c-0.1,0-0.1,0.1-0.2,0.1c-0.2,0.2-0.3,0.3-0.5,0.5l-0.2,0.2c-0.5,0.4-1,0.9-1.5,1.3
		c-0.3,0.3-0.6,0.5-0.9,0.8l-0.6,0.6c-0.1,0.1-0.2,0.2-0.3,0.3c-0.9,0.8-1.8,1.7-2.6,2.6c-0.1,0.1-0.1,0.1-0.2,0.2l-0.3,0.3
		c-0.3,0.3-0.5,0.5-0.8,0.8l-0.2,0.2c-0.1,0.1-0.3,0.3-0.4,0.4s-0.1,0.2-0.2,0.3c-1.2,1.3-2.2,2.5-3.2,3.7c-1.4,1.2-2.7,2.4-3.9,3.6
		c-0.1,0.1-0.1,0.1-0.2,0.2c-1,1.1-5.7,6.6-3.3,12.3C12.7,107,18.3,107.8,21.5,107.4z"/>
	<path class="st18" d="M226.7,45.6h-0.1H226.7L226.7,45.6z M21.1,107h20.3c0.3,0.5,0.7,0.9,1,1.4l0.1,0.1c0.8,1,1.7,2,2.6,2.9
		l0.1,0.1c0.4,0.4,0.9,0.8,1.3,1.2l0.1,0.1c0.5,0.4,1,0.8,1.5,1.2c0,0,0.1,0,0.1,0.1c0.5,0.3,1,0.7,1.5,1l0.1,0.1l0.2,0.1
		c1,0.7,2.2,1.3,3.3,1.8l0.4,0.2c0.5,0.2,1,0.4,1.5,0.6l0.2,0.1c0.6,0.2,1.2,0.4,1.7,0.6l0.4,0.1c0.5,0.1,1,0.3,1.5,0.4l0.4,0.1
		c0.6,0.1,1.2,0.2,1.8,0.3h0.3c0.5,0.1,1,0.1,1.6,0.2h0.5c0.6,0,1.3,0.1,1.9,0.1c9.7,0,18.7-4.8,24.2-12.7h101.4
		c0.1,0.1,0.2,0.2,0.2,0.3l0.2,0.2c0.9,1.1,1.8,2.1,2.8,3.1l0.2,0.2c0.5,0.4,0.9,0.9,1.4,1.3l0.1,0.1c0.5,0.4,1.1,0.9,1.6,1.3
		l0.2,0.1c0.5,0.4,1,0.7,1.5,1l0.3,0.2c1.1,0.7,2.3,1.4,3.5,1.9l0.4,0.2c0.5,0.2,1.1,0.5,1.7,0.7l0.2,0.1c0.6,0.2,1.2,0.4,1.9,0.6
		l0.4,0.1c0.5,0.1,1.1,0.3,1.6,0.4l0.5,0.1c0.7,0.1,1.3,0.3,2,0.4l0.4,0.1c0.6,0.1,1.1,0.1,1.7,0.2c0.2,0,0.4,0,0.6,0
		c0.8,0.1,1.5,0.1,2.1,0.1c10.1,0,19.5-4.7,25.5-12.7h11.1c13,0.5,16.1-1.9,17.2-3.3c1.2-1.3,2.3-3.6,2.1-7.9V92
		c0-2.7-1.5-5.6-4.4-7L258,60.1c-0.1-0.1-0.1-0.3-0.2-0.4c-0.3-0.6-1.7-3-5.2-5.1l1.6-7l17.1,1.3c0.1,0,0.1,0,0.2,0
		c5.1,0.2,8.6-2,9.3-5.6c0.1-0.5,0.2-1.1,0.3-3.1c0-0.5,0-1.1-0.2-1.6c-0.8-3-3.4-4.5-5.9-4.5h-0.1c-0.1,0-0.3,0-0.4-0.1
		c0.2-3,0.3-6.5,0.4-8.7l4.5-2.4c1.5-0.8,2.4-2.3,2.5-4c0.1-1.8,0.1-3.3,0.1-4.4v-1.7c0.3-3.3-1-6-3.5-7.1
		c-2.3-1.1-2.4-1.1-27.3,8.6c-11.4,4.4-22.8,9-22.9,9.1c0,0-0.1,0-0.1,0.1c0,0-1.6,0.7-3.5,0.8c-1.9,0.1-9-0.2-13.1-0.4
		c-4.5-0.5-6.8,1.8-7.4,4.1c-0.1,0.5-0.2,1.1-0.4,2.7c-0.2,2.7-0.4,7-0.4,7.2c0,0,0,0,0,0.1l-2.7-0.9c-0.6-0.2-7.2-2.7-12.1-6.4
		c-15.2-11.4-28.6-13.9-37.1-13.9c-1.9,0-3.7,0.1-5.6,0.3c-2.4,0.3-4.2,2.3-4.2,4.7V45c-0.1,1.7-1.5,1.9-2.3,2
		c-2.6,0-29.3,0.3-46.3,4.3c-0.2-1.8-0.7-3.6-2.4-5c-2.4-2.1-5.5-1.7-7.6-1.3c-0.2,0-0.5,0.1-0.8,0.2l0,0c-0.3,0.1-0.6,0.2-0.9,0.3
		h-0.1c-0.3,0.1-0.6,0.2-0.9,0.3h-0.1c-0.3,0.1-0.6,0.3-0.9,0.4c0,0-0.1,0-0.1,0.1c-0.3,0.1-0.5,0.3-0.8,0.4l-0.2,0.1
		c-0.3,0.1-0.5,0.3-0.8,0.5l-0.2,0.1c-0.2,0.2-0.5,0.3-0.7,0.5L76.5,48c-0.2,0.2-0.4,0.3-0.6,0.5l-0.3,0.2c-0.2,0.2-0.4,0.3-0.6,0.5
		c-0.1,0.1-0.2,0.2-0.3,0.3c-0.2,0.2-0.3,0.3-0.5,0.5c-0.1,0.1-0.2,0.2-0.3,0.3l-0.1,0.1c-0.1,0.2-0.3,0.3-0.4,0.5l0,0
		c-6.2,1.4-25.5,7-44.1,22.4c-0.1,0-0.1,0.1-0.2,0.1c-0.2,0.2-0.3,0.3-0.5,0.5l-0.2,0.2c-0.5,0.4-1,0.9-1.5,1.3
		c-0.3,0.3-0.6,0.5-0.9,0.8l-0.6,0.6c-0.1,0.1-0.2,0.2-0.3,0.3c-0.9,0.8-1.8,1.7-2.6,2.6c-0.1,0.1-0.1,0.1-0.2,0.2L22,80.2
		c-0.3,0.3-0.5,0.5-0.8,0.8L21,81.2c-0.1,0.1-0.3,0.3-0.4,0.4s-0.1,0.2-0.2,0.3c-1.2,1.3-2.2,2.5-3.2,3.7c-1.4,1.2-2.7,2.4-3.9,3.6
		c-0.1,0.1-0.1,0.1-0.2,0.2c-1,1.1-5.7,6.6-3.3,12.3C12.2,106.6,17.9,107.4,21.1,107z"/>
	<path class="st19" d="M226.3,45.2h-0.1H226.3L226.3,45.2z M20.7,106.6H41c0.3,0.5,0.7,0.9,1,1.4l0.1,0.1c0.8,1,1.7,2,2.6,2.9
		l0.1,0.1c0.4,0.4,0.9,0.8,1.3,1.2l0.1,0.1c0.5,0.4,1,0.8,1.5,1.2c0,0,0.1,0,0.1,0.1c0.5,0.3,1,0.7,1.5,1l0.1,0.1l0.2,0.1
		c1,0.7,2.2,1.3,3.3,1.8l0.4,0.2c0.5,0.2,1,0.4,1.5,0.6l0.2,0.1c0.6,0.2,1.2,0.4,1.7,0.6l0.4,0.1c0.5,0.1,1,0.3,1.5,0.4l0.4,0.1
		c0.6,0.1,1.2,0.2,1.8,0.3h0.3c0.5,0.1,1,0.1,1.6,0.2h0.5c0.6,0,1.3,0.1,1.9,0.1c9.7,0,18.7-4.8,24.2-12.7h101.4
		c0.1,0.1,0.2,0.2,0.2,0.3l0.2,0.2c0.9,1.1,1.8,2.1,2.8,3.1l0.2,0.2c0.5,0.4,0.9,0.9,1.4,1.3l0.1,0.1c0.5,0.4,1.1,0.9,1.6,1.3
		l0.2,0.1c0.5,0.4,1,0.7,1.5,1l0.3,0.2c1.1,0.7,2.3,1.4,3.5,1.9l0.4,0.2c0.5,0.2,1.1,0.5,1.7,0.7l0.2,0.1c0.6,0.2,1.2,0.4,1.9,0.6
		l0.4,0.1c0.5,0.1,1.1,0.3,1.6,0.4l0.5,0.1c0.7,0.1,1.3,0.3,2,0.4l0.4,0.1c0.6,0.1,1.1,0.1,1.7,0.2c0.2,0,0.4,0,0.6,0
		c0.8,0.1,1.5,0.1,2.1,0.1c10.1,0,19.5-4.7,25.5-12.7h11.1c13,0.5,16.1-1.9,17.2-3.3c1.2-1.3,2.3-3.6,2.1-7.9v-3.9
		c0-2.7-1.5-5.6-4.4-7l-10.3-24.9c-0.1-0.1-0.1-0.3-0.2-0.4c-0.3-0.6-1.7-3-5.2-5.1l1.6-7l17.1,1.3c0.1,0,0.1,0,0.2,0
		c5.1,0.2,8.6-2,9.3-5.6c0.1-0.5,0.2-1.1,0.3-3.1c0-0.5,0-1.1-0.2-1.6c-0.8-3-3.4-4.5-5.9-4.5h-0.1c-0.1,0-0.3,0-0.4-0.1
		c0.2-3,0.3-6.5,0.4-8.7l4.5-2.4c1.5-0.8,2.4-2.3,2.5-4c0.1-1.8,0.1-3.3,0.1-4.4v-1.7c0.3-3.3-1-6-3.5-7.1
		c-2.3-1.1-2.4-1.1-27.3,8.6c-11.4,4.4-22.8,9-22.9,9.1c0,0-0.1,0-0.1,0.1c0,0-1.6,0.7-3.5,0.8c-1.9,0.1-9-0.2-13.1-0.4
		c-4.5-0.5-6.8,1.8-7.4,4.1c-0.1,0.5-0.2,1.1-0.4,2.7c-0.2,2.7-0.4,7-0.4,7.2c0,0,0,0,0,0.1l-2.7-0.9c-0.6-0.2-7.2-2.7-12.1-6.4
		c-15.2-11.4-28.6-13.9-37.1-13.9c-1.9,0-3.7,0.1-5.6,0.3c-2.4,0.3-4.2,2.3-4.2,4.7v23.2c-0.1,1.7-1.5,1.9-2.3,2
		c-2.6,0-29.3,0.3-46.3,4.3c-0.2-1.8-0.7-3.6-2.4-5c-2.4-2.1-5.5-1.7-7.6-1.3c-0.2,0-0.5,0.1-0.8,0.2l0,0c-0.3,0.1-0.6,0.2-0.9,0.3
		h-0.1c-0.3,0.1-0.6,0.2-0.9,0.3h-0.1c-0.3,0.1-0.6,0.3-0.9,0.4c0,0-0.1,0-0.1,0.1c-0.3,0.1-0.5,0.3-0.8,0.4l-0.2,0.1
		c-0.3,0.1-0.5,0.3-0.8,0.5l0.1,0c-0.2,0.2-0.5,0.3-0.7,0.5L76,47.6c-0.2,0.2-0.4,0.3-0.6,0.5l-0.3,0.2c-0.2,0.2-0.4,0.3-0.6,0.5
		c-0.1,0.1-0.2,0.2-0.3,0.3c-0.2,0.2-0.3,0.3-0.5,0.5c-0.1,0.1-0.2,0.2-0.3,0.3L73.3,50c-0.1,0.2-0.3,0.3-0.4,0.5l0,0
		C66.9,52,47.6,57.6,29,73c-0.1,0-0.1,0.1-0.2,0.1c-0.2,0.2-0.3,0.3-0.5,0.5l-0.2,0.2c-0.5,0.4-1,0.9-1.5,1.3
		c-0.3,0.3-0.6,0.5-0.9,0.8l-0.6,0.6c-0.1,0.1-0.2,0.2-0.3,0.3c-0.9,0.8-1.8,1.7-2.6,2.6c-0.1,0.1-0.1,0.1-0.2,0.2l-0.3,0.3
		c-0.3,0.3-0.5,0.5-0.8,0.8l-0.2,0.2c-0.1,0.1-0.3,0.3-0.4,0.4s-0.1,0.2-0.2,0.3C19,82.8,17.9,84,17,85.2c-1.4,1.2-2.7,2.4-3.9,3.6
		C13,88.9,13,88.9,12.9,89c-1,1.1-5.7,6.6-3.3,12.3C11.8,106.2,17.4,106.9,20.7,106.6z"/>
	<path class="st20" d="M225.9,44.8h-0.1H225.9L225.9,44.8z M20.3,106.2h20.3c0.3,0.5,0.7,0.9,1,1.4l0.1,0.1c0.8,1,1.7,2,2.6,2.9
		l0.1,0.1c0.4,0.4,0.9,0.8,1.3,1.2l0.1,0.1c0.5,0.4,1,0.8,1.5,1.2c0,0,0.1,0,0.1,0.1c0.5,0.3,1,0.7,1.5,1l0.1,0.1l0.2,0.1
		c1,0.7,2.2,1.3,3.3,1.8l0.4,0.2c0.5,0.2,1,0.4,1.5,0.6l0.2,0.1c0.6,0.2,1.2,0.4,1.7,0.6l0.4,0.1c0.5,0.1,1,0.3,1.5,0.4l0.4,0.1
		c0.6,0.1,1.2,0.2,1.8,0.3h0.3c0.5,0.1,1,0.1,1.6,0.2h0.5c0.6,0,1.3,0.1,1.9,0.1c9.7,0,18.7-4.8,24.2-12.7h101.4
		c0.1,0.1,0.2,0.2,0.2,0.3l0.2,0.2c0.9,1.1,1.8,2.1,2.8,3.1l0.2,0.2c0.5,0.4,0.9,0.9,1.4,1.3l0.1,0.1c0.5,0.4,1.1,0.9,1.6,1.3
		l0.2,0.1c0.5,0.4,1,0.7,1.5,1l0.3,0.2c1.1,0.7,2.3,1.4,3.5,1.9l0.4,0.2c0.5,0.2,1.1,0.5,1.7,0.7l0.2,0.1c0.6,0.2,1.2,0.4,1.9,0.6
		l0.4,0.1c0.5,0.1,1.1,0.3,1.6,0.4l0.5,0.1c0.7,0.1,1.3,0.3,2,0.4l0.4,0.1c0.6,0.1,1.1,0.1,1.7,0.2c0.2,0,0.4,0,0.6,0
		c0.8,0.1,1.5,0.1,2.1,0.1c10.1,0,19.5-4.7,25.5-12.7h11.1c13,0.5,16.1-1.9,17.2-3.3c1.2-1.3,2.3-3.6,2.1-7.9v-3.9
		c0-2.7-1.5-5.6-4.4-7L257,59.3c-0.1-0.1-0.1-0.3-0.2-0.4c-0.3-0.6-1.7-3-5.2-5.1l1.6-7l17.1,1.3c0.1,0,0.1,0,0.2,0
		c5.1,0.2,8.6-2,9.3-5.6c0.1-0.5,0.2-1.1,0.3-3.1c0-0.5,0-1.1-0.2-1.6c-0.8-3-3.4-4.5-5.9-4.5h-0.1c-0.1,0-0.3,0-0.4-0.1
		c0.2-3,0.3-6.5,0.4-8.7l4.5-2.4c1.5-0.8,2.4-2.3,2.5-4c0.1-1.8,0.1-3.3,0.1-4.4V12c0.3-3.3-1-6-3.5-7.1c-2.3-1.1-2.4-1.1-27.3,8.6
		c-11.4,4.4-22.8,9-22.9,9.1c0,0-0.1,0-0.2,0.1c0,0-1.6,0.7-3.5,0.8c-1.9,0.1-9-0.2-13.1-0.4c-4.5-0.5-6.8,1.8-7.4,4.1
		c-0.1,0.5-0.2,1.1-0.4,2.7c-0.2,2.7-0.4,7-0.4,7.2c0,0,0,0,0,0.1l-2.7-0.9c-0.6-0.2-7.2-2.7-12.1-6.4C172.3,18.5,158.9,16,150.4,16
		c-1.9,0-3.7,0.1-5.6,0.3c-2.4,0.3-4.2,2.3-4.2,4.7v23.2c-0.1,1.7-1.5,1.9-2.3,2c-2.6,0-29.3,0.3-46.3,4.3c-0.2-1.8-0.7-3.6-2.4-5
		c-2.4-2.1-5.5-1.7-7.6-1.3c-0.2,0-0.5,0.1-0.8,0.2l0,0c-0.3,0.1-0.6,0.2-0.9,0.3h-0.1c-0.3,0.1-0.6,0.2-0.9,0.3h-0.1
		c-0.3,0.1-0.6,0.3-0.9,0.4c0,0-0.1,0-0.1,0.1c-0.3,0.1-0.5,0.3-0.8,0.4L77.2,46c-0.3,0.1-0.5,0.3-0.8,0.5l-0.2,0.1
		c-0.2,0.2-0.5,0.3-0.7,0.5l-0.3,0.2c-0.2,0.2-0.4,0.3-0.6,0.5L74.3,48c-0.2,0.2-0.4,0.3-0.6,0.5c-0.1,0.1-0.2,0.2-0.3,0.3
		c-0.2,0.2-0.3,0.3-0.5,0.5c-0.1,0.1-0.2,0.2-0.3,0.3l-0.1,0.1c-0.1,0.2-0.3,0.3-0.4,0.5l0,0c-6.2,1.4-25.5,7-44.1,22.4
		c-0.1,0-0.1,0.1-0.2,0.1c-0.2,0.2-0.3,0.3-0.5,0.5l-0.2,0.2c-0.5,0.4-1,0.9-1.5,1.3c-0.3,0.3-0.6,0.5-0.9,0.8l-0.6,0.6
		c-0.1,0.1-0.2,0.2-0.3,0.3c-0.9,0.8-1.8,1.7-2.6,2.6c-0.1,0.1-0.1,0.1-0.2,0.2l-0.3,0.3c-0.3,0.3-0.5,0.5-0.8,0.8l-0.2,0.2
		c-0.1,0.1-0.3,0.3-0.4,0.4s-0.1,0.2-0.2,0.3c-1.2,1.3-2.2,2.5-3.2,3.7c-1.4,1.2-2.7,2.4-3.9,3.6c-0.1,0.1-0.1,0.1-0.2,0.2
		c-1,1.1-5.7,6.6-3.3,12.3C11.4,105.7,17,106.5,20.3,106.2z"/>
	<path class="st21" d="M225.5,44.4h-0.1H225.5L225.5,44.4z M19.9,105.8h20.3c0.3,0.5,0.7,0.9,1,1.4l0.1,0.1c0.8,1,1.7,2,2.6,2.9
		l0.1,0.1c0.4,0.4,0.9,0.8,1.3,1.2l0.1,0.1c0.5,0.4,1,0.8,1.5,1.2c0,0,0.1,0,0.1,0.1c0.5,0.3,1,0.7,1.5,1l0.1,0.1l0.2,0.1
		c1,0.7,2.2,1.3,3.3,1.8l0.4,0.2c0.5,0.2,1,0.4,1.5,0.6l0.2,0.1c0.6,0.2,1.2,0.4,1.7,0.6l0.4,0.1c0.5,0.1,1,0.3,1.5,0.4l0.4,0.1
		c0.6,0.1,1.2,0.2,1.8,0.3h0.3c0.5,0.1,1,0.1,1.6,0.2h0.5c0.6,0,1.3,0.1,1.9,0.1c9.7,0,18.7-4.8,24.2-12.7h101.4
		c0.1,0.1,0.2,0.2,0.2,0.3l0.2,0.2c0.9,1.1,1.8,2.1,2.8,3.1l0.2,0.2c0.5,0.4,0.9,0.9,1.4,1.3l0.1,0.1c0.5,0.4,1.1,0.9,1.6,1.3
		l0.2,0.1c0.5,0.4,1,0.7,1.5,1l0.3,0.2c1.1,0.7,2.3,1.4,3.5,1.9l0.4,0.2c0.5,0.2,1.1,0.5,1.7,0.7l0.2,0.1c0.6,0.2,1.2,0.4,1.9,0.6
		l0.4,0.1c0.5,0.1,1.1,0.3,1.6,0.4l0.5,0.1c0.7,0.1,1.3,0.3,2,0.4l0.4,0.1c0.6,0.1,1.1,0.1,1.7,0.2c0.2,0,0.4,0,0.6,0
		c0.8,0.1,1.5,0.1,2.1,0.1c10.1,0,19.5-4.7,25.5-12.7H252c13,0.5,16.1-1.9,17.2-3.3c1.2-1.3,2.3-3.6,2.1-7.9v-3.9
		c0-2.7-1.5-5.6-4.4-7l-10.3-24.9c-0.1-0.1-0.1-0.3-0.2-0.4c-0.3-0.6-1.7-3-5.2-5.1l1.6-7l17.1,1.3c0.1,0,0.1,0,0.2,0
		c5.1,0.2,8.6-2,9.3-5.6c0.1-0.5,0.2-1.1,0.3-3.1c0-0.5,0-1.1-0.2-1.6c-0.8-3-3.4-4.5-5.9-4.5h-0.1c-0.1,0-0.3,0-0.4-0.1
		c0.2-3,0.3-6.5,0.4-8.7l4.5-2.4c1.5-0.8,2.4-2.3,2.5-4c0.1-1.8,0.1-3.3,0.1-4.4v-1.7c0.3-3.3-1-6-3.5-7.1
		c-2.3-1.1-2.4-1.1-27.3,8.6c-11.4,4.4-22.8,9-22.9,9.1c0,0-0.1,0-0.1,0.1c0,0-1.6,0.7-3.5,0.8c-1.9,0.1-9-0.2-13.1-0.4
		c-4.5-0.5-6.8,1.8-7.4,4.1c-0.1,0.5-0.2,1.1-0.4,2.7c-0.2,2.7-0.4,7-0.4,7.2c0,0,0,0,0,0.1l-2.7-0.9c-0.6-0.2-7.2-2.7-12.1-6.4
		c-15.2-11.4-28.6-13.9-37.1-13.9c-1.9,0-3.7,0.1-5.6,0.3c-2.4,0.3-4.2,2.3-4.2,4.7v23.2c-0.1,1.7-1.5,1.9-2.3,2
		c-2.6,0-29.3,0.3-46.3,4.3c-0.2-1.8-0.7-3.6-2.4-5c-2.4-2.1-5.5-1.7-7.6-1.3c-0.2,0-0.5,0.1-0.8,0.2l0,0c-0.3,0.1-0.6,0.2-0.9,0.3
		h-0.1c-0.3,0.1-0.6,0.2-0.9,0.3h-0.1c-0.3,0.1-0.6,0.3-0.9,0.4c0,0-0.1,0-0.1,0.1c-0.3,0.1-0.5,0.3-0.8,0.4l-0.2,0.1
		c-0.3,0.1-0.5,0.3-0.8,0.5l-0.2,0.1c-0.2,0.2-0.5,0.3-0.7,0.5l-0.3,0.2c-0.2,0.2-0.4,0.3-0.6,0.5L74,47.6c-0.2,0.2-0.4,0.3-0.6,0.5
		c-0.1,0.1-0.2,0.2-0.3,0.3c-0.2,0.2-0.3,0.3-0.5,0.5c-0.1,0.1-0.2,0.2-0.3,0.3l-0.1,0.1c-0.1,0.2-0.3,0.3-0.4,0.5l0,0
		c-6.2,1.4-25.5,7-44.1,22.4c-0.1,0-0.1,0.1-0.2,0.1c-0.2,0.2-0.3,0.3-0.5,0.5l0.2,0.2c-0.5,0.4-1,0.9-1.5,1.3
		c-0.3,0.3-0.6,0.5-0.9,0.8l-0.6,0.6c-0.1,0.1-0.2,0.2-0.3,0.3c-0.9,0.8-1.8,1.7-2.6,2.6c-0.1,0.1-0.1,0.1-0.2,0.2L20.9,79
		c-0.3,0.3-0.5,0.5-0.8,0.8L20,80c-0.1,0.1-0.3,0.3-0.4,0.4s-0.1,0.2-0.2,0.3c-1.2,1.3-2.2,2.5-3.2,3.7c-1.4,1.2-2.7,2.4-3.9,3.6
		c-0.1,0.1-0.1,0.1-0.2,0.2c-1,1.1-5.7,6.6-3.3,12.3C11,105.3,16.6,106.1,19.9,105.8z"/>
	<path class="st22" d="M225.1,44H225H225.1L225.1,44z M19.4,105.4h20.3c0.3,0.5,0.7,0.9,1,1.4l0.1,0.1c0.8,1,1.7,2,2.6,2.9l0.1,0.1
		c0.4,0.4,0.9,0.8,1.3,1.2l0.1,0.1c0.5,0.4,1,0.8,1.5,1.2c0,0,0.1,0,0.1,0.1c0.5,0.3,1,0.7,1.5,1l0.1,0.1l0.2,0.1
		c1,0.7,2.2,1.3,3.3,1.8l0.4,0.2c0.5,0.2,1,0.4,1.5,0.6l0.2,0.1c0.6,0.2,1.2,0.4,1.7,0.6l0.4,0.1c0.5,0.1,1,0.3,1.5,0.4l0.4,0.1
		c0.6,0.1,1.2,0.2,1.8,0.3h0.3c0.5,0.1,1,0.1,1.6,0.2h0.5c0.6,0,1.3,0.1,1.9,0.1c9.7,0,18.7-4.8,24.2-12.7h101.4
		c0.1,0.1,0.2,0.2,0.2,0.3l0.2,0.2c0.9,1.1,1.8,2.1,2.8,3.1l0.2,0.2c0.5,0.4,0.9,0.9,1.4,1.3l0.1,0.1c0.5,0.4,1.1,0.9,1.6,1.3
		l0.2,0.1c0.5,0.4,1,0.7,1.5,1l0.3,0.2c1.1,0.7,2.3,1.4,3.5,1.9l0.4,0.2c0.5,0.2,1.1,0.5,1.7,0.7l0.2,0.1c0.6,0.2,1.2,0.4,1.9,0.6
		l0.4,0.1c0.5,0.1,1.1,0.3,1.6,0.4l0.5,0.1c0.7,0.1,1.3,0.3,2,0.4l0.4,0.1c0.6,0.1,1.1,0.1,1.7,0.2c0.2,0,0.4,0,0.6,0
		c0.8,0.1,1.5,0.1,2.1,0.1c10.1,0,19.5-4.7,25.5-12.7h11.1c13,0.5,16.1-1.9,17.2-3.3c1.2-1.3,2.3-3.6,2.1-7.9v-3.9
		c0-2.7-1.5-5.6-4.4-7l-10.3-24.9c-0.1-0.1-0.1-0.3-0.2-0.4c-0.3-0.6-1.7-3-5.2-5.1l1.6-7l17.1,1.3c0.1,0,0.1,0,0.2,0
		c5.1,0.2,8.6-2,9.3-5.6c0.1-0.5,0.2-1.1,0.3-3.1c0-0.5,0-1.1-0.2-1.6c-0.8-3-3.4-4.5-5.9-4.5H273c-0.1,0-0.3,0-0.4-0.1
		c0.2-3,0.3-6.5,0.4-8.7l4.5-2.4c1.5-0.8,2.4-2.3,2.5-4c0.1-1.8,0.1-3.3,0.1-4.4v-1.7c0.3-3.3-1-6-3.5-7.1
		c-2.3-1.1-2.4-1.1-27.3,8.6c-11.4,4.4-22.8,9-22.9,9.1c0,0-0.1,0-0.1,0.1c0,0-1.6,0.7-3.5,0.8c-1.9,0.1-9-0.2-13.1-0.4
		c-4.5-0.5-6.8,1.8-7.4,4.1c-0.1,0.5-0.2,1.1-0.4,2.7c-0.2,2.7-0.4,7-0.4,7.2c0,0,0,0,0,0.1l-2.7-0.9c-0.6-0.2-7.2-2.7-12.1-6.4
		c-15.1-11.6-28.5-14.1-37-14.1c-1.9,0-3.7,0.1-5.6,0.3c-2.4,0.3-4.2,2.3-4.2,4.7v23.2c-0.1,1.7-1.5,1.9-2.3,2
		c-2.6,0-29.3,0.3-46.3,4.3c-0.2-1.8-0.7-3.6-2.4-5c-2.4-2.1-5.5-1.7-7.6-1.3c-0.2,0-0.5,0.1-0.8,0.2l0,0c-0.3,0.1-0.6,0.2-0.9,0.3
		h-0.1c-0.3,0.1-0.6,0.2-0.9,0.3h-0.1c-0.3,0.1-0.6,0.3-0.9,0.4c0,0-0.1,0-0.1,0.1c-0.3,0.1-0.5,0.3-0.8,0.4L76.5,45
		c-0.3,0.1-0.5,0.3-0.8,0.5l-0.2,0.1c-0.2,0.2-0.5,0.3-0.7,0.5l-0.3,0.2c-0.2,0.2-0.4,0.3-0.6,0.5L73.6,47c-0.2,0.2-0.4,0.3-0.6,0.5
		c-0.1,0.1-0.2,0.2-0.3,0.3c-0.2,0.2-0.3,0.3-0.5,0.5c-0.1,0.1-0.2,0.2-0.3,0.3l-0.1,0.1c-0.1,0.2-0.3,0.3-0.4,0.5l0,0
		c-6.2,1.4-25.5,7-44.1,22.4c-0.1,0-0.1,0.1-0.2,0.1c-0.2,0.2-0.3,0.3-0.5,0.5l-0.2,0.2c-0.5,0.4-1,0.9-1.5,1.3
		c-0.3,0.3-0.6,0.5-0.9,0.8l-0.6,0.6c-0.1,0.1-0.2,0.2-0.3,0.3c-0.9,0.8-1.8,1.7-2.6,2.6c-0.1,0.1-0.1,0.1-0.2,0.2L20,78.5
		c-0.3,0.3-0.5,0.5-0.8,0.8L19,79.5c-0.1,0.1-0.3,0.3-0.4,0.4s-0.1,0.2-0.2,0.3c-1.2,1.3-2.2,2.5-3.2,3.7c-1.4,1.2-2.7,2.4-3.9,3.6
		c-0.1,0.1-0.1,0.1-0.2,0.2c-1,1.1-5.7,6.6-3.3,12.3C10.6,104.9,16.2,105.7,19.4,105.4z"/>
	<path class="st23" d="M224.7,43.5h-0.1H224.7L224.7,43.5z M19,104.9h20.3c0.3,0.5,0.7,0.9,1,1.4l0.1,0.1c0.8,1,1.7,2,2.6,2.9
		l0.1,0.1c0.4,0.4,0.9,0.8,1.3,1.2l0.1,0.1c0.5,0.4,1,0.8,1.5,1.2c0,0,0.1,0,0.1,0.1c0.5,0.3,1,0.7,1.5,1l0.1,0.1l0.2,0.1
		c1,0.7,2.2,1.3,3.3,1.8l0.4,0.2c0.5,0.2,1,0.4,1.5,0.6l0.2,0.1c0.6,0.2,1.2,0.4,1.7,0.6l0.4,0.1c0.5,0.1,1,0.3,1.5,0.4l0.4,0.1
		c0.6,0.1,1.2,0.2,1.8,0.3h0.3c0.5,0.1,1,0.1,1.6,0.2h0.5c0.6,0,1.3,0.1,1.9,0.1c9.7,0,18.7-4.8,24.2-12.7H189
		c0.1,0.1,0.2,0.2,0.2,0.3l0.2,0.2c0.9,1.1,1.8,2.1,2.8,3.1l0.2,0.2c0.5,0.4,0.9,0.9,1.4,1.3l0.1,0.1c0.5,0.4,1.1,0.9,1.6,1.3
		l0.2,0.1c0.5,0.4,1,0.7,1.5,1l0.3,0.2c1.1,0.7,2.3,1.4,3.5,1.9l0.4,0.2c0.5,0.2,1.1,0.5,1.7,0.7l0.2,0.1c0.6,0.2,1.2,0.4,1.9,0.6
		l0.4,0.1c0.5,0.1,1.1,0.3,1.6,0.4l0.5,0.1c0.7,0.1,1.3,0.3,2,0.4l0.4,0.1c0.6,0.1,1.1,0.1,1.7,0.2c0.2,0,0.4,0,0.6,0
		c0.8,0.1,1.5,0.1,2.1,0.1c10.1,0,19.5-4.7,25.5-12.7h11.1c13,0.5,16.1-1.9,17.2-3.3c1.2-1.3,2.3-3.6,2.1-7.9v-3.9
		c0-2.7-1.5-5.6-4.4-7L255.9,58c-0.1-0.1-0.1-0.3-0.2-0.4c-0.3-0.6-1.7-3-5.2-5.1l1.6-7l17.1,1.3c0.1,0,0.1,0,0.2,0
		c5.1,0.2,8.6-2,9.3-5.6c0.1-0.5,0.2-1.1,0.3-3.1c0-0.5,0-1.1-0.2-1.6c-0.8-3-3.4-4.5-5.9-4.5h-0.1c-0.1,0-0.3,0-0.4-0.1
		c0.2-3,0.3-6.5,0.4-8.7l4.5-2.4c1.5-0.8,2.4-2.3,2.5-4c0.1-1.8,0.1-3.3,0.1-4.4v-1.7c0.3-3.3-1-6-3.5-7.1
		c-2.3-1.1-2.4-1.1-27.3,8.6c-11.4,4.4-22.8,9-22.9,9.1c0,0-0.1,0-0.1,0.1c0,0-1.6,0.7-3.5,0.8c-1.9,0.1-9-0.2-13.1-0.4
		c-4.5-0.5-6.8,1.8-7.4,4.1c-0.1,0.5-0.2,1.1-0.4,2.7c-0.2,2.7-0.4,7-0.4,7.2c0,0,0,0,0,0.1l-2.7-0.9c-0.6-0.2-7.2-2.7-12.1-6.4
		c-15.2-11.4-28.6-13.9-37.1-13.9c-1.9,0-3.7,0.1-5.6,0.3c-2.4,0.3-4.2,2.3-4.2,4.7v23.2c-0.1,1.7-1.5,1.9-2.3,2
		c-2.6,0-29.3,0.3-46.3,4.3c-0.2-1.8-0.7-3.6-2.4-5c-2.4-2.1-5.5-1.7-7.6-1.3c-0.2,0-0.5,0.1-0.8,0.2l0,0c-0.3,0.1-0.6,0.2-0.9,0.3
		h-0.1c-0.3,0.1-0.6,0.2-0.9,0.3h-0.1c-0.3,0.1-0.6,0.3-0.9,0.4c0,0-0.1,0-0.1,0.1c-0.3,0.1-0.5,0.3-0.8,0.4l-0.2,0.1
		c-0.3,0.1-0.5,0.3-0.8,0.5l-0.2,0.1c-0.2,0.2-0.5,0.3-0.7,0.5L74.2,46c-0.2,0.2-0.4,0.3-0.6,0.5l-0.3,0.2c-0.2,0.2-0.4,0.3-0.6,0.5
		c-0.1,0.1-0.2,0.2-0.3,0.3c-0.2,0.2-0.3,0.3-0.5,0.5c-0.1,0.1-0.2,0.2-0.3,0.3l-0.1,0.1c-0.1,0.2-0.3,0.3-0.4,0.5l0,0
		c-6.2,1.4-25.7,6.7-44.1,22.4c-0.1,0-0.1,0.1-0.2,0.1c-0.2,0.1-0.3,0.3-0.5,0.5l-0.2,0.2c-0.5,0.4-1,0.9-1.5,1.3
		c-0.3,0.3-0.6,0.5-0.9,0.8l-0.6,0.6c-0.1,0.1-0.2,0.2-0.3,0.3c-0.9,0.8-1.8,1.7-2.6,2.6c-0.1,0.1-0.1,0.1-0.2,0.2l-0.3,0.3
		c-0.3,0.3-0.5,0.5-0.8,0.8l-0.2,0.2c-0.1,0.1-0.3,0.3-0.4,0.4s-0.1,0.2-0.2,0.3c-1.2,1.3-2.2,2.5-3.2,3.7c-1.4,1.2-2.7,2.4-3.9,3.6
		c-0.1,0.1-0.1,0.1-0.2,0.2c-1,1.1-5.7,6.6-3.3,12.3C10.2,104.5,15.8,105.3,19,104.9z"/>
</g>
<path class="st24" d="M19,104.9h20.3c0.3,0.5,0.7,0.9,1,1.4l0.1,0.1c0.8,1,1.7,2,2.6,2.9l0.1,0.1c0.4,0.4,0.9,0.8,1.3,1.2l0.1,0.1
	c0.5,0.4,1,0.8,1.5,1.2c0,0,0.1,0,0.1,0.1c0.5,0.3,1,0.7,1.5,1l0.1,0.1l0.2,0.1c1,0.7,2.2,1.3,3.3,1.8l0.4,0.2
	c0.5,0.2,1,0.4,1.5,0.6l0.2,0.1c0.6,0.2,1.2,0.4,1.7,0.6l0.4,0.1c0.5,0.1,1,0.3,1.5,0.4l0.4,0.1c0.6,0.1,1.2,0.2,1.8,0.3h0.3
	c0.5,0.1,1,0.1,1.6,0.2h0.5c0.6,0,1.3,0.1,1.9,0.1c9.7,0,18.7-4.8,24.2-12.7H189c0.1,0.1,0.2,0.2,0.2,0.3l0.2,0.2
	c0.9,1.1,1.8,2.1,2.8,3.1l0.2,0.2c0.5,0.4,0.9,0.9,1.4,1.3l0.1,0.1c0.5,0.4,1.1,0.9,1.6,1.3l0.2,0.1c0.5,0.4,1,0.7,1.5,1l0.3,0.2
	c1.1,0.7,2.3,1.4,3.5,1.9l0.4,0.2c0.5,0.2,1.1,0.5,1.7,0.7l0.2,0.1c0.6,0.2,1.2,0.4,1.9,0.6l0.4,0.1c0.5,0.1,1.1,0.3,1.6,0.4
	l0.5,0.1c0.7,0.1,1.3,0.3,2,0.4l0.4,0.1c0.6,0.1,1.1,0.1,1.7,0.2c0.2,0,0.4,0,0.6,0c0.8,0.1,1.5,0.1,2.1,0.1
	c10.1,0,19.5-4.7,25.5-12.7h11.1c13,0.5,16.1-1.9,17.2-3.3c1.2-1.3,2.3-3.6,2.1-7.9v-3.9c0-2.7-1.5-5.6-4.4-7L255.9,58
	c-0.1-0.1-0.1-0.3-0.2-0.4c-0.3-0.6-1.7-3-5.2-5.1l1.6-7l17.1,1.3c0.1,0,0.1,0,0.2,0c5.1,0.2,8.6-2,9.3-5.6c0.1-0.5,0.2-1.1,0.3-3.1
	c0-0.5,0-1.1-0.2-1.6c-0.8-3-3.4-4.5-5.9-4.5h-0.1c-0.1,0-0.3,0-0.4-0.1c0.2-3,0.3-6.5,0.4-8.7l4.5-2.4c1.5-0.8,2.4-2.3,2.5-4
	c0.1-1.8,0.1-3.3,0.1-4.4v-1.7c0.3-3.3-1-6-3.5-7.1c-2.3-1.1-2.4-1.1-27.3,8.6c-11.4,4.4-22.8,9-22.9,9.1c0,0-0.1,0-0.1,0.1
	c0,0-1.6,0.7-3.5,0.8c-1.9,0.1-9-0.2-13.1-0.4c-4.5-0.5-6.8,1.8-7.4,4.1c-0.1,0.5-0.2,1.1-0.4,2.7c-0.2,2.7-0.4,7-0.4,7.2
	c0,0,0,0,0,0.1l-2.7-0.9c-0.6-0.2-7.2-2.7-12.1-6.4c-15.2-11.4-28.6-13.9-37.1-13.9c-1.9,0-3.7,0.1-5.6,0.3
	c-2.4,0.3-4.2,2.3-4.2,4.7v23.2c-0.1,1.7-1.5,1.9-2.3,2c-2.6,0-29.3,0.3-46.3,4.3c-0.2-1.8-0.7-3.6-2.4-5c-2.4-2.1-5.5-1.7-7.6-1.3
	c-0.2,0-0.5,0.1-0.8,0.2l0,0c-0.3,0.1-0.6,0.2-0.9,0.3h-0.1c-0.3,0.1-0.6,0.2-0.9,0.3h-0.1c-0.3,0.1-0.6,0.3-0.9,0.4
	c0,0-0.1,0-0.1,0.1c-0.3,0.1-0.5,0.3-0.8,0.4l-0.2,0.1c-0.3,0.1-0.5,0.3-0.8,0.5l-0.2,0.1c-0.2,0.2-0.5,0.3-0.7,0.5L74.2,46
	c-0.2,0.2-0.4,0.3-0.6,0.5l-0.3,0.2c-0.2,0.2-0.4,0.3-0.6,0.5c-0.1,0.1-0.2,0.2-0.3,0.3c-0.2,0.2-0.3,0.3-0.5,0.5
	c-0.1,0.1-0.2,0.2-0.3,0.3l-0.1,0.1c-0.1,0.2-0.3,0.3-0.4,0.5l0,0c-6.2,1.4-25.7,6.7-44.1,22.4c-0.1,0-0.1,0.1-0.2,0.1
	c-0.2,0.1-0.3,0.3-0.5,0.5l-0.2,0.2c-0.5,0.4-1,0.9-1.5,1.3c-0.3,0.3-0.6,0.5-0.9,0.8l-0.6,0.6c-0.1,0.1-0.2,0.2-0.3,0.3
	c-0.9,0.8-1.8,1.7-2.6,2.6c-0.1,0.1-0.1,0.1-0.2,0.2l-0.3,0.3c-0.3,0.3-0.5,0.5-0.8,0.8l-0.2,0.2c-0.1,0.1-0.3,0.3-0.4,0.4
	s-0.1,0.2-0.2,0.3c-1.2,1.3-2.2,2.5-3.2,3.7c-1.4,1.2-2.7,2.4-3.9,3.6c-0.1,0.1-0.1,0.1-0.2,0.2c-1,1.1-5.7,6.6-3.3,12.3
	C10.2,104.5,15.8,105.3,19,104.9z M224.7,43.5h-0.1H224.7L224.7,43.5z"/>
<g class="st6">
	<ellipse class="st25" cx="214.6" cy="85.6" rx="27.3" ry="27.3"/>
	<path class="st26" d="M236.1,85.7c0,11.8-9.6,21.3-21.3,21.3c-11.8,0-21.3-9.6-21.3-21.3c0-11.8,9.6-21.3,21.3-21.3
		C226.5,64.4,236.1,73.9,236.1,85.7z"/>
	<path class="st27" d="M225.2,93c-7,0.4-14.5,0.3-21.2-1.9c-3.5-1.1-6.9-2.6-9.4-5.4c-0.4-0.5-0.8-0.9-1.2-1.4c0,0.5,0,0.9,0,1.4
		c0,11.8,9.6,21.3,21.3,21.3c9.7,0,17.9-6.5,20.5-15.4C231.9,92.4,228.5,92.8,225.2,93z"/>
	<g class="st28">
		<path class="st29" d="M215.3,58.3c0.5,0.1,0.9,0.2,1.4,0.3c31.4,5.7,26.5,44.4,5.5,49.7c-17.8,4.5-29.1-7.1-32.1-10.7
			c4.5,9,13.7,15.2,24.5,15.2c15.1,0,27.3-12.2,27.3-27.3C241.9,70.8,230.1,58.7,215.3,58.3z"/>
	</g>
	<path class="st30" d="M216.3,59.7c-2-0.1-4.1,0.1-6,0.5c-1.6,0.3-3.2,0.8-4.7,1.4c-4.7,1.8-8.7,4.6-11.9,8.5
		c-2.1,2.6-3.8,6-4.4,9.3c0,0-2.2,11.2,3,19.3c0,0,0.7,1.2,0.9-0.2c0.2-1.4-8.5-23,10.8-33s31.5,7,32.3,14.2c0,0,0.2,1.8,0.9,1
		c0.3-0.3-0.1-1.9-0.2-2.2c-0.3-1.7-0.9-3.4-1.6-5c-2.1-4.4-5.4-8.8-9.8-11.2C222.7,60.6,219.5,59.8,216.3,59.7z"/>
	<path class="st31" d="M231.6,85.4c0,9.4-7.6,17-16.9,17c-9.4,0-16.9-7.6-16.9-17s7.6-17,16.9-17S231.6,76,231.6,85.4z"/>
	<circle class="st32" cx="214.6" cy="85.6" r="16"/>
	<path class="st33" d="M227.9,85.8c0,7.4-6,13.3-13.3,13.3c-7.4,0-13.3-6-13.3-13.3c0-7.4,6-13.3,13.3-13.3
		C222,72.5,227.9,78.4,227.9,85.8z"/>
	<path class="st34" d="M219.3,85.7c0,2.8-2.2,5-5,5s-5-2.2-5-5s2.2-5,5-5C217.1,80.6,219.3,82.9,219.3,85.7z"/>
	<path class="st35" d="M214.6,81.4c0,0-4.9,0.7-4,5.1C211.5,91,218.4,80.1,214.6,81.4z"/>
	<g class="st36">
		<g>
			<path class="st37" d="M202.1,85.3h6.6c0.1-1.5,0.7-2.6,1.3-3.4l-4.6-4.6C202.2,80.8,202.1,85.3,202.1,85.3z"/>
			<path class="st37" d="M213.9,79.8v-6.5c-3.6,0.3-6.1,1.6-7.9,3.3l0,0l4.3,4.8C211.9,80,213.9,79.8,213.9,79.8z"/>
		</g>
		<g>
			<path class="st37" d="M227,85.3h-6.6c-0.1-1.5-0.7-2.6-1.3-3.4l4.6-4.6C226.9,80.8,227,85.3,227,85.3z"/>
			<path class="st37" d="M215.2,79.8v-6.5c3.6,0.3,6.1,1.6,7.9,3.3l0,0l-4.3,4.8C217.2,80,215.2,79.8,215.2,79.8z"/>
		</g>
		<g>
			<path class="st37" d="M202.1,86.2h6.6c0.1,1.5,0.7,2.6,1.3,3.4l-4.6,4.6C202.2,90.7,202.1,86.2,202.1,86.2z"/>
			<path class="st37" d="M213.9,91.6v6.5c-3.6-0.3-6.1-1.6-7.9-3.3l0,0l4.3-4.8C211.9,91.5,213.9,91.6,213.9,91.6z"/>
		</g>
		<g>
			<path class="st37" d="M227,86.2h-6.6c-0.1,1.5-0.7,2.6-1.3,3.4l4.6,4.6C226.9,90.7,227,86.2,227,86.2z"/>
			<path class="st37" d="M215.2,91.6v6.5c3.6-0.3,6.1-1.6,7.9-3.3l0,0l-4.3-4.8C217.2,91.5,215.2,91.6,215.2,91.6z"/>
		</g>
	</g>
</g>
<g class="st6">
	<path class="st38" d="M88.2,88.2c0,13.6-11.1,24.7-24.7,24.7s-24.7-11.1-24.7-24.7s11.1-24.7,24.7-24.7
		C77.1,63.5,88.2,74.6,88.2,88.2z"/>
	<path class="st26" d="M82.9,88.3c0,10.7-8.6,19.3-19.3,19.3S44.3,99,44.3,88.3S52.9,69,63.6,69S82.9,77.6,82.9,88.3z"/>
	<path class="st27" d="M72.8,91.8c-9.4,1.6-23.1,1.4-28.1-7.5c-0.3,1.3-0.4,2.6-0.4,3.9c0,10.7,8.6,19.3,19.3,19.3
		c10.5,0,19.1-8.5,19.3-19C79.7,90.2,76.3,91.2,72.8,91.8z"/>
	<g class="st28">
		<path class="st29" d="M64.1,63.5c0.4,0.1,0.9,0.2,1.3,0.2c28.4,5.2,24,40.2,5,45c-16.1,4.1-26.3-6.4-29.1-9.6
			c4,8.1,12.4,13.8,22.1,13.8c13.6,0,24.7-11.1,24.7-24.7C88.2,74.8,77.5,63.9,64.1,63.5z"/>
	</g>
	<path class="st30" d="M65,64.7c-1.8-0.1-3.7,0.1-5.4,0.4c-1.5,0.3-2.9,0.7-4.3,1.2c-4.2,1.6-7.9,4.1-10.7,7.7
		c-1.9,2.4-3.4,5.4-4,8.4c0,0-2,10.1,2.7,17.5c0,0,0.7,1.1,0.9-0.2c0.2-1.3-7.7-20.8,9.8-29.9c17.5-9,28.5,6.4,29.3,12.9
		c0,0,0.2,1.6,0.8,0.9c0.3-0.3-0.1-1.7-0.2-2c-0.3-1.6-0.8-3.1-1.5-4.5c-1.9-4-4.9-8-8.9-10.1C70.8,65.6,68,64.9,65,64.7z"/>
	<path class="st31" d="M78.8,88c0,8.5-6.9,15.4-15.3,15.4c-8.5,0-15.3-6.9-15.3-15.4s6.9-15.4,15.3-15.4C72,72.6,78.8,79.5,78.8,88z
		"/>
	<path class="st32" d="M78,88.2c0,8-6.5,14.5-14.5,14.5S49,96.2,49,88.2s6.5-14.5,14.5-14.5S78,80.2,78,88.2z"/>
	<path class="st33" d="M75.5,88.4c0,6.7-5.4,12.1-12.1,12.1s-12.1-5.4-12.1-12.1s5.4-12.1,12.1-12.1S75.5,81.7,75.5,88.4z"/>
	<path class="st34" d="M67.7,88.2c0,2.5-2,4.5-4.5,4.5s-4.5-2-4.5-4.5s2-4.5,4.5-4.5S67.7,85.7,67.7,88.2z"/>
	<path class="st35" d="M63.4,84.4c0,0-4.4,0.6-3.6,4.6C60.7,93.1,66.9,83.2,63.4,84.4z"/>
	<g class="st36">
		<g>
			<path class="st37" d="M52.2,87.9h6c0.1-1.4,0.6-2.4,1.2-3.1l-4.2-4.2C52.3,83.8,52.2,87.9,52.2,87.9z"/>
			<path class="st37" d="M62.9,83v-5.9c-3.3,0.3-5.5,1.5-7.1,3l0,0l3.9,4.3C61.1,83.1,62.9,83,62.9,83z"/>
		</g>
		<g>
			<path class="st37" d="M74.7,87.9h-6c-0.1-1.4-0.6-2.4-1.2-3.1l4.2-4.2C74.6,83.8,74.7,87.9,74.7,87.9z"/>
			<path class="st37" d="M64,83v-5.9c3.3,0.3,5.5,1.5,7.1,3l0,0l-3.9,4.3C65.8,83.1,64,83,64,83z"/>
		</g>
		<g>
			<path class="st37" d="M52.2,88.7h6c0.1,1.4,0.6,2.4,1.2,3.1L55.2,96C52.3,92.8,52.2,88.7,52.2,88.7z"/>
			<path class="st37" d="M62.9,93.6v5.9c-3.3-0.3-5.5-1.5-7.1-3l0,0l3.9-4.3C61.1,93.5,62.9,93.6,62.9,93.6z"/>
		</g>
		<g>
			<path class="st37" d="M74.7,88.7h-6c-0.1,1.4-0.6,2.4-1.2,3.1l4.2,4.2C74.6,92.8,74.7,88.7,74.7,88.7z"/>
			<path class="st37" d="M64,93.6v5.9c3.3-0.3,5.5-1.5,7.1-3l0,0l-3.9-4.3C65.8,93.5,64,93.6,64,93.6z"/>
		</g>
	</g>
</g>
<polygon class="st24" points="172.8,34.8 178.3,45.9 190.5,47.6 181.6,56.3 183.7,68.5 172.8,62.7 161.8,68.5 163.9,56.3 
	155.1,47.6 167.3,45.9 "/>
<polygon class="st39" points="172.8,36.3 177.8,46.5 189.1,48.2 181,56.1 182.9,67.4 172.8,62.1 162.7,67.4 164.6,56.1 156.4,48.2 
	167.7,46.5 "/>
</svg>
