<?xml version="1.0" encoding="utf-8"?>
<!-- Generator: Adobe Illustrator 25.0.1, SVG Export Plug-In . SVG Version: 6.00 Build 0)  -->
<svg version="1.1" id="Layer_1" xmlns="http://www.w3.org/2000/svg" xmlns:xlink="http://www.w3.org/1999/xlink" x="0px" y="0px"
	 viewBox="0 0 69.5 56.8" style="enable-background:new 0 0 69.5 56.8;" xml:space="preserve">
<style type="text/css">
	.st0{fill:#3165B0;stroke:#003A55;stroke-width:0.5;stroke-miterlimit:10;}
	.st1{fill:#295596;stroke:#003A55;stroke-width:0.5;stroke-miterlimit:10;}
	.st2{opacity:0.5;fill:#3165B0;enable-background:new    ;}
	.st3{fill:#3165B0;}
	.st4{fill:#00B1BD;stroke:#00A1E2;stroke-width:0.5;stroke-miterlimit:10;}
	.st5{opacity:0.2;fill:#FFFFFF;enable-background:new    ;}
	.st6{display:none;}
	.st7{display:inline;fill:#FFFFFF;}
	.st8{display:inline;fill:#F5F5F5;}
	.st9{display:inline;fill:#EBEBEB;}
	.st10{display:inline;fill:#E1E1E1;}
	.st11{display:inline;fill:#D7D7D7;}
	.st12{display:inline;fill:#CDCDCD;}
	.st13{display:inline;fill:#C3C3C3;}
	.st14{display:inline;fill:#B9B9B9;}
	.st15{display:inline;fill:#B0B0B0;}
	.st16{display:inline;fill:#A6A6A6;}
	.st17{display:inline;fill:#9C9C9C;}
	.st18{display:inline;fill:#929292;}
	.st19{display:inline;fill:#888888;}
	.st20{display:inline;fill:#7E7E7E;}
	.st21{display:inline;fill:#747474;}
	.st22{display:inline;fill:#6A6A6A;}
	.st23{display:inline;fill:#606060;}
	.st24{display:none;fill:#FFFFFF;}
	.st25{display:inline;fill:#2A2C2D;stroke:#231F20;stroke-width:0.5;stroke-miterlimit:9.9996;}
	.st26{display:inline;fill:#AAC6D1;stroke:#231F20;stroke-width:0.5;stroke-miterlimit:10;}
	.st27{display:inline;fill:#AAC6D1;}
	.st28{display:inline;opacity:0.5;}
	.st29{fill:#616264;}
	.st30{display:inline;opacity:0.2;fill:#FFFFFF;enable-background:new    ;}
	.st31{display:inline;fill:#EDEDEE;}
	.st32{display:inline;fill:#D0D2D3;}
	.st33{display:inline;fill:#B1B3B5;stroke:#231F20;stroke-width:0.5;stroke-miterlimit:10;}
	.st34{display:inline;fill:#8AA5B3;stroke:#231F20;stroke-width:0.5;stroke-miterlimit:10;}
	.st35{display:inline;opacity:0.4;fill:#FFFFFF;enable-background:new    ;}
	.st36{display:inline;}
	.st37{fill:#FFFFFF;stroke:#231F20;stroke-width:0.5;stroke-miterlimit:10;}
	.st38{display:inline;fill:#2A2C2D;stroke:#231F20;stroke-width:0.5;stroke-miterlimit:10;}
	.st39{display:none;fill:#FFFAC4;}
</style>
<g>
	<polygon class="st0" points="22.9,29 25.2,54 37,56.8 43,30.1 	"/>
	<polygon class="st1" points="24.7,29 26.6,49.6 36.3,52 41.2,29.9 	"/>
	<path class="st2" d="M23.7,37.1c4.9,2.7,9.8,5.3,14.3,8.9c0.4,0.3,0.8,0.7,1.3,1.1l3.8-17L41.3,30v-0.1L24.7,29v0.1L22.9,29
		L23.7,37.1z"/>
	<g>
		<path class="st0" d="M28.7,19.6c6.5-3.2,36.8-14.2,36.8-14.2s1.7-0.8,3.7-1c0-1.2,0.1-1.9,0.1-1.9s0.2-2.1-0.7-2.5
			c-1-0.4-46.4,17.7-46.4,17.7s-2.3,1-5.2,1.2C14.1,19,3.2,18.5,3.2,18.5S1,18.2,0.8,19.1c-0.1,0.2-0.1,0.9-0.2,1.8l17.8,0.8
			C18.3,21.7,22.2,22.8,28.7,19.6z"/>
		<g>
			<path class="st3" d="M29,17.8c-6.6,3.3-10.6,2.1-10.6,2.1L0.7,19.1c-0.1,0.3-0.1,0.9-0.2,1.7l17.8,0.8c0,0,3.9,1.1,10.4-2.1
				S65.5,5.3,65.5,5.3s1.7-0.8,3.7-1c0-1,0-1.6,0-1.8c-1.7,0.3-3,0.9-3,0.9S35.6,14.6,29,17.8z"/>
		</g>
		<path class="st4" d="M66.8,28.9c0,0-2.6-0.3-4.2-0.6c-1.5-0.2-1-2-1-2s0.6-11.2,0.5-12.5s1-1.8,1-1.8L69,8.8
			c0.1-1.8,0.1-3.3,0.1-4.4c-2,0.2-3.7,1-3.7,1s-30.2,11-36.8,14.2c-6.5,3.2-10.4,2.1-10.4,2.1L0.4,20.9c-0.2,2.6-0.4,7-0.4,7
			s0.2,1.3,1.2,1.5l62.4,4.7c0,0,4.1,0.1,4.5-1.8c0.1-0.3,0.1-1.2,0.2-2.5l0,0C68.1,28.7,66.8,28.9,66.8,28.9z"/>
	</g>
	<path class="st5" d="M1.8,23.6c0,0-1.1,4.2,0.5,4.5l56.9,3.8c0,0,4,0.7,4.8-0.3c0.8-1,0.5-1.4,0.5-1.4L59,30c0,0-1.5,1.1-1.5-2.7
		s0.6-13.1,0.6-13.1s0.4-2,1.8-3.3c1.5-1.3,6.5-4,6.5-4l-40.5,17c0,0-2.7,1.1-6.3,1.1C16.1,24.9,1.8,23.6,1.8,23.6z"/>
	<path class="st5" d="M55.8,16l-0.6,11c0,0-0.1,1.2-1.2,1.5s-26-1.8-26-1.8s-2.1-1,1.7-2.5s20.7-8.1,20.7-8.1S56.1,13.4,55.8,16z"/>
</g>
<g class="st6">
	<path class="st7" d="M25.4,42.2h-0.1H25.4L25.4,42.2z M-180.2,103.6h20.3c0.3,0.5,0.7,0.9,1,1.4l0.1,0.1c0.8,1,1.7,2,2.6,2.9
		l0.1,0.1c0.4,0.4,0.9,0.8,1.3,1.2l0.1,0.1c0.5,0.4,1,0.8,1.5,1.2c0,0,0.1,0,0.1,0.1c0.5,0.3,1,0.7,1.5,1l0.1,0.1l0.2,0.1
		c1,0.7,2.2,1.3,3.3,1.8l0.4,0.2c0.5,0.2,1,0.4,1.5,0.6l0.2,0.1c0.6,0.2,1.2,0.4,1.7,0.6l0.4,0.1c0.5,0.1,1,0.3,1.5,0.4l0.4,0.1
		c0.6,0.1,1.2,0.2,1.8,0.3h0.3c0.5,0.1,1,0.1,1.6,0.2h0.5c0.6,0,1.3,0.1,1.9,0.1c9.7,0,18.7-4.8,24.2-12.7h101.4
		c0.1,0.1,0.2,0.2,0.2,0.3l0.2,0.2c0.9,1.1,1.8,2.1,2.8,3.1l0.2,0.2c0.5,0.4,0.9,0.9,1.4,1.3l0.1,0.1c0.5,0.4,1.1,0.9,1.6,1.3
		l0.2,0.1c0.5,0.4,1,0.7,1.5,1l0.3,0.2c1.1,0.7,2.3,1.4,3.5,1.9l0.4,0.2c0.5,0.2,1.1,0.5,1.7,0.7l0.2,0.1c0.6,0.2,1.2,0.4,1.9,0.6
		l0.4,0.1c0.5,0.1,1.1,0.3,1.6,0.4l0.5,0.1c0.7,0.1,1.3,0.3,2,0.4l0.4,0.1c0.6,0.1,1.1,0.1,1.7,0.2c0.2,0,0.4,0,0.6,0
		c0.8,0.1,1.5,0.1,2.1,0.1c10.1,0,19.5-4.7,25.5-12.7h11.1c13,0.5,16.1-1.9,17.2-3.3c1.2-1.3,2.3-3.6,2.1-7.9v-3.9
		c0-2.7-1.5-5.6-4.4-7L56.5,56.7c-0.1-0.1-0.1-0.3-0.2-0.4c-0.3-0.6-1.7-3-5.2-5.1l1.6-7l17.1,1.3c0.1,0,0.1,0,0.2,0
		c5.1,0.2,8.6-2,9.3-5.6c0.1-0.5,0.2-1.1,0.3-3.1c0-0.5,0-1.1-0.2-1.6c-0.8-3-3.4-4.5-5.9-4.5h-0.1c-0.1,0-0.3,0-0.4-0.1
		c0.2-3,0.3-6.5,0.4-8.7l4.5-2.4c1.5-0.8,2.4-2.3,2.5-4c0.1-1.8,0.1-3.3,0.1-4.4V9.4c0.3-3.3-1-6-3.5-7.1c-2.3-1.1-2.4-1.1-27.3,8.6
		c-11.4,4.4-22.8,9-22.9,9.1c0,0-0.1,0-0.1,0.1c0,0-1.6,0.7-3.5,0.8c-1.9,0.1-9-0.2-13.1-0.4c-4.5-0.5-6.8,1.8-7.4,4.1
		c-0.1,0.5-0.2,1.1-0.4,2.7c-0.2,2.7-0.4,7-0.4,7.2c0,0,0,0,0,0.1l-2.7-0.9C-1.4,33.5-8,31-12.9,27.3C-28.1,15.9-41.5,13.4-50,13.4
		c-1.9,0-3.7,0.1-5.6,0.3c-2.4,0.3-4.2,2.3-4.2,4.7v23.2c-0.1,1.7-1.5,1.9-2.3,2c-2.6,0-29.3,0.3-46.3,4.3c-0.2-1.8-0.7-3.6-2.4-5
		c-2.4-2.1-5.5-1.7-7.6-1.3c-0.2,0-0.5,0.1-0.8,0.2l0,0c-0.3,0.1-0.6,0.2-0.9,0.3h-0.1c-0.3,0.1-0.6,0.2-0.9,0.3h-0.1
		c-0.3,0.1-0.6,0.3-0.9,0.4c0,0-0.1,0-0.1,0.1c-0.3,0.1-0.5,0.3-0.8,0.4l-0.2,0.1c-0.3,0.1-0.5,0.3-0.8,0.5h0.1
		c-0.2,0.2-0.5,0.3-0.7,0.5l-0.3,0.2c-0.2,0.2-0.4,0.3-0.6,0.5l-0.3,0.2c-0.2,0.2-0.4,0.3-0.6,0.5c-0.1,0.1-0.2,0.2-0.3,0.3
		c-0.2,0.2-0.3,0.3-0.5,0.5c-0.1,0.1-0.2,0.2-0.3,0.3l-0.1,0.1c-0.1,0.2-0.3,0.3-0.4,0.5l0,0c-6,1.5-25.6,6.8-43.9,22.5
		c-0.1,0-0.1,0.1-0.2,0.1c-0.2,0.1-0.3,0.3-0.5,0.5l-0.3,0.2c-0.5,0.4-1,0.9-1.5,1.3c-0.3,0.3-0.6,0.5-0.9,0.8l-0.6,0.6
		c-0.1,0.1-0.2,0.2-0.3,0.3c-0.9,0.8-1.8,1.7-2.6,2.6c-0.1,0.1-0.1,0.1-0.2,0.2l-0.3,0.3c-0.3,0.3-0.5,0.5-0.8,0.8l-0.2,0.2
		c-0.1,0.1-0.3,0.3-0.4,0.4c-0.1,0.1-0.1,0.2-0.2,0.3c-1,1.2-2.1,2.4-3,3.6c-1.4,1.2-2.7,2.4-3.9,3.6c-0.1,0.1-0.1,0.1-0.2,0.2
		c-1,1.1-5.7,6.6-3.3,12.3C-189.1,103.1-183.5,103.9-180.2,103.6z"/>
	<path class="st8" d="M25,41.8h-0.1H25L25,41.8z M-180.6,103.2h20.3c0.3,0.5,0.7,0.9,1,1.4l0.1,0.1c0.8,1,1.7,2,2.6,2.9l0.1,0.1
		c0.4,0.4,0.9,0.8,1.3,1.2l0.1,0.1c0.5,0.4,1,0.8,1.5,1.2c0,0,0.1,0,0.1,0.1c0.5,0.3,1,0.7,1.5,1l0.1,0.1l0.2,0.1
		c1,0.7,2.2,1.3,3.3,1.8l0.4,0.2c0.5,0.2,1,0.4,1.5,0.6l0.2,0.1c0.6,0.2,1.2,0.4,1.7,0.6l0.4,0.1c0.5,0.1,1,0.3,1.5,0.4l0.4,0.1
		c0.6,0.1,1.2,0.2,1.8,0.3h0.3c0.5,0.1,1,0.1,1.6,0.2h0.5c0.6,0,1.3,0.1,1.9,0.1c9.7,0,18.7-4.8,24.2-12.7h101.4
		c0.1,0.1,0.2,0.2,0.2,0.3l0.2,0.2c0.9,1.1,1.8,2.1,2.8,3.1l0.2,0.2c0.5,0.4,0.9,0.9,1.4,1.3l0.1,0.1c0.5,0.4,1.1,0.9,1.6,1.3
		l0.2,0.1c0.5,0.4,1,0.7,1.5,1l0.3,0.2c1.1,0.7,2.3,1.4,3.5,1.9l0.4,0.2c0.5,0.2,1.1,0.5,1.7,0.7l0.2,0.1c0.6,0.2,1.2,0.4,1.9,0.6
		l0.4,0.1c0.5,0.1,1.1,0.3,1.6,0.4l0.5,0.1c0.7,0.1,1.3,0.3,2,0.4l0.4,0.1c0.6,0.1,1.1,0.1,1.7,0.2c0.2,0,0.4,0,0.6,0
		c0.8,0.1,1.5,0.1,2.1,0.1c10.1,0,19.5-4.7,25.5-12.7h11.1c13,0.5,16.1-1.9,17.2-3.3c1.2-1.3,2.3-3.6,2.1-7.9v-3.9
		c0-2.7-1.5-5.6-4.4-7L56.1,56.3C56,56.2,56,56,55.9,55.9c-0.3-0.6-1.7-3-5.2-5.1l1.6-7l17.1,1.3c0.1,0,0.1,0,0.2,0
		c5.1,0.2,8.6-2,9.3-5.6c0.1-0.5,0.2-1.1,0.3-3.1c0-0.5,0-1.1-0.2-1.6c-0.8-3-3.4-4.5-5.9-4.5H73c-0.1,0-0.3,0-0.4-0.1
		c0.2-3,0.3-6.5,0.4-8.7l4.5-2.4c1.5-0.8,2.4-2.3,2.5-4c0.1-1.8,0.1-3.3,0.1-4.4V9c0.3-3.3-1-6-3.5-7.1c-2.3-1.1-2.4-1.1-27.3,8.6
		c-11.4,4.4-22.8,9-22.9,9.1c0,0-0.1,0-0.2,0.1c0,0-1.6,0.7-3.5,0.8c-1.9,0.1-9-0.2-13.1-0.4c-4.5-0.5-6.8,1.8-7.4,4.1
		c-0.1,0.5-0.2,1.1-0.4,2.7c-0.2,2.7-0.4,7-0.4,7.2c0,0,0,0,0,0.1l-2.7-0.9c-0.6-0.2-7.2-2.7-12.1-6.4C-28.6,15.5-42,13-50.5,13
		c-1.9,0-3.7,0.1-5.6,0.3c-2.4,0.3-4.2,2.3-4.2,4.7v23.2c-0.1,1.7-1.5,1.9-2.3,2c-2.6,0-29.3,0.3-46.3,4.3c-0.2-1.8-0.7-3.6-2.4-5
		c-2.4-2.1-5.5-1.7-7.6-1.3c-0.2,0-0.5,0.1-0.8,0.2l0,0c-0.3,0.1-0.6,0.2-0.9,0.3h-0.1c-0.3,0.1-0.6,0.2-0.9,0.3h-0.1
		c-0.3,0.1-0.6,0.3-0.9,0.4c0,0-0.1,0-0.1,0.1c-0.3,0.1-0.5,0.3-0.8,0.4l-0.2,0.1c-0.3,0.1-0.5,0.3-0.8,0.5l-0.2,0.1
		c-0.2,0.2-0.5,0.3-0.7,0.5l-0.3,0.2c-0.2,0.2-0.4,0.3-0.6,0.5l-0.3,0.2c-0.2,0.2-0.4,0.3-0.6,0.5c-0.1,0.1-0.2,0.2-0.3,0.3
		c-0.2,0.2-0.3,0.3-0.5,0.5c-0.1,0.1-0.2,0.2-0.3,0.3l-0.1,0.1c-0.1,0.2-0.3,0.3-0.4,0.5l0,0c-6.2,1.4-25.5,7-44.1,22.4
		c-0.1,0-0.1,0.1-0.2,0.1c-0.2,0.2-0.3,0.3-0.5,0.5l-0.2,0.2c-0.5,0.4-1,0.9-1.5,1.3c-0.3,0.3-0.6,0.5-0.9,0.8l-0.6,0.6
		c-0.1,0.1-0.2,0.2-0.3,0.3c-0.9,0.8-1.8,1.7-2.6,2.6c-0.1,0.1-0.1,0.1-0.2,0.2l-0.3,0.3c-0.3,0.3-0.5,0.5-0.8,0.8l-0.2,0.2
		c-0.1,0.1-0.3,0.3-0.4,0.4c-0.1,0.1-0.1,0.2-0.2,0.3c-1.2,1.3-2.2,2.5-3.2,3.7c-1.4,1.2-2.7,2.4-3.9,3.6c-0.1,0.1-0.1,0.1-0.2,0.2
		c-1,1.1-5.7,6.6-3.3,12.3C-189.5,102.7-183.9,103.5-180.6,103.2z"/>
	<path class="st9" d="M24.6,41.4h-0.1H24.6L24.6,41.4z M-181,102.8h20.3c0.3,0.5,0.7,0.9,1,1.4l0.1,0.1c0.8,1,1.7,2,2.6,2.9l0.1,0.1
		c0.4,0.4,0.9,0.8,1.3,1.2l0.1,0.1c0.5,0.4,1,0.8,1.5,1.2c0,0,0.1,0,0.1,0.1c0.5,0.3,1,0.7,1.5,1l0.1,0.1l0.2,0.1
		c1,0.7,2.2,1.3,3.3,1.8l0.4,0.2c0.5,0.2,1,0.4,1.5,0.6l0.2,0.1c0.6,0.2,1.2,0.4,1.7,0.6l0.4,0.1c0.5,0.1,1,0.3,1.5,0.4l0.4,0.1
		c0.6,0.1,1.2,0.2,1.8,0.3h0.3c0.5,0.1,1,0.1,1.6,0.2h0.5c0.6,0,1.3,0.1,1.9,0.1c9.7,0,18.7-4.8,24.2-12.7H-11
		c0.1,0.1,0.2,0.2,0.2,0.3l0.2,0.2c0.9,1.1,1.8,2.1,2.8,3.1l0.2,0.2c0.5,0.4,0.9,0.9,1.4,1.3l0.1,0.1c0.5,0.4,1.1,0.9,1.6,1.3
		l0.2,0.1c0.5,0.4,1,0.7,1.5,1l0.3,0.2c1.1,0.7,2.3,1.4,3.5,1.9l0.4,0.2c0.5,0.2,1.1,0.5,1.7,0.7l0.2,0.1c0.6,0.2,1.2,0.4,1.9,0.6
		l0.4,0.1c0.5,0.1,1.1,0.3,1.6,0.4l0.5,0.1c0.7,0.1,1.3,0.3,2,0.4l0.4,0.1c0.6,0.1,1.1,0.1,1.7,0.2c0.2,0,0.4,0,0.6,0
		c0.8,0.1,1.5,0.1,2.1,0.1c10.1,0,19.5-4.7,25.5-12.7h11.1c13,0.5,16.1-1.9,17.2-3.3c1.2-1.3,2.3-3.6,2.1-7.9v-3.9
		c0-2.7-1.5-5.6-4.4-7L55.7,55.9c-0.1-0.1-0.1-0.3-0.2-0.4c-0.3-0.6-1.7-3-5.2-5.1l1.6-7L69,44.7c0.1,0,0.1,0,0.2,0
		c5.1,0.2,8.6-2,9.3-5.6c0.1-0.5,0.2-1.1,0.3-3.1c0-0.5,0-1.1-0.2-1.6c-0.8-3-3.4-4.5-5.9-4.5h-0.1c-0.1,0-0.3,0-0.4-0.1
		c0.2-3,0.3-6.5,0.4-8.7l4.5-2.4c1.5-0.8,2.4-2.3,2.5-4c0.1-1.8,0.1-3.3,0.1-4.4V8.6c0.3-3.3-1-6-3.5-7.1c-2.3-1.1-2.4-1.1-27.3,8.6
		c-11.4,4.4-22.8,9-22.9,9.1c0,0-0.1,0-0.1,0.1c0,0-1.6,0.7-3.5,0.8c-1.9,0.1-9-0.2-13.1-0.4c-4.5-0.5-6.8,1.8-7.4,4.1
		c-0.1,0.5-0.2,1.1-0.4,2.7c-0.2,2.7-0.4,7-0.4,7.2c0,0,0,0,0,0.1l-2.7-0.9c-0.6-0.2-7.2-2.7-12.1-6.4
		c-15.2-11.4-28.6-13.9-37.1-13.9c-1.9,0-3.7,0.1-5.6,0.3c-2.4,0.3-4.2,2.3-4.2,4.7v23.2c-0.1,1.7-1.5,1.9-2.3,2
		c-2.6,0-29.3,0.3-46.3,4.3c-0.2-1.8-0.7-3.6-2.4-5c-2.4-2.1-5.5-1.7-7.6-1.3c-0.2,0-0.5,0.1-0.8,0.2l0,0c-0.3,0.1-0.6,0.2-0.9,0.3
		h-0.1c-0.3,0.1-0.6,0.2-0.9,0.3h-0.1c-0.3,0.1-0.6,0.3-0.9,0.4c0,0-0.1,0-0.1,0.1c-0.3,0.1-0.5,0.3-0.8,0.4l-0.2,0.1
		c-0.3,0.1-0.5,0.3-0.8,0.5l-0.2,0.1c-0.2,0.2-0.5,0.3-0.7,0.5l-0.3,0.2c-0.2,0.2-0.4,0.3-0.6,0.5l-0.3,0.2
		c-0.2,0.2-0.4,0.3-0.6,0.5c-0.1,0.1-0.2,0.2-0.3,0.3c-0.2,0.2-0.3,0.3-0.5,0.5c-0.1,0.1-0.2,0.2-0.3,0.3l-0.1,0.1
		c-0.1,0.2-0.3,0.3-0.4,0.5l0,0c-6.2,1.4-25.5,7-44.1,22.4c-0.1,0-0.1,0.1-0.2,0.1c-0.2,0.2-0.3,0.3-0.5,0.5l0.2,0.2
		c-0.5,0.4-1,0.9-1.5,1.3c-0.3,0.3-0.6,0.5-0.9,0.8l-0.6,0.6c-0.1,0.1-0.2,0.2-0.3,0.3c-0.9,0.8-1.8,1.7-2.6,2.6
		c-0.1,0.1-0.1,0.1-0.2,0.2L-180,76c-0.3,0.3-0.5,0.5-0.8,0.8L-181,77c-0.1,0.1-0.3,0.3-0.4,0.4s-0.1,0.2-0.2,0.3
		c-1.2,1.3-2.2,2.5-3.2,3.7c-1.4,1.2-2.7,2.4-3.9,3.6c-0.1,0.1-0.1,0.1-0.2,0.2c-1,1.1-5.7,6.6-3.3,12.3
		C-189.9,102.3-184.3,103.1-181,102.8z"/>
	<path class="st10" d="M24.2,40.9h-0.1H24.2L24.2,40.9z M-181.5,102.3h20.3c0.3,0.5,0.7,0.9,1,1.4l0.1,0.1c0.8,1,1.7,2,2.6,2.9
		l0.1,0.1c0.4,0.4,0.9,0.8,1.3,1.2l0.1,0.1c0.5,0.4,1,0.8,1.5,1.2c0,0,0.1,0,0.1,0.1c0.5,0.3,1,0.7,1.5,1l0.1,0.1l0.2,0.1
		c1,0.7,2.2,1.3,3.3,1.8l0.4,0.2c0.5,0.2,1,0.4,1.5,0.6l0.2,0.1c0.6,0.2,1.2,0.4,1.7,0.6l0.4,0.1c0.5,0.1,1,0.3,1.5,0.4l0.4,0.1
		c0.6,0.1,1.2,0.2,1.8,0.3h0.3c0.5,0.1,1,0.1,1.6,0.2h0.5c0.6,0,1.3,0.1,1.9,0.1c9.7,0,18.7-4.8,24.2-12.7h101.4
		c0.1,0.1,0.2,0.2,0.2,0.3l0.2,0.2c0.9,1.1,1.8,2.1,2.8,3.1l0.2,0.2c0.5,0.4,0.9,0.9,1.4,1.3l0.1,0.1c0.5,0.4,1.1,0.9,1.6,1.3
		l0.2,0.1c0.5,0.4,1,0.7,1.5,1l0.3,0.2c1.1,0.7,2.3,1.4,3.5,1.9l0.4,0.2c0.5,0.2,1.1,0.5,1.7,0.7l0.2,0.1c0.6,0.2,1.2,0.4,1.9,0.6
		l0.4,0.1c0.5,0.1,1.1,0.3,1.6,0.4l0.5,0.1c0.7,0.1,1.3,0.3,2,0.4l0.4,0.1c0.6,0.1,1.1,0.1,1.7,0.2c0.2,0,0.4,0,0.6,0
		c0.8,0.1,1.5,0.1,2.1,0.1c10.1,0,19.5-4.7,25.5-12.7h11.1c13,0.5,16.1-1.9,17.2-3.3c1.2-1.3,2.3-3.6,2.1-7.9v-3.9
		c0-2.7-1.5-5.6-4.4-7L55.2,55.4c-0.1-0.1-0.1-0.3-0.2-0.4c-0.3-0.6-1.7-3-5.2-5.1l1.6-7l17.1,1.3c0.1,0,0.1,0,0.2,0
		c5.1,0.2,8.6-2,9.3-5.6c0.1-0.5,0.2-1.1,0.3-3.1c0-0.5,0-1.1-0.2-1.6c-0.8-3-3.4-4.5-5.9-4.5h-0.1c-0.1,0-0.3,0-0.4-0.1
		c0.2-3,0.3-6.5,0.4-8.7l4.5-2.4c1.5-0.8,2.4-2.3,2.5-4c0.1-1.8,0.1-3.3,0.1-4.4V8.1c0.3-3.3-1-6-3.5-7.1c-2.3-1.1-2.4-1.1-27.3,8.6
		c-11.4,4.4-22.8,9-22.9,9.1c0,0-0.1,0-0.1,0.1c0,0-1.6,0.7-3.5,0.8c-1.9,0.1-9-0.2-13.1-0.4C4.3,18.7,2,21,1.4,23.3
		C1.3,23.8,1.2,24.4,1,26c-0.2,2.7-0.4,7-0.4,7.2c0,0,0,0,0,0.1l-2.7-0.9c-0.6-0.2-7.2-2.7-12.1-6.4c-15.1-11.5-28.5-14-37-14
		c-1.9,0-3.7,0.1-5.6,0.3c-2.4,0.3-4.2,2.3-4.2,4.7v23.2c-0.1,1.7-1.5,1.9-2.3,2c-2.6,0-29.3,0.3-46.3,4.3c-0.2-1.8-0.7-3.6-2.4-5
		c-2.4-2.1-5.5-1.7-7.6-1.3c-0.2,0-0.5,0.1-0.8,0.2l0,0c-0.3,0.1-0.6,0.2-0.9,0.3h-0.1c-0.3,0.1-0.6,0.2-0.9,0.3h-0.1
		c-0.3,0.1-0.6,0.3-0.9,0.4c0,0-0.1,0-0.1,0.1c-0.3,0.1-0.5,0.3-0.8,0.4l-0.2,0.1c-0.3,0.1-0.5,0.3-0.8,0.5l-0.2,0.1
		c-0.2,0.2-0.5,0.3-0.7,0.5l-0.3,0.2c-0.2,0.2-0.4,0.3-0.6,0.5l-0.3,0.2c-0.2,0.2-0.4,0.3-0.6,0.5c-0.1,0.1-0.2,0.2-0.3,0.3
		c-0.2,0.2-0.3,0.3-0.5,0.5c-0.1,0.1-0.2,0.2-0.3,0.3l-0.1,0.1c-0.1,0.2-0.3,0.3-0.4,0.5l0,0c-6.2,1.4-25.5,7-44.1,22.4
		c-0.1,0-0.1,0.1-0.2,0.1c-0.2,0.2-0.3,0.3-0.5,0.5l-0.2,0.2c-0.5,0.4-1,0.9-1.5,1.3c-0.3,0.3-0.6,0.5-0.9,0.8l-0.6,0.6
		c-0.1,0.1-0.2,0.2-0.3,0.3c-0.9,0.8-1.8,1.7-2.6,2.6c-0.1,0.1-0.1,0.1-0.2,0.2l-0.3,0.3c-0.3,0.3-0.5,0.5-0.8,0.8l-0.2,0.2
		c-0.1,0.1-0.3,0.3-0.4,0.4c-0.1,0.1-0.1,0.2-0.2,0.3c-1.2,1.3-2.2,2.5-3.2,3.7c-1.4,1.2-2.7,2.4-3.9,3.6c-0.1,0.1-0.1,0.1-0.2,0.2
		c-1,1.1-5.7,6.6-3.3,12.3C-190.3,101.9-184.7,102.7-181.5,102.3z"/>
	<path class="st11" d="M23.7,40.5h-0.1H23.7L23.7,40.5z M-181.9,101.9h20.3c0.3,0.5,0.7,0.9,1,1.4l0.1,0.1c0.8,1,1.7,2,2.6,2.9
		l0.1,0.1c0.4,0.4,0.9,0.8,1.3,1.2l0.1,0.1c0.5,0.4,1,0.8,1.5,1.2c0,0,0.1,0,0.1,0.1c0.5,0.3,1,0.7,1.5,1l0.1,0.1l0.2,0.1
		c1,0.7,2.2,1.3,3.3,1.8l0.4,0.2c0.5,0.2,1,0.4,1.5,0.6l0.2,0.1c0.6,0.2,1.2,0.4,1.7,0.6l0.4,0.1c0.5,0.1,1,0.3,1.5,0.4l0.4,0.1
		c0.6,0.1,1.2,0.2,1.8,0.3h0.3c0.5,0.1,1,0.1,1.6,0.2h0.5c0.6,0,1.3,0.1,1.9,0.1c9.7,0,18.7-4.8,24.2-12.7h101.4
		c0.1,0.1,0.2,0.2,0.2,0.3l0.2,0.2c0.9,1.1,1.8,2.1,2.8,3.1l0.2,0.2c0.5,0.4,0.9,0.9,1.4,1.3l0.1,0.1c0.5,0.4,1.1,0.9,1.6,1.3
		l0.2,0.1c0.5,0.4,1,0.7,1.5,1l0.3,0.2c1.1,0.7,2.3,1.4,3.5,1.9l0.4,0.2c0.5,0.2,1.1,0.5,1.7,0.7l0.2,0.1c0.6,0.2,1.2,0.4,1.9,0.6
		l0.4,0.1c0.5,0.1,1.1,0.3,1.6,0.4l0.5,0.1c0.7,0.1,1.3,0.3,2,0.4l0.4,0.1c0.6,0.1,1.1,0.1,1.7,0.2c0.2,0,0.4,0,0.6,0
		c0.8,0.1,1.5,0.1,2.1,0.1c10.1,0,19.5-4.7,25.5-12.7h11.1c13,0.5,16.1-1.9,17.2-3.3c1.2-1.3,2.3-3.6,2.1-7.9v-3.9
		c0-2.7-1.5-5.6-4.4-7L55,55c-0.1-0.1-0.1-0.3-0.2-0.4c-0.3-0.6-1.7-3-5.2-5.1l1.6-7l17.1,1.3c0.1,0,0.1,0,0.2,0
		c5.1,0.2,8.6-2,9.3-5.6c0.1-0.5,0.2-1.1,0.3-3.1c0-0.5,0-1.1-0.2-1.6c-0.8-3-3.4-4.5-5.9-4.5h-0.1c-0.1,0-0.3,0-0.4-0.1
		c0.2-3,0.3-6.5,0.4-8.7l4.5-2.4c1.5-0.8,2.4-2.3,2.5-4C79,12,79,10.5,79,9.4V7.7c0.3-3.3-1-6-3.5-7.1c-2.3-1.1-2.4-1.1-27.3,8.6
		c-11.4,4.4-22.8,9-22.9,9.1c0,0-0.1,0-0.1,0.1c0,0-1.6,0.7-3.5,0.8c-1.9,0.1-9-0.2-13.1-0.4c-4.5-0.5-6.8,1.8-7.4,4.1
		C1.1,23.4,1,24,0.8,25.6c-0.2,2.7-0.4,7-0.4,7.2c0,0,0,0,0,0.1L-2.3,32c-0.6-0.2-7.2-2.7-12.1-6.4C-29.6,14.2-43,11.7-51.5,11.7
		c-1.9,0-3.7,0.1-5.6,0.3c-2.4,0.3-4.2,2.3-4.2,4.7v23.2c-0.1,1.7-1.5,1.9-2.3,2c-2.6,0-29.3,0.3-46.3,4.3c-0.2-1.8-0.7-3.6-2.4-5
		c-2.4-2.1-5.5-1.7-7.6-1.3c-0.2,0-0.5,0.1-0.8,0.2l0,0c-0.3,0.1-0.6,0.2-0.9,0.3h-0.1c-0.3,0.1-0.6,0.2-0.9,0.3h-0.1
		c-0.3,0.1-0.6,0.3-0.9,0.4c0,0-0.1,0-0.1,0.1c-0.3,0.1-0.5,0.3-0.8,0.4l-0.2,0.1c-0.3,0.1-0.5,0.3-0.8,0.5l-0.2,0.1
		c-0.2,0.2-0.5,0.3-0.7,0.5l-0.3,0.2c-0.2,0.2-0.4,0.3-0.6,0.5l-0.3,0.2c-0.2,0.2-0.4,0.3-0.6,0.5c-0.1,0.1-0.2,0.2-0.3,0.3
		c-0.2,0.2-0.3,0.3-0.5,0.5c-0.1,0.1-0.2,0.2-0.3,0.3l-0.1,0.1c-0.1,0.2-0.3,0.3-0.4,0.5l0,0c-6.2,1.4-25.5,7-44.1,22.4
		c-0.1,0-0.1,0.1-0.2,0.1c-0.2,0.2-0.3,0.3-0.5,0.5l-0.2,0.2c-0.5,0.4-1,0.9-1.5,1.3c-0.3,0.3-0.6,0.5-0.9,0.8l-0.6,0.6
		c-0.1,0.1-0.2,0.2-0.3,0.3c-0.9,0.8-1.8,1.7-2.6,2.6c-0.1,0.1-0.1,0.1-0.2,0.2l-0.3,0.3c-0.3,0.3-0.5,0.5-0.8,0.8l-0.2,0.2
		c-0.1,0.1-0.3,0.3-0.4,0.4c-0.1,0.1-0.1,0.2-0.2,0.3c-1.2,1.3-2.2,2.5-3.2,3.7c-1.4,1.2-2.7,2.4-3.9,3.6c-0.1,0.1-0.1,0.1-0.2,0.2
		c-1,1.1-5.7,6.6-3.3,12.3C-190.7,101.5-185.1,102.3-181.9,101.9z"/>
	<path class="st12" d="M23.3,40.1h-0.1H23.3L23.3,40.1z M-182.3,101.5h20.3c0.3,0.5,0.7,0.9,1,1.4l0.1,0.1c0.8,1,1.7,2,2.6,2.9
		l0.1,0.1c0.4,0.4,0.9,0.8,1.3,1.2l0.1,0.1c0.5,0.4,1,0.8,1.5,1.2c0,0,0.1,0,0.1,0.1c0.5,0.3,1,0.7,1.5,1l0.1,0.1l0.2,0.1
		c1,0.7,2.2,1.3,3.3,1.8l0.4,0.2c0.5,0.2,1,0.4,1.5,0.6l0.2,0.1c0.6,0.2,1.2,0.4,1.7,0.6l0.4,0.1c0.5,0.1,1,0.3,1.5,0.4l0.4,0.1
		c0.6,0.1,1.2,0.2,1.8,0.3h0.3c0.5,0.1,1,0.1,1.6,0.2h0.5c0.6,0,1.3,0.1,1.9,0.1c9.7,0,18.7-4.8,24.2-12.7h101.4
		c0.1,0.1,0.2,0.2,0.2,0.3l0.2,0.2c0.9,1.1,1.8,2.1,2.8,3.1l0.2,0.2c0.5,0.4,0.9,0.9,1.4,1.3l0.1,0.1c0.5,0.4,1.1,0.9,1.6,1.3
		l0.2,0.1c0.5,0.4,1,0.7,1.5,1l0.3,0.2c1.1,0.7,2.3,1.4,3.5,1.9l0.4,0.2c0.5,0.2,1.1,0.5,1.7,0.7l0.2,0.1c0.6,0.2,1.2,0.4,1.9,0.6
		l0.4,0.1c0.5,0.1,1.1,0.3,1.6,0.4l0.5,0.1c0.7,0.1,1.3,0.3,2,0.4l0.4,0.1c0.6,0.1,1.1,0.1,1.7,0.2c0.2,0,0.4,0,0.6,0
		c0.8,0.1,1.5,0.1,2.1,0.1c10.1,0,19.5-4.7,25.5-12.7h11.1c13,0.5,16.1-1.9,17.2-3.3c1.2-1.3,2.3-3.6,2.1-7.9v-3.9
		c0-2.7-1.5-5.6-4.4-7L54.4,54.6c-0.1-0.1-0.1-0.3-0.2-0.4c-0.3-0.6-1.7-3-5.2-5.1l1.6-7l17.1,1.3c0.1,0,0.1,0,0.2,0
		c5.1,0.2,8.6-2,9.3-5.6c0.1-0.5,0.2-1.1,0.3-3.1c0-0.5,0-1.1-0.2-1.6c-0.8-3-3.4-4.5-5.9-4.5h-0.1c-0.1,0-0.3,0-0.4-0.1
		c0.2-3,0.3-6.5,0.4-8.7l4.5-2.4c1.5-0.8,2.4-2.3,2.5-4c0.1-1.8,0.1-3.3,0.1-4.4V7.3c0.3-3.3-1-6-3.5-7.1c-2.3-1.1-2.4-1.1-27.3,8.6
		c-11.4,4.4-22.8,9-22.9,9.1c0,0-0.1,0-0.1,0.1c0,0-1.6,0.7-3.5,0.8c-1.9,0.1-9-0.2-13.1-0.4c-4.5-0.5-6.8,1.8-7.4,4.1
		c-0.1,0.5-0.2,1.1-0.4,2.7c-0.2,2.7-0.4,7-0.4,7.2c0,0,0,0,0,0.1l-2.7-0.9c-0.6-0.2-7.2-2.7-12.1-6.4
		c-15.2-11.4-28.6-13.9-37.1-13.9c-1.9,0-3.7,0.1-5.6,0.3c-2.4,0.3-4.2,2.3-4.2,4.7v23.2c-0.1,1.7-1.5,1.9-2.3,2
		c-2.6,0-29.3,0.3-46.3,4.3c-0.2-1.8-0.7-3.6-2.4-5c-2.4-2.1-5.5-1.7-7.6-1.3c-0.2,0-0.5,0.1-0.8,0.2l0,0c-0.3,0.1-0.6,0.2-0.9,0.3
		h-0.1c-0.3,0.1-0.6,0.2-0.9,0.3h-0.1c-0.3,0.1-0.6,0.3-0.9,0.4c0,0-0.1,0-0.1,0.1c-0.3,0.1-0.5,0.3-0.8,0.4l-0.2,0.1
		c-0.3,0.1-0.5,0.3-0.8,0.5l-0.2,0.1c-0.2,0.2-0.5,0.3-0.7,0.5l0.1,0.1c-0.2,0.2-0.4,0.3-0.6,0.5l-0.3,0.2c-0.2,0.2-0.4,0.3-0.6,0.5
		c-0.1,0.1-0.2,0.2-0.3,0.3c-0.2,0.2-0.3,0.3-0.5,0.5c-0.1,0.1-0.2,0.2-0.3,0.3l-0.1,0.1c-0.1,0.2-0.3,0.3-0.4,0.5l0,0
		c-6.2,1.4-25.5,7-44.1,22.4c-0.1,0-0.1,0.1-0.2,0.1c-0.2,0.2-0.3,0.3-0.5,0.5l-0.1,0.3c-0.5,0.4-1,0.9-1.5,1.3
		c-0.3,0.3-0.6,0.5-0.9,0.8l-0.6,0.6c-0.1,0.1-0.2,0.2-0.3,0.3c-0.9,0.8-1.8,1.7-2.6,2.6c-0.1,0.1-0.1,0.1-0.2,0.2l-0.3,0.3
		c-0.3,0.3-0.5,0.5-0.8,0.8l-0.2,0.2c-0.1,0.1-0.3,0.3-0.4,0.4c-0.1,0.1-0.1,0.2-0.2,0.3c-1.2,1.3-2.2,2.5-3.2,3.7
		c-1.4,1.2-2.7,2.4-3.9,3.6c-0.1,0.1-0.1,0.1-0.2,0.2c-1,1.1-5.7,6.6-3.3,12.3C-191.2,101.1-185.5,101.9-182.3,101.5z"/>
	<path class="st13" d="M22.9,39.7h-0.1H22.9L22.9,39.7z M-182.7,101.1h20.3c0.3,0.5,0.7,0.9,1,1.4l0.1,0.1c0.8,1,1.7,2,2.6,2.9
		l0.1,0.1c0.4,0.4,0.9,0.8,1.3,1.2l0.1,0.1c0.5,0.4,1,0.8,1.5,1.2c0,0,0.1,0,0.1,0.1c0.5,0.3,1,0.7,1.5,1l0.1,0.1l0.2,0.1
		c1,0.7,2.2,1.3,3.3,1.8l0.4,0.2c0.5,0.2,1,0.4,1.5,0.6l0.2,0.1c0.6,0.2,1.2,0.4,1.7,0.6l0.4,0.1c0.5,0.1,1,0.3,1.5,0.4l0.4,0.1
		c0.6,0.1,1.2,0.2,1.8,0.3h0.3c0.5,0.1,1,0.1,1.6,0.2h0.5c0.6,0,1.3,0.1,1.9,0.1c9.7,0,18.7-4.8,24.2-12.7h101.4
		c0.1,0.1,0.2,0.2,0.2,0.3l0.2,0.2c0.9,1.1,1.8,2.1,2.8,3.1l0.2,0.2c0.5,0.4,0.9,0.9,1.4,1.3l0.1,0.1c0.5,0.4,1.1,0.9,1.6,1.3
		l0.2,0.1c0.5,0.4,1,0.7,1.5,1l0.3,0.2c1.1,0.7,2.3,1.4,3.5,1.9l0.4,0.2c0.5,0.2,1.1,0.5,1.7,0.7l0.2,0.1c0.6,0.2,1.2,0.4,1.9,0.6
		l0.4,0.1c0.5,0.1,1.1,0.3,1.6,0.4l0.5,0.1c0.7,0.1,1.3,0.3,2,0.4l0.4,0.1c0.6,0.1,1.1,0.1,1.7,0.2c0.2,0,0.4,0,0.6,0
		c0.8,0.1,1.5,0.1,2.1,0.1c10.1,0,19.5-4.7,25.5-12.7h11.1c13,0.5,16.1-1.9,17.2-3.3c1.2-1.3,2.3-3.6,2.1-7.9v-4
		c0-2.7-1.5-5.6-4.4-7L54.1,54.1C54,54,54,53.8,53.9,53.7c-0.3-0.6-1.7-3-5.2-5.1l1.6-7l17.1,1.3c0.1,0,0.1,0,0.2,0
		c5.1,0.2,8.6-2,9.3-5.6c0.1-0.5,0.2-1.1,0.3-3.1c0-0.5,0-1.1-0.2-1.6c-0.8-3-3.4-4.5-5.9-4.5H71c-0.1,0-0.3,0-0.4-0.1
		c0.2-3,0.3-6.5,0.4-8.7l4.5-2.4c1.5-0.8,2.4-2.3,2.5-4c0.1-1.8,0.1-3.3,0.1-4.4V6.8c0.3-3.3-1-6-3.5-7.1c-2.3-1.1-2.4-1.1-27.3,8.6
		c-11.4,4.4-22.8,9-22.9,9.1c0,0-0.1,0-0.1,0.1c0,0-1.6,0.7-3.5,0.8c-1.9,0.1-9-0.2-13.1-0.4c-4.5-0.5-6.8,1.8-7.4,4.1
		c-0.1,0.5-0.2,1.1-0.4,2.7c-0.2,2.7-0.4,7-0.4,7.2c0,0,0,0,0,0.1l-2.7-0.9c-0.6-0.2-7.2-2.7-12.1-6.4
		c-15.2-11.4-28.6-13.9-37.1-13.9c-1.9,0-3.7,0.1-5.6,0.3c-2.4,0.3-4.2,2.3-4.2,4.7V39c-0.1,1.7-1.5,1.9-2.3,2
		c-2.6,0-29.3,0.3-46.3,4.3c-0.2-1.8-0.7-3.6-2.4-5c-2.4-2.1-5.5-1.7-7.6-1.3c-0.2,0-0.5,0.1-0.8,0.2l0,0c-0.3,0.1-0.6,0.2-0.9,0.3
		h-0.1c-0.3,0.1-0.6,0.2-0.9,0.3h-0.1c-0.3,0.1-0.6,0.3-0.9,0.4c0,0-0.1,0-0.1,0.1c-0.3,0.1-0.5,0.3-0.8,0.4l-0.2,0.1
		c-0.3,0.1-0.5,0.3-0.8,0.5l-0.2,0.1c-0.2,0.2-0.5,0.3-0.7,0.5l-0.3,0.2c-0.2,0.2-0.4,0.3-0.6,0.5l-0.3,0.2
		c-0.2,0.2-0.4,0.3-0.6,0.5c-0.1,0.1-0.2,0.2-0.3,0.3c-0.2,0.2-0.3,0.3-0.5,0.5c-0.1,0.1-0.2,0.2-0.3,0.3l-0.1,0.1
		c-0.1,0.2-0.3,0.3-0.4,0.5l0,0c-6.2,1.4-25.5,7-44.1,22.4c-0.1,0-0.1,0.1-0.2,0.1c-0.2,0.2-0.3,0.3-0.5,0.5l-0.2,0.2
		c-0.5,0.4-1,0.9-1.5,1.3c-0.3,0.3-0.6,0.5-0.9,0.8l-0.2,0.7c-0.1,0.1-0.2,0.2-0.3,0.3c-0.9,0.8-1.8,1.7-2.6,2.6
		c-0.1,0.1-0.1,0.1-0.2,0.2l-0.3,0.3c-0.3,0.3-0.5,0.5-0.8,0.8l-0.2,0.2c-0.1,0.1-0.3,0.3-0.4,0.4c-0.1,0.1-0.1,0.2-0.2,0.3
		c-1.2,1.3-2.2,2.5-3.2,3.7c-1.4,1.2-2.7,2.4-3.9,3.6c-0.1,0.1-0.1,0.1-0.2,0.2c-1,1.1-5.7,6.6-3.3,12.3
		C-191.6,100.6-186,101.4-182.7,101.1z"/>
	<path class="st14" d="M22.5,39.3h-0.1H22.5L22.5,39.3z M-183.1,100.7h20.2c0.3,0.5,0.7,0.9,1,1.4l0.1,0.1c0.8,1,1.7,2,2.6,2.9
		l0.1,0.1c0.4,0.4,0.9,0.8,1.3,1.2l0.1,0.1c0.5,0.4,1,0.8,1.5,1.2c0,0,0.1,0,0.1,0.1c0.5,0.3,1,0.7,1.5,1l0.1,0.1l0.2,0.1
		c1,0.7,2.2,1.3,3.3,1.8l0.4,0.2c0.5,0.2,1,0.4,1.5,0.6l0.2,0.1c0.6,0.2,1.2,0.4,1.7,0.6l0.4,0.1c0.5,0.1,1,0.3,1.5,0.4l0.4,0.1
		c0.6,0.1,1.2,0.2,1.8,0.3h0.3c0.5,0.1,1,0.1,1.6,0.2h0.5c0.6,0,1.3,0.1,1.9,0.1c9.7,0,18.7-4.8,24.2-12.7h101.4
		c0.1,0.1,0.2,0.2,0.2,0.3l0.2,0.2c0.9,1.1,1.8,2.1,2.8,3.1l0.2,0.2c0.5,0.4,0.9,0.9,1.4,1.3l0.1,0.1c0.5,0.4,1.1,0.9,1.6,1.3
		l0.2,0.1c0.5,0.4,1,0.7,1.5,1l0.3,0.2c1.1,0.7,2.3,1.4,3.5,1.9l0.4,0.2c0.5,0.2,1.1,0.5,1.7,0.7l0.2,0.1c0.6,0.2,1.2,0.4,1.9,0.6
		l0.4,0.1c0.5,0.1,1.1,0.3,1.6,0.4l0.5,0.1c0.7,0.1,1.3,0.3,2,0.4l0.4,0.1c0.6,0.1,1.1,0.1,1.7,0.2c0.2,0,0.4,0,0.6,0
		c0.8,0.1,1.5,0.1,2.1,0.1c10.1,0,19.5-4.7,25.5-12.7h11.3c13,0.5,16.1-1.9,17.2-3.3c1.2-1.3,2.3-3.6,2.1-7.9v-3.9
		c0-2.7-1.5-5.6-4.4-7L53.7,53.8c-0.1-0.1-0.1-0.3-0.2-0.4c-0.3-0.6-1.7-3-5.2-5.1l1.6-7L67,42.6c0.1,0,0.1,0,0.2,0
		c5.1,0.2,8.6-2,9.3-5.6c0.1-0.5,0.2-1.1,0.3-3.1c0-0.5,0-1.1-0.2-1.6c-0.8-3-3.4-4.5-5.9-4.5h-0.1c-0.1,0-0.3,0-0.4-0.1
		c0.2-3,0.3-6.5,0.4-8.7l4.5-2.4c1.5-0.8,2.4-2.3,2.5-4c0.1-1.8,0.1-3.3,0.1-4.4V6.5c0.3-3.3-1-6-3.5-7.1C71.9-1.7,71.8-1.7,46.9,8
		c-11.4,4.4-22.8,9-22.9,9.1c0,0-0.1,0-0.1,0.1c0,0-1.6,0.7-3.5,0.8c-1.9,0.1-9-0.2-13.1-0.4c-4.5-0.5-6.8,1.8-7.4,4.1
		c-0.1,0.5-0.2,1.1-0.4,2.7c-0.2,2.7-0.4,7-0.4,7.2c0,0,0,0,0,0.1l-2.7-0.9c-0.6-0.2-7.2-2.7-12.1-6.4C-30.9,13-44.3,10.5-52.8,10.5
		c-1.9,0-3.7,0.1-5.6,0.3c-2.4,0.3-4.2,2.3-4.2,4.7v23.2c-0.1,1.7-1.5,1.9-2.3,2c-2.6,0-29.3,0.3-46.3,4.3c-0.2-1.8-0.7-3.6-2.4-5
		c-2.4-2.1-5.5-1.7-7.6-1.3c-0.2,0-0.5,0.1-0.8,0.2l0,0c-0.3,0.1-0.6,0.2-0.9,0.3h-0.1c-0.3,0.1-0.6,0.2-0.9,0.3h-0.1
		c-0.3,0.1-0.6,0.3-0.9,0.4c0,0-0.1,0-0.1,0.1c-0.3,0.1-0.5,0.3-0.8,0.4h-0.1c-0.3,0.1-0.5,0.3-0.8,0.5l-0.2,0.1
		c-0.2,0.2-0.5,0.3-0.7,0.5l-0.3,0.2c-0.2,0.2-0.4,0.3-0.6,0.5l-0.3,0.2c-0.2,0.2-0.4,0.3-0.6,0.5c-0.1,0.1-0.2,0.2-0.3,0.3
		c-0.2,0.2-0.3,0.3-0.5,0.5c-0.1,0.1-0.2,0.2-0.3,0.3l-0.1,0.1c-0.1,0.2-0.3,0.3-0.4,0.5l0,0c-6.2,1.4-25.5,7-44.1,22.4
		c-0.1,0-0.1,0.1-0.2,0.1c-0.2,0.2-0.3,0.3-0.5,0.5l-0.2,0.2c-0.5,0.4-1,0.9-1.5,1.3c-0.3,0.3-0.6,0.5-0.9,0.8l-0.6,0.6
		c-0.1,0.1-0.2,0.2-0.3,0.3c-0.9,0.8-1.8,1.7-2.6,2.6c-0.1,0.1-0.1,0.1-0.2,0.2l-0.3,0.3c-0.3,0.3-0.5,0.5-0.8,0.8l-0.2,0.2
		c-0.1,0.1-0.3,0.3-0.4,0.4c-0.1,0.1-0.1,0.2-0.2,0.3c-1.2,1.3-2.2,2.5-3.2,3.7c-1.4,1.2-2.7,2.4-3.9,3.6c-0.1,0.1-0.1,0.1-0.2,0.2
		c-1,1.1-5.7,6.6-3.3,12.3C-192,100.2-186.4,101-183.1,100.7z"/>
	<path class="st15" d="M22.1,38.9H22H22.1L22.1,38.9z M-183.5,100.3h20.3c0.3,0.5,0.7,0.9,1,1.4l0.1,0.1c0.8,1,1.7,2,2.6,2.9
		l0.1,0.1c0.4,0.4,0.9,0.8,1.3,1.2l0.1,0.1c0.5,0.4,1,0.8,1.5,1.2c0,0,0.1,0,0.1,0.1c0.5,0.3,1,0.7,1.5,1l0.1,0.1l0.2,0.1
		c1,0.7,2.2,1.3,3.3,1.8l0.4,0.2c0.5,0.2,1,0.4,1.5,0.6l0.2,0.1c0.6,0.2,1.2,0.4,1.7,0.6l0.4,0.1c0.5,0.1,1,0.3,1.5,0.4l0.4,0.1
		c0.6,0.1,1.2,0.2,1.8,0.3h0.3c0.5,0.1,1,0.1,1.6,0.2h0.5c0.6,0,1.3,0.1,1.9,0.1c9.7,0,18.7-4.8,24.2-12.7h101.4
		c0.1,0.1,0.2,0.2,0.2,0.3l0.2,0.2c0.9,1.1,1.8,2.1,2.8,3.1l0.2,0.2c0.5,0.4,0.9,0.9,1.4,1.3l0.1,0.1c0.5,0.4,1.1,0.9,1.6,1.3
		l0.2,0.1c0.5,0.4,1,0.7,1.5,1l0.3,0.2c1.1,0.7,2.3,1.4,3.5,1.9l0.4,0.2c0.5,0.2,1.1,0.5,1.7,0.7l0.2,0.1c0.6,0.2,1.2,0.4,1.9,0.6
		l0.4,0.1c0.5,0.1,1.1,0.3,1.6,0.4l0.5,0.1c0.7,0.1,1.3,0.3,2,0.4l0.4,0.1c0.6,0.1,1.1,0.1,1.7,0.2c0.2,0,0.4,0,0.6,0
		c0.8,0.1,1.5,0.1,2.1,0.1c10.1,0,19.5-4.7,25.5-12.7h11.1c13,0.5,16.1-1.9,17.2-3.3c1.2-1.3,2.3-3.6,2.1-7.9v-3.9
		c0-2.7-1.5-5.6-4.4-7L53.2,53.4c-0.1-0.1-0.1-0.3-0.2-0.4c-0.3-0.6-1.7-3-5.2-5.1l1.6-7l17.1,1.3c0.1,0,0.1,0,0.2,0
		c5.1,0.2,8.6-2,9.3-5.6c0.1-0.5,0.2-1.1,0.3-3.1c0-0.5,0-1.1-0.2-1.6c-0.8-3-3.4-4.5-5.9-4.5h-0.1c-0.1,0-0.3,0-0.4-0.1
		c0.2-3,0.3-6.5,0.4-8.7l4.5-2.4c1.5-0.8,2.4-2.3,2.5-4c0.1-1.8,0.1-3.3,0.1-4.4V6.1c0.3-3.3-1-6-3.5-7.1c-2.3-1.1-2.4-1.1-27.3,8.6
		c-11.4,4.4-22.8,9-22.9,9.1c0,0-0.1,0-0.1,0.1c0,0-1.6,0.7-3.5,0.8c-1.9,0.1-9-0.2-13.1-0.4C2.3,16.7,0,19-0.6,21.3
		C-0.7,21.8-0.8,22.4-1,24c-0.2,2.7-0.4,7-0.4,7.2c0,0,0,0,0,0.1l-2.7-0.9c-0.6-0.2-7.2-2.7-12.1-6.4
		c-15.2-11.4-28.6-13.9-37.1-13.9c-1.9,0-3.7,0.1-5.6,0.3c-2.4,0.3-4.2,2.3-4.2,4.7v23.2c-0.1,1.7-1.5,1.9-2.3,2
		c-2.6,0-29.3,0.3-46.3,4.3c-0.2-1.8-0.7-3.6-2.4-5c-2.4-2.1-5.5-1.7-7.6-1.3c-0.2,0-0.5,0.1-0.8,0.2l0,0c-0.3,0.1-0.6,0.2-0.9,0.3
		h-0.1c-0.3,0.1-0.6,0.2-0.9,0.3h-0.1c-0.3,0.1-0.6,0.3-0.9,0.4c0,0-0.1,0-0.1,0.1c-0.3,0.1-0.5,0.3-0.8,0.4l0,0
		c-0.3,0.1-0.5,0.3-0.8,0.5l-0.2,0.1c-0.2,0.2-0.5,0.3-0.7,0.5l-0.3,0.2c-0.2,0.2-0.4,0.3-0.6,0.5l-0.2,0.2
		c-0.2,0.2-0.4,0.3-0.6,0.5c-0.1,0.1-0.2,0.2-0.3,0.3c-0.2,0.2-0.3,0.3-0.5,0.5c-0.1,0.1-0.2,0.2-0.3,0.3l-0.1,0.1
		c-0.1,0.2-0.3,0.3-0.4,0.5l0,0c-6.2,1.4-25.5,7-44.1,22.4c-0.1,0-0.1,0.1-0.2,0.1c-0.2,0.2-0.3,0.3-0.5,0.5l-0.2,0.2
		c-0.5,0.4-1,0.9-1.5,1.3c-0.3,0.3-0.6,0.5-0.9,0.8l-0.6,0.6c-0.1,0.1-0.2,0.2-0.3,0.3c-0.9,0.8-1.8,1.7-2.6,2.6
		c-0.1,0.1-0.1,0.1-0.2,0.2l-0.3,0.3c-0.3,0.3-0.5,0.5-0.8,0.8l-0.2,0.2c-0.1,0.1-0.3,0.3-0.4,0.4c-0.1,0.1-0.1,0.2-0.2,0.3
		c-1.2,1.3-2.2,2.5-3.2,3.7c-1.4,1.2-2.7,2.4-3.9,3.6c-0.1,0.1-0.1,0.1-0.2,0.2c-1,1.1-5.7,6.6-3.3,12.3
		C-192.4,99.8-186.8,100.6-183.5,100.3z"/>
	<path class="st16" d="M21.7,38.4h-0.1H21.7L21.7,38.4z M-184,99.9h20.3c0.3,0.5,0.7,0.9,1,1.4l0.1,0.1c0.8,1,1.7,2,2.6,2.9l0.1,0.1
		c0.4,0.4,0.9,0.8,1.3,1.2l0.1,0.1c0.5,0.4,1,0.8,1.5,1.2c0,0,0.1,0,0.1,0.1c0.5,0.3,1,0.7,1.5,1l0.1,0.1l0.2,0.1
		c1,0.7,2.2,1.3,3.3,1.8l0.4,0.2c0.5,0.2,1,0.4,1.5,0.6l0.2,0.1c0.6,0.2,1.2,0.4,1.7,0.6l0.4,0.1c0.5,0.1,1,0.3,1.5,0.4l0.4,0.1
		c0.6,0.1,1.2,0.2,1.8,0.3h0.3c0.5,0.1,1,0.1,1.6,0.2h0.5c0.6,0,1.3,0.1,1.9,0.1c9.7,0,18.7-4.8,24.2-12.7h101.5
		c0.1,0.1,0.2,0.2,0.2,0.3l0.2,0.2c0.9,1.1,1.8,2.1,2.8,3.1l0.2,0.2c0.5,0.4,0.9,0.9,1.4,1.3l0.1,0.1c0.5,0.4,1.1,0.9,1.6,1.3
		l0.2,0.1c0.5,0.4,1,0.7,1.5,1l0.3,0.2c1.1,0.7,2.3,1.4,3.5,1.9l0.4,0.2c0.5,0.2,1.1,0.5,1.7,0.7l0.2,0.1c0.6,0.2,1.2,0.4,1.9,0.6
		l0.4,0.1c0.5,0.1,1.1,0.3,1.6,0.4l0.5,0.1c0.7,0.1,1.3,0.3,2,0.4l0.4,0.1c0.6,0.1,1.1,0.1,1.7,0.2c0.2,0,0.4,0,0.6,0
		c0.8,0.1,1.5,0.1,2.1,0.1c10.1,0,19.5-4.7,25.5-12.7h11.1c13,0.5,16.1-1.9,17.2-3.3c1.2-1.3,2.3-3.6,2.1-7.9v-3.9
		c0-2.7-1.5-5.6-4.4-7L52.8,53c-0.1-0.1-0.1-0.3-0.2-0.4c-0.3-0.6-1.7-3-5.2-5.1l1.6-7l17.1,1.3c0.1,0,0.1,0,0.2,0
		c5.1,0.2,8.6-2,9.3-5.6c0.1-0.5,0.2-1.1,0.3-3.1c0-0.5,0-1.1-0.2-1.6c-0.8-3-3.4-4.5-5.9-4.5h-0.1c-0.1,0-0.3,0-0.4-0.1
		c0.2-3,0.3-6.5,0.4-8.7l4.5-2.4c1.5-0.8,2.4-2.3,2.5-4c0.1-1.8,0.1-3.3,0.1-4.4V5.7c0.3-3.3-1-6-3.5-7.1C71-2.5,70.9-2.5,46,7.2
		c-11.4,4.4-22.8,9-22.9,9.1c0,0-0.1,0-0.1,0.1c0,0-1.6,0.7-3.5,0.8c-1.9,0.1-9-0.2-13.1-0.4c-4.5-0.5-6.8,1.8-7.4,4.1
		c-0.1,0.5-0.2,1.1-0.4,2.7c-0.2,2.7-0.4,7-0.4,7.2c0,0,0,0,0,0.1L-4.5,30c-0.6-0.2-7.2-2.7-12.1-6.4C-31.8,12.2-45.2,9.7-53.7,9.7
		c-1.9,0-3.7,0.1-5.6,0.3c-2.4,0.3-4.2,2.3-4.2,4.7v23.2c-0.1,1.7-1.5,1.9-2.3,2c-2.6,0-29.3,0.3-46.3,4.3c-0.2-1.8-0.7-3.6-2.4-5
		c-2.4-2.2-5.4-1.9-7.5-1.5c-0.2,0-0.5,0.1-0.8,0.2l0,0c-0.3,0.1-0.6,0.2-0.9,0.3h-0.1c-0.3,0.1-0.6,0.2-0.9,0.3h-0.1
		c-0.3,0.1-0.6,0.3-0.9,0.4c0,0-0.1,0-0.1,0.1c-0.3,0.1-0.5,0.3-0.8,0.4l-0.2,0.1c-0.3,0.1-0.5,0.3-0.8,0.5l-0.2,0.1
		c-0.2,0.2-0.5,0.3-0.7,0.5l-0.3,0.2c-0.2,0.2-0.4,0.3-0.6,0.5l-0.3,0.2c-0.2,0.2-0.4,0.3-0.6,0.5c-0.1,0.1-0.2,0.2-0.3,0.3
		c-0.2,0.2-0.3,0.3-0.5,0.5c-0.1,0.1-0.2,0.2-0.3,0.3l-0.1,0.1c-0.1,0.2-0.3,0.3-0.4,0.5l0,0c-6.2,1.4-25.5,7-44.1,22.4
		c-0.1,0-0.1,0.1-0.2,0.1c-0.2,0.2-0.3,0.3-0.5,0.5l-0.2,0.2c-0.5,0.4-1,0.9-1.5,1.3c-0.3,0.3-0.6,0.5-0.9,0.8l-0.6,0.6
		c-0.1,0.1-0.2,0.2-0.3,0.3c-0.9,0.8-1.8,1.7-2.6,2.6c-0.1,0.1-0.1,0.1-0.2,0.2l0.1,0.4c-0.3,0.3-0.5,0.5-0.8,0.8l-0.2,0.2
		c-0.1,0.1-0.3,0.3-0.4,0.4c-0.1,0.1-0.1,0.2-0.2,0.3c-1.2,1.3-2.2,2.5-3.2,3.7c-1.4,1.2-2.7,2.4-3.9,3.6c-0.1,0.1-0.1,0.1-0.2,0.2
		c-1,1.1-5.7,6.6-3.3,12.3C-192.8,99.4-187.2,100.2-184,99.9z"/>
	<path class="st17" d="M21.2,38h-0.1H21.2L21.2,38z M-184.4,99.4h20.3c0.3,0.5,0.7,0.9,1,1.4l0.1,0.1c0.8,1,1.7,2,2.6,2.9l0.1,0.1
		c0.4,0.4,0.9,0.8,1.3,1.2l0.1,0.1c0.5,0.4,1,0.8,1.5,1.2c0,0,0.1,0,0.1,0.1c0.5,0.3,1,0.7,1.5,1l0.1,0.1l0.2,0.1
		c1,0.7,2.2,1.3,3.3,1.8l0.4,0.2c0.5,0.2,1,0.4,1.5,0.6l0.2,0.1c0.6,0.2,1.2,0.4,1.7,0.6l0.4,0.1c0.5,0.1,1,0.3,1.5,0.4l0.4,0.1
		c0.6,0.1,1.2,0.2,1.8,0.3h0.3c0.5,0.1,1,0.1,1.6,0.2h0.5c0.6,0,1.3,0.1,1.9,0.1c9.7,0,18.7-4.8,24.2-12.7h101.4
		c0.1,0.1,0.2,0.2,0.2,0.3l0.2,0.2c0.9,1.1,1.8,2.1,2.8,3.1l0.2,0.2c0.5,0.4,0.9,0.9,1.4,1.3l0.1,0.1c0.5,0.4,1.1,0.9,1.6,1.3
		l0.2,0.1c0.5,0.4,1,0.7,1.5,1l0.3,0.2c1.1,0.7,2.3,1.4,3.5,1.9l0.4,0.2c0.5,0.2,1.1,0.5,1.7,0.7l0.2,0.1c0.6,0.2,1.2,0.4,1.9,0.6
		l0.4,0.1c0.5,0.1,1.1,0.3,1.6,0.4l0.5,0.1c0.7,0.1,1.3,0.3,2,0.4l0.4,0.1c0.6,0.1,1.1,0.1,1.7,0.2c0.2,0,0.4,0,0.6,0
		c0.8,0.1,1.5,0.1,2.1,0.1c10.1,0,19.5-4.7,25.5-12.7h11.1c13,0.5,16.1-1.9,17.2-3.3c1.2-1.3,2.3-3.6,2.1-7.9v-3.9
		c0-2.7-1.5-5.6-4.4-7L52.3,52.5c-0.1-0.1-0.1-0.3-0.2-0.4c-0.3-0.6-1.7-3-5.2-5.1l1.6-7l17.1,1.3c0.1,0,0.1,0,0.2,0
		c5.1,0.2,8.6-2,9.3-5.6c0.1-0.5,0.2-1.1,0.3-3.1c0-0.5,0-1.1-0.2-1.6c-0.8-3-3.4-4.5-5.9-4.5h-0.1c-0.1,0-0.3,0-0.4-0.1
		c0.2-3,0.3-6.5,0.4-8.7l4.5-2.4c1.5-0.8,2.4-2.3,2.5-4c0.1-1.8,0.1-3.3,0.1-4.4V5.2c0.3-3.3-1-6-3.5-7.1C70.5-3,70.4-3,45.5,6.7
		c-11.4,4.4-22.8,9-22.9,9.1c0,0-0.1,0-0.1,0.1c0,0-1.6,0.7-3.5,0.8c-1.9,0.1-9-0.2-13.1-0.4c-4.5-0.5-6.8,1.8-7.4,4.1
		c-0.1,0.5-0.2,1.1-0.4,2.7c-0.2,2.7-0.4,7-0.4,7.2c0,0,0,0,0,0.1L-5,29.5c-0.6-0.2-7.2-2.7-12.1-6.4C-32.3,11.7-45.7,9.2-54.2,9.2
		c-1.9,0-3.7,0.1-5.6,0.3c-2.4,0.3-4.2,2.3-4.2,4.7v23.2c-0.1,1.7-1.5,1.9-2.3,2c-2.6,0-29.3,0.3-46.3,4.3c-0.2-1.8-0.7-3.6-2.4-5
		c-2.4-2.1-5.5-1.7-7.6-1.3c-0.2,0-0.5,0.1-0.8,0.2l0,0c-0.3,0.1-0.6,0.2-0.9,0.3h-0.1c-0.3,0.1-0.6,0.2-0.9,0.3h-0.1
		c-0.3,0.1-0.6,0.3-0.9,0.4c0,0-0.1,0-0.1,0.1c-0.3,0.1-0.5,0.3-0.8,0.4l-0.2,0.1c-0.3,0.1-0.5,0.3-0.8,0.5l-0.2,0.1
		c-0.2,0.2-0.5,0.3-0.7,0.5l-0.3,0.2c-0.2,0.2-0.4,0.3-0.6,0.5l0.1,0.2c-0.2,0.2-0.4,0.3-0.6,0.5c-0.1,0.1-0.2,0.2-0.3,0.3
		c-0.2,0.2-0.3,0.3-0.5,0.5c-0.1,0.1-0.2,0.2-0.3,0.3l-0.1,0.1c-0.1,0.2-0.3,0.3-0.4,0.5l0,0c-6.2,1.4-25.5,7-44.1,22.4
		c-0.1,0-0.1,0.1-0.2,0.1c-0.2,0.2-0.3,0.3-0.5,0.5l-0.2,0.2c-0.5,0.4-1,0.9-1.5,1.3c-0.3,0.3-0.6,0.5-0.9,0.8l-0.6,0.6
		c-0.1,0.1-0.2,0.2-0.3,0.3c-0.9,0.8-1.8,1.7-2.6,2.6c-0.1,0.1-0.1,0.1-0.2,0.2l-0.3,0.3c-0.3,0.3-0.5,0.5-0.8,0.8l-0.2,0.2
		c-0.1,0.1-0.3,0.3-0.4,0.4c-0.1,0.1-0.1,0.2-0.2,0.3c-1.2,1.3-2.2,2.5-3.2,3.7c-1.4,1.2-2.7,2.4-3.9,3.6c-0.1,0.1-0.1,0.1-0.2,0.2
		c-1,1.1-5.7,6.6-3.3,12.3C-193.2,99-187.6,99.8-184.4,99.4z"/>
	<path class="st18" d="M20.8,37.6h-0.1H20.8L20.8,37.6z M-184.8,99h20.3c0.3,0.5,0.7,0.9,1,1.4l0.1,0.1c0.8,1,1.7,2,2.6,2.9l0.1,0.1
		c0.4,0.4,0.9,0.8,1.3,1.2l0.1,0.1c0.5,0.4,1,0.8,1.5,1.2c0,0,0.1,0,0.1,0.1c0.5,0.3,1,0.7,1.5,1l0.1,0.1l0.2,0.1
		c1,0.7,2.2,1.3,3.3,1.8l0.4,0.2c0.5,0.2,1,0.4,1.5,0.6l0.2,0.1c0.6,0.2,1.2,0.4,1.7,0.6l0.4,0.1c0.5,0.1,1,0.3,1.5,0.4l0.4,0.1
		c0.6,0.1,1.2,0.2,1.8,0.3h0.3c0.5,0.1,1,0.1,1.6,0.2h0.5c0.6,0,1.3,0.1,1.9,0.1c9.7,0,18.7-4.8,24.2-12.7h101.4
		c0.1,0.1,0.2,0.2,0.2,0.3l0.2,0.2c0.9,1.1,1.8,2.1,2.8,3.1l0.2,0.2c0.5,0.4,0.9,0.9,1.4,1.3l0.1,0.1c0.5,0.4,1.1,0.9,1.6,1.3
		l0.2,0.1c0.5,0.4,1,0.7,1.5,1l0.3,0.2c1.1,0.7,2.3,1.4,3.5,1.9l0.4,0.2c0.5,0.2,1.1,0.5,1.7,0.7l0.2,0.1c0.6,0.2,1.2,0.4,1.9,0.6
		l0.4,0.1c0.5,0.1,1.1,0.3,1.6,0.4l0.5,0.1c0.7,0.1,1.3,0.3,2,0.4l0.4,0.1c0.6,0.1,1.1,0.1,1.7,0.2c0.2,0,0.4,0,0.6,0
		c0.8,0.1,1.5,0.1,2.1,0.1c10.1,0,19.5-4.7,25.5-12.7h11.1c13,0.5,16.1-1.9,17.2-3.3c1.2-1.3,2.3-3.6,2.1-7.9V84
		c0-2.7-1.5-5.6-4.4-7L52.1,52.1C52,52,52,51.8,51.9,51.7c-0.3-0.6-1.7-3-5.2-5.1l1.6-7l17.1,1.3c0.1,0,0.1,0,0.2,0
		c5.1,0.2,8.6-2,9.3-5.6c0.1-0.5,0.2-1.1,0.3-3.1c0-0.5,0-1.1-0.2-1.6c-0.8-3-3.4-4.5-5.9-4.5H69c-0.1,0-0.3,0-0.4-0.1
		c0.2-3,0.3-6.5,0.4-8.7l4.5-2.4c1.5-0.8,2.4-2.3,2.5-4c0.1-1.8,0.1-3.3,0.1-4.4V4.8c0.3-3.3-1-6-3.5-7.1c-2.3-1.1-2.4-1.1-27.3,8.6
		c-11.4,4.4-22.8,9-22.9,9.1c0,0-0.1,0-0.1,0.1c0,0-1.6,0.7-3.5,0.8c-1.9,0.1-9-0.2-13.1-0.4c-4.5-0.5-6.8,1.8-7.4,4.1
		c-0.1,0.5-0.2,1.1-0.4,2.7c-0.2,2.7-0.4,7-0.4,7.2c0,0,0,0,0,0.1l-2.7-0.9c-0.6-0.2-7.2-2.7-12.1-6.4C-32.5,11.3-45.9,8.8-54.4,8.8
		c-1.9,0-3.7,0.1-5.6,0.3c-2.4,0.3-4.2,2.3-4.2,4.7V37c-0.1,1.7-1.5,1.9-2.3,2c-2.6,0-29.3,0.3-46.3,4.3c-0.2-1.8-0.7-3.6-2.4-5
		c-2.4-2.1-5.5-1.7-7.6-1.3c-0.2,0-0.5,0.1-0.8,0.2l0,0c-0.3,0.1-0.6,0.2-0.9,0.3h-0.1c-0.3,0.1-0.6,0.2-0.9,0.3h-0.1
		c-0.3,0.1-0.6,0.3-0.9,0.4c0,0-0.1,0-0.1,0.1c-0.3,0.1-0.5,0.3-0.8,0.4l-0.2,0.1c-0.3,0.1-0.5,0.3-0.8,0.5l-0.2,0.1
		c-0.2,0.2-0.5,0.3-0.7,0.5l-0.1,0.1c-0.2,0.2-0.4,0.3-0.6,0.5l-0.3,0.2c-0.2,0.2-0.4,0.3-0.6,0.5c-0.1,0.1-0.2,0.2-0.3,0.3
		c-0.2,0.2-0.3,0.3-0.5,0.5c-0.1,0.1-0.2,0.2-0.3,0.3l-0.1,0.1c-0.1,0.2-0.3,0.3-0.4,0.5l0,0c-6.2,1.4-25.5,7-44.1,22.4
		c-0.1,0-0.1,0.1-0.2,0.1c-0.2,0.2-0.3,0.3-0.5,0.5l-0.2,0.2c-0.5,0.4-1,0.9-1.5,1.3c-0.3,0.3-0.6,0.5-0.9,0.8l-0.6,0.6
		c-0.1,0.1-0.2,0.2-0.3,0.3c-0.9,0.8-1.8,1.7-2.6,2.6c-0.1,0.1-0.1,0.1-0.2,0.2l-0.3,0.3c-0.3,0.3-0.5,0.5-0.8,0.8l-0.2,0.2
		c-0.1,0.1-0.3,0.3-0.4,0.4c-0.1,0.1-0.1,0.2-0.2,0.3c-1.2,1.3-2.2,2.5-3.2,3.7c-1.4,1.2-2.7,2.4-3.9,3.6c-0.1,0.1-0.1,0.1-0.2,0.2
		c-1,1.1-5.7,6.6-3.3,12.3C-193.7,98.6-188,99.4-184.8,99z"/>
	<path class="st19" d="M20.4,37.2h-0.1H20.4L20.4,37.2z M-185.2,98.6h20.3c0.3,0.5,0.7,0.9,1,1.4l0.1,0.1c0.8,1,1.7,2,2.6,2.9
		l0.1,0.1c0.4,0.4,0.9,0.8,1.3,1.2l0.1,0.1c0.5,0.4,1,0.8,1.5,1.2c0,0,0.1,0,0.1,0.1c0.5,0.3,1,0.7,1.5,1l0.1,0.1l0.2,0.1
		c1,0.7,2.2,1.3,3.3,1.8l0.4,0.2c0.5,0.2,1,0.4,1.5,0.6l0.2,0.1c0.6,0.2,1.2,0.4,1.7,0.6l0.4,0.1c0.5,0.1,1,0.3,1.5,0.4l0.4,0.1
		c0.6,0.1,1.2,0.2,1.8,0.3h0.3c0.5,0.1,1,0.1,1.6,0.2h0.5c0.6,0,1.3,0.1,1.9,0.1c9.7,0,18.7-4.8,24.2-12.7h101.4
		c0.1,0.1,0.2,0.2,0.2,0.3l0.2,0.2c0.9,1.1,1.8,2.1,2.8,3.1l0.2,0.2c0.5,0.4,0.9,0.9,1.4,1.3l0.1,0.1c0.5,0.4,1.1,0.9,1.6,1.3
		l0.2,0.1c0.5,0.4,1,0.7,1.5,1l0.3,0.2c1.1,0.7,2.3,1.4,3.5,1.9l0.4,0.2c0.5,0.2,1.1,0.5,1.7,0.7l0.2,0.1c0.6,0.2,1.2,0.4,1.9,0.6
		l0.4,0.1c0.5,0.1,1.1,0.3,1.6,0.4l0.5,0.1c0.7,0.1,1.3,0.3,2,0.4l0.4,0.1c0.6,0.1,1.1,0.1,1.7,0.2c0.2,0,0.4,0,0.6,0
		c0.8,0.1,1.5,0.1,2.1,0.1c10.1,0,19.5-4.7,25.5-12.7h11.1c13,0.5,16.1-1.9,17.2-3.3c1.2-1.3,2.3-3.6,2.1-7.9v-3.9
		c0-2.7-1.5-5.6-4.4-7L51.5,51.7c-0.1-0.1-0.1-0.3-0.2-0.4c-0.3-0.6-1.7-3-5.2-5.1l1.6-7l17.1,1.3c0.1,0,0.1,0,0.2,0
		c5.1,0.2,8.6-2,9.3-5.6c0.1-0.5,0.2-1.1,0.3-3.1c0-0.5,0-1.1-0.2-1.6c-0.8-3-3.4-4.5-5.9-4.5h-0.1c-0.1,0-0.3,0-0.4-0.1
		c0.2-3,0.3-6.5,0.4-8.7l4.5-2.4c1.5-0.8,2.4-2.3,2.5-4c0.1-1.8,0.1-3.3,0.1-4.4V4.4c0.3-3.3-1-6-3.5-7.1c-2.3-1.1-2.4-1.1-27.3,8.6
		c-11.4,4.4-22.8,9-22.9,9.1c0,0-0.1,0-0.1,0.1c0,0-1.6,0.7-3.5,0.8c-1.9,0.1-9-0.2-13.1-0.4c-4.5-0.5-6.8,1.8-7.4,4.1
		c-0.1,0.5-0.2,1.1-0.4,2.7c-0.2,2.7-0.4,7-0.4,7.2c0,0,0,0,0,0.1l-2.7-0.9c-0.6-0.2-7.2-2.7-12.1-6.4C-33.1,10.9-46.5,8.4-55,8.4
		c-1.9,0-3.7,0.1-5.6,0.3C-63,9-64.8,11-64.8,13.4v23.2c-0.1,1.7-1.5,1.9-2.3,2c-2.6,0-29.3,0.3-46.3,4.3c-0.2-1.8-0.7-3.6-2.4-5
		c-2.4-2.1-5.5-1.7-7.6-1.3c-0.2,0-0.5,0.1-0.8,0.2l0,0c-0.3,0.1-0.6,0.2-0.9,0.3h-0.1c-0.3,0.1-0.6,0.2-0.9,0.3h-0.1
		c-0.3,0.1-0.6,0.3-0.9,0.4c0,0-0.1,0-0.1,0.1c-0.3,0.1-0.5,0.3-0.8,0.4l-0.2,0.1c-0.3,0.1-0.5,0.3-0.8,0.5h0.1
		c-0.2,0.2-0.5,0.3-0.7,0.5l-0.3,0.2c-0.2,0.2-0.4,0.3-0.6,0.5l-0.3,0.2c-0.2,0.2-0.4,0.3-0.6,0.5c-0.1,0.1-0.2,0.2-0.3,0.3
		c-0.2,0.2-0.3,0.3-0.5,0.5c-0.1,0.1-0.2,0.2-0.3,0.3l-0.1,0.1c-0.1,0.2-0.3,0.3-0.4,0.5l0,0c-6,1.5-25.3,7.1-43.9,22.5
		c-0.1,0-0.1,0.1-0.2,0.1c-0.2,0.2-0.3,0.3-0.5,0.5l-0.2,0.2c-0.5,0.4-1,0.9-1.5,1.3c-0.3,0.3-0.6,0.5-0.9,0.8l-0.6,0.6
		c-0.1,0.1-0.2,0.2-0.3,0.3c-0.9,0.8-1.8,1.7-2.6,2.6c-0.1,0.1-0.1,0.1-0.2,0.2l-0.3,0.3c-0.3,0.3-0.5,0.5-0.8,0.8l-0.2,0.2
		c-0.1,0.1-0.3,0.3-0.4,0.4c-0.1,0.1-0.1,0.2-0.2,0.3c-1.1,1.2-2.2,2.4-3.1,3.6c-1.4,1.2-2.7,2.4-3.9,3.6c-0.1,0.1-0.1,0.1-0.2,0.2
		c-1,1.1-5.7,6.6-3.3,12.3C-194.1,98.2-188.5,98.9-185.2,98.6z"/>
	<path class="st20" d="M20,36.8h-0.1H20L20,36.8z M-185.6,98.2h20.3c0.3,0.5,0.7,0.9,1,1.4l0.1,0.1c0.8,1,1.7,2,2.6,2.9l0.1,0.1
		c0.4,0.4,0.9,0.8,1.3,1.2l0.1,0.1c0.5,0.4,1,0.8,1.5,1.2c0,0,0.1,0,0.1,0.1c0.5,0.3,1,0.7,1.5,1l0.1,0.1l0.2,0.1
		c1,0.7,2.2,1.3,3.3,1.8l0.4,0.2c0.5,0.2,1,0.4,1.5,0.6l0.2,0.1c0.6,0.2,1.2,0.4,1.7,0.6l0.4,0.1c0.5,0.1,1,0.3,1.5,0.4l0.4,0.1
		c0.6,0.1,1.2,0.2,1.8,0.3h0.3c0.5,0.1,1,0.1,1.6,0.2h0.5c0.6,0,1.3,0.1,1.9,0.1c9.7,0,18.7-4.8,24.2-12.7h101.4
		c0.1,0.1,0.2,0.2,0.2,0.3l0.2,0.2c0.9,1.1,1.8,2.1,2.8,3.1l0.2,0.2c0.5,0.4,0.9,0.9,1.4,1.3l0.1,0.1c0.5,0.4,1.1,0.9,1.6,1.3
		l0.2,0.1c0.5,0.4,1,0.7,1.5,1l0.3,0.2c1.1,0.7,2.3,1.4,3.5,1.9l0.4,0.2c0.5,0.2,1.1,0.5,1.7,0.7l0.2,0.1c0.6,0.2,1.2,0.4,1.9,0.6
		l0.4,0.1c0.5,0.1,1.1,0.3,1.6,0.4l0.5,0.1c0.7,0.1,1.3,0.3,2,0.4l0.4,0.1c0.6,0.1,1.1,0.1,1.7,0.2c0.2,0,0.4,0,0.6,0
		c0.8,0.1,1.5,0.1,2.1,0.1c10.1,0,19.5-4.7,25.5-12.7h11.1c13,0.5,16.1-1.9,17.2-3.3c1.2-1.3,2.3-3.6,2.1-7.9v-3.9
		c0-2.7-1.5-5.6-4.4-7L51.1,51.3C51,51.2,51,51,50.9,50.9c-0.3-0.6-1.7-3-5.2-5.1l1.6-7l17.1,1.3c0.1,0,0.1,0,0.2,0
		c5.1,0.2,8.6-2,9.3-5.6c0.1-0.5,0.2-1.1,0.3-3.1c0-0.5,0-1.1-0.2-1.6c-0.8-3-3.4-4.5-5.9-4.5H68c-0.1,0-0.3,0-0.4-0.1
		c0.2-3,0.3-6.5,0.4-8.7l4.5-2.4c1.5-0.8,2.4-2.3,2.5-4c0.1-1.8,0.1-3.3,0.1-4.4V4c0.3-3.3-1-6-3.5-7.1c-2.3-1.1-2.4-1.1-27.3,8.6
		c-11.4,4.4-22.8,9-22.9,9.1c0,0-0.1,0-0.2,0.1c0,0-1.6,0.7-3.5,0.8c-1.9,0.1-9-0.2-13.1-0.4c-4.5-0.5-6.8,1.8-7.4,4.1
		c-0.1,0.5-0.2,1.1-0.4,2.7c-0.2,2.7-0.4,7-0.4,7.2c0,0,0,0,0,0.1l-2.7-0.9c-0.6-0.2-7.2-2.7-12.1-6.4C-33.6,10.5-47,8-55.5,8
		c-1.9,0-3.7,0.1-5.6,0.3c-2.4,0.3-4.2,2.3-4.2,4.7v23.2c-0.1,1.7-1.5,1.9-2.3,2c-2.6,0-29.3,0.3-46.3,4.3c-0.2-1.8-0.7-3.6-2.4-5
		c-2.4-2.1-5.5-1.7-7.6-1.3c-0.2,0-0.5,0.1-0.8,0.2l0,0c-0.3,0.1-0.6,0.2-0.9,0.3h-0.1c-0.3,0.1-0.6,0.2-0.9,0.3h-0.1
		c-0.3,0.1-0.6,0.3-0.9,0.4c0,0-0.1,0-0.1,0.1c-0.3,0.1-0.5,0.3-0.8,0.4l-0.2,0.1c-0.3,0.1-0.5,0.3-0.8,0.5l-0.2,0.1
		c-0.2,0.2-0.5,0.3-0.7,0.5l-0.3,0.2c-0.2,0.2-0.4,0.3-0.6,0.5l-0.3,0.2c-0.2,0.2-0.4,0.3-0.6,0.5c-0.1,0.1-0.2,0.2-0.3,0.3
		c-0.2,0.2-0.3,0.3-0.5,0.5c-0.1,0.1-0.2,0.2-0.3,0.3l-0.1,0.1c-0.1,0.2-0.3,0.3-0.4,0.5l0,0c-6.2,1.4-25.5,7-44.1,22.4
		c-0.1,0-0.1,0.1-0.2,0.1c-0.2,0.2-0.3,0.3-0.5,0.5l-0.2,0.2c-0.5,0.4-1,0.9-1.5,1.3c-0.3,0.3-0.6,0.5-0.9,0.8l-0.6,0.6
		c-0.1,0.1-0.2,0.2-0.3,0.3c-0.9,0.8-1.8,1.7-2.6,2.6c-0.1,0.1-0.1,0.1-0.2,0.2l-0.3,0.3c-0.3,0.3-0.5,0.5-0.8,0.8l-0.2,0.2
		c-0.1,0.1-0.3,0.3-0.4,0.4c-0.1,0.1-0.1,0.2-0.2,0.3c-1.2,1.3-2.2,2.5-3.2,3.7c-1.4,1.2-2.7,2.4-3.9,3.6c-0.1,0.1-0.1,0.1-0.2,0.2
		c-1,1.1-5.7,6.6-3.3,12.3C-194.5,97.7-188.9,98.5-185.6,98.2z"/>
	<path class="st21" d="M19.6,36.4h-0.1H19.6L19.6,36.4z M-186,97.8h20.3c0.3,0.5,0.7,0.9,1,1.4l0.1,0.1c0.8,1,1.7,2,2.6,2.9l0.1,0.1
		c0.4,0.4,0.9,0.8,1.3,1.2l0.1,0.1c0.5,0.4,1,0.8,1.5,1.2c0,0,0.1,0,0.1,0.1c0.5,0.3,1,0.7,1.5,1l0.1,0.1l0.2,0.1
		c1,0.7,2.2,1.3,3.3,1.8l0.4,0.2c0.5,0.2,1,0.4,1.5,0.6l0.2,0.1c0.6,0.2,1.2,0.4,1.7,0.6l0.4,0.1c0.5,0.1,1,0.3,1.5,0.4l0.4,0.1
		c0.6,0.1,1.2,0.2,1.8,0.3h0.3c0.5,0.1,1,0.1,1.6,0.2h0.5c0.6,0,1.3,0.1,1.9,0.1c9.7,0,18.7-4.8,24.2-12.7H-16
		c0.1,0.1,0.2,0.2,0.2,0.3l0.2,0.2c0.9,1.1,1.8,2.1,2.8,3.1l0.2,0.2c0.5,0.4,0.9,0.9,1.4,1.3l0.1,0.1c0.5,0.4,1.1,0.9,1.6,1.3
		l0.2,0.1c0.5,0.4,1,0.7,1.5,1l0.3,0.2c1.1,0.7,2.3,1.4,3.5,1.9l0.4,0.2c0.5,0.2,1.1,0.5,1.7,0.7l0.2,0.1c0.6,0.2,1.2,0.4,1.9,0.6
		l0.4,0.1c0.5,0.1,1.1,0.3,1.6,0.4l0.5,0.1c0.7,0.1,1.3,0.3,2,0.4l0.4,0.1c0.6,0.1,1.1,0.1,1.7,0.2c0.2,0,0.4,0,0.6,0
		c0.8,0.1,1.5,0.1,2.1,0.1c10.1,0,19.5-4.7,25.5-12.7h11.1c13,0.5,16.1-1.9,17.2-3.3c1.2-1.3,2.3-3.6,2.1-7.9v-3.9
		c0-2.7-1.5-5.6-4.4-7L50.7,50.9c-0.1-0.1-0.1-0.3-0.2-0.4c-0.3-0.6-1.7-3-5.2-5.1l1.6-7L64,39.7c0.1,0,0.1,0,0.2,0
		c5.1,0.2,8.6-2,9.3-5.6c0.1-0.5,0.2-1.1,0.3-3.1c0-0.5,0-1.1-0.2-1.6c-0.8-3-3.4-4.5-5.9-4.5h-0.1c-0.1,0-0.3,0-0.4-0.1
		c0.2-3,0.3-6.5,0.4-8.7l4.5-2.4c1.5-0.8,2.4-2.3,2.5-4c0.1-1.8,0.1-3.3,0.1-4.4V3.6c0.3-3.3-1-6-3.5-7.1c-2.3-1.1-2.4-1.1-27.3,8.6
		c-11.4,4.4-22.8,9-22.9,9.1c0,0-0.1,0-0.1,0.1c0,0-1.6,0.7-3.5,0.8c-1.9,0.1-9-0.2-13.1-0.4c-4.5-0.5-6.8,1.8-7.4,4.1
		c-0.1,0.5-0.2,1.1-0.4,2.7c-0.2,2.7-0.4,7-0.4,7.2c0,0,0,0,0,0.1l-2.7-0.9c-0.6-0.2-7.2-2.7-12.1-6.4C-33.9,10.1-47.3,7.6-55.8,7.6
		c-1.9,0-3.7,0.1-5.6,0.3c-2.4,0.3-4.2,2.3-4.2,4.7v23.2c-0.1,1.7-1.5,1.9-2.3,2c-2.6,0-29.3,0.3-46.3,4.3c-0.2-1.8-0.7-3.6-2.4-5
		c-2.4-2.1-5.5-1.7-7.6-1.3c-0.2,0-0.5,0.1-0.8,0.2l0,0c-0.3,0.1-0.6,0.2-0.9,0.3h-0.1c-0.3,0.1-0.6,0.2-0.9,0.3h-0.1
		c-0.3,0.1-0.6,0.3-0.9,0.4c0,0-0.1,0-0.1,0.1c-0.3,0.1-0.5,0.3-0.8,0.4l-0.2,0.1c-0.3,0.1-0.5,0.3-0.8,0.5l-0.2,0.1
		c-0.2,0.2-0.5,0.3-0.7,0.5l-0.3,0.2c-0.2,0.2-0.4,0.3-0.6,0.5l-0.3,0.2c-0.2,0.2-0.4,0.3-0.6,0.5c-0.1,0.1-0.2,0.2-0.3,0.3
		c-0.2,0.2-0.3,0.3-0.5,0.5c-0.1,0.1-0.2,0.2-0.3,0.3l-0.1,0.1c-0.1,0.2-0.3,0.3-0.4,0.5l0,0c-6.2,1.4-25.5,7-44.1,22.4
		c-0.1,0-0.1,0.1-0.2,0.1c-0.2,0.2-0.3,0.3-0.5,0.5l0.2,0.2c-0.5,0.4-1,0.9-1.5,1.3c-0.3,0.3-0.6,0.5-0.9,0.8l-0.6,0.6
		c-0.1,0.1-0.2,0.2-0.3,0.3c-0.9,0.8-1.8,1.7-2.6,2.6c-0.1,0.1-0.1,0.1-0.2,0.2L-185,71c-0.3,0.3-0.5,0.5-0.8,0.8l-0.1,0.2
		c-0.1,0.1-0.3,0.3-0.4,0.4c-0.1,0.1-0.1,0.2-0.2,0.3c-1.2,1.3-2.2,2.5-3.2,3.7c-1.4,1.2-2.7,2.4-3.9,3.6c-0.1,0.1-0.1,0.1-0.2,0.2
		c-1,1.1-5.7,6.6-3.3,12.3C-194.9,97.3-189.3,98.1-186,97.8z"/>
	<path class="st22" d="M19.2,36h-0.1H19.2L19.2,36z M-186.5,97.4h20.3c0.3,0.5,0.7,0.9,1,1.4l0.1,0.1c0.8,1,1.7,2,2.6,2.9l0.1,0.1
		c0.4,0.4,0.9,0.8,1.3,1.2l0.1,0.1c0.5,0.4,1,0.8,1.5,1.2c0,0,0.1,0,0.1,0.1c0.5,0.3,1,0.7,1.5,1l0.1,0.1l0.2,0.1
		c1,0.7,2.2,1.3,3.3,1.8l0.4,0.2c0.5,0.2,1,0.4,1.5,0.6l0.2,0.1c0.6,0.2,1.2,0.4,1.7,0.6l0.4,0.1c0.5,0.1,1,0.3,1.5,0.4l0.4,0.1
		c0.6,0.1,1.2,0.2,1.8,0.3h0.3c0.5,0.1,1,0.1,1.6,0.2h0.5c0.6,0,1.3,0.1,1.9,0.1c9.7,0,18.7-4.8,24.2-12.7h101.4
		c0.1,0.1,0.2,0.2,0.2,0.3l0.2,0.2c0.9,1.1,1.8,2.1,2.8,3.1l0.2,0.2c0.5,0.4,0.9,0.9,1.4,1.3l0.1,0.1c0.5,0.4,1.1,0.9,1.6,1.3
		l0.2,0.1c0.5,0.4,1,0.7,1.5,1l0.3,0.2c1.1,0.7,2.3,1.4,3.5,1.9l0.4,0.2c0.5,0.2,1.1,0.5,1.7,0.7l0.2,0.1c0.6,0.2,1.2,0.4,1.9,0.6
		l0.4,0.1c0.5,0.1,1.1,0.3,1.6,0.4l0.5,0.1c0.7,0.1,1.3,0.3,2,0.4l0.4,0.1c0.6,0.1,1.1,0.1,1.7,0.2c0.2,0,0.4,0,0.6,0
		c0.8,0.1,1.5,0.1,2.1,0.1c10.1,0,19.5-4.7,25.5-12.7h11.1c13,0.5,16.1-1.9,17.2-3.3c1.2-1.3,2.3-3.6,2.1-7.9v-3.9
		c0-2.7-1.5-5.6-4.4-7L50.2,50.5c-0.1-0.1-0.1-0.3-0.2-0.4c-0.3-0.6-1.7-3-5.2-5.1l1.6-7l17.1,1.3c0.1,0,0.1,0,0.2,0
		c5.1,0.2,8.6-2,9.3-5.6c0.1-0.5,0.2-1.1,0.3-3.1c0-0.5,0-1.1-0.2-1.6c-0.8-3-3.4-4.5-5.9-4.5h-0.1c-0.1,0-0.3,0-0.4-0.1
		c0.2-3,0.3-6.5,0.4-8.7l4.5-2.4c1.5-0.8,2.4-2.3,2.5-4c0.1-1.8,0.1-3.3,0.1-4.4V3.2c0.3-3.3-1-6-3.5-7.1C68.4-5,68.3-5,43.4,4.7
		c-11.4,4.4-22.8,9-22.9,9.1c0,0-0.1,0-0.1,0.1c0,0-1.6,0.7-3.5,0.8c-1.9,0.1-9-0.2-13.1-0.4c-4.5-0.5-6.8,1.8-7.4,4.1
		c-0.1,0.5-0.2,1.1-0.4,2.7c-0.2,2.7-0.4,7-0.4,7.2c0,0,0,0,0,0.1l-2.7-0.9c-0.6-0.2-7.2-2.7-12.1-6.4C-34.3,9.5-47.7,7-56.2,7
		c-1.9,0-3.7,0.1-5.6,0.3C-64.2,7.6-66,9.6-66,12v23.2c-0.1,1.7-1.5,1.9-2.3,2c-2.6,0-29.3,0.3-46.3,4.3c-0.2-1.8-0.7-3.6-2.4-5
		c-2.4-2.1-5.5-1.7-7.6-1.3c-0.2,0-0.5,0.1-0.8,0.2l0,0c-0.3,0.1-0.6,0.2-0.9,0.3h-0.1c-0.3,0.1-0.6,0.2-0.9,0.3h-0.1
		c-0.3,0.1-0.6,0.3-0.9,0.4c0,0-0.1,0-0.1,0.1c-0.3,0.1-0.5,0.3-0.8,0.4l-0.2,0.1c-0.3,0.1-0.5,0.3-0.8,0.5l-0.2,0.1
		c-0.2,0.2-0.5,0.3-0.7,0.5l-0.3,0.2c-0.2,0.2-0.4,0.3-0.6,0.5l-0.3,0.2c-0.2,0.2-0.4,0.3-0.6,0.5c-0.1,0.1-0.2,0.2-0.3,0.3
		c-0.2,0.2-0.3,0.3-0.5,0.5c-0.1,0.1-0.2,0.2-0.3,0.3l-0.1,0.1c-0.1,0.2-0.3,0.3-0.4,0.5l0,0c-6.2,1.4-25.5,7-44.1,22.4
		c-0.1,0-0.1,0.1-0.2,0.1c-0.2,0.2-0.3,0.3-0.5,0.5l-0.2,0.2c-0.5,0.4-1,0.9-1.5,1.3c-0.3,0.3-0.6,0.5-0.9,0.8l-0.6,0.6
		c-0.1,0.1-0.2,0.2-0.3,0.3c-0.9,0.8-1.8,1.7-2.6,2.6c-0.1,0.1-0.1,0.1-0.2,0.2l-0.3,0.3c-0.3,0.3-0.5,0.5-0.8,0.8l-0.2,0.2
		c-0.1,0.1-0.3,0.3-0.4,0.4c-0.1,0.1-0.1,0.2-0.2,0.3c-1.2,1.3-2.2,2.5-3.2,3.7c-1.4,1.2-2.7,2.4-3.9,3.6c-0.1,0.1-0.1,0.1-0.2,0.2
		c-1,1.1-5.7,6.6-3.3,12.3C-195.3,96.9-189.7,97.7-186.5,97.4z"/>
	<path class="st23" d="M18.8,35.5h-0.1H18.8L18.8,35.5z M-186.9,96.9h20.3c0.3,0.5,0.7,0.9,1,1.4l0.1,0.1c0.8,1,1.7,2,2.6,2.9
		l0.1,0.1c0.4,0.4,0.9,0.8,1.3,1.2l0.1,0.1c0.5,0.4,1,0.8,1.5,1.2c0,0,0.1,0,0.1,0.1c0.5,0.3,1,0.7,1.5,1l0.1,0.1l0.2,0.1
		c1,0.7,2.2,1.3,3.3,1.8l0.4,0.2c0.5,0.2,1,0.4,1.5,0.6l0.2,0.1c0.6,0.2,1.2,0.4,1.7,0.6l0.4,0.1c0.5,0.1,1,0.3,1.5,0.4l0.4,0.1
		c0.6,0.1,1.2,0.2,1.8,0.3h0.3c0.5,0.1,1,0.1,1.6,0.2h0.5c0.6,0,1.3,0.1,1.9,0.1c9.7,0,18.7-4.8,24.2-12.7h101.4
		c0.1,0.1,0.2,0.2,0.2,0.3l0.2,0.2c0.9,1.1,1.8,2.1,2.8,3.1l0.2,0.2c0.5,0.4,0.9,0.9,1.4,1.3l0.1,0.1c0.5,0.4,1.1,0.9,1.6,1.3
		l0.2,0.1c0.5,0.4,1,0.7,1.5,1l0.3,0.2c1.1,0.7,2.3,1.4,3.5,1.9l0.4,0.2c0.5,0.2,1.1,0.5,1.7,0.7l0.2,0.1c0.6,0.2,1.2,0.4,1.9,0.6
		l0.4,0.1c0.5,0.1,1.1,0.3,1.6,0.4l0.5,0.1c0.7,0.1,1.3,0.3,2,0.4l0.4,0.1c0.6,0.1,1.1,0.1,1.7,0.2c0.2,0,0.4,0,0.6,0
		c0.8,0.1,1.5,0.1,2.1,0.1c10.1,0,19.5-4.7,25.5-12.7h11.1c13,0.5,16.1-1.9,17.2-3.3c1.2-1.3,2.3-3.6,2.1-7.9v-3.9
		c0-2.7-1.5-5.6-4.4-7L50,50c-0.1-0.1-0.1-0.3-0.2-0.4c-0.3-0.6-1.7-3-5.2-5.1l1.6-7l17.1,1.3c0.1,0,0.1,0,0.2,0
		c5.1,0.2,8.6-2,9.3-5.6c0.1-0.5,0.2-1.1,0.3-3.1c0-0.5,0-1.1-0.2-1.6c-0.8-3-3.4-4.5-5.9-4.5h-0.1c-0.1,0-0.3,0-0.4-0.1
		c0.2-3,0.3-6.5,0.4-8.7l4.5-2.4c1.5-0.8,2.4-2.3,2.5-4C74,7,74,5.5,74,4.4V2.7c0.3-3.3-1-6-3.5-7.1c-2.3-1.1-2.4-1.1-27.3,8.6
		c-11.4,4.4-22.8,9-22.9,9.1c0,0-0.1,0-0.1,0.1c0,0-1.6,0.7-3.5,0.8c-1.9,0.1-9-0.2-13.1-0.4c-4.5-0.5-6.8,1.8-7.4,4.1
		C-3.9,18.4-4,19-4.2,20.6c-0.2,2.7-0.4,7-0.4,7.2c0,0,0,0,0,0.1L-7.3,27c-0.6-0.2-7.2-2.7-12.1-6.4C-34.6,9.2-48,6.7-56.5,6.7
		c-1.9,0-3.7,0.1-5.6,0.3c-2.4,0.3-4.2,2.3-4.2,4.7v23.2c-0.1,1.7-1.5,1.9-2.3,2c-2.6,0-29.3,0.3-46.3,4.3c-0.2-1.8-0.7-3.6-2.4-5
		c-2.4-2.1-5.5-1.7-7.6-1.3c-0.2,0-0.5,0.1-0.8,0.2l0,0c-0.3,0.1-0.6,0.2-0.9,0.3h-0.1c-0.3,0.1-0.6,0.2-0.9,0.3h-0.1
		c-0.3,0.1-0.6,0.3-0.9,0.4c0,0-0.1,0-0.1,0.1c-0.3,0.1-0.5,0.3-0.8,0.4l-0.2,0.1c-0.3,0.1-0.5,0.3-0.8,0.5l-0.2,0.1
		c-0.2,0.2-0.5,0.3-0.7,0.5l-0.3,0.2c-0.2,0.2-0.4,0.3-0.6,0.5l-0.3,0.2c-0.2,0.2-0.4,0.3-0.6,0.5c-0.1,0.1-0.2,0.2-0.3,0.3
		c-0.2,0.2-0.3,0.3-0.5,0.5c-0.1,0.1-0.2,0.2-0.3,0.3l-0.1,0.1c-0.1,0.2-0.3,0.3-0.4,0.5l0,0c-6.2,1.4-25.7,6.7-44.1,22.4
		c-0.1,0-0.1,0.1-0.2,0.1c-0.2,0.1-0.3,0.3-0.5,0.5l-0.2,0.2c-0.5,0.4-1,0.9-1.5,1.3c-0.3,0.3-0.6,0.5-0.9,0.8l-0.6,0.6
		c-0.1,0.1-0.2,0.2-0.3,0.3c-0.9,0.8-1.8,1.7-2.6,2.6c-0.1,0.1-0.1,0.1-0.2,0.2l-0.3,0.3c-0.3,0.3-0.5,0.5-0.8,0.8l-0.2,0.2
		c-0.1,0.1-0.3,0.3-0.4,0.4c-0.1,0.1-0.1,0.2-0.2,0.3c-1.2,1.3-2.2,2.5-3.2,3.7c-1.4,1.2-2.7,2.4-3.9,3.6c-0.1,0.1-0.1,0.1-0.2,0.2
		c-1,1.1-5.7,6.6-3.3,12.3C-195.7,96.5-190.1,97.3-186.9,96.9z"/>
</g>
<path class="st24" d="M-186.9,96.9h20.3c0.3,0.5,0.7,0.9,1,1.4l0.1,0.1c0.8,1,1.7,2,2.6,2.9l0.1,0.1c0.4,0.4,0.9,0.8,1.3,1.2
	l0.1,0.1c0.5,0.4,1,0.8,1.5,1.2c0,0,0.1,0,0.1,0.1c0.5,0.3,1,0.7,1.5,1l0.1,0.1l0.2,0.1c1,0.7,2.2,1.3,3.3,1.8l0.4,0.2
	c0.5,0.2,1,0.4,1.5,0.6l0.2,0.1c0.6,0.2,1.2,0.4,1.7,0.6l0.4,0.1c0.5,0.1,1,0.3,1.5,0.4l0.4,0.1c0.6,0.1,1.2,0.2,1.8,0.3h0.3
	c0.5,0.1,1,0.1,1.6,0.2h0.5c0.6,0,1.3,0.1,1.9,0.1c9.7,0,18.7-4.8,24.2-12.7h101.4c0.1,0.1,0.2,0.2,0.2,0.3l0.2,0.2
	c0.9,1.1,1.8,2.1,2.8,3.1l0.2,0.2c0.5,0.4,0.9,0.9,1.4,1.3l0.1,0.1c0.5,0.4,1.1,0.9,1.6,1.3l0.2,0.1c0.5,0.4,1,0.7,1.5,1l0.3,0.2
	c1.1,0.7,2.3,1.4,3.5,1.9l0.4,0.2c0.5,0.2,1.1,0.5,1.7,0.7l0.2,0.1c0.6,0.2,1.2,0.4,1.9,0.6l0.4,0.1c0.5,0.1,1.1,0.3,1.6,0.4
	l0.5,0.1c0.7,0.1,1.3,0.3,2,0.4l0.4,0.1c0.6,0.1,1.1,0.1,1.7,0.2c0.2,0,0.4,0,0.6,0c0.8,0.1,1.5,0.1,2.1,0.1
	c10.1,0,19.5-4.7,25.5-12.7h11.1c13,0.5,16.1-1.9,17.2-3.3c1.2-1.3,2.3-3.6,2.1-7.9v-3.9c0-2.7-1.5-5.6-4.4-7L50,50
	c-0.1-0.1-0.1-0.3-0.2-0.4c-0.3-0.6-1.7-3-5.2-5.1l1.6-7l17.1,1.3c0.1,0,0.1,0,0.2,0c5.1,0.2,8.6-2,9.3-5.6c0.1-0.5,0.2-1.1,0.3-3.1
	c0-0.5,0-1.1-0.2-1.6c-0.8-3-3.4-4.5-5.9-4.5h-0.1c-0.1,0-0.3,0-0.4-0.1c0.2-3,0.3-6.5,0.4-8.7l4.5-2.4c1.5-0.8,2.4-2.3,2.5-4
	C74,7,74,5.5,74,4.4V2.7c0.3-3.3-1-6-3.5-7.1c-2.3-1.1-2.4-1.1-27.3,8.6c-11.4,4.4-22.8,9-22.9,9.1c0,0-0.1,0-0.1,0.1
	c0,0-1.6,0.7-3.5,0.8c-1.9,0.1-9-0.2-13.1-0.4c-4.5-0.5-6.8,1.8-7.4,4.1C-3.9,18.4-4,19-4.2,20.6c-0.2,2.7-0.4,7-0.4,7.2
	c0,0,0,0,0,0.1L-7.3,27c-0.6-0.2-7.2-2.7-12.1-6.4C-34.6,9.2-48,6.7-56.5,6.7c-1.9,0-3.7,0.1-5.6,0.3c-2.4,0.3-4.2,2.3-4.2,4.7v23.2
	c-0.1,1.7-1.5,1.9-2.3,2c-2.6,0-29.3,0.3-46.3,4.3c-0.2-1.8-0.7-3.6-2.4-5c-2.4-2.1-5.5-1.7-7.6-1.3c-0.2,0-0.5,0.1-0.8,0.2l0,0
	c-0.3,0.1-0.6,0.2-0.9,0.3h-0.1c-0.3,0.1-0.6,0.2-0.9,0.3h-0.1c-0.3,0.1-0.6,0.3-0.9,0.4c0,0-0.1,0-0.1,0.1
	c-0.3,0.1-0.5,0.3-0.8,0.4l-0.2,0.1c-0.3,0.1-0.5,0.3-0.8,0.5l-0.2,0.1c-0.2,0.2-0.5,0.3-0.7,0.5l-0.3,0.2c-0.2,0.2-0.4,0.3-0.6,0.5
	l-0.3,0.2c-0.2,0.2-0.4,0.3-0.6,0.5c-0.1,0.1-0.2,0.2-0.3,0.3c-0.2,0.2-0.3,0.3-0.5,0.5c-0.1,0.1-0.2,0.2-0.3,0.3l-0.1,0.1
	c-0.1,0.2-0.3,0.3-0.4,0.5l0,0c-6.2,1.4-25.7,6.7-44.1,22.4c-0.1,0-0.1,0.1-0.2,0.1c-0.2,0.1-0.3,0.3-0.5,0.5l-0.2,0.2
	c-0.5,0.4-1,0.9-1.5,1.3c-0.3,0.3-0.6,0.5-0.9,0.8l-0.6,0.6c-0.1,0.1-0.2,0.2-0.3,0.3c-0.9,0.8-1.8,1.7-2.6,2.6
	c-0.1,0.1-0.1,0.1-0.2,0.2l-0.3,0.3c-0.3,0.3-0.5,0.5-0.8,0.8l-0.2,0.2c-0.1,0.1-0.3,0.3-0.4,0.4c-0.1,0.1-0.1,0.2-0.2,0.3
	c-1.2,1.3-2.2,2.5-3.2,3.7c-1.4,1.2-2.7,2.4-3.9,3.6c-0.1,0.1-0.1,0.1-0.2,0.2c-1,1.1-5.7,6.6-3.3,12.3
	C-195.7,96.5-190.1,97.3-186.9,96.9z M18.8,35.5h-0.1H18.8L18.8,35.5z"/>
<g class="st6">
	<ellipse class="st25" cx="8.7" cy="77.6" rx="27.3" ry="27.3"/>
	<path class="st26" d="M30.2,77.7C30.2,89.5,20.6,99,8.9,99c-11.8,0-21.3-9.6-21.3-21.3c0-11.8,9.6-21.3,21.3-21.3
		C20.6,56.4,30.2,65.9,30.2,77.7z"/>
	<path class="st27" d="M19.3,85c-7,0.4-14.5,0.3-21.2-1.9c-3.5-1.1-6.9-2.6-9.4-5.4c-0.4-0.5-0.8-0.9-1.2-1.4c0,0.5,0,0.9,0,1.4
		C-12.5,89.5-2.9,99,8.8,99c9.7,0,17.9-6.5,20.5-15.4C26,84.4,22.6,84.8,19.3,85z"/>
	<g class="st28">
		<path class="st29" d="M9.4,50.3c0.5,0.1,0.9,0.2,1.4,0.3c31.4,5.7,26.5,44.4,5.5,49.7c-17.8,4.5-29.1-7.1-32.1-10.7
			c4.5,9,13.7,15.2,24.5,15.2c15.1,0,27.3-12.2,27.3-27.3C36,62.8,24.2,50.7,9.4,50.3z"/>
	</g>
	<path class="st30" d="M10.4,51.7c-2-0.1-4.1,0.1-6,0.5c-1.6,0.3-3.2,0.8-4.7,1.4C-5,55.4-9,58.2-12.2,62.1c-2.1,2.6-3.8,6-4.4,9.3
		c0,0-2.2,11.2,3,19.3c0,0,0.7,1.2,0.9-0.2c0.2-1.4-8.5-23,10.8-33s31.5,7,32.3,14.2c0,0,0.2,1.8,0.9,1c0.3-0.3-0.1-1.9-0.2-2.2
		c-0.3-1.7-0.9-3.4-1.6-5c-2.1-4.4-5.4-8.8-9.8-11.2C16.8,52.6,13.6,51.8,10.4,51.7z"/>
	<path class="st31" d="M25.7,77.4c0,9.4-7.6,17-16.9,17c-9.4,0-16.9-7.6-16.9-17s7.6-17,16.9-17S25.7,68,25.7,77.4z"/>
	<circle class="st32" cx="8.7" cy="77.6" r="16"/>
	<path class="st33" d="M22,77.8c0,7.4-6,13.3-13.3,13.3c-7.4,0-13.3-6-13.3-13.3c0-7.4,6-13.3,13.3-13.3C16.1,64.5,22,70.4,22,77.8z
		"/>
	<path class="st34" d="M13.4,77.7c0,2.8-2.2,5-5,5s-5-2.2-5-5s2.2-5,5-5C11.2,72.6,13.4,74.9,13.4,77.7z"/>
	<path class="st35" d="M8.7,73.4c0,0-4.9,0.7-4,5.1C5.6,83,12.5,72.1,8.7,73.4z"/>
	<g class="st36">
		<g>
			<path class="st37" d="M-3.8,77.3h6.6c0.1-1.5,0.7-2.6,1.3-3.4l-4.6-4.6C-3.7,72.8-3.8,77.3-3.8,77.3z"/>
			<path class="st37" d="M8,71.8v-6.5c-3.6,0.3-6.1,1.6-7.9,3.3l0,0l4.3,4.8C6,72,8,71.8,8,71.8z"/>
		</g>
		<g>
			<path class="st37" d="M21.1,77.3h-6.6c-0.1-1.5-0.7-2.6-1.3-3.4l4.6-4.6C21,72.8,21.1,77.3,21.1,77.3z"/>
			<path class="st37" d="M9.3,71.8v-6.5c3.6,0.3,6.1,1.6,7.9,3.3l0,0l-4.3,4.8C11.3,72,9.3,71.8,9.3,71.8z"/>
		</g>
		<g>
			<path class="st37" d="M-3.8,78.2h6.6c0.1,1.5,0.7,2.6,1.3,3.4l-4.6,4.6C-3.7,82.7-3.8,78.2-3.8,78.2z"/>
			<path class="st37" d="M8,83.6v6.5c-3.6-0.3-6.1-1.6-7.9-3.3l0,0L4.4,82C6,83.5,8,83.6,8,83.6z"/>
		</g>
		<g>
			<path class="st37" d="M21.1,78.2h-6.6c-0.1,1.5-0.7,2.6-1.3,3.4l4.6,4.6C21,82.7,21.1,78.2,21.1,78.2z"/>
			<path class="st37" d="M9.3,83.6v6.5c3.6-0.3,6.1-1.6,7.9-3.3l0,0L12.9,82C11.3,83.5,9.3,83.6,9.3,83.6z"/>
		</g>
	</g>
</g>
<g class="st6">
	<path class="st38" d="M-117.7,80.2c0,13.6-11.1,24.7-24.7,24.7s-24.7-11.1-24.7-24.7s11.1-24.7,24.7-24.7
		C-128.8,55.5-117.7,66.6-117.7,80.2z"/>
	<path class="st26" d="M-123,80.3c0,10.7-8.6,19.3-19.3,19.3c-10.7,0-19.3-8.6-19.3-19.3S-153,61-142.3,61
		C-131.6,61-123,69.6-123,80.3z"/>
	<path class="st27" d="M-133.1,83.8c-9.4,1.6-23.1,1.4-28.1-7.5c-0.3,1.3-0.4,2.6-0.4,3.9c0,10.7,8.6,19.3,19.3,19.3
		c10.5,0,19.1-8.5,19.3-19C-126.2,82.2-129.6,83.2-133.1,83.8z"/>
	<g class="st28">
		<path class="st29" d="M-141.8,55.5c0.4,0.1,0.9,0.2,1.3,0.2c28.4,5.2,24,40.2,5,45c-16.1,4.1-26.3-6.4-29.1-9.6
			c4,8.1,12.4,13.8,22.1,13.8c13.6,0,24.7-11.1,24.7-24.7C-117.7,66.8-128.4,55.9-141.8,55.5z"/>
	</g>
	<path class="st30" d="M-140.9,56.7c-1.8-0.1-3.7,0.1-5.4,0.4c-1.5,0.3-2.9,0.7-4.3,1.2c-4.2,1.6-7.9,4.1-10.7,7.7
		c-1.9,2.4-3.4,5.4-4,8.4c0,0-2,10.1,2.7,17.5c0,0,0.7,1.1,0.9-0.2c0.2-1.3-7.7-20.8,9.8-29.9c17.5-9,28.5,6.4,29.3,12.9
		c0,0,0.2,1.6,0.8,0.9c0.3-0.3-0.1-1.7-0.2-2c-0.3-1.6-0.8-3.1-1.5-4.5c-1.9-4-4.9-8-8.9-10.1C-135.1,57.6-137.9,56.9-140.9,56.7z"
		/>
	<path class="st31" d="M-127.1,80c0,8.5-6.9,15.4-15.3,15.4c-8.5,0-15.3-6.9-15.3-15.4s6.9-15.4,15.3-15.4
		C-133.9,64.6-127.1,71.5-127.1,80z"/>
	<path class="st32" d="M-127.9,80.2c0,8-6.5,14.5-14.5,14.5s-14.5-6.5-14.5-14.5s6.5-14.5,14.5-14.5S-127.9,72.2-127.9,80.2z"/>
	<path class="st33" d="M-130.4,80.4c0,6.7-5.4,12.1-12.1,12.1c-6.7,0-12.1-5.4-12.1-12.1s5.4-12.1,12.1-12.1
		C-135.8,68.3-130.4,73.7-130.4,80.4z"/>
	<path class="st34" d="M-138.2,80.2c0,2.5-2,4.5-4.5,4.5s-4.5-2-4.5-4.5s2-4.5,4.5-4.5S-138.2,77.7-138.2,80.2z"/>
	<path class="st35" d="M-142.5,76.4c0,0-4.4,0.6-3.6,4.6C-145.2,85.1-139,75.2-142.5,76.4z"/>
	<g class="st36">
		<g>
			<path class="st37" d="M-153.7,79.9h6c0.1-1.4,0.6-2.4,1.2-3.1l-4.2-4.2C-153.6,75.8-153.7,79.9-153.7,79.9z"/>
			<path class="st37" d="M-143,75v-5.9c-3.3,0.3-5.5,1.5-7.1,3l0,0l3.9,4.3C-144.8,75.1-143,75-143,75z"/>
		</g>
		<g>
			<path class="st37" d="M-131.2,79.9h-6c-0.1-1.4-0.6-2.4-1.2-3.1l4.2-4.2C-131.3,75.8-131.2,79.9-131.2,79.9z"/>
			<path class="st37" d="M-141.9,75v-5.9c3.3,0.3,5.5,1.5,7.1,3l0,0l-3.9,4.3C-140.1,75.1-141.9,75-141.9,75z"/>
		</g>
		<g>
			<path class="st37" d="M-153.7,80.7h6c0.1,1.4,0.6,2.4,1.2,3.1l-4.2,4.2C-153.6,84.8-153.7,80.7-153.7,80.7z"/>
			<path class="st37" d="M-143,85.6v5.9c-3.3-0.3-5.5-1.5-7.1-3l0,0l3.9-4.3C-144.8,85.5-143,85.6-143,85.6z"/>
		</g>
		<g>
			<path class="st37" d="M-131.2,80.7h-6c-0.1,1.4-0.6,2.4-1.2,3.1l4.2,4.2C-131.3,84.8-131.2,80.7-131.2,80.7z"/>
			<path class="st37" d="M-141.9,85.6v5.9c3.3-0.3,5.5-1.5,7.1-3l0,0l-3.9-4.3C-140.1,85.5-141.9,85.6-141.9,85.6z"/>
		</g>
	</g>
</g>
<polygon class="st24" points="-33.1,26.8 -27.6,37.9 -15.4,39.6 -24.3,48.3 -22.2,60.5 -33.1,54.7 -44.1,60.5 -42,48.3 -50.8,39.6 
	-38.6,37.9 "/>
<polygon class="st39" points="-33.1,28.3 -28.1,38.5 -16.8,40.2 -24.9,48.1 -23,59.4 -33.1,54.1 -43.2,59.4 -41.3,48.1 -49.5,40.2 
	-38.2,38.5 "/>
</svg>
