<?xml version="1.0" encoding="utf-8"?>
<!-- Generator: Adobe Illustrator 25.0.1, SVG Export Plug-In . SVG Version: 6.00 Build 0)  -->
<svg version="1.1" id="Layer_1" xmlns="http://www.w3.org/2000/svg" xmlns:xlink="http://www.w3.org/1999/xlink" x="0px" y="0px"
	 viewBox="0 0 54.6 54.6" style="enable-background:new 0 0 54.6 54.6;" xml:space="preserve">
<style type="text/css">
	.st0{display:none;}
	.st1{display:inline;fill:#FFFFFF;}
	.st2{display:inline;fill:#F5F5F5;}
	.st3{display:inline;fill:#EBEBEB;}
	.st4{display:inline;fill:#E1E1E1;}
	.st5{display:inline;fill:#D7D7D7;}
	.st6{display:inline;fill:#CDCDCD;}
	.st7{display:inline;fill:#C3C3C3;}
	.st8{display:inline;fill:#B9B9B9;}
	.st9{display:inline;fill:#B0B0B0;}
	.st10{display:inline;fill:#A6A6A6;}
	.st11{display:inline;fill:#9C9C9C;}
	.st12{display:inline;fill:#929292;}
	.st13{display:inline;fill:#888888;}
	.st14{display:inline;fill:#7E7E7E;}
	.st15{display:inline;fill:#747474;}
	.st16{display:inline;fill:#6A6A6A;}
	.st17{display:inline;fill:#606060;}
	.st18{display:none;fill:#FFFFFF;}
	.st19{opacity:0.2;fill:#FFFFFF;enable-background:new    ;}
	.st20{fill:#2A2C2D;stroke:#231F20;stroke-width:0.5;stroke-miterlimit:9.9996;}
	.st21{fill:#AAC6D1;stroke:#231F20;stroke-width:0.5;stroke-miterlimit:10;}
	.st22{fill:#AAC6D1;}
	.st23{opacity:0.5;}
	.st24{fill:#616264;}
	.st25{fill:#EDEDEE;}
	.st26{fill:#D0D2D3;}
	.st27{fill:#B1B3B5;stroke:#231F20;stroke-width:0.5;stroke-miterlimit:10;}
	.st28{fill:#8AA5B3;stroke:#231F20;stroke-width:0.5;stroke-miterlimit:10;}
	.st29{opacity:0.4;fill:#FFFFFF;enable-background:new    ;}
	.st30{fill:#FFFFFF;stroke:#231F20;stroke-width:0.5;stroke-miterlimit:10;}
	.st31{display:inline;fill:#2A2C2D;stroke:#231F20;stroke-width:0.5;stroke-miterlimit:10;}
	.st32{display:inline;fill:#AAC6D1;stroke:#231F20;stroke-width:0.5;stroke-miterlimit:10;}
	.st33{display:inline;fill:#AAC6D1;}
	.st34{display:inline;opacity:0.5;}
	.st35{display:inline;opacity:0.2;fill:#FFFFFF;enable-background:new    ;}
	.st36{display:inline;fill:#EDEDEE;}
	.st37{display:inline;fill:#D0D2D3;}
	.st38{display:inline;fill:#B1B3B5;stroke:#231F20;stroke-width:0.5;stroke-miterlimit:10;}
	.st39{display:inline;fill:#8AA5B3;stroke:#231F20;stroke-width:0.5;stroke-miterlimit:10;}
	.st40{display:inline;opacity:0.4;fill:#FFFFFF;enable-background:new    ;}
	.st41{display:inline;}
	.st42{display:none;fill:#FFFAC4;}
</style>
<g class="st0">
	<path class="st1" d="M44-8.1h-0.1H44L44-8.1z M-161.6,53.3h20.3c0.3,0.5,0.7,0.9,1,1.4l0.1,0.1c0.8,1,1.7,2,2.6,2.9l0.1,0.1
		c0.4,0.4,0.9,0.8,1.3,1.2l0.1,0.1c0.5,0.4,1,0.8,1.5,1.2c0,0,0.1,0,0.1,0.1c0.5,0.3,1,0.7,1.5,1l0.1,0.1l0.2,0.1
		c1,0.7,2.2,1.3,3.3,1.8l0.4,0.2c0.5,0.2,1,0.4,1.5,0.6l0.2,0.1c0.6,0.2,1.2,0.4,1.7,0.6l0.4,0.1c0.5,0.1,1,0.3,1.5,0.4l0.4,0.1
		c0.6,0.1,1.2,0.2,1.8,0.3h0.3c0.5,0.1,1,0.1,1.6,0.2h0.5c0.6,0,1.3,0.1,1.9,0.1c9.7,0,18.7-4.8,24.2-12.7H8.4
		c0.1,0.1,0.2,0.2,0.2,0.3l0.2,0.2C9.7,55,10.6,56,11.6,57l0.2,0.2c0.5,0.4,0.9,0.9,1.4,1.3l0.1,0.1c0.5,0.4,1.1,0.9,1.6,1.3
		l0.2,0.1c0.5,0.4,1,0.7,1.5,1l0.3,0.2c1.1,0.7,2.3,1.4,3.5,1.9l0.4,0.2c0.5,0.2,1.1,0.5,1.7,0.7l0.2,0.1c0.6,0.2,1.2,0.4,1.9,0.6
		l0.4,0.1c0.5,0.1,1.1,0.3,1.6,0.4l0.5,0.1c0.7,0.1,1.3,0.3,2,0.4l0.4,0.1c0.6,0.1,1.1,0.1,1.7,0.2c0.2,0,0.4,0,0.6,0
		c0.8,0.1,1.5,0.1,2.1,0.1c10.1,0,19.5-4.7,25.5-12.7h11.1c13,0.5,16.1-1.9,17.2-3.3c1.2-1.3,2.3-3.6,2.1-7.9v-3.9
		c0-2.7-1.5-5.6-4.4-7L75.1,6.4C75,6.3,75,6.1,74.9,6c-0.3-0.6-1.7-3-5.2-5.1l1.6-7l17.1,1.3c0.1,0,0.1,0,0.2,0
		c5.1,0.2,8.6-2,9.3-5.6c0.1-0.5,0.2-1.1,0.3-3.1c0-0.5,0-1.1-0.2-1.6c-0.8-3-3.4-4.5-5.9-4.5H92c-0.1,0-0.3,0-0.4-0.1
		c0.2-3,0.3-6.5,0.4-8.7l4.5-2.4c1.5-0.8,2.4-2.3,2.5-4c0.1-1.8,0.1-3.3,0.1-4.4v-1.7c0.3-3.3-1-6-3.5-7.1
		c-2.3-1.1-2.4-1.1-27.3,8.6c-11.4,4.4-22.8,9-22.9,9.1c0,0-0.1,0-0.1,0.1c0,0-1.6,0.7-3.5,0.8c-1.9,0.1-9-0.2-13.1-0.4
		c-4.5-0.5-6.8,1.8-7.4,4.1c-0.1,0.5-0.2,1.1-0.4,2.7c-0.2,2.7-0.4,7-0.4,7.2c0,0,0,0,0,0.1l-2.7-0.9c-0.6-0.2-7.2-2.7-12.1-6.4
		C-9.5-34.4-22.9-36.9-31.4-36.9c-1.9,0-3.7,0.1-5.6,0.3c-2.4,0.3-4.2,2.3-4.2,4.7v23.2c-0.1,1.7-1.5,1.9-2.3,2
		c-2.6,0-29.3,0.3-46.3,4.3c-0.2-1.8-0.7-3.6-2.4-5c-2.4-2.1-5.5-1.7-7.6-1.3c-0.2,0-0.5,0.1-0.8,0.2l0,0c-0.3,0.1-0.6,0.2-0.9,0.3
		h-0.1c-0.3,0.1-0.6,0.2-0.9,0.3h-0.1c-0.3,0.1-0.6,0.3-0.9,0.4c0,0-0.1,0-0.1,0.1c-0.3,0.1-0.5,0.3-0.8,0.4l-0.2,0.1
		c-0.3,0.1-0.5,0.3-0.8,0.5l0.1,0c-0.2,0.2-0.5,0.3-0.7,0.5l-0.3,0.2c-0.2,0.2-0.4,0.3-0.6,0.5l-0.3,0.2c-0.2,0.2-0.4,0.3-0.6,0.5
		c-0.1,0.1-0.2,0.2-0.3,0.3c-0.2,0.2-0.3,0.3-0.5,0.5c-0.1,0.1-0.2,0.2-0.3,0.3l-0.1,0.1c-0.1,0.2-0.3,0.3-0.4,0.5l0,0
		c-6,1.5-25.6,6.8-43.9,22.5c-0.1,0-0.1,0.1-0.2,0.1c-0.2,0.1-0.3,0.3-0.5,0.5l-0.3,0.2c-0.5,0.4-1,0.9-1.5,1.3
		c-0.3,0.3-0.6,0.5-0.9,0.8l-0.6,0.6c-0.1,0.1-0.2,0.2-0.3,0.3c-0.9,0.8-1.8,1.7-2.6,2.6c-0.1,0.1-0.1,0.1-0.2,0.2l-0.3,0.3
		c-0.3,0.3-0.5,0.5-0.8,0.8l-0.2,0.2c-0.1,0.1-0.3,0.3-0.4,0.4c-0.1,0.1-0.1,0.2-0.2,0.3c-1,1.2-2.1,2.4-3,3.6
		c-1.4,1.2-2.7,2.4-3.9,3.6c-0.1,0.1-0.1,0.1-0.2,0.2c-1,1.1-5.7,6.6-3.3,12.3C-170.5,52.8-164.9,53.6-161.6,53.3z"/>
	<path class="st2" d="M43.6-8.5h-0.1H43.6L43.6-8.5z M-162,52.9h20.3c0.3,0.5,0.7,0.9,1,1.4l0.1,0.1c0.8,1,1.7,2,2.6,2.9l0.1,0.1
		c0.4,0.4,0.9,0.8,1.3,1.2l0.1,0.1c0.5,0.4,1,0.8,1.5,1.2c0,0,0.1,0,0.1,0.1c0.5,0.3,1,0.7,1.5,1l0.1,0.1l0.2,0.1
		c1,0.7,2.2,1.3,3.3,1.8l0.4,0.2c0.5,0.2,1,0.4,1.5,0.6l0.2,0.1c0.6,0.2,1.2,0.4,1.7,0.6l0.4,0.1c0.5,0.1,1,0.3,1.5,0.4l0.4,0.1
		c0.6,0.1,1.2,0.2,1.8,0.3h0.3c0.5,0.1,1,0.1,1.6,0.2h0.5c0.6,0,1.3,0.1,1.9,0.1c9.7,0,18.7-4.8,24.2-12.7H8
		c0.1,0.1,0.2,0.2,0.2,0.3l0.2,0.2c0.9,1.1,1.8,2.1,2.8,3.1l0.2,0.2c0.5,0.4,0.9,0.9,1.4,1.3l0.1,0.1c0.5,0.4,1.1,0.9,1.6,1.3
		l0.2,0.1c0.5,0.4,1,0.7,1.5,1l0.3,0.2c1.1,0.7,2.3,1.4,3.5,1.9l0.4,0.2c0.5,0.2,1.1,0.5,1.7,0.7l0.2,0.1c0.6,0.2,1.2,0.4,1.9,0.6
		l0.4,0.1c0.5,0.1,1.1,0.3,1.6,0.4l0.5,0.1c0.7,0.1,1.3,0.3,2,0.4l0.4,0.1c0.6,0.1,1.1,0.1,1.7,0.2c0.2,0,0.4,0,0.6,0
		c0.8,0.1,1.5,0.1,2.1,0.1C43.6,65.7,53,61,59,53h11.1c13,0.5,16.1-1.9,17.2-3.3c1.2-1.3,2.3-3.6,2.1-7.9v-3.9c0-2.7-1.5-5.6-4.4-7
		L74.7,6c-0.1-0.1-0.1-0.3-0.2-0.4c-0.3-0.6-1.7-3-5.2-5.1l1.6-7L88-5.2c0.1,0,0.1,0,0.2,0c5.1,0.2,8.6-2,9.3-5.6
		c0.1-0.5,0.2-1.1,0.3-3.1c0-0.5,0-1.1-0.2-1.6c-0.8-3-3.4-4.5-5.9-4.5h-0.1c-0.1,0-0.3,0-0.4-0.1c0.2-3,0.3-6.5,0.4-8.7l4.5-2.4
		c1.5-0.8,2.4-2.3,2.5-4c0.1-1.8,0.1-3.3,0.1-4.4v-1.7c0.3-3.3-1-6-3.5-7.1c-2.3-1.1-2.4-1.1-27.3,8.6c-11.4,4.4-22.8,9-22.9,9.1
		c0,0-0.1,0-0.2,0.1c0,0-1.6,0.7-3.5,0.8c-1.9,0.1-9-0.2-13.1-0.4c-4.5-0.5-6.8,1.8-7.4,4.1c-0.1,0.5-0.2,1.1-0.4,2.7
		c-0.2,2.7-0.4,7-0.4,7.2c0,0,0,0,0,0.1L17.3-17c-0.6-0.2-7.2-2.7-12.1-6.4C-10-34.8-23.4-37.3-31.9-37.3c-1.9,0-3.7,0.1-5.6,0.3
		c-2.4,0.3-4.2,2.3-4.2,4.7v23.2c-0.1,1.7-1.5,1.9-2.3,2c-2.6,0-29.3,0.3-46.3,4.3c-0.2-1.8-0.7-3.6-2.4-5c-2.4-2.1-5.5-1.7-7.6-1.3
		c-0.2,0-0.5,0.1-0.8,0.2l0,0c-0.3,0.1-0.6,0.2-0.9,0.3h-0.1c-0.3,0.1-0.6,0.2-0.9,0.3h-0.1c-0.3,0.1-0.6,0.3-0.9,0.4
		c0,0-0.1,0-0.1,0.1c-0.3,0.1-0.5,0.3-0.8,0.4l-0.2,0.1c-0.3,0.1-0.5,0.3-0.8,0.5l-0.2,0.1c-0.2,0.2-0.5,0.3-0.7,0.5l-0.3,0.2
		c-0.2,0.2-0.4,0.3-0.6,0.5l-0.3,0.2c-0.2,0.2-0.4,0.3-0.6,0.5c-0.1,0.1-0.2,0.2-0.3,0.3c-0.2,0.2-0.3,0.3-0.5,0.5
		c-0.1,0.1-0.2,0.2-0.3,0.3l-0.1,0.1c-0.1,0.2-0.3,0.3-0.4,0.5l0,0c-6.2,1.4-25.5,7-44.1,22.4c-0.1,0-0.1,0.1-0.2,0.1
		c-0.2,0.2-0.3,0.3-0.5,0.5l-0.2,0.2c-0.5,0.4-1,0.9-1.5,1.3c-0.3,0.3-0.6,0.5-0.9,0.8l-0.6,0.6c-0.1,0.1-0.2,0.2-0.3,0.3
		c-0.9,0.8-1.8,1.7-2.6,2.6c-0.1,0.1-0.1,0.1-0.2,0.2l-0.3,0.3c-0.3,0.3-0.5,0.5-0.8,0.8l-0.2,0.2c-0.1,0.1-0.3,0.3-0.4,0.4
		c-0.1,0.1-0.1,0.2-0.2,0.3c-1.2,1.3-2.2,2.5-3.2,3.7c-1.4,1.2-2.7,2.4-3.9,3.6c-0.1,0.1-0.1,0.1-0.2,0.2c-1,1.1-5.7,6.6-3.3,12.3
		C-170.9,52.4-165.3,53.2-162,52.9z"/>
	<path class="st3" d="M43.2-8.9h-0.1H43.2L43.2-8.9z M-162.4,52.5h20.3c0.3,0.5,0.7,0.9,1,1.4l0.1,0.1c0.8,1,1.7,2,2.6,2.9l0.1,0.1
		c0.4,0.4,0.9,0.8,1.3,1.2l0.1,0.1c0.5,0.4,1,0.8,1.5,1.2c0,0,0.1,0,0.1,0.1c0.5,0.3,1,0.7,1.5,1l0.1,0.1l0.2,0.1
		c1,0.7,2.2,1.3,3.3,1.8l0.4,0.2c0.5,0.2,1,0.4,1.5,0.6l0.2,0.1c0.6,0.2,1.2,0.4,1.7,0.6l0.4,0.1c0.5,0.1,1,0.3,1.5,0.4l0.4,0.1
		c0.6,0.1,1.2,0.2,1.8,0.3h0.3c0.5,0.1,1,0.1,1.6,0.2h0.5c0.6,0,1.3,0.1,1.9,0.1c9.7,0,18.7-4.8,24.2-12.7H7.6
		c0.1,0.1,0.2,0.2,0.2,0.3L8,53.1c0.9,1.1,1.8,2.1,2.8,3.1l0.2,0.2c0.5,0.4,0.9,0.9,1.4,1.3l0.1,0.1c0.5,0.4,1.1,0.9,1.6,1.3
		l0.2,0.1c0.5,0.4,1,0.7,1.5,1l0.3,0.2c1.1,0.7,2.3,1.4,3.5,1.9l0.4,0.2c0.5,0.2,1.1,0.5,1.7,0.7l0.2,0.1c0.6,0.2,1.2,0.4,1.9,0.6
		l0.4,0.1c0.5,0.1,1.1,0.3,1.6,0.4l0.5,0.1c0.7,0.1,1.3,0.3,2,0.4l0.4,0.1c0.6,0.1,1.1,0.1,1.7,0.2c0.2,0,0.4,0,0.6,0
		c0.8,0.1,1.5,0.1,2.1,0.1c10.1,0,19.5-4.7,25.5-12.7h11.1c13,0.5,16.1-1.9,17.2-3.3c1.2-1.3,2.3-3.6,2.1-7.9v-3.9
		c0-2.7-1.5-5.6-4.4-7L74.3,5.6c-0.1-0.1-0.1-0.3-0.2-0.4c-0.3-0.6-1.7-3-5.2-5.1l1.6-7l17.1,1.3c0.1,0,0.1,0,0.2,0
		c5.1,0.2,8.6-2,9.3-5.6c0.1-0.5,0.2-1.1,0.3-3.1c0-0.5,0-1.1-0.2-1.6c-0.8-3-3.4-4.5-5.9-4.5h-0.1c-0.1,0-0.3,0-0.4-0.1
		c0.2-3,0.3-6.5,0.4-8.7l4.5-2.4c1.5-0.8,2.4-2.3,2.5-4c0.1-1.8,0.1-3.3,0.1-4.4v-1.7c0.3-3.3-1-6-3.5-7.1
		c-2.3-1.1-2.4-1.1-27.3,8.6c-11.4,4.4-22.8,9-22.9,9.1c0,0-0.1,0-0.1,0.1c0,0-1.6,0.7-3.5,0.8c-1.9,0.1-9-0.2-13.1-0.4
		c-4.5-0.5-6.8,1.8-7.4,4.1c-0.1,0.5-0.2,1.1-0.4,2.7c-0.2,2.7-0.4,7-0.4,7.2c0,0,0,0,0,0.1L17-17.4c-0.6-0.2-7.2-2.7-12.1-6.4
		c-15.2-11.4-28.6-13.9-37.1-13.9c-1.9,0-3.7,0.1-5.6,0.3c-2.4,0.3-4.2,2.3-4.2,4.7v23.2c-0.1,1.7-1.5,1.9-2.3,2
		c-2.6,0-29.3,0.3-46.3,4.3c-0.2-1.8-0.7-3.6-2.4-5c-2.4-2.1-5.5-1.7-7.6-1.3c-0.2,0-0.5,0.1-0.8,0.2l0,0c-0.3,0.1-0.6,0.2-0.9,0.3
		h-0.1c-0.3,0.1-0.6,0.2-0.9,0.3h-0.1c-0.3,0.1-0.6,0.3-0.9,0.4c0,0-0.1,0-0.1,0.1c-0.3,0.1-0.5,0.3-0.8,0.4l-0.2,0.1
		c-0.3,0.1-0.5,0.3-0.8,0.5l-0.2,0.1c-0.2,0.2-0.5,0.3-0.7,0.5l-0.3,0.2c-0.2,0.2-0.4,0.3-0.6,0.5l-0.3,0.2
		c-0.2,0.2-0.4,0.3-0.6,0.5c-0.1,0.1-0.2,0.2-0.3,0.3c-0.2,0.2-0.3,0.3-0.5,0.5c-0.1,0.1-0.2,0.2-0.3,0.3l-0.1,0.1
		c-0.1,0.2-0.3,0.3-0.4,0.5l0,0c-6.2,1.4-25.5,7-44.1,22.4c-0.1,0-0.1,0.1-0.2,0.1c-0.2,0.2-0.3,0.3-0.5,0.5l0.2,0.2
		c-0.5,0.4-1,0.9-1.5,1.3c-0.3,0.3-0.6,0.5-0.9,0.8l-0.6,0.6c-0.1,0.1-0.2,0.2-0.3,0.3c-0.9,0.8-1.8,1.7-2.6,2.6
		c-0.1,0.1-0.1,0.1-0.2,0.2l-0.2,0.2c-0.3,0.3-0.5,0.5-0.8,0.8l-0.2,0.2c-0.1,0.1-0.3,0.3-0.4,0.4c-0.1,0.1-0.1,0.2-0.2,0.3
		c-1.2,1.3-2.2,2.5-3.2,3.7c-1.4,1.2-2.7,2.4-3.9,3.6c-0.1,0.1-0.1,0.1-0.2,0.2c-1,1.1-5.7,6.6-3.3,12.3
		C-171.3,52-165.7,52.8-162.4,52.5z"/>
	<path class="st4" d="M42.8-9.4h-0.1H42.8L42.8-9.4z M-162.9,52h20.3c0.3,0.5,0.7,0.9,1,1.4l0.1,0.1c0.8,1,1.7,2,2.6,2.9l0.1,0.1
		c0.4,0.4,0.9,0.8,1.3,1.2l0.1,0.1c0.5,0.4,1,0.8,1.5,1.2c0,0,0.1,0,0.1,0.1c0.5,0.3,1,0.7,1.5,1l0.1,0.1l0.2,0.1
		c1,0.7,2.2,1.3,3.3,1.8l0.4,0.2c0.5,0.2,1,0.4,1.5,0.6l0.2,0.1c0.6,0.2,1.2,0.4,1.7,0.6l0.4,0.1c0.5,0.1,1,0.3,1.5,0.4l0.4,0.1
		c0.6,0.1,1.2,0.2,1.8,0.3h0.3c0.5,0.1,1,0.1,1.6,0.2h0.5c0.6,0,1.3,0.1,1.9,0.1c9.7,0,18.7-4.8,24.2-12.7H7.1
		c0.1,0.1,0.2,0.2,0.2,0.3l0.2,0.2c0.9,1.1,1.8,2.1,2.8,3.1l0.2,0.2c0.5,0.4,0.9,0.9,1.4,1.3l0.1,0.1c0.5,0.4,1.1,0.9,1.6,1.3
		l0.2,0.1c0.5,0.4,1,0.7,1.5,1l0.3,0.2c1.1,0.7,2.3,1.4,3.5,1.9l0.4,0.2c0.5,0.2,1.1,0.5,1.7,0.7l0.2,0.1c0.6,0.2,1.2,0.4,1.9,0.6
		l0.4,0.1c0.5,0.1,1.1,0.3,1.6,0.4l0.5,0.1c0.7,0.1,1.3,0.3,2,0.4l0.4,0.1c0.6,0.1,1.1,0.1,1.7,0.2c0.2,0,0.4,0,0.6,0
		c0.8,0.1,1.5,0.1,2.1,0.1c10.1,0,19.5-4.7,25.5-12.7h11.1c13,0.5,16.1-1.9,17.2-3.3c1.2-1.3,2.3-3.6,2.1-7.9V37
		c0-2.7-1.5-5.6-4.4-7L73.8,5.1c-0.1-0.1-0.1-0.3-0.2-0.4c-0.3-0.6-1.7-3-5.2-5.1l1.6-7l17.1,1.3c0.1,0,0.1,0,0.2,0
		c5.1,0.2,8.6-2,9.3-5.6c0.1-0.5,0.2-1.1,0.3-3.1c0-0.5,0-1.1-0.2-1.6c-0.8-3-3.4-4.5-5.9-4.5h-0.1c-0.1,0-0.3,0-0.4-0.1
		c0.2-3,0.3-6.5,0.4-8.7l4.5-2.4c1.5-0.8,2.4-2.3,2.5-4c0.1-1.8,0.1-3.3,0.1-4.4v-1.7c0.3-3.3-1-6-3.5-7.1
		c-2.3-1.1-2.4-1.1-27.3,8.6c-11.4,4.4-22.8,9-22.9,9.1c0,0-0.1,0-0.1,0.1c0,0-1.6,0.7-3.5,0.8c-1.9,0.1-9-0.2-13.1-0.4
		c-4.5-0.5-6.8,1.8-7.4,4.1c-0.1,0.5-0.2,1.1-0.4,2.7c-0.2,2.7-0.4,7-0.4,7.2c0,0,0,0,0,0.1l-2.7-0.9c-0.6-0.2-7.2-2.7-12.1-6.4
		c-15.1-11.5-28.5-14-37-14c-1.9,0-3.7,0.1-5.6,0.3c-2.4,0.3-4.2,2.3-4.2,4.7v23.2c-0.1,1.7-1.5,1.9-2.3,2C-47.3-8.1-74-7.8-91-3.8
		c-0.2-1.8-0.7-3.6-2.4-5c-2.4-2.1-5.5-1.7-7.6-1.3c-0.2,0-0.5,0.1-0.8,0.2l0,0c-0.3,0.1-0.6,0.2-0.9,0.3h-0.1
		c-0.3,0.1-0.6,0.2-0.9,0.3h-0.1c-0.3,0.1-0.6,0.3-0.9,0.4c0,0-0.1,0-0.1,0.1c-0.3,0.1-0.5,0.3-0.8,0.4l-0.2,0.1
		c-0.3,0.1-0.5,0.3-0.8,0.5l-0.2,0.1c-0.2,0.2-0.5,0.3-0.7,0.5l-0.3,0.2c-0.2,0.2-0.4,0.3-0.6,0.5l-0.3,0.2
		c-0.2,0.2-0.4,0.3-0.6,0.5c-0.1,0.1-0.2,0.2-0.3,0.3c-0.2,0.2-0.3,0.3-0.5,0.5c-0.1,0.1-0.2,0.2-0.3,0.3l-0.1,0.1
		c-0.1,0.2-0.3,0.3-0.4,0.5l0,0c-6.2,1.4-25.5,7-44.1,22.4c-0.1,0-0.1,0.1-0.2,0.1c-0.2,0.2-0.3,0.3-0.5,0.5l-0.2,0.2
		c-0.5,0.4-1,0.9-1.5,1.3c-0.3,0.3-0.6,0.5-0.9,0.8l-0.6,0.6c-0.1,0.1-0.2,0.2-0.3,0.3c-0.9,0.8-1.8,1.7-2.6,2.6
		c-0.1,0.1-0.1,0.1-0.2,0.2l-0.3,0.3c-0.3,0.3-0.5,0.5-0.8,0.8l-0.2,0.2c-0.1,0.1-0.3,0.3-0.4,0.4c-0.1,0.1-0.1,0.2-0.2,0.3
		c-1.2,1.3-2.2,2.5-3.2,3.7c-1.4,1.2-2.7,2.4-3.9,3.6c-0.1,0.1-0.1,0.1-0.2,0.2c-1,1.1-5.7,6.6-3.3,12.3
		C-171.7,51.6-166.1,52.4-162.9,52z"/>
	<path class="st5" d="M42.3-9.8h-0.1H42.3L42.3-9.8z M-163.3,51.6h20.3c0.3,0.5,0.7,0.9,1,1.4l0.1,0.1c0.8,1,1.7,2,2.6,2.9l0.1,0.1
		c0.4,0.4,0.9,0.8,1.3,1.2l0.1,0.1c0.5,0.4,1,0.8,1.5,1.2c0,0,0.1,0,0.1,0.1c0.5,0.3,1,0.7,1.5,1l0.1,0.1l0.2,0.1
		c1,0.7,2.2,1.3,3.3,1.8l0.4,0.2c0.5,0.2,1,0.4,1.5,0.6l0.2,0.1c0.6,0.2,1.2,0.4,1.7,0.6l0.4,0.1c0.5,0.1,1,0.3,1.5,0.4l0.4,0.1
		c0.6,0.1,1.2,0.2,1.8,0.3h0.3c0.5,0.1,1,0.1,1.6,0.2h0.5c0.6,0,1.3,0.1,1.9,0.1c9.7,0,18.7-4.8,24.2-12.7H6.7
		c0.1,0.1,0.2,0.2,0.2,0.3l0.2,0.2c0.9,1.1,1.8,2.1,2.8,3.1l0.2,0.2c0.5,0.4,0.9,0.9,1.4,1.3l0.1,0.1c0.5,0.4,1.1,0.9,1.6,1.3
		l0.2,0.1c0.5,0.4,1,0.7,1.5,1l0.3,0.2c1.1,0.7,2.3,1.4,3.5,1.9l0.4,0.2c0.5,0.2,1.1,0.5,1.7,0.7l0.2,0.1c0.6,0.2,1.2,0.4,1.9,0.6
		l0.4,0.1c0.5,0.1,1.1,0.3,1.6,0.4l0.5,0.1c0.7,0.1,1.3,0.3,2,0.4l0.4,0.1c0.6,0.1,1.1,0.1,1.7,0.2c0.2,0,0.4,0,0.6,0
		c0.8,0.1,1.5,0.1,2.1,0.1c10.1,0,19.5-4.7,25.5-12.7h11.1c13,0.5,16.1-1.9,17.2-3.3c1.2-1.3,2.3-3.6,2.1-7.9v-3.9
		c0-2.7-1.5-5.6-4.4-7L73.6,4.7c-0.1-0.1-0.1-0.3-0.2-0.4c-0.3-0.6-1.7-3-5.2-5.1l1.6-7l17.1,1.3c0.1,0,0.1,0,0.2,0
		c5.1,0.2,8.6-2,9.3-5.6c0.1-0.5,0.2-1.1,0.3-3.1c0-0.5,0-1.1-0.2-1.6c-0.8-3-3.4-4.5-5.9-4.5h-0.1c-0.1,0-0.3,0-0.4-0.1
		c0.2-3,0.3-6.5,0.4-8.7l4.5-2.4c1.5-0.8,2.4-2.3,2.5-4c0.1-1.8,0.1-3.3,0.1-4.4v-1.7c0.3-3.3-1-6-3.5-7.1
		c-2.3-1.1-2.4-1.1-27.3,8.6c-11.4,4.4-22.8,9-22.9,9.1c0,0-0.1,0-0.1,0.1c0,0-1.6,0.7-3.5,0.8c-1.9,0.1-9-0.2-13.1-0.4
		c-4.5-0.5-6.8,1.8-7.4,4.1c-0.1,0.5-0.2,1.1-0.4,2.7c-0.2,2.7-0.4,7-0.4,7.2c0,0,0,0,0,0.1l-2.7-0.9c-0.6-0.2-7.2-2.7-12.1-6.4
		C-11-36.1-24.4-38.6-32.9-38.6c-1.9,0-3.7,0.1-5.6,0.3c-2.4,0.3-4.2,2.3-4.2,4.7v23.2c-0.1,1.7-1.5,1.9-2.3,2
		c-2.6,0-29.3,0.3-46.3,4.3c-0.2-1.8-0.7-3.6-2.4-5c-2.4-2.1-5.5-1.7-7.6-1.3c-0.2,0-0.5,0.1-0.8,0.2l0,0c-0.3,0.1-0.6,0.2-0.9,0.3
		h-0.1c-0.3,0.1-0.6,0.2-0.9,0.3h-0.1c-0.3,0.1-0.6,0.3-0.9,0.4c0,0-0.1,0-0.1,0.1c-0.3,0.1-0.5,0.3-0.8,0.4l-0.2,0.1
		c-0.3,0.1-0.5,0.3-0.8,0.5l-0.2,0.1c-0.2,0.2-0.5,0.3-0.7,0.5l-0.3,0.2c-0.2,0.2-0.4,0.3-0.6,0.5l-0.3,0.2
		c-0.2,0.2-0.4,0.3-0.6,0.5c-0.1,0.1-0.2,0.2-0.3,0.3c-0.2,0.2-0.3,0.3-0.5,0.5c-0.1,0.1-0.2,0.2-0.3,0.3l-0.1,0.1
		c-0.1,0.2-0.3,0.3-0.4,0.5l0,0c-6.2,1.4-25.5,7-44.1,22.4c-0.1,0-0.1,0.1-0.2,0.1c-0.2,0.2-0.3,0.3-0.5,0.5l-0.2,0.2
		c-0.5,0.4-1,0.9-1.5,1.3c-0.3,0.3-0.6,0.5-0.9,0.8l-0.6,0.6c-0.1,0.1-0.2,0.2-0.3,0.3c-0.9,0.8-1.8,1.7-2.6,2.6
		c-0.1,0.1-0.1,0.1-0.2,0.2l-0.3,0.3c-0.3,0.3-0.5,0.5-0.8,0.8l-0.2,0.2c-0.1,0.1-0.3,0.3-0.4,0.4c-0.1,0.1-0.1,0.2-0.2,0.3
		c-1.2,1.3-2.2,2.5-3.2,3.7c-1.4,1.2-2.7,2.4-3.9,3.6c-0.1,0.1-0.1,0.1-0.2,0.2c-1,1.1-5.7,6.6-3.3,12.3
		C-172.1,51.2-166.5,52-163.3,51.6z"/>
	<path class="st6" d="M41.9-10.2h-0.1H41.9L41.9-10.2z M-163.7,51.2h20.3c0.3,0.5,0.7,0.9,1,1.4l0.1,0.1c0.8,1,1.7,2,2.6,2.9
		l0.1,0.1c0.4,0.4,0.9,0.8,1.3,1.2l0.1,0.1c0.5,0.4,1,0.8,1.5,1.2c0,0,0.1,0,0.1,0.1c0.5,0.3,1,0.7,1.5,1l0.1,0.1l0.2,0.1
		c1,0.7,2.2,1.3,3.3,1.8l0.4,0.2c0.5,0.2,1,0.4,1.5,0.6l0.2,0.1c0.6,0.2,1.2,0.4,1.7,0.6l0.4,0.1c0.5,0.1,1,0.3,1.5,0.4l0.4,0.1
		c0.6,0.1,1.2,0.2,1.8,0.3h0.3c0.5,0.1,1,0.1,1.6,0.2h0.5c0.6,0,1.3,0.1,1.9,0.1c9.7,0,18.7-4.8,24.2-12.7H6.3
		c0.1,0.1,0.2,0.2,0.2,0.3l0.2,0.2c0.9,1.1,1.8,2.1,2.8,3.1l0.2,0.2c0.5,0.4,0.9,0.9,1.4,1.3l0.1,0.1c0.5,0.4,1.1,0.9,1.6,1.3
		l0.2,0.1c0.5,0.4,1,0.7,1.5,1l0.3,0.2c1.1,0.7,2.3,1.4,3.5,1.9l0.4,0.2c0.5,0.2,1.1,0.5,1.7,0.7l0.2,0.1c0.6,0.2,1.2,0.4,1.9,0.6
		l0.4,0.1c0.5,0.1,1.1,0.3,1.6,0.4l0.5,0.1c0.7,0.1,1.3,0.3,2,0.4l0.4,0.1c0.6,0.1,1.1,0.1,1.7,0.2c0.2,0,0.4,0,0.6,0
		c0.8,0.1,1.5,0.1,2.1,0.1c10.1,0,19.5-4.7,25.5-12.7h11.1c13,0.5,16.1-1.9,17.2-3.3c1.2-1.3,2.3-3.6,2.1-7.9v-3.9
		c0-2.7-1.5-5.6-4.4-7L73,4.3c-0.1-0.1-0.1-0.3-0.2-0.4c-0.3-0.6-1.7-3-5.2-5.1l1.6-7l17.1,1.3c0.1,0,0.1,0,0.2,0
		c5.1,0.2,8.6-2,9.3-5.6c0.1-0.5,0.2-1.1,0.3-3.1c0-0.5,0-1.1-0.2-1.6c-0.8-3-3.4-4.5-5.9-4.5h-0.1c-0.1,0-0.3,0-0.4-0.1
		c0.2-3,0.3-6.5,0.4-8.7l4.5-2.4c1.5-0.8,2.4-2.3,2.5-4c0.1-1.8,0.1-3.3,0.1-4.4V-43c0.3-3.3-1-6-3.5-7.1c-2.3-1.1-2.4-1.1-27.3,8.6
		c-11.4,4.4-22.8,9-22.9,9.1c0,0-0.1,0-0.1,0.1c0,0-1.6,0.7-3.5,0.8c-1.9,0.1-9-0.2-13.1-0.4c-4.5-0.5-6.8,1.8-7.4,4.1
		c-0.1,0.5-0.2,1.1-0.4,2.7c-0.2,2.7-0.4,7-0.4,7.2c0,0,0,0,0,0.1l-2.7-0.9c-0.6-0.2-7.2-2.7-12.1-6.4C-11.6-36.5-25-39-33.5-39
		c-1.9,0-3.7,0.1-5.6,0.3c-2.4,0.3-4.2,2.3-4.2,4.7v23.2c-0.1,1.7-1.5,1.9-2.3,2c-2.6,0-29.3,0.3-46.3,4.3c-0.2-1.8-0.7-3.6-2.4-5
		c-2.4-2.1-5.5-1.7-7.6-1.3c-0.2,0-0.5,0.1-0.8,0.2l0,0c-0.3,0.1-0.6,0.2-0.9,0.3h-0.1c-0.3,0.1-0.6,0.2-0.9,0.3h-0.1
		c-0.3,0.1-0.6,0.3-0.9,0.4c0,0-0.1,0-0.1,0.1c-0.3,0.1-0.5,0.3-0.8,0.4l-0.2,0.1c-0.3,0.1-0.5,0.3-0.8,0.5l-0.2,0.1
		c-0.2,0.2-0.5,0.3-0.7,0.5l0.1,0.1c-0.2,0.2-0.4,0.3-0.6,0.5l-0.3,0.2c-0.2,0.2-0.4,0.3-0.6,0.5c-0.1,0.1-0.2,0.2-0.3,0.3
		c-0.2,0.2-0.3,0.3-0.5,0.5c-0.1,0.1-0.2,0.2-0.3,0.3l-0.1,0.1c-0.1,0.2-0.3,0.3-0.4,0.5l0,0c-6.2,1.4-25.5,7-44.1,22.4
		c-0.1,0-0.1,0.1-0.2,0.1c-0.2,0.2-0.3,0.3-0.5,0.5l-0.1,0.3c-0.5,0.4-1,0.9-1.5,1.3c-0.3,0.3-0.6,0.5-0.9,0.8l-0.6,0.6
		c-0.1,0.1-0.2,0.2-0.3,0.3c-0.9,0.8-1.8,1.7-2.6,2.6c-0.1,0.1-0.1,0.1-0.2,0.2l-0.3,0.3c-0.3,0.3-0.5,0.5-0.8,0.8l-0.2,0.2
		c-0.1,0.1-0.3,0.3-0.4,0.4c-0.1,0.1-0.1,0.2-0.2,0.3c-1.2,1.3-2.2,2.5-3.2,3.7c-1.4,1.2-2.7,2.4-3.9,3.6c-0.1,0.1-0.1,0.1-0.2,0.2
		c-1,1.1-5.7,6.6-3.3,12.3C-172.6,50.8-166.9,51.6-163.7,51.2z"/>
	<path class="st7" d="M41.5-10.6h-0.1H41.5L41.5-10.6z M-164.1,50.8h20.3c0.3,0.5,0.7,0.9,1,1.4l0.1,0.1c0.8,1,1.7,2,2.6,2.9
		l0.1,0.1c0.4,0.4,0.9,0.8,1.3,1.2l0.1,0.1c0.5,0.4,1,0.8,1.5,1.2c0,0,0.1,0,0.1,0.1c0.5,0.3,1,0.7,1.5,1l0.1,0.1l0.2,0.1
		c1,0.7,2.2,1.3,3.3,1.8l0.4,0.2c0.5,0.2,1,0.4,1.5,0.6l0.2,0.1c0.6,0.2,1.2,0.4,1.7,0.6l0.4,0.1c0.5,0.1,1,0.3,1.5,0.4l0.4,0.1
		c0.6,0.1,1.2,0.2,1.8,0.3h0.3c0.5,0.1,1,0.1,1.6,0.2h0.5c0.6,0,1.3,0.1,1.9,0.1c9.7,0,18.7-4.8,24.2-12.7H5.9
		C6,51,6.1,51.1,6.1,51.2l0.2,0.2c0.9,1.1,1.8,2.1,2.8,3.1l0.2,0.2c0.5,0.4,0.9,0.9,1.4,1.3l0.1,0.1c0.5,0.4,1.1,0.9,1.6,1.3
		l0.2,0.1c0.5,0.4,1,0.7,1.5,1l0.3,0.2c1.1,0.7,2.3,1.4,3.5,1.9l0.4,0.2c0.5,0.2,1.1,0.5,1.7,0.7l0.2,0.1c0.6,0.2,1.2,0.4,1.9,0.6
		l0.4,0.1c0.5,0.1,1.1,0.3,1.6,0.4l0.5,0.1c0.7,0.1,1.3,0.3,2,0.4l0.4,0.1c0.6,0.1,1.1,0.1,1.7,0.2c0.2,0,0.4,0,0.6,0
		c0.8,0.1,1.5,0.1,2.1,0.1c10.1,0,19.5-4.7,25.5-12.7H68c13,0.5,16.1-1.9,17.2-3.3c1.2-1.3,2.3-3.6,2.1-7.9v-4c0-2.7-1.5-5.6-4.4-7
		L72.7,3.8c-0.1-0.1-0.1-0.3-0.2-0.4c-0.3-0.6-1.7-3-5.2-5.1l1.6-7L86-7.4c0.1,0,0.1,0,0.2,0c5.1,0.2,8.6-2,9.3-5.6
		c0.1-0.5,0.2-1.1,0.3-3.1c0-0.5,0-1.1-0.2-1.6c-0.8-3-3.4-4.5-5.9-4.5h-0.1c-0.1,0-0.3,0-0.4-0.1c0.2-3,0.3-6.5,0.4-8.7l4.5-2.4
		c1.5-0.8,2.4-2.3,2.5-4c0.1-1.8,0.1-3.3,0.1-4.4v-1.7c0.3-3.3-1-6-3.5-7.1c-2.3-1.1-2.4-1.1-27.3,8.6c-11.4,4.4-22.8,9-22.9,9.1
		c0,0-0.1,0-0.1,0.1c0,0-1.6,0.7-3.5,0.8c-1.9,0.1-9-0.2-13.1-0.4c-4.5-0.5-6.8,1.8-7.4,4.1c-0.1,0.5-0.2,1.1-0.4,2.7
		c-0.2,2.7-0.4,7-0.4,7.2c0,0,0,0,0,0.1l-2.7-0.9c-0.6-0.2-7.2-2.7-12.1-6.4C-11.9-37-25.3-39.5-33.8-39.5c-1.9,0-3.7,0.1-5.6,0.3
		c-2.4,0.3-4.2,2.3-4.2,4.7v23.2c-0.1,1.7-1.5,1.9-2.3,2C-48.5-9.3-75.2-9-92.2-5c-0.2-1.8-0.7-3.6-2.4-5c-2.4-2.1-5.5-1.7-7.6-1.3
		c-0.2,0-0.5,0.1-0.8,0.2l0,0c-0.3,0.1-0.6,0.2-0.9,0.3h-0.1c-0.3,0.1-0.6,0.2-0.9,0.3h-0.1c-0.3,0.1-0.6,0.3-0.9,0.4
		c0,0-0.1,0-0.1,0.1c-0.3,0.1-0.5,0.3-0.8,0.4l-0.2,0.1c-0.3,0.1-0.5,0.3-0.8,0.5l-0.2,0.1c-0.2,0.2-0.5,0.3-0.7,0.5l-0.3,0.2
		c-0.2,0.2-0.4,0.3-0.6,0.5l-0.3,0.2c-0.2,0.2-0.4,0.3-0.6,0.5c-0.1,0.1-0.2,0.2-0.3,0.3c-0.2,0.2-0.3,0.3-0.5,0.5
		c-0.1,0.1-0.2,0.2-0.3,0.3l-0.1,0.1c-0.1,0.2-0.3,0.3-0.4,0.5l0,0c-6.2,1.4-25.5,7-44.1,22.4c-0.1,0-0.1,0.1-0.2,0.1
		c-0.2,0.2-0.3,0.3-0.5,0.5l-0.2,0.2c-0.5,0.4-1,0.9-1.5,1.3c-0.3,0.3-0.6,0.5-0.9,0.8l-0.2,0.7c-0.1,0.1-0.2,0.2-0.3,0.3
		c-0.9,0.8-1.8,1.7-2.6,2.6c-0.1,0.1-0.1,0.1-0.2,0.2l-0.3,0.3c-0.3,0.3-0.5,0.5-0.8,0.8l-0.2,0.2c-0.1,0.1-0.3,0.3-0.4,0.4
		c-0.1,0.1-0.1,0.2-0.2,0.3c-1.2,1.3-2.2,2.5-3.2,3.7c-1.4,1.2-2.7,2.4-3.9,3.6c-0.1,0.1-0.1,0.1-0.2,0.2c-1,1.1-5.7,6.6-3.3,12.3
		C-173,50.3-167.4,51.1-164.1,50.8z"/>
	<path class="st8" d="M41.1-11H41H41.1L41.1-11z M-164.5,50.4h20.2c0.3,0.5,0.7,0.9,1,1.4l0.1,0.1c0.8,1,1.7,2,2.6,2.9l0.1,0.1
		c0.4,0.4,0.9,0.8,1.3,1.2l0.1,0.1c0.5,0.4,1,0.8,1.5,1.2c0,0,0.1,0,0.1,0.1c0.5,0.3,1,0.7,1.5,1l0.1,0.1l0.2,0.1
		c1,0.7,2.2,1.3,3.3,1.8l0.4,0.2c0.5,0.2,1,0.4,1.5,0.6l0.2,0.1c0.6,0.2,1.2,0.4,1.7,0.6l0.4,0.1c0.5,0.1,1,0.3,1.5,0.4l0.4,0.1
		c0.6,0.1,1.2,0.2,1.8,0.3h0.3c0.5,0.1,1,0.1,1.6,0.2h0.5c0.6,0,1.3,0.1,1.9,0.1c9.7,0,18.7-4.8,24.2-12.7H5.4
		c0.1,0.1,0.2,0.2,0.2,0.3L5.8,51c0.9,1.1,1.8,2.1,2.8,3.1l0.2,0.2c0.5,0.4,0.9,0.9,1.4,1.3l0.1,0.1c0.5,0.4,1.1,0.9,1.6,1.3
		l0.2,0.1c0.5,0.4,1,0.7,1.5,1l0.3,0.2c1.1,0.7,2.3,1.4,3.5,1.9l0.4,0.2c0.5,0.2,1.1,0.5,1.7,0.7l0.2,0.1c0.6,0.2,1.2,0.4,1.9,0.6
		l0.4,0.1c0.5,0.1,1.1,0.3,1.6,0.4l0.5,0.1c0.7,0.1,1.3,0.3,2,0.4l0.4,0.1c0.6,0.1,1.1,0.1,1.7,0.2c0.2,0,0.4,0,0.6,0
		c0.8,0.1,1.5,0.1,2.1,0.1c10.1,0,19.5-4.7,25.5-12.7h11.3c13,0.5,16.1-1.9,17.2-3.3c1.2-1.3,2.3-3.6,2.1-7.9v-3.9
		c0-2.7-1.5-5.6-4.4-7L72.3,3.5c-0.1-0.1-0.1-0.3-0.2-0.4c-0.3-0.6-1.7-3-5.2-5.1l1.6-7l17.1,1.3c0.1,0,0.1,0,0.2,0
		c5.1,0.2,8.6-2,9.3-5.6c0.1-0.5,0.2-1.1,0.3-3.1c0-0.5,0-1.1-0.2-1.6c-0.8-3-3.4-4.5-5.9-4.5h-0.1c-0.1,0-0.3,0-0.4-0.1
		c0.2-3,0.3-6.5,0.4-8.7l4.5-2.4c1.5-0.8,2.4-2.3,2.5-4c0.1-1.8,0.1-3.3,0.1-4.4v-1.7c0.3-3.3-1-6-3.5-7.1
		c-2.3-1.1-2.4-1.1-27.3,8.6c-11.4,4.4-22.8,9-22.9,9.1c0,0-0.1,0-0.1,0.1c0,0-1.6,0.7-3.5,0.8s-9-0.2-13.1-0.4
		c-4.5-0.5-6.8,1.8-7.4,4.1c-0.1,0.5-0.2,1.1-0.4,2.7c-0.2,2.7-0.4,7-0.4,7.2c0,0,0,0,0,0.1L15-19.5c-0.6-0.2-7.2-2.7-12.1-6.4
		c-15.2-11.4-28.6-13.9-37.1-13.9c-1.9,0-3.7,0.1-5.6,0.3c-2.4,0.3-4.2,2.3-4.2,4.7v23.2c-0.1,1.7-1.5,1.9-2.3,2
		c-2.6,0-29.3,0.3-46.3,4.3c-0.2-1.8-0.7-3.6-2.4-5c-2.4-2.1-5.5-1.7-7.6-1.3c-0.2,0-0.5,0.1-0.8,0.2l0,0c-0.3,0.1-0.6,0.2-0.9,0.3
		h-0.1c-0.3,0.1-0.6,0.2-0.9,0.3h-0.1c-0.3,0.1-0.6,0.3-0.9,0.4c0,0-0.1,0-0.1,0.1c-0.3,0.1-0.5,0.3-0.8,0.4l-0.1,0
		c-0.3,0.1-0.5,0.3-0.8,0.5l-0.2,0.1c-0.2,0.2-0.5,0.3-0.7,0.5l-0.3,0.2c-0.2,0.2-0.4,0.3-0.6,0.5l-0.3,0.2
		c-0.2,0.2-0.4,0.3-0.6,0.5c-0.1,0.1-0.2,0.2-0.3,0.3c-0.2,0.2-0.3,0.3-0.5,0.5c-0.1,0.1-0.2,0.2-0.3,0.3l-0.1,0.1
		c-0.1,0.2-0.3,0.3-0.4,0.5l0,0c-6.2,1.4-25.5,7-44.1,22.4c-0.1,0-0.1,0.1-0.2,0.1c-0.2,0.2-0.3,0.3-0.5,0.5l-0.2,0.2
		c-0.5,0.4-1,0.9-1.5,1.3c-0.3,0.3-0.6,0.5-0.9,0.8l-0.6,0.6c-0.1,0.1-0.2,0.2-0.3,0.3c-0.9,0.8-1.8,1.7-2.6,2.6
		c-0.1,0.1-0.1,0.1-0.2,0.2l-0.3,0.3c-0.3,0.3-0.5,0.5-0.8,0.8l-0.2,0.2c-0.1,0.1-0.3,0.3-0.4,0.4c-0.1,0.1-0.1,0.2-0.2,0.3
		c-1.2,1.3-2.2,2.5-3.2,3.7c-1.4,1.2-2.7,2.4-3.9,3.6c-0.1,0.1-0.1,0.1-0.2,0.2c-1,1.1-5.7,6.6-3.3,12.3
		C-173.4,49.9-167.8,50.7-164.5,50.4z"/>
	<path class="st9" d="M40.7-11.4h-0.1H40.7L40.7-11.4z M-164.9,50h20.3c0.3,0.5,0.7,0.9,1,1.4l0.1,0.1c0.8,1,1.7,2,2.6,2.9l0.1,0.1
		c0.4,0.4,0.9,0.8,1.3,1.2l0.1,0.1c0.5,0.4,1,0.8,1.5,1.2c0,0,0.1,0,0.1,0.1c0.5,0.3,1,0.7,1.5,1l0.1,0.1l0.2,0.1
		c1,0.7,2.2,1.3,3.3,1.8l0.4,0.2c0.5,0.2,1,0.4,1.5,0.6l0.2,0.1c0.6,0.2,1.2,0.4,1.7,0.6l0.4,0.1c0.5,0.1,1,0.3,1.5,0.4l0.4,0.1
		c0.6,0.1,1.2,0.2,1.8,0.3h0.3c0.5,0.1,1,0.1,1.6,0.2h0.5c0.6,0,1.3,0.1,1.9,0.1c9.7,0,18.7-4.8,24.2-12.7H5.1
		c0.1,0.1,0.2,0.2,0.2,0.3l0.2,0.2c0.9,1.1,1.8,2.1,2.8,3.1l0.2,0.2c0.5,0.4,0.9,0.9,1.4,1.3l0.1,0.1c0.5,0.4,1.1,0.9,1.6,1.3
		l0.2,0.1c0.5,0.4,1,0.7,1.5,1l0.3,0.2c1.1,0.7,2.3,1.4,3.5,1.9l0.4,0.2c0.5,0.2,1.1,0.5,1.7,0.7l0.2,0.1c0.6,0.2,1.2,0.4,1.9,0.6
		l0.4,0.1c0.5,0.1,1.1,0.3,1.6,0.4l0.5,0.1c0.7,0.1,1.3,0.3,2,0.4l0.4,0.1c0.6,0.1,1.1,0.1,1.7,0.2c0.2,0,0.4,0,0.6,0
		c0.8,0.1,1.5,0.1,2.1,0.1c10.1,0,19.5-4.7,25.5-12.7h11.1c13,0.5,16.1-1.9,17.2-3.3c1.2-1.3,2.3-3.6,2.1-7.9V35
		c0-2.7-1.5-5.6-4.4-7L71.8,3.1c-0.1-0.1-0.1-0.3-0.2-0.4c-0.3-0.6-1.7-3-5.2-5.1l1.6-7l17.1,1.3c0.1,0,0.1,0,0.2,0
		c5.1,0.2,8.6-2,9.3-5.6c0.1-0.5,0.2-1.1,0.3-3.1c0-0.5,0-1.1-0.2-1.6c-0.8-3-3.4-4.5-5.9-4.5h-0.1c-0.1,0-0.3,0-0.4-0.1
		c0.2-3,0.3-6.5,0.4-8.7l4.5-2.4c1.5-0.8,2.4-2.3,2.5-4c0.1-1.8,0.1-3.3,0.1-4.4v-1.7c0.3-3.3-1-6-3.5-7.1
		c-2.3-1.1-2.4-1.1-27.3,8.6c-11.4,4.4-22.8,9-22.9,9.1c0,0-0.1,0-0.1,0.1c0,0-1.6,0.7-3.5,0.8s-9-0.2-13.1-0.4
		c-4.5-0.5-6.8,1.8-7.4,4.1c-0.1,0.5-0.2,1.1-0.4,2.7c-0.2,2.7-0.4,7-0.4,7.2c0,0,0,0,0,0.1l-2.7-0.9c-0.6-0.2-7.2-2.7-12.1-6.4
		c-15.2-11.4-28.6-13.9-37.1-13.9c-1.9,0-3.7,0.1-5.6,0.3c-2.4,0.3-4.2,2.3-4.2,4.7V-12c-0.1,1.7-1.5,1.9-2.3,2
		c-2.6,0-29.3,0.3-46.3,4.3c-0.2-1.8-0.7-3.6-2.4-5c-2.4-2.1-5.5-1.7-7.6-1.3c-0.2,0-0.5,0.1-0.8,0.2l0,0c-0.3,0.1-0.6,0.2-0.9,0.3
		h-0.1c-0.3,0.1-0.6,0.2-0.9,0.3h-0.1c-0.3,0.1-0.6,0.3-0.9,0.4c0,0-0.1,0-0.1,0.1c-0.3,0.1-0.5,0.3-0.8,0.4l0,0
		c-0.3,0.1-0.5,0.3-0.8,0.5l-0.2,0.1c-0.2,0.2-0.5,0.3-0.7,0.5l-0.3,0.2c-0.2,0.2-0.4,0.3-0.6,0.5l-0.2,0.2
		c-0.2,0.2-0.4,0.3-0.6,0.5c-0.1,0.1-0.2,0.2-0.3,0.3c-0.2,0.2-0.3,0.3-0.5,0.5c-0.1,0.1-0.2,0.2-0.3,0.3l-0.1,0.1
		c-0.1,0.2-0.3,0.3-0.4,0.5l0,0c-6.2,1.4-25.5,7-44.1,22.4c-0.1,0-0.1,0.1-0.2,0.1c-0.2,0.2-0.3,0.3-0.5,0.5l-0.2,0.2
		c-0.5,0.4-1,0.9-1.5,1.3c-0.3,0.3-0.6,0.5-0.9,0.8l-0.6,0.6c-0.1,0.1-0.2,0.2-0.3,0.3c-0.9,0.8-1.8,1.7-2.6,2.6
		c-0.1,0.1-0.1,0.1-0.2,0.2l-0.3,0.3c-0.3,0.3-0.5,0.5-0.8,0.8l-0.2,0.2c-0.1,0.1-0.3,0.3-0.4,0.4c-0.1,0.1-0.1,0.2-0.2,0.3
		c-1.2,1.3-2.2,2.5-3.2,3.7c-1.4,1.2-2.7,2.4-3.9,3.6c-0.1,0.1-0.1,0.1-0.2,0.2c-1,1.1-5.7,6.6-3.3,12.3
		C-173.8,49.5-168.2,50.3-164.9,50z"/>
	<path class="st10" d="M40.3-11.9h-0.1H40.3L40.3-11.9z M-165.4,49.6h20.3c0.3,0.5,0.7,0.9,1,1.4l0.1,0.1c0.8,1,1.7,2,2.6,2.9
		l0.1,0.1c0.4,0.4,0.9,0.8,1.3,1.2l0.1,0.1c0.5,0.4,1,0.8,1.5,1.2c0,0,0.1,0,0.1,0.1c0.5,0.3,1,0.7,1.5,1l0.1,0.1l0.2,0.1
		c1,0.7,2.2,1.3,3.3,1.8l0.4,0.2c0.5,0.2,1,0.4,1.5,0.6l0.2,0.1c0.6,0.2,1.2,0.4,1.7,0.6l0.4,0.1c0.5,0.1,1,0.3,1.5,0.4l0.4,0.1
		c0.6,0.1,1.2,0.2,1.8,0.3h0.3c0.5,0.1,1,0.1,1.6,0.2h0.5c0.6,0,1.3,0.1,1.9,0.1c9.7,0,18.7-4.8,24.2-12.7H4.7
		c0.1,0.1,0.2,0.2,0.2,0.3l0.2,0.2c0.9,1.1,1.8,2.1,2.8,3.1l0.2,0.2c0.5,0.4,0.9,0.9,1.4,1.3l0.1,0.1c0.5,0.4,1.1,0.9,1.6,1.3
		l0.2,0.1c0.5,0.4,1,0.7,1.5,1l0.3,0.2c1.1,0.7,2.3,1.4,3.5,1.9l0.4,0.2c0.5,0.2,1.1,0.5,1.7,0.7l0.2,0.1c0.6,0.2,1.2,0.4,1.9,0.6
		l0.4,0.1c0.5,0.1,1.1,0.3,1.6,0.4l0.5,0.1c0.7,0.1,1.3,0.3,2,0.4l0.4,0.1c0.6,0.1,1.1,0.1,1.7,0.2c0.2,0,0.4,0,0.6,0
		c0.8,0.1,1.5,0.1,2.1,0.1c10.1,0,19.5-4.7,25.5-12.7h11.1c13,0.5,16.1-1.9,17.2-3.3c1.2-1.3,2.3-3.6,2.1-7.9v-3.9
		c0-2.7-1.5-5.6-4.4-7L71.4,2.7c-0.1-0.1-0.1-0.3-0.2-0.4c-0.3-0.6-1.7-3-5.2-5.1l1.6-7l17.1,1.3c0.1,0,0.1,0,0.2,0
		c5.1,0.2,8.6-2,9.3-5.6c0.1-0.5,0.2-1.1,0.3-3.1c0-0.5,0-1.1-0.2-1.6c-0.8-3-3.4-4.5-5.9-4.5h-0.1c-0.1,0-0.3,0-0.4-0.1
		c0.2-3,0.3-6.5,0.4-8.7l4.5-2.4c1.5-0.8,2.4-2.3,2.5-4c0.1-1.8,0.1-3.3,0.1-4.4v-1.7c0.3-3.3-1-6-3.5-7.1
		c-2.3-1.1-2.4-1.1-27.3,8.6c-11.4,4.4-22.8,9-22.9,9.1c0,0-0.1,0-0.1,0.1c0,0-1.6,0.7-3.5,0.8s-9-0.2-13.1-0.4
		c-4.5-0.5-6.8,1.8-7.4,4.1c-0.1,0.5-0.2,1.1-0.4,2.7c-0.2,2.7-0.4,7-0.4,7.2c0,0,0,0,0,0.1l-2.7-0.9C13.5-20.5,6.9-23,2-26.7
		c-15.2-11.4-28.6-13.9-37.1-13.9c-1.9,0-3.7,0.1-5.6,0.3c-2.4,0.3-4.2,2.3-4.2,4.7v23.2c-0.1,1.7-1.5,1.9-2.3,2
		c-2.6,0-29.3,0.3-46.3,4.3c-0.2-1.8-0.7-3.6-2.4-5c-2.4-2.2-5.4-1.9-7.5-1.5c-0.2,0-0.5,0.1-0.8,0.2l0,0c-0.3,0.1-0.6,0.2-0.9,0.3
		h-0.1c-0.3,0.1-0.6,0.2-0.9,0.3h-0.1c-0.3,0.1-0.6,0.3-0.9,0.4c0,0-0.1,0-0.1,0.1c-0.3,0.1-0.5,0.3-0.8,0.4l-0.2,0.1
		c-0.3,0.1-0.5,0.3-0.8,0.5l-0.2,0.1c-0.2,0.2-0.5,0.3-0.7,0.5l-0.3,0.2c-0.2,0.2-0.4,0.3-0.6,0.5l-0.3,0.2
		c-0.2,0.2-0.4,0.3-0.6,0.5c-0.1,0.1-0.2,0.2-0.3,0.3c-0.2,0.2-0.3,0.3-0.5,0.5c-0.1,0.1-0.2,0.2-0.3,0.3l-0.1,0.1
		c-0.1,0.2-0.3,0.3-0.4,0.5l0,0c-6.2,1.4-25.5,7-44.1,22.4c-0.1,0-0.1,0.1-0.2,0.1c-0.2,0.2-0.3,0.3-0.5,0.5l-0.2,0.2
		c-0.5,0.4-1,0.9-1.5,1.3c-0.3,0.3-0.6,0.5-0.9,0.8l-0.6,0.6c-0.1,0.1-0.2,0.2-0.3,0.3c-0.9,0.8-1.8,1.7-2.6,2.6
		c-0.1,0.1-0.1,0.1-0.2,0.2l0.1,0.4c-0.3,0.3-0.5,0.5-0.8,0.8l-0.2,0.2c-0.1,0.1-0.3,0.3-0.4,0.4c-0.1,0.1-0.1,0.2-0.2,0.3
		c-1.2,1.3-2.2,2.5-3.2,3.7c-1.4,1.2-2.7,2.4-3.9,3.6c-0.1,0.1-0.1,0.1-0.2,0.2c-1,1.1-5.7,6.6-3.3,12.3
		C-174.2,49.1-168.6,49.9-165.4,49.6z"/>
	<path class="st11" d="M39.8-12.3h-0.1H39.8L39.8-12.3z M-165.8,49.1h20.3c0.3,0.5,0.7,0.9,1,1.4l0.1,0.1c0.8,1,1.7,2,2.6,2.9
		l0.1,0.1c0.4,0.4,0.9,0.8,1.3,1.2l0.1,0.1c0.5,0.4,1,0.8,1.5,1.2c0,0,0.1,0,0.1,0.1c0.5,0.3,1,0.7,1.5,1l0.1,0.1l0.2,0.1
		c1,0.7,2.2,1.3,3.3,1.8l0.4,0.2c0.5,0.2,1,0.4,1.5,0.6l0.2,0.1c0.6,0.2,1.2,0.4,1.7,0.6l0.4,0.1c0.5,0.1,1,0.3,1.5,0.4l0.4,0.1
		c0.6,0.1,1.2,0.2,1.8,0.3h0.3c0.5,0.1,1,0.1,1.6,0.2h0.5c0.6,0,1.3,0.1,1.9,0.1c9.7,0,18.7-4.8,24.2-12.7H4.2
		c0.1,0.1,0.2,0.2,0.2,0.3l0.2,0.2c0.9,1.1,1.8,2.1,2.8,3.1L7.6,53c0.5,0.4,0.9,0.9,1.4,1.3l0.1,0.1c0.5,0.4,1.1,0.9,1.6,1.3
		l0.2,0.1c0.5,0.4,1,0.7,1.5,1l0.3,0.2c1.1,0.7,2.3,1.4,3.5,1.9l0.4,0.2c0.5,0.2,1.1,0.5,1.7,0.7l0.2,0.1c0.6,0.2,1.2,0.4,1.9,0.6
		l0.4,0.1c0.5,0.1,1.1,0.3,1.6,0.4l0.5,0.1c0.7,0.1,1.3,0.3,2,0.4l0.4,0.1c0.6,0.1,1.1,0.1,1.7,0.2c0.2,0,0.4,0,0.6,0
		c0.8,0.1,1.5,0.1,2.1,0.1c10.1,0,19.5-4.7,25.5-12.7h11.1c13,0.5,16.1-1.9,17.2-3.3c1.2-1.3,2.3-3.6,2.1-7.9v-3.9
		c0-2.7-1.5-5.6-4.4-7L70.9,2.2c-0.1-0.1-0.1-0.3-0.2-0.4c-0.3-0.6-1.7-3-5.2-5.1l1.6-7L84.2-9c0.1,0,0.1,0,0.2,0
		c5.1,0.2,8.6-2,9.3-5.6c0.1-0.5,0.2-1.1,0.3-3.1c0-0.5,0-1.1-0.2-1.6c-0.8-3-3.4-4.5-5.9-4.5h-0.1c-0.1,0-0.3,0-0.4-0.1
		c0.2-3,0.3-6.5,0.4-8.7l4.5-2.4c1.5-0.8,2.4-2.3,2.5-4c0.1-1.8,0.1-3.3,0.1-4.4v-1.7c0.3-3.3-1-6-3.5-7.1
		c-2.3-1.1-2.4-1.1-27.3,8.6c-11.4,4.4-22.8,9-22.9,9.1c0,0-0.1,0-0.1,0.1c0,0-1.6,0.7-3.5,0.8s-9-0.2-13.1-0.4
		c-4.5-0.5-6.8,1.8-7.4,4.1c-0.1,0.5-0.2,1.1-0.4,2.7c-0.2,2.7-0.4,7-0.4,7.2c0,0,0,0,0,0.1l-2.7-0.9C13-21,6.4-23.5,1.5-27.2
		c-15.2-11.4-28.6-13.9-37.1-13.9c-1.9,0-3.7,0.1-5.6,0.3c-2.4,0.3-4.2,2.3-4.2,4.7v23.2c-0.1,1.7-1.5,1.9-2.3,2
		c-2.6,0-29.3,0.3-46.3,4.3c-0.2-1.8-0.7-3.6-2.4-5c-2.4-2.1-5.5-1.7-7.6-1.3c-0.2,0-0.5,0.1-0.8,0.2l0,0c-0.3,0.1-0.6,0.2-0.9,0.3
		h-0.1c-0.3,0.1-0.6,0.2-0.9,0.3h-0.1c-0.3,0.1-0.6,0.3-0.9,0.4c0,0-0.1,0-0.1,0.1c-0.3,0.1-0.5,0.3-0.8,0.4l-0.2,0.1
		c-0.3,0.1-0.5,0.3-0.8,0.5l-0.2,0.1c-0.2,0.2-0.5,0.3-0.7,0.5l-0.3,0.2c-0.2,0.2-0.4,0.3-0.6,0.5l0.1,0.2c-0.2,0.2-0.4,0.3-0.6,0.5
		c-0.1,0.1-0.2,0.2-0.3,0.3c-0.2,0.2-0.3,0.3-0.5,0.5c-0.1,0.1-0.2,0.2-0.3,0.3l-0.1,0.1c-0.1,0.2-0.3,0.3-0.4,0.5l0,0
		c-6.2,1.4-25.5,7-44.1,22.4c-0.1,0-0.1,0.1-0.2,0.1c-0.2,0.2-0.3,0.3-0.5,0.5l-0.2,0.2c-0.5,0.4-1,0.9-1.5,1.3
		c-0.3,0.3-0.6,0.5-0.9,0.8l-0.6,0.6c-0.1,0.1-0.2,0.2-0.3,0.3c-0.9,0.8-1.8,1.7-2.6,2.6c-0.1,0.1-0.1,0.1-0.2,0.2l-0.3,0.3
		c-0.3,0.3-0.5,0.5-0.8,0.8l-0.2,0.2c-0.1,0.1-0.3,0.3-0.4,0.4c-0.1,0.1-0.1,0.2-0.2,0.3c-1.2,1.3-2.2,2.5-3.2,3.7
		c-1.4,1.2-2.7,2.4-3.9,3.6c-0.1,0.1-0.1,0.1-0.2,0.2c-1,1.1-5.7,6.6-3.3,12.3C-174.6,48.7-169,49.5-165.8,49.1z"/>
	<path class="st12" d="M39.4-12.7h-0.1H39.4L39.4-12.7z M-166.2,48.7h20.3c0.3,0.5,0.7,0.9,1,1.4l0.1,0.1c0.8,1,1.7,2,2.6,2.9
		l0.1,0.1c0.4,0.4,0.9,0.8,1.3,1.2l0.1,0.1c0.5,0.4,1,0.8,1.5,1.2c0,0,0.1,0,0.1,0.1c0.5,0.3,1,0.7,1.5,1l0.1,0.1l0.2,0.1
		c1,0.7,2.2,1.3,3.3,1.8l0.4,0.2c0.5,0.2,1,0.4,1.5,0.6l0.2,0.1c0.6,0.2,1.2,0.4,1.7,0.6l0.4,0.1c0.5,0.1,1,0.3,1.5,0.4l0.4,0.1
		c0.6,0.1,1.2,0.2,1.8,0.3h0.3c0.5,0.1,1,0.1,1.6,0.2h0.5c0.6,0,1.3,0.1,1.9,0.1c9.7,0,18.7-4.8,24.2-12.7H3.8C3.9,48.9,4,49,4,49.1
		l0.2,0.2C5.1,50.4,6,51.4,7,52.4l0.2,0.2c0.5,0.4,0.9,0.9,1.4,1.3L8.7,54c0.5,0.4,1.1,0.9,1.6,1.3l0.2,0.1c0.5,0.4,1,0.7,1.5,1
		l0.3,0.2c1.1,0.7,2.3,1.4,3.5,1.9l0.4,0.2c0.5,0.2,1.1,0.5,1.7,0.7l0.2,0.1c0.6,0.2,1.2,0.4,1.9,0.6l0.4,0.1
		c0.5,0.1,1.1,0.3,1.6,0.4l0.5,0.1c0.7,0.1,1.3,0.3,2,0.4l0.4,0.1c0.6,0.1,1.1,0.1,1.7,0.2c0.2,0,0.4,0,0.6,0
		c0.8,0.1,1.5,0.1,2.1,0.1c10.1,0,19.5-4.7,25.5-12.7h11.1c13,0.5,16.1-1.9,17.2-3.3c1.2-1.3,2.3-3.6,2.1-7.9v-3.9
		c0-2.7-1.5-5.6-4.4-7L70.7,1.8c-0.1-0.1-0.1-0.3-0.2-0.4c-0.3-0.6-1.7-3-5.2-5.1l1.6-7L84-9.4c0.1,0,0.1,0,0.2,0
		c5.1,0.2,8.6-2,9.3-5.6c0.1-0.5,0.2-1.1,0.3-3.1c0-0.5,0-1.1-0.2-1.6c-0.8-3-3.4-4.5-5.9-4.5h-0.1c-0.1,0-0.3,0-0.4-0.1
		c0.2-3,0.3-6.5,0.4-8.7l4.5-2.4c1.5-0.8,2.4-2.3,2.5-4c0.1-1.8,0.1-3.3,0.1-4.4v-1.7c0.3-3.3-1-6-3.5-7.1
		c-2.3-1.1-2.4-1.1-27.3,8.6c-11.4,4.4-22.8,9-22.9,9.1c0,0-0.1,0-0.1,0.1c0,0-1.6,0.7-3.5,0.8s-9-0.2-13.1-0.4
		c-4.5-0.5-6.8,1.8-7.4,4.1c-0.1,0.5-0.2,1.1-0.4,2.7c-0.2,2.7-0.4,7-0.4,7.2c0,0,0,0,0,0.1l-2.7-0.9c-0.6-0.2-7.2-2.7-12.1-6.4
		C-13.9-39-27.3-41.5-35.8-41.5c-1.9,0-3.7,0.1-5.6,0.3c-2.4,0.3-4.2,2.3-4.2,4.7v23.2c-0.1,1.7-1.5,1.9-2.3,2
		c-2.6,0-29.3,0.3-46.3,4.3c-0.2-1.8-0.7-3.6-2.4-5c-2.4-2.1-5.5-1.7-7.6-1.3c-0.2,0-0.5,0.1-0.8,0.2l0,0c-0.3,0.1-0.6,0.2-0.9,0.3
		h-0.1c-0.3,0.1-0.6,0.2-0.9,0.3h-0.1c-0.3,0.1-0.6,0.3-0.9,0.4c0,0-0.1,0-0.1,0.1c-0.3,0.1-0.5,0.3-0.8,0.4l-0.2,0.1
		c-0.3,0.1-0.5,0.3-0.8,0.5l-0.2,0.1c-0.2,0.2-0.5,0.3-0.7,0.5l-0.1,0.1c-0.2,0.2-0.4,0.3-0.6,0.5l-0.3,0.2
		c-0.2,0.2-0.4,0.3-0.6,0.5c-0.1,0.1-0.2,0.2-0.3,0.3c-0.2,0.2-0.3,0.3-0.5,0.5c-0.1,0.1-0.2,0.2-0.3,0.3l-0.1,0.1
		c-0.1,0.2-0.3,0.3-0.4,0.5l0,0c-6.2,1.4-25.5,7-44.1,22.4c-0.1,0-0.1,0.1-0.2,0.1c-0.2,0.2-0.3,0.3-0.5,0.5l-0.2,0.2
		c-0.5,0.4-1,0.9-1.5,1.3c-0.3,0.3-0.6,0.5-0.9,0.8l-0.6,0.6c-0.1,0.1-0.2,0.2-0.3,0.3c-0.9,0.8-1.8,1.7-2.6,2.6
		c-0.1,0.1-0.1,0.1-0.2,0.2l-0.3,0.3c-0.3,0.3-0.5,0.5-0.8,0.8l-0.2,0.2c-0.1,0.1-0.3,0.3-0.4,0.4c-0.1,0.1-0.1,0.2-0.2,0.3
		c-1.2,1.3-2.2,2.5-3.2,3.7c-1.4,1.2-2.7,2.4-3.9,3.6c-0.1,0.1-0.1,0.1-0.2,0.2c-1,1.1-5.7,6.6-3.3,12.3
		C-175.1,48.3-169.4,49.1-166.2,48.7z"/>
	<path class="st13" d="M39-13.1h-0.1H39L39-13.1z M-166.6,48.3h20.3c0.3,0.5,0.7,0.9,1,1.4l0.1,0.1c0.8,1,1.7,2,2.6,2.9l0.1,0.1
		c0.4,0.4,0.9,0.8,1.3,1.2l0.1,0.1c0.5,0.4,1,0.8,1.5,1.2c0,0,0.1,0,0.1,0.1c0.5,0.3,1,0.7,1.5,1l0.1,0.1l0.2,0.1
		c1,0.7,2.2,1.3,3.3,1.8l0.4,0.2c0.5,0.2,1,0.4,1.5,0.6l0.2,0.1c0.6,0.2,1.2,0.4,1.7,0.6l0.4,0.1c0.5,0.1,1,0.3,1.5,0.4l0.4,0.1
		c0.6,0.1,1.2,0.2,1.8,0.3h0.3c0.5,0.1,1,0.1,1.6,0.2h0.5c0.6,0,1.3,0.1,1.9,0.1c9.7,0,18.7-4.8,24.2-12.7H3.4
		c0.1,0.1,0.2,0.2,0.2,0.3l0.2,0.2C4.7,50,5.6,51,6.6,52l0.2,0.2c0.5,0.4,0.9,0.9,1.4,1.3l0.1,0.1c0.5,0.4,1.1,0.9,1.6,1.3l0.2,0.1
		c0.5,0.4,1,0.7,1.5,1l0.3,0.2c1.1,0.7,2.3,1.4,3.5,1.9l0.4,0.2c0.5,0.2,1.1,0.5,1.7,0.7l0.2,0.1c0.6,0.2,1.2,0.4,1.9,0.6l0.4,0.1
		c0.5,0.1,1.1,0.3,1.6,0.4l0.5,0.1c0.7,0.1,1.3,0.3,2,0.4l0.4,0.1c0.6,0.1,1.1,0.1,1.7,0.2c0.2,0,0.4,0,0.6,0
		c0.8,0.1,1.5,0.1,2.1,0.1c10.1,0,19.5-4.7,25.5-12.7h11.1c13,0.5,16.1-1.9,17.2-3.3c1.2-1.3,2.3-3.6,2.1-7.9v-3.9
		c0-2.7-1.5-5.6-4.4-7L70.1,1.4C70,1.3,70,1.1,69.9,1c-0.3-0.6-1.7-3-5.2-5.1l1.6-7l17.1,1.3c0.1,0,0.1,0,0.2,0
		c5.1,0.2,8.6-2,9.3-5.6c0.1-0.5,0.2-1.1,0.3-3.1c0-0.5,0-1.1-0.2-1.6c-0.8-3-3.4-4.5-5.9-4.5H87c-0.1,0-0.3,0-0.4-0.1
		c0.2-3,0.3-6.5,0.4-8.7l4.5-2.4c1.5-0.8,2.4-2.3,2.5-4c0.1-1.8,0.1-3.3,0.1-4.4v-1.7c0.3-3.3-1-6-3.5-7.1
		c-2.3-1.1-2.4-1.1-27.3,8.6c-11.4,4.4-22.8,9-22.9,9.1c0,0-0.1,0-0.1,0.1c0,0-1.6,0.7-3.5,0.8s-9-0.2-13.1-0.4
		c-4.5-0.5-6.8,1.8-7.4,4.1c-0.1,0.5-0.2,1.1-0.4,2.7c-0.2,2.7-0.4,7-0.4,7.2c0,0,0,0,0,0.1l-2.7-0.9c-0.6-0.2-7.2-2.7-12.1-6.4
		c-15.2-11.4-28.6-13.9-37.1-13.9c-1.9,0-3.7,0.1-5.6,0.3c-2.4,0.3-4.2,2.3-4.2,4.7v23.2c-0.1,1.7-1.5,1.9-2.3,2
		c-2.6,0-29.3,0.3-46.3,4.3c-0.2-1.8-0.7-3.6-2.4-5c-2.4-2.1-5.5-1.7-7.6-1.3c-0.2,0-0.5,0.1-0.8,0.2l0,0c-0.3,0.1-0.6,0.2-0.9,0.3
		h-0.1c-0.3,0.1-0.6,0.2-0.9,0.3h-0.1c-0.3,0.1-0.6,0.3-0.9,0.4c0,0-0.1,0-0.1,0.1c-0.3,0.1-0.5,0.3-0.8,0.4l-0.2,0.1
		c-0.3,0.1-0.5,0.3-0.8,0.5l0.1,0c-0.2,0.2-0.5,0.3-0.7,0.5l-0.3,0.2c-0.2,0.2-0.4,0.3-0.6,0.5l-0.3,0.2c-0.2,0.2-0.4,0.3-0.6,0.5
		c-0.1,0.1-0.2,0.2-0.3,0.3c-0.2,0.2-0.3,0.3-0.5,0.5c-0.1,0.1-0.2,0.2-0.3,0.3l-0.1,0.1c-0.1,0.2-0.3,0.3-0.4,0.5l0,0
		c-6,1.5-25.3,7.1-43.9,22.5c-0.1,0-0.1,0.1-0.2,0.1c-0.2,0.2-0.3,0.3-0.5,0.5l-0.2,0.2c-0.5,0.4-1,0.9-1.5,1.3
		c-0.3,0.3-0.6,0.5-0.9,0.8l-0.6,0.6c-0.1,0.1-0.2,0.2-0.3,0.3c-0.9,0.8-1.8,1.7-2.6,2.6c-0.1,0.1-0.1,0.1-0.2,0.2l-0.3,0.3
		c-0.3,0.3-0.5,0.5-0.8,0.8l-0.2,0.2c-0.1,0.1-0.3,0.3-0.4,0.4c-0.1,0.1-0.1,0.2-0.2,0.3c-1.1,1.2-2.2,2.4-3.1,3.6
		c-1.4,1.2-2.7,2.4-3.9,3.6c-0.1,0.1-0.1,0.1-0.2,0.2c-1,1.1-5.7,6.6-3.3,12.3C-175.5,47.9-169.9,48.6-166.6,48.3z"/>
	<path class="st14" d="M38.6-13.5h-0.1H38.6L38.6-13.5z M-167,47.9h20.3c0.3,0.5,0.7,0.9,1,1.4l0.1,0.1c0.8,1,1.7,2,2.6,2.9l0.1,0.1
		c0.4,0.4,0.9,0.8,1.3,1.2l0.1,0.1c0.5,0.4,1,0.8,1.5,1.2c0,0,0.1,0,0.1,0.1c0.5,0.3,1,0.7,1.5,1l0.1,0.1l0.2,0.1
		c1,0.7,2.2,1.3,3.3,1.8l0.4,0.2c0.5,0.2,1,0.4,1.5,0.6l0.2,0.1c0.6,0.2,1.2,0.4,1.7,0.6l0.4,0.1c0.5,0.1,1,0.3,1.5,0.4l0.4,0.1
		c0.6,0.1,1.2,0.2,1.8,0.3h0.3c0.5,0.1,1,0.1,1.6,0.2h0.5c0.6,0,1.3,0.1,1.9,0.1c9.7,0,18.7-4.8,24.2-12.7H3
		c0.1,0.1,0.2,0.2,0.2,0.3l0.2,0.2c0.9,1.1,1.8,2.1,2.8,3.1l0.2,0.2c0.5,0.4,0.9,0.9,1.4,1.3l0.1,0.1c0.5,0.4,1.1,0.9,1.6,1.3
		l0.2,0.1c0.5,0.4,1,0.7,1.5,1l0.3,0.2c1.1,0.7,2.3,1.4,3.5,1.9l0.4,0.2c0.5,0.2,1.1,0.5,1.7,0.7l0.2,0.1c0.6,0.2,1.2,0.4,1.9,0.6
		l0.4,0.1c0.5,0.1,1.1,0.3,1.6,0.4l0.5,0.1c0.7,0.1,1.3,0.3,2,0.4l0.4,0.1c0.6,0.1,1.1,0.1,1.7,0.2c0.2,0,0.4,0,0.6,0
		c0.8,0.1,1.5,0.1,2.1,0.1C38.6,60.7,48,56,54,48h11.1c13,0.5,16.1-1.9,17.2-3.3c1.2-1.3,2.3-3.6,2.1-7.9v-3.9c0-2.7-1.5-5.6-4.4-7
		L69.7,1c-0.1-0.1-0.1-0.3-0.2-0.4c-0.3-0.6-1.7-3-5.2-5.1l1.6-7L83-10.2c0.1,0,0.1,0,0.2,0c5.1,0.2,8.6-2,9.3-5.6
		c0.1-0.5,0.2-1.1,0.3-3.1c0-0.5,0-1.1-0.2-1.6c-0.8-3-3.4-4.5-5.9-4.5h-0.1c-0.1,0-0.3,0-0.4-0.1c0.2-3,0.3-6.5,0.4-8.7l4.5-2.4
		c1.5-0.8,2.4-2.3,2.5-4c0.1-1.8,0.1-3.3,0.1-4.4v-1.7c0.3-3.3-1-6-3.5-7.1c-2.3-1.1-2.4-1.1-27.3,8.6c-11.4,4.4-22.8,9-22.9,9.1
		c0,0-0.1,0-0.2,0.1c0,0-1.6,0.7-3.5,0.8s-9-0.2-13.1-0.4c-4.5-0.5-6.8,1.8-7.4,4.1c-0.1,0.5-0.2,1.1-0.4,2.7
		c-0.2,2.7-0.4,7-0.4,7.2c0,0,0,0,0,0.1L12.3-22c-0.6-0.2-7.2-2.7-12.1-6.4C-15-39.8-28.4-42.3-36.9-42.3c-1.9,0-3.7,0.1-5.6,0.3
		c-2.4,0.3-4.2,2.3-4.2,4.7v23.2c-0.1,1.7-1.5,1.9-2.3,2c-2.6,0-29.3,0.3-46.3,4.3c-0.2-1.8-0.7-3.6-2.4-5c-2.4-2.1-5.5-1.7-7.6-1.3
		c-0.2,0-0.5,0.1-0.8,0.2l0,0c-0.3,0.1-0.6,0.2-0.9,0.3h-0.1c-0.3,0.1-0.6,0.2-0.9,0.3h-0.1c-0.3,0.1-0.6,0.3-0.9,0.4
		c0,0-0.1,0-0.1,0.1c-0.3,0.1-0.5,0.3-0.8,0.4l-0.2,0.1c-0.3,0.1-0.5,0.3-0.8,0.5l-0.2,0.1c-0.2,0.2-0.5,0.3-0.7,0.5l-0.3,0.2
		c-0.2,0.2-0.4,0.3-0.6,0.5l-0.3,0.2c-0.2,0.2-0.4,0.3-0.6,0.5c-0.1,0.1-0.2,0.2-0.3,0.3c-0.2,0.2-0.3,0.3-0.5,0.5
		c-0.1,0.1-0.2,0.2-0.3,0.3l-0.1,0.1c-0.1,0.2-0.3,0.3-0.4,0.5l0,0c-6.2,1.4-25.5,7-44.1,22.4c-0.1,0-0.1,0.1-0.2,0.1
		c-0.2,0.2-0.3,0.3-0.5,0.5l-0.2,0.2c-0.5,0.4-1,0.9-1.5,1.3c-0.3,0.3-0.6,0.5-0.9,0.8l-0.6,0.6c-0.1,0.1-0.2,0.2-0.3,0.3
		c-0.9,0.8-1.8,1.7-2.6,2.6c-0.1,0.1-0.1,0.1-0.2,0.2l-0.3,0.3c-0.3,0.3-0.5,0.5-0.8,0.8l-0.2,0.2c-0.1,0.1-0.3,0.3-0.4,0.4
		c-0.1,0.1-0.1,0.2-0.2,0.3c-1.2,1.3-2.2,2.5-3.2,3.7c-1.4,1.2-2.7,2.4-3.9,3.6c-0.1,0.1-0.1,0.1-0.2,0.2c-1,1.1-5.7,6.6-3.3,12.3
		C-175.9,47.4-170.3,48.2-167,47.9z"/>
	<path class="st15" d="M38.2-13.9h-0.1H38.2L38.2-13.9z M-167.4,47.5h20.3c0.3,0.5,0.7,0.9,1,1.4l0.1,0.1c0.8,1,1.7,2,2.6,2.9
		l0.1,0.1c0.4,0.4,0.9,0.8,1.3,1.2l0.1,0.1c0.5,0.4,1,0.8,1.5,1.2c0,0,0.1,0,0.1,0.1c0.5,0.3,1,0.7,1.5,1l0.1,0.1l0.2,0.1
		c1,0.7,2.2,1.3,3.3,1.8l0.4,0.2c0.5,0.2,1,0.4,1.5,0.6l0.2,0.1c0.6,0.2,1.2,0.4,1.7,0.6l0.4,0.1c0.5,0.1,1,0.3,1.5,0.4l0.4,0.1
		c0.6,0.1,1.2,0.2,1.8,0.3h0.3c0.5,0.1,1,0.1,1.6,0.2h0.5c0.6,0,1.3,0.1,1.9,0.1c9.7,0,18.7-4.8,24.2-12.7H2.6
		c0.1,0.1,0.2,0.2,0.2,0.3L3,48.1c0.9,1.1,1.8,2.1,2.8,3.1L6,51.4c0.5,0.4,0.9,0.9,1.4,1.3l0.1,0.1c0.5,0.4,1.1,0.9,1.6,1.3l0.2,0.1
		c0.5,0.4,1,0.7,1.5,1l0.3,0.2c1.1,0.7,2.3,1.4,3.5,1.9l0.4,0.2c0.5,0.2,1.1,0.5,1.7,0.7l0.2,0.1c0.6,0.2,1.2,0.4,1.9,0.6l0.4,0.1
		c0.5,0.1,1.1,0.3,1.6,0.4l0.5,0.1c0.7,0.1,1.3,0.3,2,0.4l0.4,0.1c0.6,0.1,1.1,0.1,1.7,0.2c0.2,0,0.4,0,0.6,0
		c0.8,0.1,1.5,0.1,2.1,0.1c10.1,0,19.5-4.7,25.5-12.7h11.1c13,0.5,16.1-1.9,17.2-3.3c1.2-1.3,2.3-3.6,2.1-7.9v-3.9
		c0-2.7-1.5-5.6-4.4-7L69.3,0.6c-0.1-0.1-0.1-0.3-0.2-0.4c-0.3-0.6-1.7-3-5.2-5.1l1.6-7l17.1,1.3c0.1,0,0.1,0,0.2,0
		c5.1,0.2,8.6-2,9.3-5.6c0.1-0.5,0.2-1.1,0.3-3.1c0-0.5,0-1.1-0.2-1.6c-0.8-3-3.4-4.5-5.9-4.5h-0.1c-0.1,0-0.3,0-0.4-0.1
		c0.2-3,0.3-6.5,0.4-8.7l4.5-2.4c1.5-0.8,2.4-2.3,2.5-4c0.1-1.8,0.1-3.3,0.1-4.4v-1.7c0.3-3.3-1-6-3.5-7.1
		c-2.3-1.1-2.4-1.1-27.3,8.6c-11.4,4.4-22.8,9-22.9,9.1c0,0-0.1,0-0.1,0.1c0,0-1.6,0.7-3.5,0.8s-9-0.2-13.1-0.4
		c-4.5-0.5-6.8,1.8-7.4,4.1c-0.1,0.5-0.2,1.1-0.4,2.7c-0.2,2.7-0.4,7-0.4,7.2c0,0,0,0,0,0.1L12-22.4c-0.6-0.2-7.2-2.7-12.1-6.4
		c-15.2-11.4-28.6-13.9-37.1-13.9c-1.9,0-3.7,0.1-5.6,0.3c-2.4,0.3-4.2,2.3-4.2,4.7v23.2c-0.1,1.7-1.5,1.9-2.3,2
		c-2.6,0-29.3,0.3-46.3,4.3c-0.2-1.8-0.7-3.6-2.4-5c-2.4-2.1-5.5-1.7-7.6-1.3c-0.2,0-0.5,0.1-0.8,0.2l0,0c-0.3,0.1-0.6,0.2-0.9,0.3
		h-0.1c-0.3,0.1-0.6,0.2-0.9,0.3h-0.1c-0.3,0.1-0.6,0.3-0.9,0.4c0,0-0.1,0-0.1,0.1c-0.3,0.1-0.5,0.3-0.8,0.4l-0.2,0.1
		c-0.3,0.1-0.5,0.3-0.8,0.5l-0.2,0.1c-0.2,0.2-0.5,0.3-0.7,0.5l-0.3,0.2c-0.2,0.2-0.4,0.3-0.6,0.5l-0.3,0.2
		c-0.2,0.2-0.4,0.3-0.6,0.5c-0.1,0.1-0.2,0.2-0.3,0.3c-0.2,0.2-0.3,0.3-0.5,0.5c-0.1,0.1-0.2,0.2-0.3,0.3l-0.1,0.1
		c-0.1,0.2-0.3,0.3-0.4,0.5l0,0c-6.2,1.4-25.5,7-44.1,22.4c-0.1,0-0.1,0.1-0.2,0.1c-0.2,0.2-0.3,0.3-0.5,0.5l0.2,0.2
		c-0.5,0.4-1,0.9-1.5,1.3c-0.3,0.3-0.6,0.5-0.9,0.8l-0.6,0.6c-0.1,0.1-0.2,0.2-0.3,0.3c-0.9,0.8-1.8,1.7-2.6,2.6
		c-0.1,0.1-0.1,0.1-0.2,0.2l-0.2,0.2c-0.3,0.3-0.5,0.5-0.8,0.8l-0.1,0.2c-0.1,0.1-0.3,0.3-0.4,0.4c-0.1,0.1-0.1,0.2-0.2,0.3
		c-1.2,1.3-2.2,2.5-3.2,3.7c-1.4,1.2-2.7,2.4-3.9,3.6c-0.1,0.1-0.1,0.1-0.2,0.2c-1,1.1-5.7,6.6-3.3,12.3
		C-176.3,47-170.7,47.8-167.4,47.5z"/>
	<path class="st16" d="M37.8-14.3h-0.1H37.8L37.8-14.3z M-167.9,47.1h20.3c0.3,0.5,0.7,0.9,1,1.4l0.1,0.1c0.8,1,1.7,2,2.6,2.9
		l0.1,0.1c0.4,0.4,0.9,0.8,1.3,1.2l0.1,0.1c0.5,0.4,1,0.8,1.5,1.2c0,0,0.1,0,0.1,0.1c0.5,0.3,1,0.7,1.5,1l0.1,0.1l0.2,0.1
		c1,0.7,2.2,1.3,3.3,1.8l0.4,0.2c0.5,0.2,1,0.4,1.5,0.6l0.2,0.1c0.6,0.2,1.2,0.4,1.7,0.6l0.4,0.1c0.5,0.1,1,0.3,1.5,0.4l0.4,0.1
		c0.6,0.1,1.2,0.2,1.8,0.3h0.3c0.5,0.1,1,0.1,1.6,0.2h0.5c0.6,0,1.3,0.1,1.9,0.1c9.7,0,18.7-4.8,24.2-12.7H2.1
		c0.1,0.1,0.2,0.2,0.2,0.3l0.2,0.2c0.9,1.1,1.8,2.1,2.8,3.1L5.5,51c0.5,0.4,0.9,0.9,1.4,1.3L7,52.4c0.5,0.4,1.1,0.9,1.6,1.3l0.2,0.1
		c0.5,0.4,1,0.7,1.5,1l0.3,0.2c1.1,0.7,2.3,1.4,3.5,1.9l0.4,0.2c0.5,0.2,1.1,0.5,1.7,0.7l0.2,0.1c0.6,0.2,1.2,0.4,1.9,0.6l0.4,0.1
		c0.5,0.1,1.1,0.3,1.6,0.4l0.5,0.1c0.7,0.1,1.3,0.3,2,0.4l0.4,0.1c0.6,0.1,1.1,0.1,1.7,0.2c0.2,0,0.4,0,0.6,0
		c0.8,0.1,1.5,0.1,2.1,0.1c10.1,0,19.5-4.7,25.5-12.7h11.1c13,0.5,16.1-1.9,17.2-3.3c1.2-1.3,2.3-3.6,2.1-7.9v-3.9
		c0-2.7-1.5-5.6-4.4-7L68.8,0.2c-0.1-0.1-0.1-0.3-0.2-0.4c-0.3-0.6-1.7-3-5.2-5.1l1.6-7L82.1-11c0.1,0,0.1,0,0.2,0
		c5.1,0.2,8.6-2,9.3-5.6c0.1-0.5,0.2-1.1,0.3-3.1c0-0.5,0-1.1-0.2-1.6c-0.8-3-3.4-4.5-5.9-4.5h-0.1c-0.1,0-0.3,0-0.4-0.1
		c0.2-3,0.3-6.5,0.4-8.7l4.5-2.4c1.5-0.8,2.4-2.3,2.5-4c0.1-1.8,0.1-3.3,0.1-4.4v-1.7c0.3-3.3-1-6-3.5-7.1
		c-2.3-1.1-2.4-1.1-27.3,8.6c-11.4,4.4-22.8,9-22.9,9.1c0,0-0.1,0-0.1,0.1c0,0-1.6,0.7-3.5,0.8s-9-0.2-13.1-0.4
		c-4.5-0.5-6.8,1.8-7.4,4.1c-0.1,0.5-0.2,1.1-0.4,2.7c-0.2,2.7-0.4,7-0.4,7.2c0,0,0,0,0,0.1l-2.7-0.9c-0.6-0.2-7.2-2.7-12.1-6.4
		c-15.1-11.6-28.5-14.1-37-14.1c-1.9,0-3.7,0.1-5.6,0.3c-2.4,0.3-4.2,2.3-4.2,4.7v23.2c-0.1,1.7-1.5,1.9-2.3,2
		c-2.6,0-29.3,0.3-46.3,4.3c-0.2-1.8-0.7-3.6-2.4-5c-2.4-2.1-5.5-1.7-7.6-1.3c-0.2,0-0.5,0.1-0.8,0.2l0,0c-0.3,0.1-0.6,0.2-0.9,0.3
		h-0.1c-0.3,0.1-0.6,0.2-0.9,0.3h-0.1c-0.3,0.1-0.6,0.3-0.9,0.4c0,0-0.1,0-0.1,0.1c-0.3,0.1-0.5,0.3-0.8,0.4l-0.2,0.1
		c-0.3,0.1-0.5,0.3-0.8,0.5l-0.2,0.1c-0.2,0.2-0.5,0.3-0.7,0.5l-0.3,0.2c-0.2,0.2-0.4,0.3-0.6,0.5l-0.3,0.2
		c-0.2,0.2-0.4,0.3-0.6,0.5c-0.1,0.1-0.2,0.2-0.3,0.3c-0.2,0.2-0.3,0.3-0.5,0.5c-0.1,0.1-0.2,0.2-0.3,0.3l-0.1,0.1
		c-0.1,0.2-0.3,0.3-0.4,0.5l0,0c-6.2,1.4-25.5,7-44.1,22.4c-0.1,0-0.1,0.1-0.2,0.1c-0.2,0.2-0.3,0.3-0.5,0.5l-0.2,0.2
		c-0.5,0.4-1,0.9-1.5,1.3c-0.3,0.3-0.6,0.5-0.9,0.8l-0.6,0.6c-0.1,0.1-0.2,0.2-0.3,0.3c-0.9,0.8-1.8,1.7-2.6,2.6
		c-0.1,0.1-0.1,0.1-0.2,0.2l-0.3,0.3c-0.3,0.3-0.5,0.5-0.8,0.8l-0.2,0.2c-0.1,0.1-0.3,0.3-0.4,0.4c-0.1,0.1-0.1,0.2-0.2,0.3
		c-1.2,1.3-2.2,2.5-3.2,3.7c-1.4,1.2-2.7,2.4-3.9,3.6c-0.1,0.1-0.1,0.1-0.2,0.2c-1,1.1-5.7,6.6-3.3,12.3
		C-176.7,46.6-171.1,47.4-167.9,47.1z"/>
	<path class="st17" d="M37.4-14.8h-0.1H37.4L37.4-14.8z M-168.3,46.6h20.3c0.3,0.5,0.7,0.9,1,1.4l0.1,0.1c0.8,1,1.7,2,2.6,2.9
		l0.1,0.1c0.4,0.4,0.9,0.8,1.3,1.2l0.1,0.1c0.5,0.4,1,0.8,1.5,1.2c0,0,0.1,0,0.1,0.1c0.5,0.3,1,0.7,1.5,1l0.1,0.1l0.2,0.1
		c1,0.7,2.2,1.3,3.3,1.8l0.4,0.2c0.5,0.2,1,0.4,1.5,0.6l0.2,0.1c0.6,0.2,1.2,0.4,1.7,0.6l0.4,0.1c0.5,0.1,1,0.3,1.5,0.4l0.4,0.1
		c0.6,0.1,1.2,0.2,1.8,0.3h0.3c0.5,0.1,1,0.1,1.6,0.2h0.5c0.6,0,1.3,0.1,1.9,0.1c9.7,0,18.7-4.8,24.2-12.7H1.7
		c0.1,0.1,0.2,0.2,0.2,0.3l0.2,0.2c0.9,1.1,1.8,2.1,2.8,3.1l0.2,0.2c0.5,0.4,0.9,0.9,1.4,1.3l0.1,0.1c0.5,0.4,1.1,0.9,1.6,1.3
		l0.2,0.1c0.5,0.4,1,0.7,1.5,1l0.3,0.2c1.1,0.7,2.3,1.4,3.5,1.9l0.4,0.2c0.5,0.2,1.1,0.5,1.7,0.7l0.2,0.1c0.6,0.2,1.2,0.4,1.9,0.6
		l0.4,0.1c0.5,0.1,1.1,0.3,1.6,0.4l0.5,0.1c0.7,0.1,1.3,0.3,2,0.4l0.4,0.1c0.6,0.1,1.1,0.1,1.7,0.2c0.2,0,0.4,0,0.6,0
		c0.8,0.1,1.5,0.1,2.1,0.1c10.1,0,19.5-4.7,25.5-12.7h11.1c13,0.5,16.1-1.9,17.2-3.3c1.2-1.3,2.3-3.6,2.1-7.9v-3.9
		c0-2.7-1.5-5.6-4.4-7L68.6-0.3c-0.1-0.1-0.1-0.3-0.2-0.4c-0.3-0.6-1.7-3-5.2-5.1l1.6-7l17.1,1.3c0.1,0,0.1,0,0.2,0
		c5.1,0.2,8.6-2,9.3-5.6c0.1-0.5,0.2-1.1,0.3-3.1c0-0.5,0-1.1-0.2-1.6c-0.8-3-3.4-4.5-5.9-4.5h-0.1c-0.1,0-0.3,0-0.4-0.1
		c0.2-3,0.3-6.5,0.4-8.7l4.5-2.4c1.5-0.8,2.4-2.3,2.5-4c0.1-1.8,0.1-3.3,0.1-4.4v-1.7c0.3-3.3-1-6-3.5-7.1
		c-2.3-1.1-2.4-1.1-27.3,8.6c-11.4,4.4-22.8,9-22.9,9.1c0,0-0.1,0-0.1,0.1c0,0-1.6,0.7-3.5,0.8s-9-0.2-13.1-0.4
		c-4.5-0.5-6.8,1.8-7.4,4.1c-0.1,0.5-0.2,1.1-0.4,2.7c-0.2,2.7-0.4,7-0.4,7.2c0,0,0,0,0,0.1l-2.7-0.9c-0.6-0.2-7.2-2.7-12.1-6.4
		C-16-41.1-29.4-43.6-37.9-43.6c-1.9,0-3.7,0.1-5.6,0.3c-2.4,0.3-4.2,2.3-4.2,4.7v23.2c-0.1,1.7-1.5,1.9-2.3,2
		c-2.6,0-29.3,0.3-46.3,4.3c-0.2-1.8-0.7-3.6-2.4-5c-2.4-2.1-5.5-1.7-7.6-1.3c-0.2,0-0.5,0.1-0.8,0.2l0,0c-0.3,0.1-0.6,0.2-0.9,0.3
		h-0.1c-0.3,0.1-0.6,0.2-0.9,0.3h-0.1c-0.3,0.1-0.6,0.3-0.9,0.4c0,0-0.1,0-0.1,0.1c-0.3,0.1-0.5,0.3-0.8,0.4l-0.2,0.1
		c-0.3,0.1-0.5,0.3-0.8,0.5l-0.2,0.1c-0.2,0.2-0.5,0.3-0.7,0.5l-0.3,0.2c-0.2,0.2-0.4,0.3-0.6,0.5l-0.3,0.2
		c-0.2,0.2-0.4,0.3-0.6,0.5c-0.1,0.1-0.2,0.2-0.3,0.3c-0.2,0.2-0.3,0.3-0.5,0.5c-0.1,0.1-0.2,0.2-0.3,0.3l-0.1,0.1
		c-0.1,0.2-0.3,0.3-0.4,0.5l0,0c-6.2,1.4-25.7,6.7-44.1,22.4c-0.1,0-0.1,0.1-0.2,0.1c-0.2,0.1-0.3,0.3-0.5,0.5l-0.2,0.2
		c-0.5,0.4-1,0.9-1.5,1.3c-0.3,0.3-0.6,0.5-0.9,0.8l-0.6,0.6c-0.1,0.1-0.2,0.2-0.3,0.3c-0.9,0.8-1.8,1.7-2.6,2.6
		c-0.1,0.1-0.1,0.1-0.2,0.2l-0.3,0.3c-0.3,0.3-0.5,0.5-0.8,0.8l-0.2,0.2c-0.1,0.1-0.3,0.3-0.4,0.4c-0.1,0.1-0.1,0.2-0.2,0.3
		c-1.2,1.3-2.2,2.5-3.2,3.7c-1.4,1.2-2.7,2.4-3.9,3.6c-0.1,0.1-0.1,0.1-0.2,0.2c-1,1.1-5.7,6.6-3.3,12.3
		C-177.1,46.2-171.5,47-168.3,46.6z"/>
</g>
<path class="st18" d="M-168.3,46.6h20.3c0.3,0.5,0.7,0.9,1,1.4l0.1,0.1c0.8,1,1.7,2,2.6,2.9l0.1,0.1c0.4,0.4,0.9,0.8,1.3,1.2
	l0.1,0.1c0.5,0.4,1,0.8,1.5,1.2c0,0,0.1,0,0.1,0.1c0.5,0.3,1,0.7,1.5,1l0.1,0.1l0.2,0.1c1,0.7,2.2,1.3,3.3,1.8l0.4,0.2
	c0.5,0.2,1,0.4,1.5,0.6l0.2,0.1c0.6,0.2,1.2,0.4,1.7,0.6l0.4,0.1c0.5,0.1,1,0.3,1.5,0.4l0.4,0.1c0.6,0.1,1.2,0.2,1.8,0.3h0.3
	c0.5,0.1,1,0.1,1.6,0.2h0.5c0.6,0,1.3,0.1,1.9,0.1c9.7,0,18.7-4.8,24.2-12.7H1.7c0.1,0.1,0.2,0.2,0.2,0.3l0.2,0.2
	c0.9,1.1,1.8,2.1,2.8,3.1l0.2,0.2c0.5,0.4,0.9,0.9,1.4,1.3l0.1,0.1c0.5,0.4,1.1,0.9,1.6,1.3l0.2,0.1c0.5,0.4,1,0.7,1.5,1l0.3,0.2
	c1.1,0.7,2.3,1.4,3.5,1.9l0.4,0.2c0.5,0.2,1.1,0.5,1.7,0.7l0.2,0.1c0.6,0.2,1.2,0.4,1.9,0.6l0.4,0.1c0.5,0.1,1.1,0.3,1.6,0.4
	l0.5,0.1c0.7,0.1,1.3,0.3,2,0.4l0.4,0.1c0.6,0.1,1.1,0.1,1.7,0.2c0.2,0,0.4,0,0.6,0c0.8,0.1,1.5,0.1,2.1,0.1
	c10.1,0,19.5-4.7,25.5-12.7h11.1c13,0.5,16.1-1.9,17.2-3.3c1.2-1.3,2.3-3.6,2.1-7.9v-3.9c0-2.7-1.5-5.6-4.4-7L68.6-0.3
	c-0.1-0.1-0.1-0.3-0.2-0.4c-0.3-0.6-1.7-3-5.2-5.1l1.6-7l17.1,1.3c0.1,0,0.1,0,0.2,0c5.1,0.2,8.6-2,9.3-5.6c0.1-0.5,0.2-1.1,0.3-3.1
	c0-0.5,0-1.1-0.2-1.6c-0.8-3-3.4-4.5-5.9-4.5h-0.1c-0.1,0-0.3,0-0.4-0.1c0.2-3,0.3-6.5,0.4-8.7l4.5-2.4c1.5-0.8,2.4-2.3,2.5-4
	c0.1-1.8,0.1-3.3,0.1-4.4v-1.7c0.3-3.3-1-6-3.5-7.1c-2.3-1.1-2.4-1.1-27.3,8.6c-11.4,4.4-22.8,9-22.9,9.1c0,0-0.1,0-0.1,0.1
	c0,0-1.6,0.7-3.5,0.8s-9-0.2-13.1-0.4c-4.5-0.5-6.8,1.8-7.4,4.1c-0.1,0.5-0.2,1.1-0.4,2.7c-0.2,2.7-0.4,7-0.4,7.2c0,0,0,0,0,0.1
	l-2.7-0.9c-0.6-0.2-7.2-2.7-12.1-6.4C-16-41.1-29.4-43.6-37.9-43.6c-1.9,0-3.7,0.1-5.6,0.3c-2.4,0.3-4.2,2.3-4.2,4.7v23.2
	c-0.1,1.7-1.5,1.9-2.3,2c-2.6,0-29.3,0.3-46.3,4.3c-0.2-1.8-0.7-3.6-2.4-5c-2.4-2.1-5.5-1.7-7.6-1.3c-0.2,0-0.5,0.1-0.8,0.2l0,0
	c-0.3,0.1-0.6,0.2-0.9,0.3h-0.1c-0.3,0.1-0.6,0.2-0.9,0.3h-0.1c-0.3,0.1-0.6,0.3-0.9,0.4c0,0-0.1,0-0.1,0.1
	c-0.3,0.1-0.5,0.3-0.8,0.4l-0.2,0.1c-0.3,0.1-0.5,0.3-0.8,0.5l-0.2,0.1c-0.2,0.2-0.5,0.3-0.7,0.5l-0.3,0.2c-0.2,0.2-0.4,0.3-0.6,0.5
	l-0.3,0.2c-0.2,0.2-0.4,0.3-0.6,0.5c-0.1,0.1-0.2,0.2-0.3,0.3c-0.2,0.2-0.3,0.3-0.5,0.5c-0.1,0.1-0.2,0.2-0.3,0.3l-0.1,0.1
	c-0.1,0.2-0.3,0.3-0.4,0.5l0,0c-6.2,1.4-25.7,6.7-44.1,22.4c-0.1,0-0.1,0.1-0.2,0.1c-0.2,0.1-0.3,0.3-0.5,0.5l-0.2,0.2
	c-0.5,0.4-1,0.9-1.5,1.3c-0.3,0.3-0.6,0.5-0.9,0.8l-0.6,0.6c-0.1,0.1-0.2,0.2-0.3,0.3c-0.9,0.8-1.8,1.7-2.6,2.6
	c-0.1,0.1-0.1,0.1-0.2,0.2l-0.3,0.3c-0.3,0.3-0.5,0.5-0.8,0.8l-0.2,0.2c-0.1,0.1-0.3,0.3-0.4,0.4c-0.1,0.1-0.1,0.2-0.2,0.3
	c-1.2,1.3-2.2,2.5-3.2,3.7c-1.4,1.2-2.7,2.4-3.9,3.6c-0.1,0.1-0.1,0.1-0.2,0.2c-1,1.1-5.7,6.6-3.3,12.3
	C-177.1,46.2-171.5,47-168.3,46.6z M37.4-14.8h-0.1H37.4L37.4-14.8z"/>
<path class="st19" d="M56.1,30.1h15c0,0,4.7-0.3,5.4,1.7l-0.1,5.6c0,0-0.3,2.2-3.1,2.7c-2.8,0.5-20.1,0.3-20.1,0.3
	S56.1,37.6,56.1,30.1z"/>
<g>
	<ellipse class="st20" cx="27.3" cy="27.3" rx="27.3" ry="27.3"/>
	<path class="st21" d="M48.8,27.4c0,11.8-9.6,21.3-21.3,21.3c-11.8,0-21.3-9.6-21.3-21.3c0-11.8,9.6-21.3,21.3-21.3
		C39.2,6.1,48.8,15.6,48.8,27.4z"/>
	<path class="st22" d="M37.9,34.7c-7,0.4-14.5,0.3-21.2-1.9c-3.5-1.1-6.9-2.6-9.4-5.4c-0.4-0.5-0.8-0.9-1.2-1.4c0,0.5,0,0.9,0,1.4
		c0,11.8,9.6,21.3,21.3,21.3c9.7,0,17.9-6.5,20.5-15.4C44.6,34.1,41.2,34.5,37.9,34.7z"/>
	<g class="st23">
		<path class="st24" d="M28,0c0.5,0.1,0.9,0.2,1.4,0.3C60.8,6,55.9,44.7,34.9,50C17.1,54.5,5.8,42.9,2.8,39.3
			c4.5,9,13.7,15.2,24.5,15.2c15.1,0,27.3-12.2,27.3-27.3C54.6,12.5,42.8,0.4,28,0z"/>
	</g>
	<path class="st19" d="M29,1.4c-2-0.1-4.1,0.1-6,0.5c-1.6,0.3-3.2,0.8-4.7,1.4c-4.7,1.8-8.7,4.6-11.9,8.5c-2.1,2.6-3.8,6-4.4,9.3
		c0,0-2.2,11.2,3,19.3c0,0,0.7,1.2,0.9-0.2c0.2-1.4-8.5-23,10.8-33s31.5,7,32.3,14.2c0,0,0.2,1.8,0.9,1c0.3-0.3-0.1-1.9-0.2-2.2
		c-0.3-1.7-0.9-3.4-1.6-5C46,10.8,42.7,6.4,38.3,4C35.4,2.3,32.2,1.5,29,1.4z"/>
	<path class="st25" d="M44.3,27.1c0,9.4-7.6,17-16.9,17c-9.4,0-16.9-7.6-16.9-17s7.6-17,16.9-17S44.3,17.7,44.3,27.1z"/>
	<circle class="st26" cx="27.3" cy="27.3" r="16"/>
	<path class="st27" d="M40.6,27.5c0,7.4-6,13.3-13.3,13.3c-7.4,0-13.3-6-13.3-13.3c0-7.4,6-13.3,13.3-13.3
		C34.7,14.2,40.6,20.1,40.6,27.5z"/>
	<path class="st28" d="M32,27.4c0,2.8-2.2,5-5,5s-5-2.2-5-5s2.2-5,5-5C29.8,22.3,32,24.6,32,27.4z"/>
	<path class="st29" d="M27.3,23.1c0,0-4.9,0.7-4,5.1C24.2,32.7,31.1,21.8,27.3,23.1z"/>
	<g>
		<g>
			<path class="st30" d="M14.8,27h6.6c0.1-1.5,0.7-2.6,1.3-3.4L18.1,19C14.9,22.5,14.8,27,14.8,27z"/>
			<path class="st30" d="M26.6,21.5V15c-3.6,0.3-6.1,1.6-7.9,3.3l0,0l4.3,4.8C24.6,21.7,26.6,21.5,26.6,21.5z"/>
		</g>
		<g>
			<path class="st30" d="M39.7,27h-6.6c-0.1-1.5-0.7-2.6-1.3-3.4l4.6-4.6C39.6,22.5,39.7,27,39.7,27z"/>
			<path class="st30" d="M27.9,21.5V15c3.6,0.3,6.1,1.6,7.9,3.3l0,0l-4.3,4.8C29.9,21.7,27.9,21.5,27.9,21.5z"/>
		</g>
		<g>
			<path class="st30" d="M14.8,27.9h6.6c0.1,1.5,0.7,2.6,1.3,3.4l-4.6,4.6C14.9,32.4,14.8,27.9,14.8,27.9z"/>
			<path class="st30" d="M26.6,33.3v6.5c-3.6-0.3-6.1-1.6-7.9-3.3l0,0l4.3-4.8C24.6,33.2,26.6,33.3,26.6,33.3z"/>
		</g>
		<g>
			<path class="st30" d="M39.7,27.9h-6.6c-0.1,1.5-0.7,2.6-1.3,3.4l4.6,4.6C39.6,32.4,39.7,27.9,39.7,27.9z"/>
			<path class="st30" d="M27.9,33.3v6.5c3.6-0.3,6.1-1.6,7.9-3.3l0,0l-4.3-4.8C29.9,33.2,27.9,33.3,27.9,33.3z"/>
		</g>
	</g>
</g>
<g class="st0">
	<path class="st31" d="M-99.1,29.9c0,13.6-11.1,24.7-24.7,24.7s-24.7-11.1-24.7-24.7s11.1-24.7,24.7-24.7
		C-110.2,5.2-99.1,16.3-99.1,29.9z"/>
	<path class="st32" d="M-104.4,30c0,10.7-8.6,19.3-19.3,19.3S-143,40.7-143,30s8.6-19.3,19.3-19.3S-104.4,19.3-104.4,30z"/>
	<path class="st33" d="M-114.5,33.5c-9.4,1.6-23.1,1.4-28.1-7.5c-0.3,1.3-0.4,2.6-0.4,3.9c0,10.7,8.6,19.3,19.3,19.3
		c10.5,0,19.1-8.5,19.3-19C-107.6,31.9-111,32.9-114.5,33.5z"/>
	<g class="st34">
		<path class="st24" d="M-123.2,5.2c0.4,0.1,0.9,0.2,1.3,0.2c28.4,5.2,24,40.2,5,45c-16.1,4.1-26.3-6.4-29.1-9.6
			c4,8.1,12.4,13.8,22.1,13.8c13.6,0,24.7-11.1,24.7-24.7C-99.1,16.5-109.8,5.6-123.2,5.2z"/>
	</g>
	<path class="st35" d="M-122.3,6.4c-1.8-0.1-3.7,0.1-5.4,0.4c-1.5,0.3-2.9,0.7-4.3,1.2c-4.2,1.6-7.9,4.1-10.7,7.7
		c-1.9,2.4-3.4,5.4-4,8.4c0,0-2,10.1,2.7,17.5c0,0,0.7,1.1,0.9-0.2c0.2-1.3-7.7-20.8,9.8-29.9c17.5-9,28.5,6.4,29.3,12.9
		c0,0,0.2,1.6,0.8,0.9c0.3-0.3-0.1-1.7-0.2-2c-0.3-1.6-0.8-3.1-1.5-4.5c-1.9-4-4.9-8-8.9-10.1C-116.5,7.3-119.3,6.6-122.3,6.4z"/>
	<path class="st36" d="M-108.5,29.7c0,8.5-6.9,15.4-15.3,15.4c-8.5,0-15.3-6.9-15.3-15.4s6.9-15.4,15.3-15.4
		C-115.3,14.3-108.5,21.2-108.5,29.7z"/>
	<path class="st37" d="M-109.3,29.9c0,8-6.5,14.5-14.5,14.5s-14.5-6.5-14.5-14.5s6.5-14.5,14.5-14.5S-109.3,21.9-109.3,29.9z"/>
	<path class="st38" d="M-111.8,30.1c0,6.7-5.4,12.1-12.1,12.1S-136,36.8-136,30.1s5.4-12.1,12.1-12.1S-111.8,23.4-111.8,30.1z"/>
	<path class="st39" d="M-119.6,29.9c0,2.5-2,4.5-4.5,4.5s-4.5-2-4.5-4.5s2-4.5,4.5-4.5S-119.6,27.4-119.6,29.9z"/>
	<path class="st40" d="M-123.9,26.1c0,0-4.4,0.6-3.6,4.6C-126.6,34.8-120.4,24.9-123.9,26.1z"/>
	<g class="st41">
		<g>
			<path class="st30" d="M-135.1,29.6h6c0.1-1.4,0.6-2.4,1.2-3.1l-4.2-4.2C-135,25.5-135.1,29.6-135.1,29.6z"/>
			<path class="st30" d="M-124.4,24.7v-5.9c-3.3,0.3-5.5,1.5-7.1,3l0,0l3.9,4.3C-126.2,24.8-124.4,24.7-124.4,24.7z"/>
		</g>
		<g>
			<path class="st30" d="M-112.6,29.6h-6c-0.1-1.4-0.6-2.4-1.2-3.1l4.2-4.2C-112.7,25.5-112.6,29.6-112.6,29.6z"/>
			<path class="st30" d="M-123.3,24.7v-5.9c3.3,0.3,5.5,1.5,7.1,3l0,0l-3.9,4.3C-121.5,24.8-123.3,24.7-123.3,24.7z"/>
		</g>
		<g>
			<path class="st30" d="M-135.1,30.4h6c0.1,1.4,0.6,2.4,1.2,3.1l-4.2,4.2C-135,34.5-135.1,30.4-135.1,30.4z"/>
			<path class="st30" d="M-124.4,35.3v5.9c-3.3-0.3-5.5-1.5-7.1-3l0,0l3.9-4.3C-126.2,35.2-124.4,35.3-124.4,35.3z"/>
		</g>
		<g>
			<path class="st30" d="M-112.6,30.4h-6c-0.1,1.4-0.6,2.4-1.2,3.1l4.2,4.2C-112.7,34.5-112.6,30.4-112.6,30.4z"/>
			<path class="st30" d="M-123.3,35.3v5.9c3.3-0.3,5.5-1.5,7.1-3l0,0l-3.9-4.3C-121.5,35.2-123.3,35.3-123.3,35.3z"/>
		</g>
	</g>
</g>
<polygon class="st18" points="-14.5,-23.5 -9,-12.4 3.2,-10.7 -5.7,-2 -3.6,10.2 -14.5,4.4 -25.5,10.2 -23.4,-2 -32.2,-10.7 
	-20,-12.4 "/>
<polygon class="st42" points="-14.5,-22 -9.5,-11.8 1.8,-10.1 -6.3,-2.2 -4.4,9.1 -14.5,3.8 -24.6,9.1 -22.7,-2.2 -30.9,-10.1 
	-19.6,-11.8 "/>
</svg>
