<?xml version="1.0" encoding="utf-8"?>
<!-- Generator: Adobe Illustrator 25.0.1, SVG Export Plug-In . SVG Version: 6.00 Build 0)  -->
<svg version="1.1" id="Layer_1" xmlns="http://www.w3.org/2000/svg" xmlns:xlink="http://www.w3.org/1999/xlink" x="0px" y="0px"
	 viewBox="0 0 253.7 81" style="enable-background:new 0 0 253.7 81;" xml:space="preserve">
<style type="text/css">
	.st0{fill:#3165B0;stroke:#003A55;stroke-width:0.5;stroke-miterlimit:10;}
	.st1{fill:#E51E25;stroke:#98012C;stroke-width:0.5;stroke-miterlimit:10;}
	.st2{fill:#00B1BD;stroke:#00A1E2;stroke-width:0.5;stroke-miterlimit:10;}
	.st3{opacity:0.2;fill:#FFFFFF;enable-background:new    ;}
</style>
<path class="st0" d="M253.7,70.6c0,0,0-2.9-3.2-3H6.6c-1.3,1.1-2.7,2.3-3.9,3.6c0,0-3.7,4.1-2.4,7.2c1.4,3.2,6.4,2.5,6.4,2.5h232.5
	c0,0,12.1,0.5,13.6-1.7c0,0,1.1-0.6,0.9-4.6V70.6z"/>
<g>
	<path class="st1" d="M65.3,43.2c0,0,1.6,0.2,5.3-0.6c3.7-0.8,30.4-5.3,46.9-5.2C134,37.6,137,33.5,137.3,26c0.3-6.1-0.1-19-0.2-26
		c-1.6,0-3.3,0.1-5,0.3v23.3c0,0,0,6.2-6.8,6.7c0,0-32.5,0.2-49,5.1c0,0-2.4,0.5-2.2-2.9c0.1-3.3,0.1-5.3-4.3-4.4
		c-4.5,0.9-7.7,5.8-7.7,5.8S58.1,42.9,65.3,43.2z"/>
	<path class="st2" d="M250.6,67.5l-11.2-27c0,0-1.3-2.5-5.2-4.1l-49.3-16.3c0,0-7.6-2.7-13.4-7c-5.2-3.9-18.2-12.9-34.3-13
		c0.1,7,0.5,19.9,0.2,26c-0.4,7.4-3.3,11.5-19.8,11.4c-16.5-0.2-43.2,4.4-46.9,5.2c-3.7,0.8-5.3,0.6-5.3,0.6
		c-7.2-0.3-3.2-9.2-3.2-9.2S29.9,39.5,6.7,67.7h243.9V67.5z"/>
</g>
<g>
	<path class="st1" d="M65.3,43.2c0,0,1.6,0.2,5.3-0.6c3.7-0.8,30.4-5.3,46.9-5.2C134,37.6,137,33.5,137.3,26c0.3-6.1-0.1-19-0.2-26
		c-1.6,0-3.3,0.1-5,0.3v23.3c0,0,0,6.2-6.8,6.7c0,0-32.5,0.2-49,5.1c0,0-2.4,0.5-2.2-2.9c0.1-3.3,0.1-5.3-4.3-4.4
		c-4.5,0.9-7.7,5.8-7.7,5.8S58.1,42.9,65.3,43.2z"/>
	<path class="st2" d="M250.6,67.5l-11.2-27c0,0-1.3-2.5-5.2-4.1l-49.3-16.3c0,0-7.6-2.7-13.4-7c-5.2-3.9-18.2-12.9-34.3-13
		c0.1,7,0.5,19.9,0.2,26c-0.4,7.4-3.3,11.5-19.8,11.4c-16.5-0.2-43.2,4.4-46.9,5.2c-3.7,0.8-5.3,0.6-5.3,0.6
		c-7.2-0.3-3.2-9.2-3.2-9.2S29.9,39.5,6.7,67.7h243.9V67.5z"/>
</g>
<path class="st3" d="M72,69.3L178.6,69c0,0,0.2,6.9,6.7,10H67.4C67.4,79.1,71.6,77.5,72,69.3z"/>
<path class="st3" d="M25.9,69c0,0-1.1,7.2,5.1,11h-6.3c0,0-0.7-3.6-5.3-4l-13,0.5c0,0-4.2,0.1-3.6-1.3c0.7-1.4,3.4-6,5.9-6.5
	L25.9,69z"/>
<path class="st3" d="M173.1,70.2l-96.2,0.2c0,0-1.1,0.3-0.4,1c0.7,0.6,94.3-0.4,94.3-0.4S174,71.3,173.1,70.2z"/>
<path class="st3" d="M231.3,69.1h15c0,0,4.7-0.3,5.4,1.7l-0.1,5.6c0,0-0.3,2.2-3.1,2.7c-2.8,0.5-20.1,0.3-20.1,0.3
	S231.3,76.6,231.3,69.1z"/>
<path class="st3" d="M140.2,3l-0.4,24.4c0,0,0,9.6-9.4,11.1c0,0-38.4,1-57.5,7c0,0-1.6,0.8-0.6,2.5c1,1.6,2.3,5.7,2.3,5.7h100.5
	c0,0,5.5-14.6,22.6-16.2c17-1.6,26.5,6.6,29.1,12.5c0,0,0.4,2.7,3.7,3.7s9.2,0,9-3.9s-2.1-10.9-15.2-13.1
	c-13.1-2.3-32.2-7.6-48-15.8C160.6,12.6,157.3,3,140.2,3z"/>
<path class="st3" d="M60.2,36.3c0,0-2,3.8-0.1,7.7c0,0-8.2-3.8-20.8,1.8c0,0-4.4,3.1-4.4,1C34.9,44.5,50.9,37.2,60.2,36.3z"/>
<path class="st3" d="M142,4.7v25.4c0,0-0.3,6-5.6,7.4s15,2.5,23.8-7C168.9,21.1,157.8,7.1,142,4.7z"/>
<path class="st3" d="M233.2,41.6c0,0-3.4-2.6-8.5-2.7c-5.1-0.1-3.3,2.2,0.3,4.9s5.6,5.2,6.2,7c0.5,1.8,6.2,2.2,6.7-1.4
	C238.4,45.9,234.8,42.7,233.2,41.6z"/>
</svg>
