<?xml version="1.0" encoding="utf-8"?>
<!-- Generator: Adobe Illustrator 25.0.1, SVG Export Plug-In . SVG Version: 6.00 Build 0)  -->
<svg version="1.1" id="Layer_1" xmlns="http://www.w3.org/2000/svg" xmlns:xlink="http://www.w3.org/1999/xlink" x="0px" y="0px"
	 viewBox="0 0 76.6 44.5" style="enable-background:new 0 0 76.6 44.5;" xml:space="preserve">
<style type="text/css">
	.st0{fill:#3165B0;stroke:#003A55;stroke-width:0.5;stroke-miterlimit:10;}
	.st1{fill:#3D5AA8;}
	.st2{opacity:0.4;fill:#FFFFFF;enable-background:new    ;}
</style>
<path class="st0" d="M4.4,43.2c0,0,1.6,0.2,5.3-0.6c3.7-0.8,30.4-5.3,46.9-5.2c16.5,0.2,19.5-3.9,19.8-11.4c0.3-6.1-0.1-19-0.2-26
	c-1.6,0-3.3,0.1-5,0.3v23.3c0,0,0,6.2-6.8,6.7c0,0-32.5,0.2-49,5.1c0,0-2.4,0.5-2.2-2.9c0.1-3.3,0.1-5.3-4.3-4.4
	c-3.7,0.8-7.9,4.2-8.7,9c-0.2,1.1-0.1,3.2,0.5,4.2C1.5,42.5,3.2,43,4.4,43.2z"/>
<g>
	<path class="st1" d="M76.3,0c-1.6,0-3.3,0.1-5,0.3v3.4c3.2,0.5,3.3,16.5,2.4,23.6c-0.9,7.3-10.6,6.8-16.8,7s-35.4,3.3-40.6,4.2
		c-5.1,0.9-11,2.8-12.7-1.9c-1.3-3.8,3-7.1,4.8-8.4c-3.6,0.9-7.5,4.2-8.3,8.8c-0.2,1.1-0.1,3.2,0.5,4.2c0.8,1.2,2.5,1.8,3.8,1.9
		c0,0,1.6,0.2,5.3-0.6c3.7-0.8,30.4-5.3,46.9-5.2c16.5,0.2,19.5-3.9,19.8-11.4C76.8,19.9,76.4,7,76.3,0z"/>
</g>
<path class="st2" d="M12.1,33.7c0,0,1.2-4.3-1.4-4c-2.5,0.3-5.6,4.3-4,7C8.3,39.3,11.1,36.9,12.1,33.7z"/>
<path class="st2" d="M72.1,23c0,0-0.4,6.2-4.1,7.2c0,0-0.8,0.3-0.6,0.6s2.4,0.5,3.8-1.6C72.6,27,72.5,22,72.1,23z"/>
</svg>
