<?xml version="1.0" encoding="utf-8"?>
<!-- Generator: Adobe Illustrator 25.0.1, SVG Export Plug-In . SVG Version: 6.00 Build 0)  -->
<svg version="1.1" id="Layer_1" xmlns="http://www.w3.org/2000/svg" xmlns:xlink="http://www.w3.org/1999/xlink" x="0px" y="0px"
	 viewBox="0 0 35.4 33.7" style="enable-background:new 0 0 35.4 33.7;" xml:space="preserve">
<style type="text/css">
	.st0{display:none;}
	.st1{display:inline;fill:#FFFFFF;}
	.st2{display:inline;fill:#F5F5F5;}
	.st3{display:inline;fill:#EBEBEB;}
	.st4{display:inline;fill:#E1E1E1;}
	.st5{display:inline;fill:#D7D7D7;}
	.st6{display:inline;fill:#CDCDCD;}
	.st7{display:inline;fill:#C3C3C3;}
	.st8{display:inline;fill:#B9B9B9;}
	.st9{display:inline;fill:#B0B0B0;}
	.st10{display:inline;fill:#A6A6A6;}
	.st11{display:inline;fill:#9C9C9C;}
	.st12{display:inline;fill:#929292;}
	.st13{display:inline;fill:#888888;}
	.st14{display:inline;fill:#7E7E7E;}
	.st15{display:inline;fill:#747474;}
	.st16{display:inline;fill:#6A6A6A;}
	.st17{display:inline;fill:#606060;}
	.st18{display:none;fill:#FFFFFF;}
	.st19{display:none;fill:#3165B0;stroke:#003A55;stroke-width:0.5;stroke-miterlimit:10;}
	.st20{display:none;fill:#295596;stroke:#003A55;stroke-width:0.5;stroke-miterlimit:10;}
	.st21{display:none;opacity:0.5;fill:#3165B0;enable-background:new    ;}
	.st22{display:inline;fill:#3165B0;stroke:#003A55;stroke-width:0.5;stroke-miterlimit:10;}
	.st23{display:inline;}
	.st24{fill:#3165B0;}
	.st25{display:inline;fill:#00B1BD;stroke:#00A1E2;stroke-width:0.5;stroke-miterlimit:10;}
	.st26{display:inline;fill:#E51E25;stroke:#98012C;stroke-width:0.5;stroke-miterlimit:10;}
	.st27{display:none;opacity:0.2;fill:#FFFFFF;enable-background:new    ;}
	.st28{display:inline;fill:#3D5AA8;}
	.st29{display:none;opacity:0.4;fill:#FFFFFF;enable-background:new    ;}
	.st30{display:inline;fill:#2A2C2D;stroke:#231F20;stroke-width:0.5;stroke-miterlimit:9.9996;}
	.st31{display:inline;fill:#AAC6D1;stroke:#231F20;stroke-width:0.5;stroke-miterlimit:10;}
	.st32{display:inline;fill:#AAC6D1;}
	.st33{display:inline;opacity:0.5;}
	.st34{fill:#616264;}
	.st35{display:inline;opacity:0.2;fill:#FFFFFF;enable-background:new    ;}
	.st36{display:inline;fill:#EDEDEE;}
	.st37{display:inline;fill:#D0D2D3;}
	.st38{display:inline;fill:#B1B3B5;stroke:#231F20;stroke-width:0.5;stroke-miterlimit:10;}
	.st39{display:inline;fill:#8AA5B3;stroke:#231F20;stroke-width:0.5;stroke-miterlimit:10;}
	.st40{display:inline;opacity:0.4;fill:#FFFFFF;enable-background:new    ;}
	.st41{fill:#FFFFFF;stroke:#231F20;stroke-width:0.5;stroke-miterlimit:10;}
	.st42{display:inline;fill:#2A2C2D;stroke:#231F20;stroke-width:0.5;stroke-miterlimit:10;}
	.st43{fill:#FFFFFF;}
	.st44{fill:#FFFAC4;}
</style>
<g class="st0">
	<path class="st1" d="M76.2,15.4L76.2,15.4L76.2,15.4L76.2,15.4z M-129.4,76.8h20.3c0.3,0.5,0.7,0.9,1,1.4l0.1,0.1
		c0.8,1,1.7,2,2.6,2.9l0.1,0.1c0.4,0.4,0.9,0.8,1.3,1.2l0.1,0.1c0.5,0.4,1,0.8,1.5,1.2c0,0,0.1,0,0.1,0.1c0.5,0.3,1,0.7,1.5,1
		l0.1,0.1l0.2,0.1c1,0.7,2.2,1.3,3.3,1.8l0.4,0.2c0.5,0.2,1,0.4,1.5,0.6l0.2,0.1c0.6,0.2,1.2,0.4,1.7,0.6l0.4,0.1
		c0.5,0.1,1,0.3,1.5,0.4l0.4,0.1c0.6,0.1,1.2,0.2,1.8,0.3h0.3c0.5,0.1,1,0.1,1.6,0.2h0.5c0.6,0,1.3,0.1,1.9,0.1
		c9.7,0,18.7-4.8,24.2-12.7H40.6c0.1,0.1,0.2,0.2,0.2,0.3l0.2,0.2c0.9,1.1,1.8,2.1,2.8,3.1l0.2,0.2c0.5,0.4,0.9,0.9,1.4,1.3l0.1,0.1
		c0.5,0.4,1.1,0.9,1.6,1.3l0.2,0.1c0.5,0.4,1,0.7,1.5,1l0.3,0.2c1.1,0.7,2.3,1.4,3.5,1.9l0.4,0.2c0.5,0.2,1.1,0.5,1.7,0.7l0.2,0.1
		c0.6,0.2,1.2,0.4,1.9,0.6l0.4,0.1c0.5,0.1,1.1,0.3,1.6,0.4l0.5,0.1c0.7,0.1,1.3,0.3,2,0.4l0.4,0.1c0.6,0.1,1.1,0.1,1.7,0.2
		c0.2,0,0.4,0,0.6,0c0.8,0.1,1.5,0.1,2.1,0.1c10.1,0,19.5-4.7,25.5-12.7h11.1c13,0.5,16.1-1.9,17.2-3.3c1.2-1.3,2.3-3.6,2.1-7.9
		v-3.9c0-2.7-1.5-5.6-4.4-7l-10.3-24.9c-0.1-0.1-0.1-0.3-0.2-0.4c-0.3-0.6-1.7-3-5.2-5.1l1.6-7l17.1,1.3c0.1,0,0.1,0,0.2,0
		c5.1,0.2,8.6-2,9.3-5.6c0.1-0.5,0.2-1.1,0.3-3.1c0-0.5,0-1.1-0.2-1.6c-0.8-3-3.4-4.5-5.9-4.5h-0.1c-0.1,0-0.3,0-0.4-0.1
		c0.2-3,0.3-6.5,0.4-8.7l4.5-2.4c1.5-0.8,2.4-2.3,2.5-4c0.1-1.8,0.1-3.3,0.1-4.4v-1.7c0.3-3.3-1-6-3.5-7.1
		c-2.3-1.1-2.4-1.1-27.3,8.6c-11.4,4.4-22.8,9-22.9,9.1c0,0-0.1,0-0.1,0.1c0,0-1.6,0.7-3.5,0.8c-1.9,0.1-9-0.2-13.1-0.4
		c-4.5-0.5-6.8,1.8-7.4,4.1c-0.1,0.5-0.2,1.1-0.4,2.7c-0.2,2.7-0.4,7-0.4,7.2c0,0,0,0,0,0.1L50,6.9c-0.6-0.2-7.2-2.7-12.1-6.4
		C22.7-10.9,9.3-13.4,0.8-13.4c-1.9,0-3.7,0.1-5.6,0.3C-7.2-12.8-9-10.8-9-8.4v23.2c-0.1,1.7-1.5,1.9-2.3,2
		c-2.6,0-29.3,0.3-46.3,4.3c-0.2-1.8-0.7-3.6-2.4-5c-2.4-2.1-5.5-1.7-7.6-1.3c-0.2,0-0.5,0.1-0.8,0.2l0,0c-0.3,0.1-0.6,0.2-0.9,0.3
		h-0.1c-0.3,0.1-0.6,0.2-0.9,0.3h-0.1c-0.3,0.1-0.6,0.3-0.9,0.4c0,0-0.1,0-0.1,0.1c-0.3,0.1-0.5,0.3-0.8,0.4l-0.2,0.1
		c-0.3,0.1-0.5,0.3-0.8,0.5h0.1c-0.2,0.2-0.5,0.3-0.7,0.5l-0.3,0.2c-0.2,0.2-0.4,0.3-0.6,0.5l-0.3,0.2c-0.2,0.2-0.4,0.3-0.6,0.5
		c-0.1,0.1-0.2,0.2-0.3,0.3c-0.2,0.2-0.3,0.3-0.5,0.5c-0.1,0.1-0.2,0.2-0.3,0.3l-0.1,0.1c-0.1,0.2-0.3,0.3-0.4,0.5l0,0
		c-6,1.5-25.6,6.8-43.9,22.5c-0.1,0-0.1,0.1-0.2,0.1c-0.2,0.1-0.3,0.3-0.5,0.5l-0.3,0.2c-0.5,0.4-1,0.9-1.5,1.3
		c-0.3,0.3-0.6,0.5-0.9,0.8l-0.6,0.6c-0.1,0.1-0.2,0.2-0.3,0.3c-0.9,0.8-1.8,1.7-2.6,2.6c-0.1,0.1-0.1,0.1-0.2,0.2l-0.3,0.3
		c-0.3,0.3-0.5,0.5-0.8,0.8l-0.2,0.2c-0.1,0.1-0.3,0.3-0.4,0.4c-0.1,0.1-0.1,0.2-0.2,0.3c-1,1.2-2.1,2.4-3,3.6
		c-1.4,1.2-2.7,2.4-3.9,3.6c-0.1,0.1-0.1,0.1-0.2,0.2c-1,1.1-5.7,6.6-3.3,12.3C-138.3,76.3-132.7,77.1-129.4,76.8z"/>
	<path class="st2" d="M75.8,15L75.8,15L75.8,15L75.8,15z M-129.8,76.4h20.3c0.3,0.5,0.7,0.9,1,1.4l0.1,0.1c0.8,1,1.7,2,2.6,2.9
		l0.1,0.1c0.4,0.4,0.9,0.8,1.3,1.2l0.1,0.1c0.5,0.4,1,0.8,1.5,1.2c0,0,0.1,0,0.1,0.1c0.5,0.3,1,0.7,1.5,1l0.1,0.1l0.2,0.1
		c1,0.7,2.2,1.3,3.3,1.8l0.4,0.2c0.5,0.2,1,0.4,1.5,0.6l0.2,0.1c0.6,0.2,1.2,0.4,1.7,0.6l0.4,0.1c0.5,0.1,1,0.3,1.5,0.4l0.4,0.1
		c0.6,0.1,1.2,0.2,1.8,0.3h0.3c0.5,0.1,1,0.1,1.6,0.2h0.5c0.6,0,1.3,0.1,1.9,0.1c9.7,0,18.7-4.8,24.2-12.7H40.2
		c0.1,0.1,0.2,0.2,0.2,0.3l0.2,0.2c0.9,1.1,1.8,2.1,2.8,3.1l0.2,0.2c0.5,0.4,0.9,0.9,1.4,1.3l0.1,0.1c0.5,0.4,1.1,0.9,1.6,1.3
		l0.2,0.1c0.5,0.4,1,0.7,1.5,1l0.3,0.2c1.1,0.7,2.3,1.4,3.5,1.9l0.4,0.2c0.5,0.2,1.1,0.5,1.7,0.7l0.2,0.1c0.6,0.2,1.2,0.4,1.9,0.6
		l0.4,0.1c0.5,0.1,1.1,0.3,1.6,0.4l0.5,0.1c0.7,0.1,1.3,0.3,2,0.4l0.4,0.1c0.6,0.1,1.1,0.1,1.7,0.2c0.2,0,0.4,0,0.6,0
		c0.8,0.1,1.5,0.1,2.1,0.1c10.1,0,19.5-4.7,25.5-12.7h11.1c13,0.5,16.1-1.9,17.2-3.3c1.2-1.3,2.3-3.6,2.1-7.9v-3.9
		c0-2.7-1.5-5.6-4.4-7l-10.3-24.9c-0.1-0.1-0.1-0.3-0.2-0.4c-0.3-0.6-1.7-3-5.2-5.1l1.6-7l17.1,1.3c0.1,0,0.1,0,0.2,0
		c5.1,0.2,8.6-2,9.3-5.6c0.1-0.5,0.2-1.1,0.3-3.1c0-0.5,0-1.1-0.2-1.6c-0.8-3-3.4-4.5-5.9-4.5h-0.1c-0.1,0-0.3,0-0.4-0.1
		c0.2-3,0.3-6.5,0.4-8.7l4.5-2.4c1.5-0.8,2.4-2.3,2.5-4c0.1-1.8,0.1-3.3,0.1-4.4v-1.7c0.3-3.3-1-6-3.5-7.1
		c-2.3-1.1-2.4-1.1-27.3,8.6c-11.4,4.4-22.8,9-22.9,9.1c0,0-0.1,0-0.2,0.1c0,0-1.6,0.7-3.5,0.8c-1.9,0.1-9-0.2-13.1-0.4
		c-4.5-0.5-6.8,1.8-7.4,4.1c-0.1,0.5-0.2,1.1-0.4,2.7c-0.2,2.7-0.4,7-0.4,7.2c0,0,0,0,0,0.1l-2.7-0.9c-0.6-0.2-7.2-2.7-12.1-6.4
		C22.2-11.3,8.8-13.8,0.3-13.8c-1.9,0-3.7,0.1-5.6,0.3c-2.4,0.3-4.2,2.3-4.2,4.7v23.2c-0.1,1.7-1.5,1.9-2.3,2
		c-2.6,0-29.3,0.3-46.3,4.3c-0.2-1.8-0.7-3.6-2.4-5c-2.4-2.1-5.5-1.7-7.6-1.3c-0.2,0-0.5,0.1-0.8,0.2l0,0c-0.3,0.1-0.6,0.2-0.9,0.3
		h-0.1c-0.3,0.1-0.6,0.2-0.9,0.3h-0.1c-0.3,0.1-0.6,0.3-0.9,0.4c0,0-0.1,0-0.1,0.1c-0.3,0.1-0.5,0.3-0.8,0.4l-0.2,0.1
		c-0.3,0.1-0.5,0.3-0.8,0.5l-0.2,0.1c-0.2,0.2-0.5,0.3-0.7,0.5l-0.3,0.2c-0.2,0.2-0.4,0.3-0.6,0.5l-0.3,0.2
		c-0.2,0.2-0.4,0.3-0.6,0.5c-0.1,0.1-0.2,0.2-0.3,0.3c-0.2,0.2-0.3,0.3-0.5,0.5c-0.1,0.1-0.2,0.2-0.3,0.3l-0.1,0.1
		c-0.1,0.2-0.3,0.3-0.4,0.5l0,0c-6.2,1.4-25.5,7-44.1,22.4c-0.1,0-0.1,0.1-0.2,0.1c-0.2,0.2-0.3,0.3-0.5,0.5l-0.2,0.2
		c-0.5,0.4-1,0.9-1.5,1.3c-0.3,0.3-0.6,0.5-0.9,0.8l-0.6,0.6c-0.1,0.1-0.2,0.2-0.3,0.3c-0.9,0.8-1.8,1.7-2.6,2.6
		c-0.1,0.1-0.1,0.1-0.2,0.2l-0.3,0.3c-0.3,0.3-0.5,0.5-0.8,0.8l-0.2,0.2c-0.1,0.1-0.3,0.3-0.4,0.4c-0.1,0.1-0.1,0.2-0.2,0.3
		c-1.2,1.3-2.2,2.5-3.2,3.7c-1.4,1.2-2.7,2.4-3.9,3.6c-0.1,0.1-0.1,0.1-0.2,0.2c-1,1.1-5.7,6.6-3.3,12.3
		C-138.7,75.9-133.1,76.7-129.8,76.4z"/>
	<path class="st3" d="M75.4,14.6L75.4,14.6L75.4,14.6L75.4,14.6z M-130.2,76h20.3c0.3,0.5,0.7,0.9,1,1.4l0.1,0.1
		c0.8,1,1.7,2,2.6,2.9l0.1,0.1c0.4,0.4,0.9,0.8,1.3,1.2l0.1,0.1c0.5,0.4,1,0.8,1.5,1.2c0,0,0.1,0,0.1,0.1c0.5,0.3,1,0.7,1.5,1
		l0.1,0.1l0.2,0.1c1,0.7,2.2,1.3,3.3,1.8l0.4,0.2c0.5,0.2,1,0.4,1.5,0.6l0.2,0.1c0.6,0.2,1.2,0.4,1.7,0.6l0.4,0.1
		c0.5,0.1,1,0.3,1.5,0.4l0.4,0.1c0.6,0.1,1.2,0.2,1.8,0.3h0.3c0.5,0.1,1,0.1,1.6,0.2h0.5c0.6,0,1.3,0.1,1.9,0.1
		c9.7,0,18.7-4.8,24.2-12.7H39.8c0.1,0.1,0.2,0.2,0.2,0.3l0.2,0.2c0.9,1.1,1.8,2.1,2.8,3.1l0.2,0.2c0.5,0.4,0.9,0.9,1.4,1.3l0.1,0.1
		c0.5,0.4,1.1,0.9,1.6,1.3l0.2,0.1c0.5,0.4,1,0.7,1.5,1l0.3,0.2c1.1,0.7,2.3,1.4,3.5,1.9l0.4,0.2c0.5,0.2,1.1,0.5,1.7,0.7l0.2,0.1
		c0.6,0.2,1.2,0.4,1.9,0.6l0.4,0.1c0.5,0.1,1.1,0.3,1.6,0.4l0.5,0.1c0.7,0.1,1.3,0.3,2,0.4l0.4,0.1c0.6,0.1,1.1,0.1,1.7,0.2
		c0.2,0,0.4,0,0.6,0c0.8,0.1,1.5,0.1,2.1,0.1c10.1,0,19.5-4.7,25.5-12.7h11.1c13,0.5,16.1-1.9,17.2-3.3c1.2-1.3,2.3-3.6,2.1-7.9V61
		c0-2.7-1.5-5.6-4.4-7l-10.3-24.9c-0.1-0.1-0.1-0.3-0.2-0.4c-0.3-0.6-1.7-3-5.2-5.1l1.6-7l17.1,1.3c0.1,0,0.1,0,0.2,0
		c5.1,0.2,8.6-2,9.3-5.6c0.1-0.5,0.2-1.1,0.3-3.1c0-0.5,0-1.1-0.2-1.6c-0.8-3-3.4-4.5-5.9-4.5h-0.1c-0.1,0-0.3,0-0.4-0.1
		c0.2-3,0.3-6.5,0.4-8.7l4.5-2.4c1.5-0.8,2.4-2.3,2.5-4c0.1-1.8,0.1-3.3,0.1-4.4v-1.7c0.3-3.3-1-6-3.5-7.1
		c-2.3-1.1-2.4-1.1-27.3,8.6c-11.4,4.4-22.8,9-22.9,9.1c0,0-0.1,0-0.1,0.1c0,0-1.6,0.7-3.5,0.8c-1.9,0.1-9-0.2-13.1-0.4
		c-4.5-0.5-6.8,1.8-7.4,4.1c-0.1,0.5-0.2,1.1-0.4,2.7c-0.2,2.7-0.4,7-0.4,7.2c0,0,0,0,0,0.1l-2.7-0.9C48.6,5.9,42,3.4,37.1-0.3
		C21.9-11.7,8.5-14.2,0-14.2c-1.9,0-3.7,0.1-5.6,0.3c-2.4,0.3-4.2,2.3-4.2,4.7V14c-0.1,1.7-1.5,1.9-2.3,2c-2.6,0-29.3,0.3-46.3,4.3
		c-0.2-1.8-0.7-3.6-2.4-5c-2.4-2.1-5.5-1.7-7.6-1.3c-0.2,0-0.5,0.1-0.8,0.2l0,0c-0.3,0.1-0.6,0.2-0.9,0.3h-0.1
		c-0.3,0.1-0.6,0.2-0.9,0.3h-0.1c-0.3,0.1-0.6,0.3-0.9,0.4c0,0-0.1,0-0.1,0.1c-0.3,0.1-0.5,0.3-0.8,0.4l-0.2,0.1
		c-0.3,0.1-0.5,0.3-0.8,0.5l-0.2,0.1c-0.2,0.2-0.5,0.3-0.7,0.5l-0.3,0.2c-0.2,0.2-0.4,0.3-0.6,0.5l-0.3,0.2
		c-0.2,0.2-0.4,0.3-0.6,0.5c-0.1,0.1-0.2,0.2-0.3,0.3c-0.2,0.2-0.3,0.3-0.5,0.5c-0.1,0.1-0.2,0.2-0.3,0.3l-0.1,0.1
		c-0.1,0.2-0.3,0.3-0.4,0.5l0,0c-6.2,1.4-25.5,7-44.1,22.4c-0.1,0-0.1,0.1-0.2,0.1c-0.2,0.2-0.3,0.3-0.5,0.5l0.2,0.2
		c-0.5,0.4-1,0.9-1.5,1.3c-0.3,0.3-0.6,0.5-0.9,0.8l-0.6,0.6c-0.1,0.1-0.2,0.2-0.3,0.3c-0.9,0.8-1.8,1.7-2.6,2.6
		c-0.1,0.1-0.1,0.1-0.2,0.2l-0.2,0.2c-0.3,0.3-0.5,0.5-0.8,0.8l-0.2,0.2c-0.1,0.1-0.3,0.3-0.4,0.4s-0.1,0.2-0.2,0.3
		c-1.2,1.3-2.2,2.5-3.2,3.7c-1.4,1.2-2.7,2.4-3.9,3.6c-0.1,0.1-0.1,0.1-0.2,0.2c-1,1.1-5.7,6.6-3.3,12.3
		C-139.1,75.5-133.5,76.3-130.2,76z"/>
	<path class="st4" d="M75,14.1L75,14.1L75,14.1L75,14.1z M-130.7,75.5h20.3c0.3,0.5,0.7,0.9,1,1.4l0.1,0.1c0.8,1,1.7,2,2.6,2.9
		l0.1,0.1c0.4,0.4,0.9,0.8,1.3,1.2l0.1,0.1c0.5,0.4,1,0.8,1.5,1.2c0,0,0.1,0,0.1,0.1c0.5,0.3,1,0.7,1.5,1l0.1,0.1l0.2,0.1
		c1,0.7,2.2,1.3,3.3,1.8l0.4,0.2c0.5,0.2,1,0.4,1.5,0.6l0.2,0.1c0.6,0.2,1.2,0.4,1.7,0.6l0.4,0.1c0.5,0.1,1,0.3,1.5,0.4l0.4,0.1
		c0.6,0.1,1.2,0.2,1.8,0.3h0.3c0.5,0.1,1,0.1,1.6,0.2h0.5c0.6,0,1.3,0.1,1.9,0.1c9.7,0,18.7-4.8,24.2-12.7H39.3
		c0.1,0.1,0.2,0.2,0.2,0.3l0.2,0.2c0.9,1.1,1.8,2.1,2.8,3.1l0.2,0.2c0.5,0.4,0.9,0.9,1.4,1.3l0.1,0.1c0.5,0.4,1.1,0.9,1.6,1.3
		l0.2,0.1c0.5,0.4,1,0.7,1.5,1l0.3,0.2c1.1,0.7,2.3,1.4,3.5,1.9l0.4,0.2c0.5,0.2,1.1,0.5,1.7,0.7l0.2,0.1c0.6,0.2,1.2,0.4,1.9,0.6
		l0.4,0.1c0.5,0.1,1.1,0.3,1.6,0.4l0.5,0.1c0.7,0.1,1.3,0.3,2,0.4l0.4,0.1c0.6,0.1,1.1,0.1,1.7,0.2c0.2,0,0.4,0,0.6,0
		c0.8,0.1,1.5,0.1,2.1,0.1c10.1,0,19.5-4.7,25.5-12.7h11.1c13,0.5,16.1-1.9,17.2-3.3c1.2-1.3,2.3-3.6,2.1-7.9v-3.9
		c0-2.7-1.5-5.6-4.4-7L106,28.6c-0.1-0.1-0.1-0.3-0.2-0.4c-0.3-0.6-1.7-3-5.2-5.1l1.6-7l17.1,1.3c0.1,0,0.1,0,0.2,0
		c5.1,0.2,8.6-2,9.3-5.6c0.1-0.5,0.2-1.1,0.3-3.1c0-0.5,0-1.1-0.2-1.6c-0.8-3-3.4-4.5-5.9-4.5h-0.1c-0.1,0-0.3,0-0.4-0.1
		c0.2-3,0.3-6.5,0.4-8.7l4.5-2.4c1.5-0.8,2.4-2.3,2.5-4c0.1-1.8,0.1-3.3,0.1-4.4v-1.7c0.3-3.3-1-6-3.5-7.1
		c-2.3-1.1-2.4-1.1-27.3,8.6c-11.4,4.4-22.8,9-22.9,9.1c0,0-0.1,0-0.1,0.1c0,0-1.6,0.7-3.5,0.8c-1.9,0.1-9-0.2-13.1-0.4
		c-4.5-0.5-6.8,1.8-7.4,4.1C52.1-3,52-2.4,51.8-0.8c-0.2,2.7-0.4,7-0.4,7.2c0,0,0,0,0,0.1l-2.7-0.9c-0.6-0.2-7.2-2.7-12.1-6.4
		c-15.1-11.5-28.5-14-37-14c-1.9,0-3.7,0.1-5.6,0.3c-2.4,0.3-4.2,2.3-4.2,4.7v23.2c-0.1,1.7-1.5,1.9-2.3,2c-2.6,0-29.3,0.3-46.3,4.3
		c-0.2-1.8-0.7-3.6-2.4-5c-2.4-2.1-5.5-1.7-7.6-1.3c-0.2,0-0.5,0.1-0.8,0.2l0,0c-0.3,0.1-0.6,0.2-0.9,0.3h-0.1
		c-0.3,0.1-0.6,0.2-0.9,0.3h-0.1c-0.3,0.1-0.6,0.3-0.9,0.4c0,0-0.1,0-0.1,0.1c-0.3,0.1-0.5,0.3-0.8,0.4l-0.2,0.1
		c-0.3,0.1-0.5,0.3-0.8,0.5l-0.2,0.1c-0.2,0.2-0.5,0.3-0.7,0.5l-0.3,0.2c-0.2,0.2-0.4,0.3-0.6,0.5l-0.3,0.2
		c-0.2,0.2-0.4,0.3-0.6,0.5c-0.1,0.1-0.2,0.2-0.3,0.3c-0.2,0.2-0.3,0.3-0.5,0.5c-0.1,0.1-0.2,0.2-0.3,0.3l-0.1,0.1
		c-0.1,0.2-0.3,0.3-0.4,0.5l0,0c-6.2,1.4-25.5,7-44.1,22.4c-0.1,0-0.1,0.1-0.2,0.1c-0.2,0.2-0.3,0.3-0.5,0.5l-0.2,0.2
		c-0.5,0.4-1,0.9-1.5,1.3c-0.3,0.3-0.6,0.5-0.9,0.8l-0.6,0.6c-0.1,0.1-0.2,0.2-0.3,0.3c-0.9,0.8-1.8,1.7-2.6,2.6
		c-0.1,0.1-0.1,0.1-0.2,0.2l-0.3,0.3c-0.3,0.3-0.5,0.5-0.8,0.8l-0.2,0.2c-0.1,0.1-0.3,0.3-0.4,0.4c-0.1,0.1-0.1,0.2-0.2,0.3
		c-1.2,1.3-2.2,2.5-3.2,3.7c-1.4,1.2-2.7,2.4-3.9,3.6c-0.1,0.1-0.1,0.1-0.2,0.2c-1,1.1-5.7,6.6-3.3,12.3
		C-139.5,75.1-133.9,75.9-130.7,75.5z"/>
	<path class="st5" d="M74.5,13.7L74.5,13.7L74.5,13.7L74.5,13.7z M-131.1,75.1h20.3c0.3,0.5,0.7,0.9,1,1.4l0.1,0.1
		c0.8,1,1.7,2,2.6,2.9l0.1,0.1c0.4,0.4,0.9,0.8,1.3,1.2l0.1,0.1c0.5,0.4,1,0.8,1.5,1.2c0,0,0.1,0,0.1,0.1c0.5,0.3,1,0.7,1.5,1
		l0.1,0.1l0.2,0.1c1,0.7,2.2,1.3,3.3,1.8l0.4,0.2c0.5,0.2,1,0.4,1.5,0.6l0.2,0.1c0.6,0.2,1.2,0.4,1.7,0.6l0.4,0.1
		c0.5,0.1,1,0.3,1.5,0.4l0.4,0.1c0.6,0.1,1.2,0.2,1.8,0.3h0.3c0.5,0.1,1,0.1,1.6,0.2h0.5c0.6,0,1.3,0.1,1.9,0.1
		c9.7,0,18.7-4.8,24.2-12.7H38.9c0.1,0.1,0.2,0.2,0.2,0.3l0.2,0.2c0.9,1.1,1.8,2.1,2.8,3.1l0.2,0.2c0.5,0.4,0.9,0.9,1.4,1.3l0.1,0.1
		c0.5,0.4,1.1,0.9,1.6,1.3l0.2,0.1c0.5,0.4,1,0.7,1.5,1l0.3,0.2c1.1,0.7,2.3,1.4,3.5,1.9l0.4,0.2c0.5,0.2,1.1,0.5,1.7,0.7l0.2,0.1
		c0.6,0.2,1.2,0.4,1.9,0.6l0.4,0.1c0.5,0.1,1.1,0.3,1.6,0.4l0.5,0.1c0.7,0.1,1.3,0.3,2,0.4l0.4,0.1c0.6,0.1,1.1,0.1,1.7,0.2
		c0.2,0,0.4,0,0.6,0c0.8,0.1,1.5,0.1,2.1,0.1c10.1,0,19.5-4.7,25.5-12.7H101c13,0.5,16.1-1.9,17.2-3.3c1.2-1.3,2.3-3.6,2.1-7.9v-3.9
		c0-2.7-1.5-5.6-4.4-7l-10.1-24.9c-0.1-0.1-0.1-0.3-0.2-0.4c-0.3-0.6-1.7-3-5.2-5.1l1.6-7l17.1,1.3c0.1,0,0.1,0,0.2,0
		c5.1,0.2,8.6-2,9.3-5.6c0.1-0.5,0.2-1.1,0.3-3.1c0-0.5,0-1.1-0.2-1.6c-0.8-3-3.4-4.5-5.9-4.5h-0.1c-0.1,0-0.3,0-0.4-0.1
		c0.2-3,0.3-6.5,0.4-8.7l4.5-2.4c1.5-0.8,2.4-2.3,2.5-4c0.1-1.8,0.1-3.3,0.1-4.4v-1.7c0.3-3.3-1-6-3.5-7.1
		c-2.3-1.1-2.4-1.1-27.3,8.6c-11.4,4.4-22.8,9-22.9,9.1c0,0-0.1,0-0.1,0.1c0,0-1.6,0.7-3.5,0.8c-1.9,0.1-9-0.2-13.1-0.4
		c-4.5-0.5-6.8,1.8-7.4,4.1c-0.1,0.5-0.2,1.1-0.4,2.7c-0.2,2.7-0.4,7-0.4,7.2c0,0,0,0,0,0.1l-2.7-0.9C47.9,5,41.3,2.5,36.4-1.2
		C21.2-12.6,7.8-15.1-0.7-15.1c-1.9,0-3.7,0.1-5.6,0.3c-2.4,0.3-4.2,2.3-4.2,4.7v23.2c-0.1,1.7-1.5,1.9-2.3,2
		c-2.6,0-29.3,0.3-46.3,4.3c-0.2-1.8-0.7-3.6-2.4-5c-2.4-2.1-5.5-1.7-7.6-1.3c-0.2,0-0.5,0.1-0.8,0.2l0,0c-0.3,0.1-0.6,0.2-0.9,0.3
		h-0.1c-0.3,0.1-0.6,0.2-0.9,0.3h-0.1c-0.3,0.1-0.6,0.3-0.9,0.4c0,0-0.1,0-0.1,0.1c-0.3,0.1-0.5,0.3-0.8,0.4l-0.2,0.1
		c-0.3,0.1-0.5,0.3-0.8,0.5l-0.2,0.1c-0.2,0.2-0.5,0.3-0.7,0.5l-0.3,0.2c-0.2,0.2-0.4,0.3-0.6,0.5l-0.3,0.2
		c-0.2,0.2-0.4,0.3-0.6,0.5c-0.1,0.1-0.2,0.2-0.3,0.3c-0.2,0.2-0.3,0.3-0.5,0.5c-0.1,0.1-0.2,0.2-0.3,0.3l-0.1,0.1
		c-0.1,0.2-0.3,0.3-0.4,0.5l0,0c-6.2,1.4-25.5,7-44.1,22.4c-0.1,0-0.1,0.1-0.2,0.1c-0.2,0.2-0.3,0.3-0.5,0.5l-0.2,0.2
		c-0.5,0.4-1,0.9-1.5,1.3c-0.3,0.3-0.6,0.5-0.9,0.8L-127,45c-0.1,0.1-0.2,0.2-0.3,0.3c-0.9,0.8-1.8,1.7-2.6,2.6
		c-0.1,0.1-0.1,0.1-0.2,0.2l-0.3,0.3c-0.3,0.3-0.5,0.5-0.8,0.8l-0.2,0.2c-0.1,0.1-0.3,0.3-0.4,0.4c-0.1,0.1-0.1,0.2-0.2,0.3
		c-1.2,1.3-2.2,2.5-3.2,3.7c-1.4,1.2-2.7,2.4-3.9,3.6c-0.1,0.1-0.1,0.1-0.2,0.2c-1,1.1-5.7,6.6-3.3,12.3
		C-139.9,74.7-134.3,75.5-131.1,75.1z"/>
	<path class="st6" d="M74.1,13.3L74.1,13.3L74.1,13.3L74.1,13.3z M-131.5,74.7h20.3c0.3,0.5,0.7,0.9,1,1.4l0.1,0.1
		c0.8,1,1.7,2,2.6,2.9l0.1,0.1c0.4,0.4,0.9,0.8,1.3,1.2l0.1,0.1c0.5,0.4,1,0.8,1.5,1.2c0,0,0.1,0,0.1,0.1c0.5,0.3,1,0.7,1.5,1
		l0.1,0.1l0.2,0.1c1,0.7,2.2,1.3,3.3,1.8l0.4,0.2c0.5,0.2,1,0.4,1.5,0.6l0.2,0.1c0.6,0.2,1.2,0.4,1.7,0.6l0.4,0.1
		c0.5,0.1,1,0.3,1.5,0.4l0.4,0.1c0.6,0.1,1.2,0.2,1.8,0.3h0.3c0.5,0.1,1,0.1,1.6,0.2h0.5c0.6,0,1.3,0.1,1.9,0.1
		c9.7,0,18.7-4.8,24.2-12.7H38.5c0.1,0.1,0.2,0.2,0.2,0.3l0.2,0.2c0.9,1.1,1.8,2.1,2.8,3.1l0.2,0.2c0.5,0.4,0.9,0.9,1.4,1.3l0.1,0.1
		c0.5,0.4,1.1,0.9,1.6,1.3l0.2,0.1c0.5,0.4,1,0.7,1.5,1l0.3,0.2c1.1,0.7,2.3,1.4,3.5,1.9l0.4,0.2c0.5,0.2,1.1,0.5,1.7,0.7l0.2,0.1
		c0.6,0.2,1.2,0.4,1.9,0.6l0.4,0.1c0.5,0.1,1.1,0.3,1.6,0.4l0.5,0.1c0.7,0.1,1.3,0.3,2,0.4l0.4,0.1c0.6,0.1,1.1,0.1,1.7,0.2
		c0.2,0,0.4,0,0.6,0c0.8,0.1,1.5,0.1,2.1,0.1c10.1,0,19.5-4.7,25.5-12.7h11.1c13,0.5,16.1-1.9,17.2-3.3c1.2-1.3,2.3-3.6,2.1-7.9
		v-3.9c0-2.7-1.5-5.6-4.4-7l-10.3-24.9c-0.1-0.1-0.1-0.3-0.2-0.4c-0.3-0.6-1.7-3-5.2-5.1l1.6-7l17.1,1.3c0.1,0,0.1,0,0.2,0
		c5.1,0.2,8.6-2,9.3-5.6c0.1-0.5,0.2-1.1,0.3-3.1c0-0.5,0-1.1-0.2-1.6c-0.8-3-3.4-4.5-5.9-4.5h-0.1c-0.1,0-0.3,0-0.4-0.1
		c0.2-3,0.3-6.5,0.4-8.7l4.5-2.4c1.5-0.8,2.4-2.3,2.5-4c0.1-1.8,0.1-3.3,0.1-4.4v-1.7c0.3-3.3-1-6-3.5-7.1
		c-2.3-1.1-2.4-1.1-27.3,8.6C87-13.6,75.6-9,75.5-8.9c0,0-0.1,0-0.1,0.1c0,0-1.6,0.7-3.5,0.8c-1.9,0.1-9-0.2-13.1-0.4
		c-4.5-0.5-6.8,1.8-7.4,4.1c-0.1,0.5-0.2,1.1-0.4,2.7c-0.2,2.7-0.4,7-0.4,7.2c0,0,0,0,0,0.1l-2.7-0.9c-0.6-0.2-7.2-2.7-12.1-6.4
		C20.6-13,7.2-15.5-1.3-15.5c-1.9,0-3.7,0.1-5.6,0.3c-2.4,0.3-4.2,2.3-4.2,4.7v23.2c-0.1,1.7-1.5,1.9-2.3,2
		c-2.6,0-29.3,0.3-46.3,4.3c-0.2-1.8-0.7-3.6-2.4-5c-2.4-2.1-5.5-1.7-7.6-1.3c-0.2,0-0.5,0.1-0.8,0.2l0,0c-0.3,0.1-0.6,0.2-0.9,0.3
		h-0.1c-0.3,0.1-0.6,0.2-0.9,0.3h-0.1c-0.3,0.1-0.6,0.3-0.9,0.4c0,0-0.1,0-0.1,0.1c-0.3,0.1-0.5,0.3-0.8,0.4l-0.2,0.1
		c-0.3,0.1-0.5,0.3-0.8,0.5l-0.2,0.1c-0.2,0.2-0.5,0.3-0.7,0.5l0.1,0.1c-0.2,0.2-0.4,0.3-0.6,0.5l-0.3,0.2c-0.2,0.2-0.4,0.3-0.6,0.5
		c-0.1,0.1-0.2,0.2-0.3,0.3c-0.2,0.2-0.3,0.3-0.5,0.5c-0.1,0.1-0.2,0.2-0.3,0.3l-0.1,0.1c-0.1,0.2-0.3,0.3-0.4,0.5l0,0
		c-6.2,1.4-25.5,7-44.1,22.4c-0.1,0-0.1,0.1-0.2,0.1c-0.2,0.2-0.3,0.3-0.5,0.5l-0.1,0.3c-0.5,0.4-1,0.9-1.5,1.3
		c-0.3,0.3-0.6,0.5-0.9,0.8l-0.6,0.6c-0.1,0.1-0.2,0.2-0.3,0.3c-0.9,0.8-1.8,1.7-2.6,2.6c-0.1,0.1-0.1,0.1-0.2,0.2l-0.3,0.3
		c-0.3,0.3-0.5,0.5-0.8,0.8l-0.2,0.2c-0.1,0.1-0.3,0.3-0.4,0.4c-0.1,0.1-0.1,0.2-0.2,0.3c-1.2,1.3-2.2,2.5-3.2,3.7
		c-1.4,1.2-2.7,2.4-3.9,3.6c-0.1,0.1-0.1,0.1-0.2,0.2c-1,1.1-5.7,6.6-3.3,12.3C-140.4,74.3-134.7,75.1-131.5,74.7z"/>
	<path class="st7" d="M73.7,12.9L73.7,12.9L73.7,12.9L73.7,12.9z M-131.9,74.3h20.3c0.3,0.5,0.7,0.9,1,1.4l0.1,0.1
		c0.8,1,1.7,2,2.6,2.9l0.1,0.1c0.4,0.4,0.9,0.8,1.3,1.2l0.1,0.1c0.5,0.4,1,0.8,1.5,1.2c0,0,0.1,0,0.1,0.1c0.5,0.3,1,0.7,1.5,1
		l0.1,0.1l0.2,0.1c1,0.7,2.2,1.3,3.3,1.8l0.4,0.2c0.5,0.2,1,0.4,1.5,0.6l0.2,0.1c0.6,0.2,1.2,0.4,1.7,0.6l0.4,0.1
		c0.5,0.1,1,0.3,1.5,0.4l0.4,0.1c0.6,0.1,1.2,0.2,1.8,0.3h0.3c0.5,0.1,1,0.1,1.6,0.2h0.5c0.6,0,1.3,0.1,1.9,0.1
		c9.7,0,18.7-4.8,24.2-12.7H38.1c0.1,0.1,0.2,0.2,0.2,0.3l0.2,0.2c0.9,1.1,1.8,2.1,2.8,3.1l0.2,0.2c0.5,0.4,0.9,0.9,1.4,1.3l0.1,0.1
		c0.5,0.4,1.1,0.9,1.6,1.3l0.2,0.1c0.5,0.4,1,0.7,1.5,1l0.3,0.2c1.1,0.7,2.3,1.4,3.5,1.9l0.4,0.2c0.5,0.2,1.1,0.5,1.7,0.7l0.2,0.1
		c0.6,0.2,1.2,0.4,1.9,0.6l0.4,0.1c0.5,0.1,1.1,0.3,1.6,0.4l0.5,0.1c0.7,0.1,1.3,0.3,2,0.4l0.4,0.1c0.6,0.1,1.1,0.1,1.7,0.2
		c0.2,0,0.4,0,0.6,0c0.8,0.1,1.5,0.1,2.1,0.1c10.1,0,19.5-4.7,25.5-12.7h11.1c13,0.5,16.1-1.9,17.2-3.3c1.2-1.3,2.3-3.6,2.1-7.9v-4
		c0-2.7-1.5-5.6-4.4-7l-10.2-24.9c-0.1-0.1-0.1-0.3-0.2-0.4c-0.3-0.6-1.7-3-5.2-5.1l1.6-7l17.1,1.3c0.1,0,0.1,0,0.2,0
		c5.1,0.2,8.6-2,9.3-5.6c0.1-0.5,0.2-1.1,0.3-3.1c0-0.5,0-1.1-0.2-1.6c-0.8-3-3.4-4.5-5.9-4.5h-0.1c-0.1,0-0.3,0-0.4-0.1
		c0.2-3,0.3-6.5,0.4-8.7l4.5-2.4c1.5-0.8,2.4-2.3,2.5-4c0.1-1.8,0.1-3.3,0.1-4.4V-20c0.3-3.3-1-6-3.5-7.1c-2.3-1.1-2.4-1.1-27.3,8.6
		c-11.4,4.4-22.8,9-22.9,9.1c0,0-0.1,0-0.1,0.1c0,0-1.6,0.7-3.5,0.8s-9-0.2-13.1-0.4c-4.5-0.5-6.8,1.8-7.4,4.1
		c-0.1,0.5-0.2,1.1-0.4,2.7c-0.2,2.7-0.4,7-0.4,7.2c0,0,0,0,0,0.1l-2.7-0.9C47,4.1,40.4,1.6,35.5-2.1C20.3-13.5,6.9-16-1.6-16
		c-1.9,0-3.7,0.1-5.6,0.3c-2.4,0.3-4.2,2.3-4.2,4.7v23.2c-0.1,1.7-1.5,1.9-2.3,2c-2.6,0-29.3,0.3-46.3,4.3c-0.2-1.8-0.7-3.6-2.4-5
		c-2.4-2.1-5.5-1.7-7.6-1.3c-0.2,0-0.5,0.1-0.8,0.2l0,0c-0.3,0.1-0.6,0.2-0.9,0.3h-0.1c-0.3,0.1-0.6,0.2-0.9,0.3h-0.1
		c-0.3,0.1-0.6,0.3-0.9,0.4c0,0-0.1,0-0.1,0.1c-0.3,0.1-0.5,0.3-0.8,0.4l-0.2,0.1c-0.3,0.1-0.5,0.3-0.8,0.5l-0.2,0.1
		c-0.2,0.2-0.5,0.3-0.7,0.5l-0.3,0.2c-0.2,0.2-0.4,0.3-0.6,0.5l-0.3,0.2c-0.2,0.2-0.4,0.3-0.6,0.5c-0.1,0.1-0.2,0.2-0.3,0.3
		c-0.2,0.2-0.3,0.3-0.5,0.5c-0.1,0.1-0.2,0.2-0.3,0.3l-0.1,0.1c-0.1,0.2-0.3,0.3-0.4,0.5l0,0c-6.2,1.4-25.5,7-44.1,22.4
		c-0.1,0-0.1,0.1-0.2,0.1c-0.2,0.2-0.3,0.3-0.5,0.5l-0.2,0.2c-0.5,0.4-1,0.9-1.5,1.3c-0.3,0.3-0.6,0.5-0.9,0.8l-0.2,0.7
		c-0.1,0.1-0.2,0.2-0.3,0.3c-0.9,0.8-1.8,1.7-2.6,2.6c-0.1,0.1-0.1,0.1-0.2,0.2l-0.3,0.3c-0.3,0.3-0.5,0.5-0.8,0.8l-0.2,0.2
		c-0.1,0.1-0.3,0.3-0.4,0.4c-0.1,0.1-0.1,0.2-0.2,0.3c-1.2,1.3-2.2,2.5-3.2,3.7c-1.4,1.2-2.7,2.4-3.9,3.6c-0.1,0.1-0.1,0.1-0.2,0.2
		c-1,1.1-5.7,6.6-3.3,12.3C-140.8,73.8-135.2,74.6-131.9,74.3z"/>
	<path class="st8" d="M73.3,12.5L73.3,12.5L73.3,12.5L73.3,12.5z M-132.3,73.9h20.2c0.3,0.5,0.7,0.9,1,1.4l0.1,0.1
		c0.8,1,1.7,2,2.6,2.9l0.1,0.1c0.4,0.4,0.9,0.8,1.3,1.2l0.1,0.1c0.5,0.4,1,0.8,1.5,1.2c0,0,0.1,0,0.1,0.1c0.5,0.3,1,0.7,1.5,1
		l0.1,0.1l0.2,0.1c1,0.7,2.2,1.3,3.3,1.8l0.4,0.2c0.5,0.2,1,0.4,1.5,0.6l0.2,0.1c0.6,0.2,1.2,0.4,1.7,0.6l0.4,0.1
		c0.5,0.1,1,0.3,1.5,0.4l0.4,0.1c0.6,0.1,1.2,0.2,1.8,0.3h0.3c0.5,0.1,1,0.1,1.6,0.2h0.5c0.6,0,1.3,0.1,1.9,0.1
		c9.7,0,18.7-4.8,24.2-12.7H37.6c0.1,0.1,0.2,0.2,0.2,0.3l0.2,0.2c0.9,1.1,1.8,2.1,2.8,3.1l0.2,0.2c0.5,0.4,0.9,0.9,1.4,1.3l0.1,0.1
		c0.5,0.4,1.1,0.9,1.6,1.3l0.2,0.1c0.5,0.4,1,0.7,1.5,1l0.3,0.2c1.1,0.7,2.3,1.4,3.5,1.9l0.4,0.2c0.5,0.2,1.1,0.5,1.7,0.7l0.2,0.1
		c0.6,0.2,1.2,0.4,1.9,0.6l0.4,0.1c0.5,0.1,1.1,0.3,1.6,0.4l0.5,0.1c0.7,0.1,1.3,0.3,2,0.4l0.4,0.1c0.6,0.1,1.1,0.1,1.7,0.2
		c0.2,0,0.4,0,0.6,0c0.8,0.1,1.5,0.1,2.1,0.1c10.1,0,19.5-4.7,25.5-12.7h11.3c13,0.5,16.1-1.9,17.2-3.3c1.2-1.3,2.3-3.6,2.1-7.9
		v-3.9c0-2.7-1.5-5.6-4.4-7L104.5,27c-0.1-0.1-0.1-0.3-0.2-0.4c-0.3-0.6-1.7-3-5.2-5.1l1.6-7l17.1,1.3c0.1,0,0.1,0,0.2,0
		c5.1,0.2,8.6-2,9.3-5.6c0.1-0.5,0.2-1.1,0.3-3.1c0-0.5,0-1.1-0.2-1.6c-0.8-3-3.4-4.5-5.9-4.5h-0.1c-0.1,0-0.3,0-0.4-0.1
		c0.2-3,0.3-6.5,0.4-8.7l4.5-2.4c1.5-0.8,2.4-2.3,2.5-4c0.1-1.8,0.1-3.3,0.1-4.4v-1.7c0.3-3.3-1-6-3.5-7.1
		c-2.3-1.1-2.4-1.1-27.3,8.6c-11.4,4.4-22.8,9-22.9,9.1c0,0-0.1,0-0.1,0.1c0,0-1.6,0.7-3.5,0.8s-9-0.2-13.1-0.4
		c-4.5-0.5-6.8,1.8-7.4,4.1c-0.1,0.5-0.2,1.1-0.4,2.7c-0.2,2.7-0.4,7-0.4,7.2c0,0,0,0,0,0.1L47.2,4C46.6,3.8,40,1.3,35.1-2.4
		C19.9-13.8,6.5-16.3-2-16.3c-1.9,0-3.7,0.1-5.6,0.3c-2.4,0.3-4.2,2.3-4.2,4.7v23.2c-0.1,1.7-1.5,1.9-2.3,2
		c-2.6,0-29.3,0.3-46.3,4.3c-0.2-1.8-0.7-3.6-2.4-5c-2.4-2.1-5.5-1.7-7.6-1.3c-0.2,0-0.5,0.1-0.8,0.2l0,0c-0.3,0.1-0.6,0.2-0.9,0.3
		h-0.1c-0.3,0.1-0.6,0.2-0.9,0.3h-0.1c-0.3,0.1-0.6,0.3-0.9,0.4c0,0-0.1,0-0.1,0.1c-0.3,0.1-0.5,0.3-0.8,0.4h-0.1
		c-0.3,0.1-0.5,0.3-0.8,0.5l-0.2,0.1c-0.2,0.2-0.5,0.3-0.7,0.5l-0.3,0.2c-0.2,0.2-0.4,0.3-0.6,0.5l-0.3,0.2
		c-0.2,0.2-0.4,0.3-0.6,0.5c-0.1,0.1-0.2,0.2-0.3,0.3c-0.2,0.2-0.3,0.3-0.5,0.5c-0.1,0.1-0.2,0.2-0.3,0.3l-0.1,0.1
		c-0.1,0.2-0.3,0.3-0.4,0.5l0,0c-6.2,1.4-25.5,7-44.1,22.4c-0.1,0-0.1,0.1-0.2,0.1c-0.2,0.2-0.3,0.3-0.5,0.5l-0.2,0.2
		c-0.5,0.4-1,0.9-1.5,1.3c-0.3,0.3-0.6,0.5-0.9,0.8l-0.6,0.6c-0.1,0.1-0.2,0.2-0.3,0.3c-0.9,0.8-1.8,1.7-2.6,2.6
		c-0.1,0.1-0.1,0.1-0.2,0.2l-0.3,0.3c-0.3,0.3-0.5,0.5-0.8,0.8l-0.2,0.2c-0.1,0.1-0.3,0.3-0.4,0.4c-0.1,0.1-0.1,0.2-0.2,0.3
		c-1.2,1.3-2.2,2.5-3.2,3.7c-1.4,1.2-2.7,2.4-3.9,3.6c-0.1,0.1-0.1,0.1-0.2,0.2c-1,1.1-5.7,6.6-3.3,12.3
		C-141.2,73.4-135.6,74.2-132.3,73.9z"/>
	<path class="st9" d="M72.9,12.1L72.9,12.1L72.9,12.1L72.9,12.1z M-132.7,73.5h20.3c0.3,0.5,0.7,0.9,1,1.4l0.1,0.1
		c0.8,1,1.7,2,2.6,2.9l0.1,0.1c0.4,0.4,0.9,0.8,1.3,1.2l0.1,0.1c0.5,0.4,1,0.8,1.5,1.2c0,0,0.1,0,0.1,0.1c0.5,0.3,1,0.7,1.5,1
		l0.1,0.1l0.2,0.1c1,0.7,2.2,1.3,3.3,1.8l0.4,0.2c0.5,0.2,1,0.4,1.5,0.6l0.2,0.1c0.6,0.2,1.2,0.4,1.7,0.6l0.4,0.1
		c0.5,0.1,1,0.3,1.5,0.4l0.4,0.1c0.6,0.1,1.2,0.2,1.8,0.3h0.3c0.5,0.1,1,0.1,1.6,0.2h0.5c0.6,0,1.3,0.1,1.9,0.1
		c9.7,0,18.7-4.8,24.2-12.7H37.3c0.1,0.1,0.2,0.2,0.2,0.3l0.2,0.2c0.9,1.1,1.8,2.1,2.8,3.1l0.2,0.2c0.5,0.4,0.9,0.9,1.4,1.3l0.1,0.1
		c0.5,0.4,1.1,0.9,1.6,1.3l0.2,0.1c0.5,0.4,1,0.7,1.5,1l0.3,0.2c1.1,0.7,2.3,1.4,3.5,1.9l0.4,0.2c0.5,0.2,1.1,0.5,1.7,0.7l0.2,0.1
		c0.6,0.2,1.2,0.4,1.9,0.6l0.4,0.1c0.5,0.1,1.1,0.3,1.6,0.4l0.5,0.1c0.7,0.1,1.3,0.3,2,0.4l0.4,0.1c0.6,0.1,1.1,0.1,1.7,0.2
		c0.2,0,0.4,0,0.6,0c0.8,0.1,1.5,0.1,2.1,0.1c10.1,0,19.5-4.7,25.5-12.7h11.1c13,0.5,16.1-1.9,17.2-3.3c1.2-1.3,2.3-3.6,2.1-7.9
		v-3.9c0-2.7-1.5-5.6-4.4-7L104,26.6c-0.1-0.1-0.1-0.3-0.2-0.4c-0.3-0.6-1.7-3-5.2-5.1l1.6-7l17.1,1.3c0.1,0,0.1,0,0.2,0
		c5.1,0.2,8.6-2,9.3-5.6c0.1-0.5,0.2-1.1,0.3-3.1c0-0.5,0-1.1-0.2-1.6c-0.8-3-3.4-4.5-5.9-4.5h-0.1c-0.1,0-0.3,0-0.4-0.1
		c0.2-3,0.3-6.5,0.4-8.7l4.5-2.4c1.5-0.8,2.4-2.3,2.5-4c0.1-1.8,0.1-3.3,0.1-4.4v-1.7c0.3-3.3-1-6-3.5-7.1
		c-2.3-1.1-2.4-1.1-27.3,8.6c-11.4,4.4-22.8,9-22.9,9.1c0,0-0.1,0-0.1,0.1c0,0-1.6,0.7-3.5,0.8s-9-0.2-13.1-0.4
		c-4.5-0.5-6.8,1.8-7.4,4.1C50.1-5,50-4.4,49.8-2.8c-0.2,2.7-0.4,7-0.4,7.2c0,0,0,0,0,0.1l-2.7-0.9c-0.6-0.2-7.2-2.7-12.1-6.4
		C19.4-14.2,6-16.7-2.5-16.7c-1.9,0-3.7,0.1-5.6,0.3c-2.4,0.3-4.2,2.3-4.2,4.7v23.2c-0.1,1.7-1.5,1.9-2.3,2
		c-2.6,0-29.3,0.3-46.3,4.3c-0.2-1.8-0.7-3.6-2.4-5c-2.4-2.1-5.5-1.7-7.6-1.3c-0.2,0-0.5,0.1-0.8,0.2l0,0c-0.3,0.1-0.6,0.2-0.9,0.3
		h-0.1c-0.3,0.1-0.6,0.2-0.9,0.3h-0.1c-0.3,0.1-0.6,0.3-0.9,0.4c0,0-0.1,0-0.1,0.1c-0.3,0.1-0.5,0.3-0.8,0.4l0,0
		c-0.3,0.1-0.5,0.3-0.8,0.5l-0.2,0.1c-0.2,0.2-0.5,0.3-0.7,0.5l-0.3,0.2c-0.2,0.2-0.4,0.3-0.6,0.5l-0.2,0.2
		c-0.2,0.2-0.4,0.3-0.6,0.5c-0.1,0.1-0.2,0.2-0.3,0.3c-0.2,0.2-0.3,0.3-0.5,0.5c-0.1,0.1-0.2,0.2-0.3,0.3l-0.1,0.1
		c-0.1,0.2-0.3,0.3-0.4,0.5l0,0c-6.2,1.4-25.5,7-44.1,22.4c-0.1,0-0.1,0.1-0.2,0.1c-0.2,0.2-0.3,0.3-0.5,0.5l-0.2,0.2
		c-0.5,0.4-1,0.9-1.5,1.3c-0.3,0.3-0.6,0.5-0.9,0.8l-0.6,0.6c-0.1,0.1-0.2,0.2-0.3,0.3c-0.9,0.8-1.8,1.7-2.6,2.6
		c-0.1,0.1-0.1,0.1-0.2,0.2l-0.3,0.3c-0.3,0.3-0.5,0.5-0.8,0.8l-0.2,0.2c-0.1,0.1-0.3,0.3-0.4,0.4c-0.1,0.1-0.1,0.2-0.2,0.3
		c-1.2,1.3-2.2,2.5-3.2,3.7c-1.4,1.2-2.7,2.4-3.9,3.6c-0.1,0.1-0.1,0.1-0.2,0.2c-1,1.1-5.7,6.6-3.3,12.3
		C-141.6,73-136,73.8-132.7,73.5z"/>
	<path class="st10" d="M72.5,11.6L72.5,11.6L72.5,11.6L72.5,11.6z M-133.2,73.1h20.3c0.3,0.5,0.7,0.9,1,1.4l0.1,0.1
		c0.8,1,1.7,2,2.6,2.9l0.1,0.1c0.4,0.4,0.9,0.8,1.3,1.2l0.1,0.1c0.5,0.4,1,0.8,1.5,1.2c0,0,0.1,0,0.1,0.1c0.5,0.3,1,0.7,1.5,1
		l0.1,0.1l0.2,0.1c1,0.7,2.2,1.3,3.3,1.8l0.4,0.2c0.5,0.2,1,0.4,1.5,0.6l0.2,0.1c0.6,0.2,1.2,0.4,1.7,0.6l0.4,0.1
		c0.5,0.1,1,0.3,1.5,0.4l0.4,0.1c0.6,0.1,1.2,0.2,1.8,0.3h0.3c0.5,0.1,1,0.1,1.6,0.2h0.5c0.6,0,1.3,0.1,1.9,0.1
		c9.7,0,18.7-4.8,24.2-12.7H36.9c0.1,0.1,0.2,0.2,0.2,0.3l0.2,0.2c0.9,1.1,1.8,2.1,2.8,3.1l0.2,0.2c0.5,0.4,0.9,0.9,1.4,1.3l0.1,0.1
		c0.5,0.4,1.1,0.9,1.6,1.3l0.2,0.1c0.5,0.4,1,0.7,1.5,1l0.3,0.2c1.1,0.7,2.3,1.4,3.5,1.9l0.4,0.2c0.5,0.2,1.1,0.5,1.7,0.7l0.2,0.1
		c0.6,0.2,1.2,0.4,1.9,0.6l0.4,0.1c0.5,0.1,1.1,0.3,1.6,0.4l0.5,0.1c0.7,0.1,1.3,0.3,2,0.4l0.4,0.1c0.6,0.1,1.1,0.1,1.7,0.2
		c0.2,0,0.4,0,0.6,0c0.8,0.1,1.5,0.1,2.1,0.1c10.1,0,19.5-4.7,25.5-12.7H99c13,0.5,16.1-1.9,17.2-3.3c1.2-1.3,2.3-3.6,2.1-7.9v-3.9
		c0-2.7-1.5-5.6-4.4-7l-10.3-24.9c-0.1-0.1-0.1-0.3-0.2-0.4c-0.3-0.6-1.7-3-5.2-5.1l1.6-7l17.1,1.3c0.1,0,0.1,0,0.2,0
		c5.1,0.2,8.6-2,9.3-5.6c0.1-0.5,0.2-1.1,0.3-3.1c0-0.5,0-1.1-0.2-1.6c-0.8-3-3.4-4.5-5.9-4.5h-0.1c-0.1,0-0.3,0-0.4-0.1
		c0.2-3,0.3-6.5,0.4-8.7L125-11c1.5-0.8,2.4-2.3,2.5-4c0.1-1.8,0.1-3.3,0.1-4.4v-1.7c0.3-3.3-1-6-3.5-7.1c-2.3-1.1-2.4-1.1-27.3,8.6
		c-11.4,4.4-22.8,9-22.9,9.1c0,0-0.1,0-0.1,0.1c0,0-1.6,0.7-3.5,0.8s-9-0.2-13.1-0.4c-4.5-0.5-6.8,1.8-7.4,4.1
		c-0.1,0.5-0.2,1.1-0.4,2.7C49.2-0.5,49,3.8,49,4c0,0,0,0,0,0.1l-2.7-0.9C45.7,3,39.1,0.5,34.2-3.2C19-14.6,5.6-17.1-2.9-17.1
		c-1.9,0-3.7,0.1-5.6,0.3c-2.4,0.3-4.2,2.3-4.2,4.7v23.2c-0.1,1.7-1.5,1.9-2.3,2c-2.6,0-29.3,0.3-46.3,4.3c-0.2-1.8-0.7-3.6-2.4-5
		c-2.4-2.2-5.4-1.9-7.5-1.5c-0.2,0-0.5,0.1-0.8,0.2l0,0c-0.3,0.1-0.6,0.2-0.9,0.3H-73c-0.3,0.1-0.6,0.2-0.9,0.3H-74
		c-0.3,0.1-0.6,0.3-0.9,0.4c0,0-0.1,0-0.1,0.1c-0.3,0.1-0.5,0.3-0.8,0.4l-0.2,0.1c-0.3,0.1-0.5,0.3-0.8,0.5l-0.2,0.1
		c-0.2,0.2-0.5,0.3-0.7,0.5L-78,14c-0.2,0.2-0.4,0.3-0.6,0.5l-0.3,0.2c-0.2,0.2-0.4,0.3-0.6,0.5c-0.1,0.1-0.2,0.2-0.3,0.3
		c-0.2,0.2-0.3,0.3-0.5,0.5c-0.1,0.1-0.2,0.2-0.3,0.3l-0.1,0.1c-0.1,0.2-0.3,0.3-0.4,0.5l0,0c-6.2,1.4-25.5,7-44.1,22.4
		c-0.1,0-0.1,0.1-0.2,0.1c-0.2,0.2-0.3,0.3-0.5,0.5l-0.2,0.2c-0.5,0.4-1,0.9-1.5,1.3c-0.3,0.3-0.6,0.5-0.9,0.8l-0.6,0.6
		c-0.1,0.1-0.2,0.2-0.3,0.3c-0.9,0.8-1.8,1.7-2.6,2.6c-0.1,0.1-0.1,0.1-0.2,0.2l0.1,0.4c-0.3,0.3-0.5,0.5-0.8,0.8l-0.2,0.2
		c-0.1,0.1-0.3,0.3-0.4,0.4c-0.1,0.1-0.1,0.2-0.2,0.3c-1.2,1.3-2.2,2.5-3.2,3.7c-1.4,1.2-2.7,2.4-3.9,3.6c-0.1,0.1-0.1,0.1-0.2,0.2
		c-1,1.1-5.7,6.6-3.3,12.3C-142,72.6-136.4,73.4-133.2,73.1z"/>
	<path class="st11" d="M72,11.2L72,11.2L72,11.2L72,11.2z M-133.6,72.6h20.3c0.3,0.5,0.7,0.9,1,1.4l0.1,0.1c0.8,1,1.7,2,2.6,2.9
		l0.1,0.1c0.4,0.4,0.9,0.8,1.3,1.2l0.1,0.1c0.5,0.4,1,0.8,1.5,1.2c0,0,0.1,0,0.1,0.1c0.5,0.3,1,0.7,1.5,1l0.1,0.1l0.2,0.1
		c1,0.7,2.2,1.3,3.3,1.8l0.4,0.2c0.5,0.2,1,0.4,1.5,0.6l0.2,0.1c0.6,0.2,1.2,0.4,1.7,0.6l0.4,0.1c0.5,0.1,1,0.3,1.5,0.4l0.4,0.1
		c0.6,0.1,1.2,0.2,1.8,0.3h0.3c0.5,0.1,1,0.1,1.6,0.2h0.5c0.6,0,1.3,0.1,1.9,0.1c9.7,0,18.7-4.8,24.2-12.7H36.4
		c0.1,0.1,0.2,0.2,0.2,0.3l0.2,0.2c0.9,1.1,1.8,2.1,2.8,3.1l0.2,0.2c0.5,0.4,0.9,0.9,1.4,1.3l0.1,0.1c0.5,0.4,1.1,0.9,1.6,1.3
		l0.2,0.1c0.5,0.4,1,0.7,1.5,1l0.3,0.2c1.1,0.7,2.3,1.4,3.5,1.9l0.4,0.2c0.5,0.2,1.1,0.5,1.7,0.7l0.2,0.1c0.6,0.2,1.2,0.4,1.9,0.6
		l0.4,0.1c0.5,0.1,1.1,0.3,1.6,0.4l0.5,0.1c0.7,0.1,1.3,0.3,2,0.4l0.4,0.1c0.6,0.1,1.1,0.1,1.7,0.2c0.2,0,0.4,0,0.6,0
		c0.8,0.1,1.5,0.1,2.1,0.1c10.1,0,19.5-4.7,25.5-12.7h11.1c13,0.5,16.1-1.9,17.2-3.3c1.2-1.3,2.3-3.6,2.1-7.9v-3.9
		c0-2.7-1.5-5.6-4.4-7l-10.3-24.9c-0.1-0.1-0.1-0.3-0.2-0.4c-0.3-0.6-1.7-3-5.2-5.1l1.6-7l17.1,1.3c0.1,0,0.1,0,0.2,0
		c5.1,0.2,8.6-2,9.3-5.6c0.1-0.5,0.2-1.1,0.3-3.1c0-0.5,0-1.1-0.2-1.6c-0.8-3-3.4-4.5-5.9-4.5H120c-0.1,0-0.3,0-0.4-0.1
		c0.2-3,0.3-6.5,0.4-8.7l4.5-2.4c1.5-0.8,2.4-2.3,2.5-4c0.1-1.8,0.1-3.3,0.1-4.4v-1.7c0.3-3.3-1-6-3.5-7.1
		c-2.3-1.1-2.4-1.1-27.3,8.6c-11.4,4.4-22.8,9-22.9,9.1c0,0-0.1,0-0.1,0.1c0,0-1.6,0.7-3.5,0.8s-9-0.2-13.1-0.4
		c-4.5-0.5-6.8,1.8-7.4,4.1c-0.1,0.5-0.2,1.1-0.4,2.7c-0.2,2.7-0.4,7-0.4,7.2c0,0,0,0,0,0.1l-2.7-0.9C45.2,2.5,38.6,0,33.7-3.7
		C18.5-15.1,5.1-17.6-3.4-17.6c-1.9,0-3.7,0.1-5.6,0.3c-2.4,0.3-4.2,2.3-4.2,4.7v23.2c-0.1,1.7-1.5,1.9-2.3,2
		c-2.6,0-29.3,0.3-46.3,4.3c-0.2-1.8-0.7-3.6-2.4-5c-2.4-2.1-5.5-1.7-7.6-1.3c-0.2,0-0.5,0.1-0.8,0.2l0,0c-0.3,0.1-0.6,0.2-0.9,0.3
		h-0.1c-0.3,0.1-0.6,0.2-0.9,0.3h-0.1c-0.3,0.1-0.6,0.3-0.9,0.4c0,0-0.1,0-0.1,0.1c-0.3,0.1-0.5,0.3-0.8,0.4l-0.2,0.1
		c-0.3,0.1-0.5,0.3-0.8,0.5l-0.2,0.1c-0.2,0.2-0.5,0.3-0.7,0.5l-0.3,0.2c-0.2,0.2-0.4,0.3-0.6,0.5l0.1,0.2c-0.2,0.2-0.4,0.3-0.6,0.5
		c-0.1,0.1-0.2,0.2-0.3,0.3c-0.2,0.2-0.3,0.3-0.5,0.5c-0.1,0.1-0.2,0.2-0.3,0.3l-0.1,0.1c-0.1,0.2-0.3,0.3-0.4,0.5l0,0
		c-6.2,1.4-25.5,7-44.1,22.4c-0.1,0-0.1,0.1-0.2,0.1c-0.2,0.2-0.3,0.3-0.5,0.5l-0.2,0.2c-0.5,0.4-1,0.9-1.5,1.3
		c-0.3,0.3-0.6,0.5-0.9,0.8l-0.6,0.6c-0.1,0.1-0.2,0.2-0.3,0.3c-0.9,0.8-1.8,1.7-2.6,2.6c-0.1,0.1-0.1,0.1-0.2,0.2l-0.3,0.3
		c-0.3,0.3-0.5,0.5-0.8,0.8l-0.2,0.2c-0.1,0.1-0.3,0.3-0.4,0.4c-0.1,0.1-0.1,0.2-0.2,0.3c-1.2,1.3-2.2,2.5-3.2,3.7
		c-1.4,1.2-2.7,2.4-3.9,3.6c-0.1,0.1-0.1,0.1-0.2,0.2c-1,1.1-5.7,6.6-3.3,12.3C-142.4,72.2-136.8,73-133.6,72.6z"/>
	<path class="st12" d="M71.6,10.8L71.6,10.8L71.6,10.8L71.6,10.8z M-134,72.2h20.3c0.3,0.5,0.7,0.9,1,1.4l0.1,0.1
		c0.8,1,1.7,2,2.6,2.9l0.1,0.1c0.4,0.4,0.9,0.8,1.3,1.2l0.1,0.1c0.5,0.4,1,0.8,1.5,1.2c0,0,0.1,0,0.1,0.1c0.5,0.3,1,0.7,1.5,1
		l0.1,0.1l0.2,0.1c1,0.7,2.2,1.3,3.3,1.8l0.4,0.2c0.5,0.2,1,0.4,1.5,0.6l0.2,0.1c0.6,0.2,1.2,0.4,1.7,0.6l0.4,0.1
		c0.5,0.1,1,0.3,1.5,0.4l0.4,0.1c0.6,0.1,1.2,0.2,1.8,0.3h0.3c0.5,0.1,1,0.1,1.6,0.2h0.5c0.6,0,1.3,0.1,1.9,0.1
		c9.7,0,18.7-4.8,24.2-12.7H36c0.1,0.1,0.2,0.2,0.2,0.3l0.2,0.2c0.9,1.1,1.8,2.1,2.8,3.1l0.2,0.2c0.5,0.4,0.9,0.9,1.4,1.3l0.1,0.1
		c0.5,0.4,1.1,0.9,1.6,1.3l0.2,0.1c0.5,0.4,1,0.7,1.5,1l0.3,0.2c1.1,0.7,2.3,1.4,3.5,1.9l0.4,0.2c0.5,0.2,1.1,0.5,1.7,0.7l0.2,0.1
		c0.6,0.2,1.2,0.4,1.9,0.6l0.4,0.1c0.5,0.1,1.1,0.3,1.6,0.4l0.5,0.1c0.7,0.1,1.3,0.3,2,0.4l0.4,0.1c0.6,0.1,1.1,0.1,1.7,0.2
		c0.2,0,0.4,0,0.6,0c0.8,0.1,1.5,0.1,2.1,0.1C71.6,85,81,80.3,87,72.3h11.1c13,0.5,16.1-1.9,17.2-3.3c1.2-1.3,2.3-3.6,2.1-7.9v-3.9
		c0-2.7-1.5-5.6-4.4-7l-10.1-24.9c-0.1-0.1-0.1-0.3-0.2-0.4c-0.3-0.6-1.7-3-5.2-5.1l1.6-7l17.1,1.3c0.1,0,0.1,0,0.2,0
		c5.1,0.2,8.6-2,9.3-5.6c0.1-0.5,0.2-1.1,0.3-3.1c0-0.5,0-1.1-0.2-1.6c-0.8-3-3.4-4.5-5.9-4.5h-0.1c-0.1,0-0.3,0-0.4-0.1
		c0.2-3,0.3-6.5,0.4-8.7l4.5-2.4c1.5-0.8,2.4-2.3,2.5-4c0.1-1.8,0.1-3.3,0.1-4.4V-22c0.3-3.3-1-6-3.5-7.1c-2.3-1.1-2.4-1.1-27.3,8.6
		c-11.4,4.4-22.8,9-22.9,9.1c0,0-0.1,0-0.1,0.1c0,0-1.6,0.7-3.5,0.8s-9-0.2-13.1-0.4c-4.5-0.5-6.8,1.8-7.4,4.1
		c-0.1,0.5-0.2,1.1-0.4,2.7c-0.2,2.7-0.4,7-0.4,7.2c0,0,0,0,0,0.1l-2.7-0.9C45,2.1,38.4-0.4,33.5-4.1C18.3-15.5,4.9-18-3.6-18
		c-1.9,0-3.7,0.1-5.6,0.3c-2.4,0.3-4.2,2.3-4.2,4.7v23.2c-0.1,1.7-1.5,1.9-2.3,2c-2.6,0-29.3,0.3-46.3,4.3c-0.2-1.8-0.7-3.6-2.4-5
		c-2.4-2.1-5.5-1.7-7.6-1.3c-0.2,0-0.5,0.1-0.8,0.2l0,0c-0.3,0.1-0.6,0.2-0.9,0.3h-0.1c-0.3,0.1-0.6,0.2-0.9,0.3h-0.1
		c-0.3,0.1-0.6,0.3-0.9,0.4c0,0-0.1,0-0.1,0.1c-0.3,0.1-0.5,0.3-0.8,0.4l-0.2,0.1c-0.3,0.1-0.5,0.3-0.8,0.5l-0.2,0.1
		c-0.2,0.2-0.5,0.3-0.7,0.5l-0.1,0.1c-0.2,0.2-0.4,0.3-0.6,0.5l-0.3,0.2c-0.2,0.2-0.4,0.3-0.6,0.5c-0.1,0.1-0.2,0.2-0.3,0.3
		c-0.2,0.2-0.3,0.3-0.5,0.5c-0.1,0.1-0.2,0.2-0.3,0.3l-0.1,0.1c-0.1,0.2-0.3,0.3-0.4,0.5l0,0c-6.2,1.4-25.5,7-44.1,22.4
		c-0.1,0-0.1,0.1-0.2,0.1c-0.2,0.2-0.3,0.3-0.5,0.5l-0.2,0.2c-0.5,0.4-1,0.9-1.5,1.3c-0.3,0.3-0.6,0.5-0.9,0.8l-0.6,0.6
		c-0.1,0.1-0.2,0.2-0.3,0.3c-0.9,0.8-1.8,1.7-2.6,2.6c-0.1,0.1-0.1,0.1-0.2,0.2l-0.3,0.3c-0.3,0.3-0.5,0.5-0.8,0.8l-0.2,0.2
		c-0.1,0.1-0.3,0.3-0.4,0.4c-0.1,0.1-0.1,0.2-0.2,0.3c-1.2,1.3-2.2,2.5-3.2,3.7c-1.4,1.2-2.7,2.4-3.9,3.6c-0.1,0.1-0.1,0.1-0.2,0.2
		c-1,1.1-5.7,6.6-3.3,12.3C-142.9,71.8-137.2,72.6-134,72.2z"/>
	<path class="st13" d="M71.2,10.4L71.2,10.4L71.2,10.4L71.2,10.4z M-134.4,71.8h20.3c0.3,0.5,0.7,0.9,1,1.4l0.1,0.1
		c0.8,1,1.7,2,2.6,2.9l0.1,0.1c0.4,0.4,0.9,0.8,1.3,1.2l0.1,0.1c0.5,0.4,1,0.8,1.5,1.2c0,0,0.1,0,0.1,0.1c0.5,0.3,1,0.7,1.5,1
		l0.1,0.1l0.2,0.1c1,0.7,2.2,1.3,3.3,1.8l0.4,0.2c0.5,0.2,1,0.4,1.5,0.6l0.2,0.1c0.6,0.2,1.2,0.4,1.7,0.6l0.4,0.1
		c0.5,0.1,1,0.3,1.5,0.4l0.4,0.1c0.6,0.1,1.2,0.2,1.8,0.3h0.3c0.5,0.1,1,0.1,1.6,0.2h0.5c0.6,0,1.3,0.1,1.9,0.1
		c9.7,0,18.7-4.8,24.2-12.7H35.6c0.1,0.1,0.2,0.2,0.2,0.3l0.2,0.2c0.9,1.1,1.8,2.1,2.8,3.1l0.2,0.2c0.5,0.4,0.9,0.9,1.4,1.3l0.1,0.1
		c0.5,0.4,1.1,0.9,1.6,1.3l0.2,0.1c0.5,0.4,1,0.7,1.5,1l0.3,0.2c1.1,0.7,2.3,1.4,3.5,1.9l0.4,0.2c0.5,0.2,1.1,0.5,1.7,0.7l0.2,0.1
		c0.6,0.2,1.2,0.4,1.9,0.6l0.4,0.1c0.5,0.1,1.1,0.3,1.6,0.4l0.5,0.1c0.7,0.1,1.3,0.3,2,0.4l0.4,0.1c0.6,0.1,1.1,0.1,1.7,0.2
		c0.2,0,0.4,0,0.6,0c0.8,0.1,1.5,0.1,2.1,0.1c10.1,0,19.5-4.7,25.5-12.7h11.1c13,0.5,16.1-1.9,17.2-3.3c1.2-1.3,2.3-3.6,2.1-7.9
		v-3.9c0-2.7-1.5-5.6-4.4-7l-10.3-24.9c-0.1-0.1-0.1-0.3-0.2-0.4c-0.3-0.6-1.7-3-5.2-5.1l1.6-7l17.1,1.3c0.1,0,0.1,0,0.2,0
		c5.1,0.2,8.6-2,9.3-5.6c0.1-0.5,0.2-1.1,0.3-3.1c0-0.5,0-1.1-0.2-1.6c-0.8-3-3.4-4.5-5.9-4.5h-0.1c-0.1,0-0.3,0-0.4-0.1
		c0.2-3,0.3-6.5,0.4-8.7l4.5-2.4c1.5-0.8,2.4-2.3,2.5-4c0.1-1.8,0.1-3.3,0.1-4.4v-1.7c0.3-3.3-1-6-3.5-7.1
		c-2.3-1.1-2.4-1.1-27.3,8.6c-11.4,4.4-22.8,9-22.9,9.1c0,0-0.1,0-0.1,0.1c0,0-1.6,0.7-3.5,0.8s-9-0.2-13.1-0.4
		c-4.5-0.5-6.8,1.8-7.4,4.1c-0.1,0.5-0.2,1.1-0.4,2.7c-0.2,2.7-0.4,7-0.4,7.2c0,0,0,0,0,0.1L45,1.9c-0.6-0.2-7.2-2.7-12.1-6.4
		C17.7-15.9,4.3-18.4-4.2-18.4c-1.9,0-3.7,0.1-5.6,0.3c-2.4,0.3-4.2,2.3-4.2,4.7V9.8c-0.1,1.7-1.5,1.9-2.3,2
		c-2.6,0-29.3,0.3-46.3,4.3c-0.2-1.8-0.7-3.6-2.4-5c-2.4-2.1-5.5-1.7-7.6-1.3c-0.2,0-0.5,0.1-0.8,0.2l0,0c-0.3,0.1-0.6,0.2-0.9,0.3
		h-0.1c-0.3,0.1-0.6,0.2-0.9,0.3h-0.1c-0.3,0.1-0.6,0.3-0.9,0.4c0,0-0.1,0-0.1,0.1c-0.3,0.1-0.5,0.3-0.8,0.4l-0.2,0.1
		c-0.3,0.1-0.5,0.3-0.8,0.5h0.1c-0.2,0.2-0.5,0.3-0.7,0.5l-0.3,0.2c-0.2,0.2-0.4,0.3-0.6,0.5l-0.3,0.2c-0.2,0.2-0.4,0.3-0.6,0.5
		c-0.1,0.1-0.2,0.2-0.3,0.3c-0.2,0.2-0.3,0.3-0.5,0.5c-0.1,0.1-0.2,0.2-0.3,0.3l-0.1,0.1c-0.1,0.2-0.3,0.3-0.4,0.5l0,0
		c-6,1.5-25.3,7.1-43.9,22.5c-0.1,0-0.1,0.1-0.2,0.1c-0.2,0.2-0.3,0.3-0.5,0.5L-127,39c-0.5,0.4-1,0.9-1.5,1.3
		c-0.3,0.3-0.6,0.5-0.9,0.8l-0.6,0.6c-0.1,0.1-0.2,0.2-0.3,0.3c-0.9,0.8-1.8,1.7-2.6,2.6c-0.1,0.1-0.1,0.1-0.2,0.2l-0.3,0.3
		c-0.3,0.3-0.5,0.5-0.8,0.8l-0.2,0.2c-0.1,0.1-0.3,0.3-0.4,0.4c-0.1,0.1-0.1,0.2-0.2,0.3c-1.1,1.2-2.2,2.4-3.1,3.6
		c-1.4,1.2-2.7,2.4-3.9,3.6c-0.1,0.1-0.1,0.1-0.2,0.2c-1,1.1-5.7,6.6-3.3,12.3C-143.3,71.4-137.7,72.1-134.4,71.8z"/>
	<path class="st14" d="M70.8,10L70.8,10L70.8,10L70.8,10z M-134.8,71.4h20.3c0.3,0.5,0.7,0.9,1,1.4l0.1,0.1c0.8,1,1.7,2,2.6,2.9
		l0.1,0.1c0.4,0.4,0.9,0.8,1.3,1.2l0.1,0.1c0.5,0.4,1,0.8,1.5,1.2c0,0,0.1,0,0.1,0.1c0.5,0.3,1,0.7,1.5,1l0.1,0.1l0.2,0.1
		c1,0.7,2.2,1.3,3.3,1.8l0.4,0.2c0.5,0.2,1,0.4,1.5,0.6l0.2,0.1c0.6,0.2,1.2,0.4,1.7,0.6l0.4,0.1c0.5,0.1,1,0.3,1.5,0.4l0.4,0.1
		c0.6,0.1,1.2,0.2,1.8,0.3h0.3c0.5,0.1,1,0.1,1.6,0.2h0.5c0.6,0,1.3,0.1,1.9,0.1c9.7,0,18.7-4.8,24.2-12.7H35.2
		c0.1,0.1,0.2,0.2,0.2,0.3l0.2,0.2c0.9,1.1,1.8,2.1,2.8,3.1l0.2,0.2c0.5,0.4,0.9,0.9,1.4,1.3l0.1,0.1c0.5,0.4,1.1,0.9,1.6,1.3
		l0.2,0.1c0.5,0.4,1,0.7,1.5,1l0.3,0.2c1.1,0.7,2.3,1.4,3.5,1.9l0.4,0.2c0.5,0.2,1.1,0.5,1.7,0.7l0.2,0.1c0.6,0.2,1.2,0.4,1.9,0.6
		l0.4,0.1c0.5,0.1,1.1,0.3,1.6,0.4l0.5,0.1c0.7,0.1,1.3,0.3,2,0.4l0.4,0.1c0.6,0.1,1.1,0.1,1.7,0.2c0.2,0,0.4,0,0.6,0
		c0.8,0.1,1.5,0.1,2.1,0.1c10.1,0,19.5-4.7,25.5-12.7h11.1c13,0.5,16.1-1.9,17.2-3.3c1.2-1.3,2.3-3.6,2.1-7.9v-3.9
		c0-2.7-1.5-5.6-4.4-7l-10.3-24.9c-0.1-0.1-0.1-0.3-0.2-0.4c-0.3-0.6-1.7-3-5.2-5.1l1.6-7l17.1,1.3c0.1,0,0.1,0,0.2,0
		c5.1,0.2,8.6-2,9.3-5.6c0.1-0.5,0.2-1.1,0.3-3.1c0-0.5,0-1.1-0.2-1.6c-0.8-3-3.4-4.5-5.9-4.5h-0.1c-0.1,0-0.3,0-0.4-0.1
		c0.2-3,0.3-6.5,0.4-8.7l4.5-2.4c1.5-0.8,2.4-2.3,2.5-4c0.1-1.8,0.1-3.3,0.1-4.4v-1.7c0.3-3.3-1-6-3.5-7.1
		c-2.3-1.1-2.4-1.1-27.3,8.6c-11.4,4.4-22.8,9-22.9,9.1c0,0-0.1,0-0.2,0.1c0,0-1.6,0.7-3.5,0.8s-9-0.2-13.1-0.4
		c-4.5-0.5-6.8,1.8-7.4,4.1c-0.1,0.5-0.2,1.1-0.4,2.7c-0.2,2.7-0.4,7-0.4,7.2c0,0,0,0,0,0.1l-2.7-0.9c-0.6-0.2-7.2-2.7-12.1-6.4
		C17.2-16.3,3.8-18.8-4.7-18.8c-1.9,0-3.7,0.1-5.6,0.3c-2.4,0.3-4.2,2.3-4.2,4.7V9.4c-0.1,1.7-1.5,1.9-2.3,2
		c-2.6,0-29.3,0.3-46.3,4.3c-0.2-1.8-0.7-3.6-2.4-5C-67.9,8.6-71,9-73.1,9.4c-0.2,0-0.5,0.1-0.8,0.2l0,0c-0.3,0.1-0.6,0.2-0.9,0.3
		h-0.1c-0.3,0.1-0.6,0.2-0.9,0.3h-0.1c-0.3,0.1-0.6,0.3-0.9,0.4c0,0-0.1,0-0.1,0.1c-0.3,0.1-0.5,0.3-0.8,0.4l-0.2,0.1
		c-0.3,0.1-0.5,0.3-0.8,0.5l-0.2,0.1c-0.2,0.2-0.5,0.3-0.7,0.5l-0.3,0.2c-0.2,0.2-0.4,0.3-0.6,0.5l-0.3,0.2
		c-0.2,0.2-0.4,0.3-0.6,0.5c-0.1,0.1-0.2,0.2-0.3,0.3c-0.2,0.2-0.3,0.3-0.5,0.5c-0.1,0.1-0.2,0.2-0.3,0.3l-0.1,0.1
		c-0.1,0.2-0.3,0.3-0.4,0.5l0,0c-6.2,1.4-25.5,7-44.1,22.4c-0.1,0-0.1,0.1-0.2,0.1c-0.2,0.2-0.3,0.3-0.5,0.5l-0.2,0.2
		c-0.5,0.4-1,0.9-1.5,1.3c-0.3,0.3-0.6,0.5-0.9,0.8l-0.6,0.6c-0.1,0.1-0.2,0.2-0.3,0.3c-0.9,0.8-1.8,1.7-2.6,2.6
		c-0.1,0.1-0.1,0.1-0.2,0.2l-0.3,0.3c-0.3,0.3-0.5,0.5-0.8,0.8l-0.2,0.2c-0.1,0.1-0.3,0.3-0.4,0.4c-0.1,0.1-0.1,0.2-0.2,0.3
		c-1.2,1.3-2.2,2.5-3.2,3.7c-1.4,1.2-2.7,2.4-3.9,3.6c-0.1,0.1-0.1,0.1-0.2,0.2c-1,1.1-5.7,6.6-3.3,12.3
		C-143.7,70.9-138.1,71.7-134.8,71.4z"/>
	<path class="st15" d="M70.4,9.6L70.4,9.6L70.4,9.6L70.4,9.6z M-135.2,71h20.3c0.3,0.5,0.7,0.9,1,1.4l0.1,0.1c0.8,1,1.7,2,2.6,2.9
		l0.1,0.1c0.4,0.4,0.9,0.8,1.3,1.2l0.1,0.1c0.5,0.4,1,0.8,1.5,1.2c0,0,0.1,0,0.1,0.1c0.5,0.3,1,0.7,1.5,1l0.1,0.1l0.2,0.1
		c1,0.7,2.2,1.3,3.3,1.8l0.4,0.2c0.5,0.2,1,0.4,1.5,0.6l0.2,0.1c0.6,0.2,1.2,0.4,1.7,0.6l0.4,0.1c0.5,0.1,1,0.3,1.5,0.4l0.4,0.1
		c0.6,0.1,1.2,0.2,1.8,0.3h0.3c0.5,0.1,1,0.1,1.6,0.2h0.5c0.6,0,1.3,0.1,1.9,0.1c9.7,0,18.7-4.8,24.2-12.7H34.8
		c0.1,0.1,0.2,0.2,0.2,0.3l0.2,0.2c0.9,1.1,1.8,2.1,2.8,3.1l0.2,0.2c0.5,0.4,0.9,0.9,1.4,1.3l0.1,0.1c0.5,0.4,1.1,0.9,1.6,1.3
		l0.2,0.1c0.5,0.4,1,0.7,1.5,1l0.3,0.2c1.1,0.7,2.3,1.4,3.5,1.9l0.4,0.2c0.5,0.2,1.1,0.5,1.7,0.7l0.2,0.1c0.6,0.2,1.2,0.4,1.9,0.6
		l0.4,0.1c0.5,0.1,1.1,0.3,1.6,0.4l0.5,0.1c0.7,0.1,1.3,0.3,2,0.4l0.4,0.1c0.6,0.1,1.1,0.1,1.7,0.2c0.2,0,0.4,0,0.6,0
		c0.8,0.1,1.5,0.1,2.1,0.1c10.1,0,19.5-4.7,25.5-12.7h11.1c13,0.5,16.1-1.9,17.2-3.3c1.2-1.3,2.3-3.6,2.1-7.9V56
		c0-2.7-1.5-5.6-4.4-7l-10.3-24.9c-0.1-0.1-0.1-0.3-0.2-0.4c-0.3-0.6-1.7-3-5.2-5.1l1.6-7l17.1,1.3c0.1,0,0.1,0,0.2,0
		c5.1,0.2,8.6-2,9.3-5.6c0.1-0.5,0.2-1.1,0.3-3.1c0-0.5,0-1.1-0.2-1.6c-0.8-3-3.4-4.5-5.9-4.5h-0.1c-0.1,0-0.3,0-0.4-0.1
		c0.2-3,0.3-6.5,0.4-8.7l4.5-2.4c1.5-0.8,2.4-2.3,2.5-4c0.1-1.8,0.1-3.3,0.1-4.4v-1.7c0.3-3.3-1-6-3.5-7.1
		c-2.3-1.1-2.4-1.1-27.3,8.6c-11.4,4.4-22.8,9-22.9,9.1c0,0-0.1,0-0.1,0.1c0,0-1.6,0.7-3.5,0.8s-9-0.2-13.1-0.4
		c-4.5-0.5-6.8,1.8-7.4,4.1c-0.1,0.5-0.2,1.1-0.4,2.7c-0.2,2.7-0.4,7-0.4,7.2c0,0,0,0,0,0.1l-2.7-0.9C43.6,0.9,37-1.6,32.1-5.3
		C16.9-16.7,3.5-19.2-5-19.2c-1.9,0-3.7,0.1-5.6,0.3c-2.4,0.3-4.2,2.3-4.2,4.7V9c-0.1,1.7-1.5,1.9-2.3,2c-2.6,0-29.3,0.3-46.3,4.3
		c-0.2-1.8-0.7-3.6-2.4-5c-2.4-2.1-5.5-1.7-7.6-1.3c-0.2,0-0.5,0.1-0.8,0.2l0,0c-0.3,0.1-0.6,0.2-0.9,0.3h-0.1
		c-0.3,0.1-0.6,0.2-0.9,0.3h-0.1c-0.3,0.1-0.6,0.3-0.9,0.4c0,0-0.1,0-0.1,0.1c-0.3,0.1-0.5,0.3-0.8,0.4l-0.2,0.1
		c-0.3,0.1-0.5,0.3-0.8,0.5l-0.2,0.1c-0.2,0.2-0.5,0.3-0.7,0.5l-0.3,0.2c-0.2,0.2-0.4,0.3-0.6,0.5l-0.3,0.2
		c-0.2,0.2-0.4,0.3-0.6,0.5c-0.1,0.1-0.2,0.2-0.3,0.3c-0.2,0.2-0.3,0.3-0.5,0.5c-0.1,0.1-0.2,0.2-0.3,0.3l-0.1,0.1
		c-0.1,0.2-0.3,0.3-0.4,0.5l0,0c-6.2,1.4-25.5,7-44.1,22.4c-0.1,0-0.1,0.1-0.2,0.1c-0.2,0.2-0.3,0.3-0.5,0.5l0.2,0.2
		c-0.5,0.4-1,0.9-1.5,1.3c-0.3,0.3-0.6,0.5-0.9,0.8l-0.6,0.6c-0.1,0.1-0.2,0.2-0.3,0.3c-0.9,0.8-1.8,1.7-2.6,2.6
		c-0.1,0.1-0.1,0.1-0.2,0.2l-0.2,0.2c-0.3,0.3-0.5,0.5-0.8,0.8l-0.1,0.2c-0.1,0.1-0.3,0.3-0.4,0.4c-0.1,0.1-0.1,0.2-0.2,0.3
		c-1.2,1.3-2.2,2.5-3.2,3.7c-1.4,1.2-2.7,2.4-3.9,3.6c-0.1,0.1-0.1,0.1-0.2,0.2c-1,1.1-5.7,6.6-3.3,12.3
		C-144.1,70.5-138.5,71.3-135.2,71z"/>
	<path class="st16" d="M70,9.2L70,9.2L70,9.2L70,9.2z M-135.7,70.6h20.3c0.3,0.5,0.7,0.9,1,1.4l0.1,0.1c0.8,1,1.7,2,2.6,2.9l0.1,0.1
		c0.4,0.4,0.9,0.8,1.3,1.2l0.1,0.1c0.5,0.4,1,0.8,1.5,1.2c0,0,0.1,0,0.1,0.1c0.5,0.3,1,0.7,1.5,1l0.1,0.1l0.2,0.1
		c1,0.7,2.2,1.3,3.3,1.8l0.4,0.2c0.5,0.2,1,0.4,1.5,0.6l0.2,0.1c0.6,0.2,1.2,0.4,1.7,0.6l0.4,0.1c0.5,0.1,1,0.3,1.5,0.4l0.4,0.1
		c0.6,0.1,1.2,0.2,1.8,0.3h0.3c0.5,0.1,1,0.1,1.6,0.2h0.5c0.6,0,1.3,0.1,1.9,0.1c9.7,0,18.7-4.8,24.2-12.7H34.3
		c0.1,0.1,0.2,0.2,0.2,0.3l0.2,0.2c0.9,1.1,1.8,2.1,2.8,3.1l0.2,0.2c0.5,0.4,0.9,0.9,1.4,1.3l0.1,0.1c0.5,0.4,1.1,0.9,1.6,1.3
		l0.2,0.1c0.5,0.4,1,0.7,1.5,1l0.3,0.2c1.1,0.7,2.3,1.4,3.5,1.9l0.4,0.2c0.5,0.2,1.1,0.5,1.7,0.7l0.2,0.1c0.6,0.2,1.2,0.4,1.9,0.6
		l0.4,0.1c0.5,0.1,1.1,0.3,1.6,0.4l0.5,0.1c0.7,0.1,1.3,0.3,2,0.4l0.4,0.1c0.6,0.1,1.1,0.1,1.7,0.2c0.2,0,0.4,0,0.6,0
		c0.8,0.1,1.5,0.1,2.1,0.1c10.1,0,19.5-4.7,25.5-12.7h11.1c13,0.5,16.1-1.9,17.2-3.3c1.2-1.3,2.3-3.6,2.1-7.9v-3.9
		c0-2.7-1.5-5.6-4.4-7L101,23.7c-0.1-0.1-0.1-0.3-0.2-0.4c-0.3-0.6-1.7-3-5.2-5.1l1.6-7l17.1,1.3c0.1,0,0.1,0,0.2,0
		c5.1,0.2,8.6-2,9.3-5.6c0.1-0.5,0.2-1.1,0.3-3.1c0-0.5,0-1.1-0.2-1.6c-0.8-3-3.4-4.5-5.9-4.5h-0.1c-0.1,0-0.3,0-0.4-0.1
		c0.2-3,0.3-6.5,0.4-8.7l4.5-2.4c1.5-0.8,2.4-2.3,2.5-4c0.1-1.8,0.1-3.3,0.1-4.4v-1.7c0.3-3.3-1-6-3.5-7.1
		c-2.3-1.1-2.4-1.1-27.3,8.6c-11.4,4.4-22.8,9-22.9,9.1c0,0-0.1,0-0.1,0.1c0,0-1.6,0.7-3.5,0.8s-9-0.2-13.1-0.4
		c-4.5-0.5-6.8,1.8-7.4,4.1c-0.1,0.5-0.2,1.1-0.4,2.7c-0.2,2.7-0.4,7-0.4,7.2c0,0,0,0,0,0.1l-2.7-0.9C43.1,0.5,36.5-2,31.6-5.7
		C16.5-17.3,3.1-19.8-5.4-19.8c-1.9,0-3.7,0.1-5.6,0.3c-2.4,0.3-4.2,2.3-4.2,4.7V8.4c-0.1,1.7-1.5,1.9-2.3,2
		c-2.6,0-29.3,0.3-46.3,4.3c-0.2-1.8-0.7-3.6-2.4-5c-2.4-2.1-5.5-1.7-7.6-1.3c-0.2,0-0.5,0.1-0.8,0.2l0,0c-0.3,0.1-0.6,0.2-0.9,0.3
		h-0.1c-0.3,0.1-0.6,0.2-0.9,0.3h-0.1c-0.3,0.1-0.6,0.3-0.9,0.4c0,0-0.1,0-0.1,0.1c-0.3,0.1-0.5,0.3-0.8,0.4l-0.2,0.1
		c-0.3,0.1-0.5,0.3-0.8,0.5l-0.2,0.1c-0.2,0.2-0.5,0.3-0.7,0.5l-0.3,0.2c-0.2,0.2-0.4,0.3-0.6,0.5l-0.3,0.2
		c-0.2,0.2-0.4,0.3-0.6,0.5c-0.1,0.1-0.2,0.2-0.3,0.3c-0.2,0.2-0.3,0.3-0.5,0.5c-0.1,0.1-0.2,0.2-0.3,0.3l-0.1,0.1
		c-0.1,0.2-0.3,0.3-0.4,0.5l0,0c-6.2,1.4-25.5,7-44.1,22.4c-0.1,0-0.1,0.1-0.2,0.1c-0.2,0.2-0.3,0.3-0.5,0.5l-0.2,0.2
		c-0.5,0.4-1,0.9-1.5,1.3c-0.3,0.3-0.6,0.5-0.9,0.8l-0.6,0.6c-0.1,0.1-0.2,0.2-0.3,0.3c-0.9,0.8-1.8,1.7-2.6,2.6
		c-0.1,0.1-0.1,0.1-0.2,0.2l-0.3,0.3c-0.3,0.3-0.5,0.5-0.8,0.8l-0.2,0.2c-0.1,0.1-0.3,0.3-0.4,0.4c-0.1,0.1-0.1,0.2-0.2,0.3
		c-1.2,1.3-2.2,2.5-3.2,3.7c-1.4,1.2-2.7,2.4-3.9,3.6c-0.1,0.1-0.1,0.1-0.2,0.2c-1,1.1-5.7,6.6-3.3,12.3
		C-144.5,70.1-138.9,70.9-135.7,70.6z"/>
	<path class="st17" d="M69.6,8.7L69.6,8.7L69.6,8.7L69.6,8.7z M-136.1,70.1h20.3c0.3,0.5,0.7,0.9,1,1.4l0.1,0.1c0.8,1,1.7,2,2.6,2.9
		l0.1,0.1c0.4,0.4,0.9,0.8,1.3,1.2l0.1,0.1c0.5,0.4,1,0.8,1.5,1.2c0,0,0.1,0,0.1,0.1c0.5,0.3,1,0.7,1.5,1l0.1,0.1l0.2,0.1
		c1,0.7,2.2,1.3,3.3,1.8l0.4,0.2c0.5,0.2,1,0.4,1.5,0.6l0.2,0.1c0.6,0.2,1.2,0.4,1.7,0.6l0.4,0.1c0.5,0.1,1,0.3,1.5,0.4l0.4,0.1
		c0.6,0.1,1.2,0.2,1.8,0.3h0.3c0.5,0.1,1,0.1,1.6,0.2h0.5c0.6,0,1.3,0.1,1.9,0.1c9.7,0,18.7-4.8,24.2-12.7H33.9
		c0.1,0.1,0.2,0.2,0.2,0.3l0.2,0.2c0.9,1.1,1.8,2.1,2.8,3.1l0.2,0.2c0.5,0.4,0.9,0.9,1.4,1.3l0.1,0.1c0.5,0.4,1.1,0.9,1.6,1.3
		l0.2,0.1c0.5,0.4,1,0.7,1.5,1l0.3,0.2c1.1,0.7,2.3,1.4,3.5,1.9l0.4,0.2c0.5,0.2,1.1,0.5,1.7,0.7l0.2,0.1c0.6,0.2,1.2,0.4,1.9,0.6
		l0.4,0.1c0.5,0.1,1.1,0.3,1.6,0.4l0.5,0.1c0.7,0.1,1.3,0.3,2,0.4l0.4,0.1c0.6,0.1,1.1,0.1,1.7,0.2c0.2,0,0.4,0,0.6,0
		c0.8,0.1,1.5,0.1,2.1,0.1c10.1,0,19.5-4.7,25.5-12.7H96c13,0.5,16.1-1.9,17.2-3.3c1.2-1.3,2.3-3.6,2.1-7.9v-3.9
		c0-2.7-1.5-5.6-4.4-7l-10.1-24.9c-0.1-0.1-0.1-0.3-0.2-0.4c-0.3-0.6-1.7-3-5.2-5.1l1.6-7l17.1,1.3c0.1,0,0.1,0,0.2,0
		c5.1,0.2,8.6-2,9.3-5.6c0.1-0.5,0.2-1.1,0.3-3.1c0-0.5,0-1.1-0.2-1.6c-0.8-3-3.4-4.5-5.9-4.5h-0.1c-0.1,0-0.3,0-0.4-0.1
		c0.2-3,0.3-6.5,0.4-8.7l4.5-2.4c1.5-0.8,2.4-2.3,2.5-4c0.1-1.8,0.1-3.3,0.1-4.4v-1.7c0.3-3.3-1-6-3.5-7.1
		c-2.3-1.1-2.4-1.1-27.3,8.6c-11.4,4.4-22.8,9-22.9,9.1c0,0-0.1,0-0.1,0.1c0,0-1.6,0.7-3.5,0.8s-9-0.2-13.1-0.4
		c-4.5-0.5-6.8,1.8-7.4,4.1c-0.1,0.5-0.2,1.1-0.4,2.7c-0.2,2.7-0.4,7-0.4,7.2c0,0,0,0,0,0.1l-2.7-0.9C42.9,0,36.3-2.5,31.4-6.2
		C16.2-17.6,2.8-20.1-5.7-20.1c-1.9,0-3.7,0.1-5.6,0.3c-2.4,0.3-4.2,2.3-4.2,4.7V8.1c-0.1,1.7-1.5,1.9-2.3,2
		c-2.6,0-29.3,0.3-46.3,4.3c-0.2-1.8-0.7-3.6-2.4-5c-2.4-2.1-5.5-1.7-7.6-1.3c-0.2,0-0.5,0.1-0.8,0.2l0,0c-0.3,0.1-0.6,0.2-0.9,0.3
		h-0.1c-0.3,0.1-0.6,0.2-0.9,0.3h-0.1c-0.3,0.1-0.6,0.3-0.9,0.4c0,0-0.1,0-0.1,0.1c-0.3,0.1-0.5,0.3-0.8,0.4l-0.2,0.1
		c-0.3,0.1-0.5,0.3-0.8,0.5l-0.2,0.1c-0.2,0.2-0.5,0.3-0.7,0.5l-0.3,0.2c-0.2,0.2-0.4,0.3-0.6,0.5l-0.3,0.2
		c-0.2,0.2-0.4,0.3-0.6,0.5c-0.1,0.1-0.2,0.2-0.3,0.3c-0.2,0.2-0.3,0.3-0.5,0.5c-0.1,0.1-0.2,0.2-0.3,0.3l-0.1,0.1
		c-0.1,0.2-0.3,0.3-0.4,0.5l0,0c-6.2,1.4-25.7,6.7-44.1,22.4c-0.1,0-0.1,0.1-0.2,0.1c-0.2,0.1-0.3,0.3-0.5,0.5l-0.2,0.2
		c-0.5,0.4-1,0.9-1.5,1.3c-0.3,0.3-0.6,0.5-0.9,0.8L-132,40c-0.1,0.1-0.2,0.2-0.3,0.3c-0.9,0.8-1.8,1.7-2.6,2.6
		c-0.1,0.1-0.1,0.1-0.2,0.2l-0.3,0.3c-0.3,0.3-0.5,0.5-0.8,0.8l-0.2,0.2c-0.1,0.1-0.3,0.3-0.4,0.4c-0.1,0.1-0.1,0.2-0.2,0.3
		c-1.2,1.3-2.2,2.5-3.2,3.7c-1.4,1.2-2.7,2.4-3.9,3.6c-0.1,0.1-0.1,0.1-0.2,0.2c-1,1.1-5.7,6.6-3.3,12.3
		C-144.9,69.7-139.3,70.5-136.1,70.1z"/>
</g>
<path class="st18" d="M-136.1,70.1h20.3c0.3,0.5,0.7,0.9,1,1.4l0.1,0.1c0.8,1,1.7,2,2.6,2.9l0.1,0.1c0.4,0.4,0.9,0.8,1.3,1.2
	l0.1,0.1c0.5,0.4,1,0.8,1.5,1.2c0,0,0.1,0,0.1,0.1c0.5,0.3,1,0.7,1.5,1l0.1,0.1l0.2,0.1c1,0.7,2.2,1.3,3.3,1.8l0.4,0.2
	c0.5,0.2,1,0.4,1.5,0.6l0.2,0.1c0.6,0.2,1.2,0.4,1.7,0.6l0.4,0.1c0.5,0.1,1,0.3,1.5,0.4l0.4,0.1c0.6,0.1,1.2,0.2,1.8,0.3h0.3
	c0.5,0.1,1,0.1,1.6,0.2h0.5c0.6,0,1.3,0.1,1.9,0.1c9.7,0,18.7-4.8,24.2-12.7H33.9c0.1,0.1,0.2,0.2,0.2,0.3l0.2,0.2
	c0.9,1.1,1.8,2.1,2.8,3.1l0.2,0.2c0.5,0.4,0.9,0.9,1.4,1.3l0.1,0.1c0.5,0.4,1.1,0.9,1.6,1.3l0.2,0.1c0.5,0.4,1,0.7,1.5,1l0.3,0.2
	c1.1,0.7,2.3,1.4,3.5,1.9l0.4,0.2c0.5,0.2,1.1,0.5,1.7,0.7l0.2,0.1c0.6,0.2,1.2,0.4,1.9,0.6l0.4,0.1c0.5,0.1,1.1,0.3,1.6,0.4
	l0.5,0.1c0.7,0.1,1.3,0.3,2,0.4l0.4,0.1c0.6,0.1,1.1,0.1,1.7,0.2c0.2,0,0.4,0,0.6,0c0.8,0.1,1.5,0.1,2.1,0.1
	c10.1,0,19.5-4.7,25.5-12.7H96c13,0.5,16.1-1.9,17.2-3.3c1.2-1.3,2.3-3.6,2.1-7.9v-3.9c0-2.7-1.5-5.6-4.4-7l-10.1-24.9
	c-0.1-0.1-0.1-0.3-0.2-0.4c-0.3-0.6-1.7-3-5.2-5.1l1.6-7l17.1,1.3c0.1,0,0.1,0,0.2,0c5.1,0.2,8.6-2,9.3-5.6c0.1-0.5,0.2-1.1,0.3-3.1
	c0-0.5,0-1.1-0.2-1.6c-0.8-3-3.4-4.5-5.9-4.5h-0.1c-0.1,0-0.3,0-0.4-0.1c0.2-3,0.3-6.5,0.4-8.7l4.5-2.4c1.5-0.8,2.4-2.3,2.5-4
	c0.1-1.8,0.1-3.3,0.1-4.4v-1.7c0.3-3.3-1-6-3.5-7.1c-2.3-1.1-2.4-1.1-27.3,8.6c-11.4,4.4-22.8,9-22.9,9.1c0,0-0.1,0-0.1,0.1
	c0,0-1.6,0.7-3.5,0.8s-9-0.2-13.1-0.4c-4.5-0.5-6.8,1.8-7.4,4.1c-0.1,0.5-0.2,1.1-0.4,2.7c-0.2,2.7-0.4,7-0.4,7.2c0,0,0,0,0,0.1
	l-2.7-0.9C42.9,0,36.3-2.5,31.4-6.2C16.2-17.6,2.8-20.1-5.7-20.1c-1.9,0-3.7,0.1-5.6,0.3c-2.4,0.3-4.2,2.3-4.2,4.7V8.1
	c-0.1,1.7-1.5,1.9-2.3,2c-2.6,0-29.3,0.3-46.3,4.3c-0.2-1.8-0.7-3.6-2.4-5c-2.4-2.1-5.5-1.7-7.6-1.3c-0.2,0-0.5,0.1-0.8,0.2l0,0
	c-0.3,0.1-0.6,0.2-0.9,0.3h-0.1c-0.3,0.1-0.6,0.2-0.9,0.3h-0.1c-0.3,0.1-0.6,0.3-0.9,0.4c0,0-0.1,0-0.1,0.1
	c-0.3,0.1-0.5,0.3-0.8,0.4l-0.2,0.1c-0.3,0.1-0.5,0.3-0.8,0.5l-0.2,0.1c-0.2,0.2-0.5,0.3-0.7,0.5l-0.3,0.2c-0.2,0.2-0.4,0.3-0.6,0.5
	l-0.3,0.2c-0.2,0.2-0.4,0.3-0.6,0.5c-0.1,0.1-0.2,0.2-0.3,0.3c-0.2,0.2-0.3,0.3-0.5,0.5c-0.1,0.1-0.2,0.2-0.3,0.3l-0.1,0.1
	c-0.1,0.2-0.3,0.3-0.4,0.5l0,0c-6.2,1.4-25.7,6.7-44.1,22.4c-0.1,0-0.1,0.1-0.2,0.1c-0.2,0.1-0.3,0.3-0.5,0.5l-0.2,0.2
	c-0.5,0.4-1,0.9-1.5,1.3c-0.3,0.3-0.6,0.5-0.9,0.8L-132,40c-0.1,0.1-0.2,0.2-0.3,0.3c-0.9,0.8-1.8,1.7-2.6,2.6
	c-0.1,0.1-0.1,0.1-0.2,0.2l-0.3,0.3c-0.3,0.3-0.5,0.5-0.8,0.8l-0.2,0.2c-0.1,0.1-0.3,0.3-0.4,0.4c-0.1,0.1-0.1,0.2-0.2,0.3
	c-1.2,1.3-2.2,2.5-3.2,3.7c-1.4,1.2-2.7,2.4-3.9,3.6c-0.1,0.1-0.1,0.1-0.2,0.2c-1,1.1-5.7,6.6-3.3,12.3
	C-144.9,69.7-139.3,70.5-136.1,70.1z M69.6,8.7L69.6,8.7L69.6,8.7L69.6,8.7z"/>
<polygon class="st19" points="73.7,2.2 76,27.2 87.8,30 93.8,3.3 "/>
<polygon class="st20" points="75.5,2.2 77.4,22.8 87.1,25.2 92,3.1 "/>
<path class="st21" d="M74.5,10.3c4.9,2.7,9.8,5.3,14.3,8.9c0.4,0.3,0.8,0.7,1.3,1.1l3.8-17l-1.8-0.1V3.1L75.5,2.2v0.1l-1.8-0.1
	L74.5,10.3z"/>
<g class="st0">
	<path class="st22" d="M79.5-7.2c6.5-3.2,36.8-14.2,36.8-14.2s1.7-0.8,3.7-1c0-1.2,0.1-1.9,0.1-1.9s0.2-2.1-0.7-2.5
		C118.4-27.2,73-9.1,73-9.1s-2.3,1-5.2,1.2C64.9-7.8,54-8.3,54-8.3s-2.2-0.3-2.4,0.6c-0.1,0.2-0.1,0.9-0.2,1.8l17.8,0.8
		C69.1-5.1,73-4,79.5-7.2z"/>
	<g class="st23">
		<path class="st24" d="M79.8-9c-6.6,3.3-10.6,2.1-10.6,2.1L51.5-7.7c-0.1,0.3-0.1,0.9-0.2,1.7l17.8,0.8c0,0,3.9,1.1,10.4-2.1
			s36.8-14.2,36.8-14.2s1.7-0.8,3.7-1c0-1,0-1.6,0-1.8c-1.7,0.3-3,0.9-3,0.9S86.4-12.2,79.8-9z"/>
	</g>
	<path class="st25" d="M117.6,2.1c0,0-2.6-0.3-4.2-0.6c-1.5-0.2-1-2-1-2s0.6-11.2,0.5-12.5s1-1.8,1-1.8l5.9-3.2
		c0.1-1.8,0.1-3.3,0.1-4.4c-2,0.2-3.7,1-3.7,1S86-10.4,79.4-7.2C72.9-4,69-5.1,69-5.1L51.2-5.9c-0.2,2.6-0.4,7-0.4,7S51,2.4,52,2.6
		l62.4,4.7c0,0,4.1,0.1,4.5-1.8c0.1-0.3,0.1-1.2,0.2-2.5l0,0C118.9,1.9,117.6,2.1,117.6,2.1z"/>
</g>
<path class="st19" d="M110.7,55.1c0,0,0-2.9-3.2-3h-243.9c-1.3,1.1-2.7,2.3-3.9,3.6c0,0-3.7,4.1-2.4,7.2c1.4,3.2,6.4,2.5,6.4,2.5
	H96.2c0,0,12.1,0.5,13.6-1.7c0,0,1.1-0.6,0.9-4.6V55.1z"/>
<g class="st0">
	<path class="st26" d="M-77.7,27.7c0,0,1.6,0.2,5.3-0.6c3.7-0.8,30.4-5.3,46.9-5.2C-9,22.1-6,18-5.7,10.5c0.3-6.1-0.1-19-0.2-26
		c-1.6,0-3.3,0.1-5,0.3V8.1c0,0,0,6.2-6.8,6.7c0,0-32.5,0.2-49,5.1c0,0-2.4,0.5-2.2-2.9c0.1-3.3,0.1-5.3-4.3-4.4
		c-4.5,0.9-7.7,5.8-7.7,5.8S-84.9,27.4-77.7,27.7z"/>
	<path class="st25" d="M107.6,52L96.4,25c0,0-1.3-2.5-5.2-4.1L41.9,4.6c0,0-7.6-2.7-13.4-7c-5.2-3.9-18.2-12.9-34.3-13
		c0.1,7,0.5,19.9,0.2,26C-6,18-8.9,22.1-25.4,22c-16.5-0.2-43.2,4.4-46.9,5.2c-3.7,0.8-5.3,0.6-5.3,0.6c-7.2-0.3-3.2-9.2-3.2-9.2
		s-32.3,5.4-55.5,33.6h243.9C107.6,52.2,107.6,52,107.6,52z"/>
</g>
<g class="st0">
	<path class="st26" d="M-77.7,27.7c0,0,1.6,0.2,5.3-0.6c3.7-0.8,30.4-5.3,46.9-5.2C-9,22.1-6,18-5.7,10.5c0.3-6.1-0.1-19-0.2-26
		c-1.6,0-3.3,0.1-5,0.3V8.1c0,0,0,6.2-6.8,6.7c0,0-32.5,0.2-49,5.1c0,0-2.4,0.5-2.2-2.9c0.1-3.3,0.1-5.3-4.3-4.4
		c-4.5,0.9-7.7,5.8-7.7,5.8S-84.9,27.4-77.7,27.7z"/>
	<path class="st25" d="M107.6,52L96.4,25c0,0-1.3-2.5-5.2-4.1L41.9,4.6c0,0-7.6-2.7-13.4-7c-5.2-3.9-18.2-12.9-34.3-13
		c0.1,7,0.5,19.9,0.2,26C-6,18-8.9,22.1-25.4,22c-16.5-0.2-43.2,4.4-46.9,5.2c-3.7,0.8-5.3,0.6-5.3,0.6c-7.2-0.3-3.2-9.2-3.2-9.2
		s-32.3,5.4-55.5,33.6h243.9C107.6,52.2,107.6,52,107.6,52z"/>
</g>
<path class="st19" d="M-77.7,27.7c0,0,1.6,0.2,5.3-0.6c3.7-0.8,30.4-5.3,46.9-5.2C-9,22.1-6,18-5.7,10.5c0.3-6.1-0.1-19-0.2-26
	c-1.6,0-3.3,0.1-5,0.3V8.1c0,0,0,6.2-6.8,6.7c0,0-32.5,0.2-49,5.1c0,0-2.4,0.5-2.2-2.9c0.1-3.3,0.1-5.3-4.3-4.4
	c-3.7,0.8-7.9,4.2-8.7,9c-0.2,1.1-0.1,3.2,0.5,4.2C-80.6,27-78.9,27.5-77.7,27.7z"/>
<path class="st27" d="M-71,53.8l106.6-0.3c0,0,0.2,6.9,6.7,10H-75.6C-75.6,63.6-71.4,62-71,53.8z"/>
<path class="st27" d="M-117.1,53.5c0,0-1.1,7.2,5.1,11h-6.3c0,0-0.7-3.6-5.3-4l-13,0.5c0,0-4.2,0.1-3.6-1.3c0.7-1.4,3.4-6,5.9-6.5
	L-117.1,53.5z"/>
<path class="st27" d="M52.6-3.2c0,0-1.1,4.2,0.5,4.5L110,5.1c0,0,4,0.7,4.8-0.3s0.5-1.4,0.5-1.4l-5.5-0.2c0,0-1.5,1.1-1.5-2.7
	s0.6-13.1,0.6-13.1s0.4-2,1.8-3.3c1.5-1.3,6.5-4,6.5-4l-40.5,17c0,0-2.7,1.1-6.3,1.1C66.9-1.9,52.6-3.2,52.6-3.2z"/>
<g class="st0">
	<path class="st28" d="M-5.8-15.5c-1.6,0-3.3,0.1-5,0.3v3.4c3.2,0.5,3.3,16.5,2.4,23.6c-0.9,7.3-10.6,6.8-16.8,7s-35.4,3.3-40.6,4.2
		c-5.1,0.9-11,2.8-12.7-1.9c-1.3-3.8,3-7.1,4.8-8.4c-3.6,0.9-7.5,4.2-8.3,8.8c-0.2,1.1-0.1,3.2,0.5,4.2c0.8,1.2,2.5,1.8,3.8,1.9
		c0,0,1.6,0.2,5.3-0.6c3.7-0.8,30.4-5.3,46.9-5.2C-9,22-6,17.9-5.7,10.4C-5.3,4.4-5.7-8.5-5.8-15.5z"/>
</g>
<path class="st29" d="M-70,18.2c0,0,1.2-4.3-1.4-4c-2.5,0.3-5.6,4.3-4,7C-73.8,23.8-71,21.4-70,18.2z"/>
<path class="st29" d="M-10,7.5c0,0-0.4,6.2-4.1,7.2c0,0-0.8,0.3-0.6,0.6s2.4,0.5,3.8-1.6C-9.5,11.5-9.6,6.5-10,7.5z"/>
<path class="st27" d="M30.1,54.7l-96.2,0.2c0,0-1.1,0.3-0.4,1c0.7,0.6,94.3-0.4,94.3-0.4S31,55.8,30.1,54.7z"/>
<path class="st27" d="M88.3,53.6h15c0,0,4.7-0.3,5.4,1.7l-0.1,5.6c0,0-0.3,2.2-3.1,2.7c-2.8,0.5-20.1,0.3-20.1,0.3
	S88.3,61.1,88.3,53.6z"/>
<path class="st27" d="M106.6-10.8l-0.6,11c0,0-0.1,1.2-1.2,1.5s-26-1.8-26-1.8s-2.1-1,1.7-2.5s20.7-8.1,20.7-8.1
	S106.9-13.4,106.6-10.8z"/>
<g class="st0">
	<path class="st1" d="M-132.9,48h238.8l-0.7-1.6h-236.5C-131.8,46.9-132.3,47.4-132.9,48z"/>
	<path class="st1" d="M102.7,40.2h-227.5c-1.2,1-2.4,2.1-3.6,3.3H104L102.7,40.2z"/>
</g>
<g class="st0">
	<ellipse class="st30" cx="59.5" cy="50.8" rx="27.3" ry="27.3"/>
	<path class="st31" d="M81,50.9c0,11.8-9.6,21.3-21.3,21.3c-11.8,0-21.3-9.6-21.3-21.3c0-11.8,9.6-21.3,21.3-21.3
		C71.4,29.6,81,39.1,81,50.9z"/>
	<path class="st32" d="M70.1,58.2c-7,0.4-14.5,0.3-21.2-1.9c-3.5-1.1-6.9-2.6-9.4-5.4c-0.4-0.5-0.8-0.9-1.2-1.4c0,0.5,0,0.9,0,1.4
		c0,11.8,9.6,21.3,21.3,21.3c9.7,0,17.9-6.5,20.5-15.4C76.8,57.6,73.4,58,70.1,58.2z"/>
	<g class="st33">
		<path class="st34" d="M60.2,23.5c0.5,0.1,0.9,0.2,1.4,0.3c31.4,5.7,26.5,44.4,5.5,49.7C49.3,78,38,66.4,35,62.8
			c4.5,9,13.7,15.2,24.5,15.2c15.1,0,27.3-12.2,27.3-27.3C86.8,36,75,23.9,60.2,23.5z"/>
	</g>
	<path class="st35" d="M61.2,24.9c-2-0.1-4.1,0.1-6,0.5c-1.6,0.3-3.2,0.8-4.7,1.4c-4.7,1.8-8.7,4.6-11.9,8.5c-2.1,2.6-3.8,6-4.4,9.3
		c0,0-2.2,11.2,3,19.3c0,0,0.7,1.2,0.9-0.2s-8.5-23,10.8-33s31.5,7,32.3,14.2c0,0,0.2,1.8,0.9,1c0.3-0.3-0.1-1.9-0.2-2.2
		c-0.3-1.7-0.9-3.4-1.6-5c-2.1-4.4-5.4-8.8-9.8-11.2C67.6,25.8,64.4,25,61.2,24.9z"/>
	<path class="st36" d="M76.5,50.6c0,9.4-7.6,17-16.9,17c-9.4,0-16.9-7.6-16.9-17s7.6-17,16.9-17S76.5,41.2,76.5,50.6z"/>
	<circle class="st37" cx="59.5" cy="50.8" r="16"/>
	<path class="st38" d="M72.8,51c0,7.4-6,13.3-13.3,13.3c-7.4,0-13.3-6-13.3-13.3c0-7.4,6-13.3,13.3-13.3
		C66.9,37.7,72.8,43.6,72.8,51z"/>
	<path class="st39" d="M64.2,50.9c0,2.8-2.2,5-5,5s-5-2.2-5-5s2.2-5,5-5C62,45.8,64.2,48.1,64.2,50.9z"/>
	<path class="st40" d="M59.5,46.6c0,0-4.9,0.7-4,5.1C56.4,56.2,63.3,45.3,59.5,46.6z"/>
	<g class="st23">
		<g>
			<path class="st41" d="M47,50.5h6.6c0.1-1.5,0.7-2.6,1.3-3.4l-4.6-4.6C47.1,46,47,50.5,47,50.5z"/>
			<path class="st41" d="M58.8,45v-6.5c-3.6,0.3-6.1,1.6-7.9,3.3l0,0l4.3,4.8C56.8,45.2,58.8,45,58.8,45z"/>
		</g>
		<g>
			<path class="st41" d="M71.9,50.5h-6.6c-0.1-1.5-0.7-2.6-1.3-3.4l4.6-4.6C71.8,46,71.9,50.5,71.9,50.5z"/>
			<path class="st41" d="M60.1,45v-6.5c3.6,0.3,6.1,1.6,7.9,3.3l0,0l-4.3,4.8C62.1,45.2,60.1,45,60.1,45z"/>
		</g>
		<g>
			<path class="st41" d="M47,51.4h6.6c0.1,1.5,0.7,2.6,1.3,3.4l-4.6,4.6C47.1,55.9,47,51.4,47,51.4z"/>
			<path class="st41" d="M58.8,56.8v6.5c-3.6-0.3-6.1-1.6-7.9-3.3l0,0l4.3-4.8C56.8,56.7,58.8,56.8,58.8,56.8z"/>
		</g>
		<g>
			<path class="st41" d="M71.9,51.4h-6.6c-0.1,1.5-0.7,2.6-1.3,3.4l4.6,4.6C71.8,55.9,71.9,51.4,71.9,51.4z"/>
			<path class="st41" d="M60.1,56.8v6.5c3.6-0.3,6.1-1.6,7.9-3.3l0,0l-4.3-4.8C62.1,56.7,60.1,56.8,60.1,56.8z"/>
		</g>
	</g>
</g>
<g class="st0">
	<path class="st42" d="M-66.9,53.4c0,13.6-11.1,24.7-24.7,24.7s-24.7-11.1-24.7-24.7s11.1-24.7,24.7-24.7
		C-78,28.7-66.9,39.8-66.9,53.4z"/>
	<path class="st31" d="M-72.2,53.5c0,10.7-8.6,19.3-19.3,19.3s-19.3-8.6-19.3-19.3s8.6-19.3,19.3-19.3S-72.2,42.8-72.2,53.5z"/>
	<path class="st32" d="M-82.3,57c-9.4,1.6-23.1,1.4-28.1-7.5c-0.3,1.3-0.4,2.6-0.4,3.9c0,10.7,8.6,19.3,19.3,19.3
		c10.5,0,19.1-8.5,19.3-19C-75.4,55.4-78.8,56.4-82.3,57z"/>
	<g class="st33">
		<path class="st34" d="M-91,28.7c0.4,0.1,0.9,0.2,1.3,0.2c28.4,5.2,24,40.2,5,45c-16.1,4.1-26.3-6.4-29.1-9.6
			c4,8.1,12.4,13.8,22.1,13.8C-78.1,78.1-67,67-67,53.4C-66.9,40-77.6,29.1-91,28.7z"/>
	</g>
	<path class="st35" d="M-90.1,29.9c-1.8-0.1-3.7,0.1-5.4,0.4c-1.5,0.3-2.9,0.7-4.3,1.2c-4.2,1.6-7.9,4.1-10.7,7.7
		c-1.9,2.4-3.4,5.4-4,8.4c0,0-2,10.1,2.7,17.5c0,0,0.7,1.1,0.9-0.2c0.2-1.3-7.7-20.8,9.8-29.9c17.5-9,28.5,6.4,29.3,12.9
		c0,0,0.2,1.6,0.8,0.9c0.3-0.3-0.1-1.7-0.2-2c-0.3-1.6-0.8-3.1-1.5-4.5c-1.9-4-4.9-8-8.9-10.1C-84.3,30.8-87.1,30.1-90.1,29.9z"/>
	<path class="st36" d="M-76.3,53.2c0,8.5-6.9,15.4-15.3,15.4c-8.5,0-15.3-6.9-15.3-15.4s6.9-15.4,15.3-15.4
		C-83.1,37.8-76.3,44.7-76.3,53.2z"/>
	<path class="st37" d="M-77.1,53.4c0,8-6.5,14.5-14.5,14.5s-14.5-6.5-14.5-14.5s6.5-14.5,14.5-14.5S-77.1,45.4-77.1,53.4z"/>
	<path class="st38" d="M-79.6,53.6c0,6.7-5.4,12.1-12.1,12.1s-12.1-5.4-12.1-12.1s5.4-12.1,12.1-12.1S-79.6,46.9-79.6,53.6z"/>
	<path class="st39" d="M-87.4,53.4c0,2.5-2,4.5-4.5,4.5s-4.5-2-4.5-4.5s2-4.5,4.5-4.5S-87.4,50.9-87.4,53.4z"/>
	<path class="st40" d="M-91.7,49.6c0,0-4.4,0.6-3.6,4.6C-94.4,58.3-88.2,48.4-91.7,49.6z"/>
	<g class="st23">
		<g>
			<path class="st41" d="M-102.9,53.1h6c0.1-1.4,0.6-2.4,1.2-3.1l-4.2-4.2C-102.8,49-102.9,53.1-102.9,53.1z"/>
			<path class="st41" d="M-92.2,48.2v-5.9c-3.3,0.3-5.5,1.5-7.1,3l0,0l3.9,4.3C-94,48.3-92.2,48.2-92.2,48.2z"/>
		</g>
		<g>
			<path class="st41" d="M-80.4,53.1h-6c-0.1-1.4-0.6-2.4-1.2-3.1l4.2-4.2C-80.5,49-80.4,53.1-80.4,53.1z"/>
			<path class="st41" d="M-91.1,48.2v-5.9c3.3,0.3,5.5,1.5,7.1,3l0,0l-3.9,4.3C-89.3,48.3-91.1,48.2-91.1,48.2z"/>
		</g>
		<g>
			<path class="st41" d="M-102.9,53.9h6c0.1,1.4,0.6,2.4,1.2,3.1l-4.2,4.2C-102.8,58-102.9,53.9-102.9,53.9z"/>
			<path class="st41" d="M-92.2,58.8v5.9c-3.3-0.3-5.5-1.5-7.1-3l0,0l3.9-4.3C-94,58.7-92.2,58.8-92.2,58.8z"/>
		</g>
		<g>
			<path class="st41" d="M-80.4,53.9h-6c-0.1,1.4-0.6,2.4-1.2,3.1l4.2,4.2C-80.5,58-80.4,53.9-80.4,53.9z"/>
			<path class="st41" d="M-91.1,58.8v5.9c3.3-0.3,5.5-1.5,7.1-3l0,0l-3.9-4.3C-89.3,58.7-91.1,58.8-91.1,58.8z"/>
		</g>
	</g>
</g>
<path class="st27" d="M-2.8-12.5l-0.4,24.4c0,0,0,9.6-9.4,11.1c0,0-38.4,1-57.5,7c0,0-1.6,0.8-0.6,2.5c1,1.6,2.3,5.7,2.3,5.7H32.1
	c0,0,5.5-14.6,22.6-16.2c17-1.6,26.5,6.6,29.1,12.5c0,0,0.4,2.7,3.7,3.7s9.2,0,9-3.9s-2.1-10.9-15.2-13.1
	c-13.1-2.3-32.2-7.6-48-15.8C17.6-2.9,14.3-12.5-2.8-12.5z"/>
<path class="st27" d="M-82.8,20.8c0,0-2,3.8-0.1,7.7c0,0-8.2-3.8-20.8,1.8c0,0-4.4,3.1-4.4,1C-108.1,29-92.1,21.7-82.8,20.8z"/>
<polygon class="st43" points="17.7,0 23.2,11.1 35.4,12.8 26.5,21.5 28.6,33.7 17.7,27.9 6.7,33.7 8.8,21.5 0,12.8 12.2,11.1 "/>
<polygon class="st44" points="17.7,1.5 22.7,11.7 34,13.4 25.9,21.3 27.8,32.6 17.7,27.3 7.6,32.6 9.5,21.3 1.3,13.4 12.6,11.7 "/>
<path class="st27" d="M-1-10.8v25.4c0,0-0.3,6-5.6,7.4s15,2.5,23.8-7C25.9,5.6,14.8-8.4-1-10.8z"/>
<path class="st27" d="M90.2,26.1c0,0-3.4-2.6-8.5-2.7s-3.3,2.2,0.3,4.9s5.6,5.2,6.2,7c0.5,1.8,6.2,2.2,6.7-1.4
	C95.4,30.4,91.8,27.2,90.2,26.1z"/>
</svg>
